<svg width="79" height="61" viewBox="0 0 79 61" fill="none" xmlns="http://www.w3.org/2000/svg">
<g clip-path="url(#clip0_63_562)">
<g clip-path="url(#clip1_63_562)">
<g clip-path="url(#clip2_63_562)">
<g opacity="0.85">
<path fill-rule="evenodd" clip-rule="evenodd" d="M6.19854 35.3508C6.61345 38.4521 9.47024 40.6315 12.5821 40.218C15.1293 39.8825 17.1325 37.8861 17.4658 35.3474C17.5304 34.8526 17.5304 34.3509 17.4658 33.8561C17.0509 30.7548 14.1941 28.5754 11.0823 28.9889C7.97039 29.4024 5.78363 32.2495 6.19854 35.3508ZM6.17814 25.2956V15.6787C6.17814 15.2687 5.84484 14.9331 5.42993 14.9331H5.40953H1.33862C0.933911 14.9331 0.607422 15.2584 0.607422 15.6618V34.6662C0.63803 41.0213 5.42993 46.0681 11.5074 46.1596H11.6026C17.8739 46.2241 23.0093 41.2111 23.0739 34.9611C23.1386 28.711 18.1086 23.593 11.8373 23.5286C9.82189 23.5794 7.86421 24.1921 6.17814 25.2956ZM74.9793 14.9331C73.1727 14.9369 71.7041 16.395 71.7007 18.2005C71.6973 19.7969 72.8536 21.1662 74.4316 21.4339C74.6153 21.4645 74.8023 21.4814 74.9928 21.4814C76.8054 21.478 78.2744 20.007 78.2676 18.2005C78.2646 16.6075 77.1117 15.2516 75.5369 14.9839C75.351 14.9502 75.1652 14.9333 74.9793 14.9331ZM74.9793 14.9331H74.9758H74.9802H74.9793ZM72.9999 45.5868H76.9823C77.4549 45.5868 77.8364 45.2038 77.8364 44.7326V24.8776C77.8364 24.4064 77.4519 24.0268 76.9823 24.0234H72.9999C72.5272 24.0234 72.1463 24.4064 72.1463 24.8776V44.7326C72.1463 45.2038 72.5272 45.5834 72.9999 45.5868ZM47.713 24.0066H52.0525C52.379 24.0133 52.6681 24.2167 52.7803 24.515L57.8817 37.9946C57.9191 38.0963 58.0008 38.1776 58.1028 38.2149C58.2967 38.2861 58.5109 38.1878 58.5823 37.9946L63.7007 24.4878C63.8027 24.1997 64.0782 24.0066 64.3843 24.0066H68.8633C68.9653 24.0066 69.0673 24.0269 69.1592 24.0675C69.5299 24.2302 69.6965 24.6606 69.5333 25.0301L61.0412 45.0716C60.912 45.3733 60.6092 45.5699 60.2794 45.5665H56.188C55.8582 45.5699 55.5589 45.3733 55.4262 45.0716L46.9818 25.0912C46.9444 24.9997 46.924 24.9013 46.924 24.803C46.9205 24.3658 47.2743 24.0099 47.713 24.0066ZM30.8382 32.602C30.6308 32.6055 30.4607 32.4428 30.4573 32.236C30.4573 32.2089 30.4607 32.1783 30.4641 32.1512C30.8382 30.1176 33.4025 28.3043 36.0926 28.3043C38.7827 28.3043 41.3505 30.121 41.7212 32.1512C41.7654 32.3512 41.6361 32.5512 41.4321 32.5918C41.4049 32.5986 41.3743 32.602 41.347 32.5986H30.8382V32.602ZM42.2211 39.7977C41.9354 39.5028 41.4729 39.469 41.1498 39.7164C39.7384 40.8112 38.0073 41.4212 36.2218 41.4552C33.5113 41.3772 31.1647 39.5571 30.4199 36.9574C30.3756 36.7574 30.5049 36.5575 30.7089 36.5168C30.7362 36.51 30.7668 36.5066 30.794 36.51H46.4077C46.8361 36.51 47.1898 36.1778 47.2137 35.7508C47.2442 35.3305 47.2612 35.0356 47.2612 34.8662C47.4926 28.7381 42.6938 23.5828 36.545 23.3524C36.3545 23.3456 36.164 23.3422 35.9702 23.3456C29.9948 23.3456 24.9444 28.528 24.9444 34.6526C24.856 40.9433 29.8894 46.1258 36.2048 46.2376C39.2113 46.2613 42.1123 45.1191 44.2922 43.055C44.6188 42.7533 44.6358 42.2415 44.3331 41.9195C44.3287 41.9129 44.3227 41.9077 44.3163 41.902C44.3143 41.9002 44.3123 41.8984 44.3102 41.8965C44.3087 41.8952 44.3073 41.8938 44.3059 41.8924L42.2211 39.7977Z" fill="#1B1B1B"/>
</g>
</g>
</g>
</g>
<defs>
<clipPath id="clip0_63_562">
<rect width="78.2622" height="60.208" fill="white" transform="translate(0.306641 0.481689)"/>
</clipPath>
<clipPath id="clip1_63_562">
<rect width="78.2622" height="60.208" fill="white" transform="translate(0.306641 0.481689)"/>
</clipPath>
<clipPath id="clip2_63_562">
<rect width="78.2622" height="60.2017" fill="white" transform="translate(0.306641 0.485107)"/>
</clipPath>
</defs>
</svg>
