<svg width="156" height="62" viewBox="0 0 156 62" fill="none" xmlns="http://www.w3.org/2000/svg">
<g clip-path="url(#clip0_63_685)">
<g clip-path="url(#clip1_63_685)">
<g clip-path="url(#clip2_63_685)">
<g opacity="0.85">
<path fill-rule="evenodd" clip-rule="evenodd" d="M20.2472 20.8467V42.6738H23.8839V20.8467H20.2472ZM15.854 29.9186C16.3911 29.0837 16.6673 28.1095 16.6479 27.1188C16.6479 23.8071 13.9204 21.7373 9.6776 21.7373H0.232422V42.6988H10.0186C14.7159 42.6988 17.8096 40.6917 17.8096 36.9284C17.8096 34.0558 16.0923 32.6508 13.63 31.8103C14.5431 31.4118 15.317 30.7535 15.854 29.9186ZM9.19783 24.9988C11.597 24.9988 12.8597 25.9898 12.8597 27.6958C12.8597 29.6276 11.3066 30.5559 8.91997 30.5559H3.86908V24.9988H9.19783ZM9.70288 33.6418C12.6198 33.6418 14.0341 34.683 14.0341 36.4769L14.1224 36.5145C14.1224 38.4087 12.544 39.4122 10.0059 39.4122H3.86908V33.6418H9.70288ZM36.8516 42.6738V40.7294C36.2243 41.4701 35.4356 42.0594 34.5453 42.4528C33.6549 42.8461 32.6862 43.0332 31.7123 42.9999C28.6944 42.9999 26.0552 41.2939 26.0552 38.1202C26.0552 34.7082 28.7954 33.0398 32.4952 33.0398C33.9707 33.0014 35.4426 33.2048 36.8516 33.6419V33.253C36.8516 31.0703 35.4626 29.8786 32.9371 29.8786C31.3688 29.8779 29.8187 30.2116 28.3913 30.857L27.3938 27.9593C29.2913 27.0872 31.3646 26.6581 33.4548 26.7049C38.1396 26.7049 40.4251 29.2137 40.4251 33.3784V42.6738H36.8516ZM36.94 35.9751C35.7762 35.5484 34.5438 35.3359 33.3033 35.3479C31.0178 35.3479 29.6667 36.2762 29.6667 37.8567C29.6667 39.3495 31.0178 40.19 32.7351 40.19C35.1469 40.19 36.94 38.8477 36.94 36.8657V35.9751ZM47.4762 42.4297C48.4805 42.8361 49.5566 43.0385 50.6409 43.025C51.8846 43.0598 53.1194 42.8071 54.2479 42.2869C55.3764 41.7665 56.3679 40.993 57.144 40.0269L54.9469 37.8819C54.4369 38.4804 53.8055 38.9652 53.0939 39.3046C52.3824 39.6439 51.6068 39.8303 50.8177 39.8513C50.1638 39.8407 49.5187 39.6984 48.9217 39.4332C48.3247 39.1678 47.788 38.785 47.3442 38.3077C46.9004 37.8305 46.5586 37.2687 46.3396 36.6565C46.1205 36.0443 46.0288 35.3943 46.0699 34.7458C46.0324 34.1169 46.1215 33.4867 46.332 32.8924C46.5424 32.298 46.87 31.7513 47.2956 31.2841C47.7212 30.817 48.2363 30.4388 48.8106 30.1716C49.385 29.9044 50.0072 29.7536 50.6409 29.7281C51.4311 29.7325 52.2105 29.9117 52.9224 30.2523C53.6344 30.5929 54.2612 31.0866 54.7575 31.6975L56.9798 29.2765C56.2015 28.3799 55.2295 27.6696 54.1363 27.1982C53.0432 26.7269 51.8569 26.5068 50.6662 26.5544C49.5734 26.5492 48.4905 26.7609 47.4811 27.177C46.4718 27.5932 45.5562 28.2053 44.7882 28.9777C44.0202 29.75 43.4151 30.6669 43.0085 31.6747C42.6019 32.6824 42.402 33.7607 42.4206 34.8461C42.4053 35.9233 42.6074 36.9927 43.0149 37.991C43.4225 38.9894 44.0272 39.8964 44.7934 40.6588C45.5597 41.4212 46.4718 42.0233 47.4762 42.4297ZM73.8365 42.6738H69.6822L64.8459 35.8999L62.6235 38.1578V42.6738H58.9742V20.8467H62.6235V33.8802L69.2023 26.8805H73.6345L67.3209 33.3157L73.8365 42.6738ZM81.7952 42.2731C82.733 42.7587 83.7768 43.0082 84.8342 42.9999C88.6227 42.9999 92.2463 40.052 92.2463 34.7834C92.2463 29.5148 88.6227 26.5543 84.8342 26.5543C83.7557 26.5493 82.6938 26.8187 81.7501 27.3369C80.8064 27.8552 80.0116 28.605 79.4427 29.5148V20.8467H75.7934V42.724H79.4547V40.2151C80.0538 41.0809 80.8575 41.7876 81.7952 42.2731ZM82.1204 30.126C82.7066 29.8573 83.3426 29.7092 83.9883 29.6904C86.4507 29.6904 88.5211 31.6473 88.5211 34.7834C88.5211 37.9195 86.5139 39.8639 83.9883 39.8639C83.3426 39.8468 82.7081 39.7002 82.1211 39.4328C81.5341 39.1655 81.0081 38.7831 80.5738 38.3085C80.1396 37.8338 79.8069 37.2769 79.5947 36.6711C79.3832 36.0653 79.2967 35.4232 79.3411 34.7834C79.2967 34.143 79.3832 33.5003 79.5947 32.8938C79.8062 32.2873 80.1388 31.7295 80.5731 31.2539C81.0073 30.7783 81.5334 30.3947 82.1204 30.126ZM102.009 43.025C100.912 43.0518 99.8195 42.86 98.7975 42.4608C97.7763 42.0616 96.8454 41.4632 96.0604 40.7009C95.2755 39.9386 94.6523 39.0277 94.2271 38.0222C93.8019 37.0166 93.5844 35.9367 93.5859 34.8461C93.5385 33.1699 93.9961 31.5177 94.8992 30.1014C95.803 28.685 97.1125 27.5692 98.6583 26.8968C100.205 26.2245 101.918 26.0264 103.579 26.3278C105.24 26.6293 106.771 27.4166 107.978 28.5888C109.185 29.7609 110.012 31.2646 110.354 32.9069C110.695 34.5492 110.535 36.2553 109.893 37.8064C109.252 39.3576 108.158 40.683 106.754 41.6128C105.349 42.5426 103.697 43.0343 102.009 43.025ZM102.009 29.728C101.357 29.7271 100.712 29.8582 100.114 30.1134C99.5155 30.3686 98.9752 30.7426 98.5274 31.2123C98.0796 31.6821 97.7326 32.2378 97.5084 32.8454C97.2841 33.4529 97.187 34.0996 97.2232 34.7458C97.1923 35.4001 97.2946 36.0538 97.5242 36.668C97.753 37.2822 98.1044 37.8442 98.5567 38.3207C99.009 38.7971 99.5539 39.1782 100.157 39.4411C100.762 39.7041 101.413 39.8436 102.072 39.8513C102.725 39.8557 103.373 39.7271 103.975 39.4734C104.576 39.2197 105.119 38.8463 105.57 38.3762C106.021 37.906 106.369 37.3492 106.595 36.7399C106.822 36.1306 106.919 35.4819 106.883 34.8336C106.912 34.1776 106.807 33.5225 106.576 32.9075C106.344 32.2924 105.991 31.73 105.536 31.2536C105.082 30.7771 104.534 30.3965 103.929 30.1345C103.323 29.8724 102.67 29.7342 102.009 29.728ZM122.441 40.7294V42.6738H126.064V33.3784C126.064 29.2137 123.767 26.7048 119.069 26.7048C116.983 26.6595 114.914 27.0887 113.021 27.9593L114.018 30.857C115.445 30.2116 116.996 29.8779 118.564 29.8785C121.09 29.8785 122.478 31.0703 122.478 33.253V33.692C121.06 33.2338 119.576 33.0134 118.084 33.0398C114.384 33.0398 111.644 34.7082 111.644 38.1202C111.644 41.2939 114.283 42.9999 117.301 42.9999C118.275 43.0351 119.244 42.8488 120.135 42.4554C121.026 42.0618 121.814 41.4715 122.441 40.7294ZM118.892 35.3478C120.132 35.3359 121.365 35.5484 122.529 35.9751V36.8657C122.529 38.8477 120.723 40.1899 118.324 40.1899C116.607 40.1899 115.256 39.3495 115.256 37.8567C115.256 36.2762 116.607 35.3478 118.892 35.3478ZM132.529 42.6738H128.892V26.8805H132.529V30.4431C132.911 29.2752 133.669 28.2649 134.687 27.5687C135.706 26.8725 136.926 26.5292 138.161 26.592V30.418H137.946C134.751 30.418 132.529 32.4752 132.529 36.6901V42.6738ZM151.344 40.0394V42.6738H154.981V20.8467H151.344V29.3392C150.734 28.4758 149.923 27.7717 148.98 27.2869C148.037 26.802 146.989 26.5507 145.927 26.5543C142.127 26.5543 138.553 29.5273 138.553 34.7834C138.553 40.0394 142.139 42.9999 145.927 42.9999C147.01 43.0093 148.077 42.7419 149.025 42.2235C149.975 41.705 150.773 40.9529 151.344 40.0394ZM142.215 34.7834C142.215 31.6097 144.273 29.6904 146.799 29.6904C147.441 29.714 148.071 29.8659 148.654 30.1368C149.235 30.4078 149.756 30.7925 150.185 31.2677C150.614 31.7431 150.942 32.2993 151.15 32.9033C151.358 33.5073 151.441 34.1467 151.395 34.7834C151.44 35.4191 151.355 36.0572 151.146 36.6597C150.937 37.2623 150.609 37.817 150.18 38.2909C149.752 38.7648 149.231 39.1483 148.65 39.4185C148.069 39.6887 147.44 39.8401 146.799 39.8639C146.156 39.8473 145.523 39.7005 144.94 39.4325C144.356 39.1645 143.833 38.7808 143.404 38.3052C142.976 37.8296 142.648 37.2718 142.444 36.6662C142.239 36.0606 142.161 35.4199 142.215 34.7834Z" fill="#1B1B1B"/>
</g>
</g>
</g>
</g>
<defs>
<clipPath id="clip0_63_685">
<rect width="155.032" height="60.208" fill="white" transform="translate(0.103516 0.930176)"/>
</clipPath>
<clipPath id="clip1_63_685">
<rect width="155.032" height="60.208" fill="white" transform="translate(0.103516 0.930176)"/>
</clipPath>
<clipPath id="clip2_63_685">
<rect width="155.032" height="60.2064" fill="white" transform="translate(0.103516 0.931152)"/>
</clipPath>
</defs>
</svg>
