<svg width="153" height="61" viewBox="0 0 153 61" fill="none" xmlns="http://www.w3.org/2000/svg">
<g clip-path="url(#clip0_63_732)">
<g clip-path="url(#clip1_63_732)">
<path opacity="0.85" d="M97.2466 21.0653C95.1726 21.0653 93.5486 21.8074 92.0616 23.3501V21.4168H87.9723V40.3784H92.3747V29.3842C92.3747 26.8651 93.8812 25.2833 96.1509 25.2833C96.5618 25.2833 96.9335 25.342 97.1879 25.381L100.24 21.3777C99.0467 21.163 98.0292 21.0653 97.2466 21.0653ZM135.205 21.4168H130.137L125.441 27.6072L120.745 21.4168H115.678L122.839 30.966L115.678 40.3784H120.863L125.422 34.3833L129.981 40.3784H135.205L127.985 30.9855L135.205 21.4168ZM42.7748 17.1598C41.2682 19.1711 40.9161 19.835 39.4682 19.835H17.8086V45.5338H26.3002C28.2177 45.5338 30.0765 44.616 31.27 43.0733C32.8157 41.0228 33.031 40.3979 34.5375 40.3979H56.2362V14.6993H47.6859C45.7684 14.6993 43.9097 15.6171 42.7748 17.1598ZM49.5055 33.7584H40.4465C38.4703 33.7584 36.6702 34.5786 35.4767 36.18C33.931 38.2303 33.6179 38.8552 32.17 38.8552H24.4806V26.5332H33.5397C35.5158 26.5332 37.3159 25.6153 38.5094 24.0726C40.0551 22.0613 40.4856 21.4558 41.8748 21.4558H49.486V33.7584H49.5055ZM82.0242 27.4314C83.9417 26.3574 85.2918 24.4437 85.2918 21.9245C85.2918 18.2338 82.4351 14.6797 78.3067 14.6797H65.8823V40.3784H78.2871C82.7873 40.3784 85.8983 37.1954 85.8983 33.1921C85.8983 30.8292 84.8222 28.7788 82.0242 27.4314ZM70.2651 18.7025H77.935C79.8524 18.7025 80.9872 20.499 80.9872 22.1003C80.9872 24.0531 79.285 25.381 77.6806 25.381H70.2651V18.7025ZM77.661 36.3752H70.2651V29.3842H77.935C79.9111 29.3842 81.5155 31.0832 81.5155 32.8211C81.496 34.7739 79.4807 36.3752 77.661 36.3752ZM111.275 34.9301C110.551 36.0628 109.143 36.7267 107.597 36.7267C105.171 36.7267 103.136 35.0864 103.136 32.5672H116.284C116.5 31.8057 116.539 31.4347 116.539 30.7707C116.539 25.0099 112.958 21.0653 107.577 21.0653C102.295 21.0653 98.5575 24.8147 98.5575 30.9269C98.5575 36.8829 102.138 40.7494 107.675 40.7494C111.569 40.7494 114.973 38.8552 115.952 34.9496C115.991 34.9301 111.275 34.9301 111.275 34.9301ZM107.597 25.0686C110.023 25.0686 111.902 26.6113 111.843 28.9155H103.195C103.195 26.6698 105.171 25.0686 107.597 25.0686Z" fill="#1B1B1B"/>
</g>
</g>
<defs>
<clipPath id="clip0_63_732">
<rect width="152.013" height="60.208" fill="white" transform="translate(0.5 0.378906)"/>
</clipPath>
<clipPath id="clip1_63_732">
<rect width="152.013" height="60.208" fill="white" transform="translate(0.5 0.378906)"/>
</clipPath>
</defs>
</svg>
