<svg width="159" height="61" viewBox="0 0 159 61" fill="none" xmlns="http://www.w3.org/2000/svg">
<g clip-path="url(#clip0_63_523)">
<g clip-path="url(#clip1_63_523)">
<g opacity="0.85">
<path fill-rule="evenodd" clip-rule="evenodd" d="M20.5859 38.5392H23.9089V12.8281H20.5859V38.5392ZM42.0713 23.0047L42.4964 21.5014H45.3944V38.3851H42.4964L42.0713 36.8818C41.1053 37.8069 39.2892 38.9248 37.2413 38.9248C33.2615 38.9248 29.3975 35.6483 29.3975 29.8662C29.3975 24.3539 33.1069 20.9232 37.2413 20.9232C39.3279 20.9232 41.1053 22.0411 42.0713 23.0047ZM37.6664 35.6483C39.7143 35.6483 42.0713 33.8751 42.0713 30.0204V29.7505C42.0713 26.05 39.753 24.1226 37.3959 24.1226C34.2274 24.1226 32.8364 27.0136 32.8364 29.7505C32.8364 34.1449 35.4639 35.6483 37.6664 35.6483ZM93.1892 20.9232C91.1415 20.9232 89.3256 22.0411 88.3593 22.9662L87.9341 21.4628H85.036V45.9404H88.205V37.4214H88.3593C89.3256 38.5007 91.1024 39.3488 92.919 39.3488C97.2078 39.3488 101.033 36.4578 101.033 30.136C101.033 24.0841 97.3237 20.9232 93.1892 20.9232ZM92.764 35.9181C90.562 35.9181 88.3593 34.1449 88.3593 30.136V29.9818C88.3593 26.2813 90.7163 24.1997 93.0349 24.1997C96.2032 24.1997 97.5939 27.0908 97.5939 29.8276C97.4396 34.4147 94.9667 35.9181 92.764 35.9181ZM117.688 23.0048L118.113 21.5014H121.011V38.4237H118.113L117.688 36.9204C116.722 37.8455 114.906 38.9634 112.858 38.9634C108.878 38.9634 105.014 35.6869 105.014 29.9047C105.014 24.3925 108.723 20.9618 112.858 20.9618C114.945 20.9618 116.722 22.0411 117.688 23.0048ZM113.437 35.6483C115.486 35.6483 117.843 33.8751 117.843 30.0204V29.7506C117.843 26.05 115.524 24.1226 113.167 24.1226C109.999 24.1226 108.607 27.0137 108.607 29.7506C108.607 34.145 111.235 35.6483 113.437 35.6483ZM131.637 31.5234C133.994 32.2173 134.96 32.6028 134.96 33.8748C134.96 34.8385 134.148 35.8021 132.216 35.8021C130.439 35.8021 129.048 35.1083 127.812 34.4144L126.304 37.3055C127.541 38.115 130.014 39.0787 132.371 39.0787C136.08 39.0787 138.283 36.4575 138.283 33.8748C138.283 29.6913 134.396 28.7568 132.955 28.4107C132.882 28.3933 132.816 28.3773 132.758 28.3626C130.285 27.6687 129.744 27.2447 129.744 26.1654C129.744 25.0475 130.709 24.3922 132.371 24.3922C133.688 24.3922 134.71 24.8047 135.67 25.1917C135.808 25.2473 135.945 25.3026 136.08 25.3558L137.742 22.4648C136.235 21.771 134.419 21.0771 132.371 21.0771C128.661 21.0771 126.459 23.6983 126.459 26.1654C126.536 29.8659 129.82 30.9838 131.637 31.5234ZM148.986 31.5234C151.343 32.2173 152.308 32.6028 152.308 33.8749C152.308 34.8385 151.497 35.8022 149.565 35.8022C147.788 35.8022 146.396 35.1084 145.16 34.4145L143.653 37.3056C144.889 38.115 147.362 39.0788 149.719 39.0788C153.429 39.0788 155.631 36.4575 155.631 33.8749C155.631 29.6913 151.744 28.7569 150.304 28.4108L150.303 28.4106C150.231 28.3932 150.165 28.3773 150.106 28.3626C147.632 27.6687 147.092 27.2447 147.092 26.1654C147.092 25.0475 148.058 24.3922 149.719 24.3922C151.037 24.3922 152.059 24.8047 153.018 25.1918L153.019 25.1921L153.02 25.1925C153.157 25.2479 153.293 25.3029 153.429 25.3559L155.09 22.4648C153.584 21.771 151.767 21.0771 149.719 21.0771C146.01 21.0771 143.807 23.6983 143.807 26.1654C143.73 29.866 147.053 30.9838 148.986 31.5234ZM76.539 33.8749C76.539 32.6028 75.5727 32.2173 73.2157 31.5234C71.4383 30.9838 68.1152 29.866 68.038 26.1654C68.038 23.6983 70.2404 21.0771 73.9499 21.0771C75.9978 21.0771 77.8138 21.771 79.3204 22.4648L77.6595 25.3559C77.5241 25.3028 77.3879 25.2478 77.2502 25.1924L77.2487 25.1919C76.2892 24.8047 75.2673 24.3922 73.9499 24.3922C72.2884 24.3922 71.3223 25.0475 71.3223 26.1654C71.3223 27.2447 71.8633 27.6687 74.3362 28.3626C74.3956 28.3774 74.462 28.3934 74.5345 28.4108C75.9744 28.7569 79.8615 29.6913 79.8615 33.8749C79.8615 36.4575 77.6595 39.0788 73.9499 39.0788C71.5928 39.0788 69.1199 38.115 67.8834 37.3056L69.3904 34.4145C70.6268 35.1084 72.0178 35.8022 73.7953 35.8022C75.7273 35.8022 76.539 34.8385 76.539 33.8749ZM55.9805 31.5234C58.3375 32.2173 59.3036 32.6028 59.3036 33.8749C59.3036 34.8385 58.4921 35.8022 56.5601 35.8022C54.7827 35.8022 53.3917 35.1084 52.1551 34.4145L50.6482 37.3056C51.8847 38.115 54.3576 39.0788 56.7146 39.0788C60.4241 39.0788 62.6266 36.4575 62.6266 33.8749C62.6266 29.6913 58.7393 28.7569 57.2993 28.4108C57.2267 28.3934 57.1604 28.3774 57.1011 28.3626C54.6281 27.6687 54.0872 27.2447 54.0872 26.1654C54.0872 25.0475 55.0531 24.3922 56.7146 24.3922C58.0321 24.3922 59.0542 24.8047 60.0134 25.1918L60.015 25.1924C60.1524 25.2478 60.2886 25.3028 60.4241 25.3559L62.0856 22.4648C60.5787 21.771 58.7625 21.0771 56.7146 21.0771C53.0052 21.0771 50.8028 23.6983 50.8028 26.1654C50.88 29.866 54.0485 30.9838 55.9805 31.5234ZM4.74363 29.8661C4.74363 32.8728 6.67562 35.494 9.8441 35.494C11.0805 35.494 12.3171 34.9543 13.283 34.4147L14.8286 37.2671C14.7414 37.3161 14.6527 37.3663 14.5624 37.4175C13.3717 38.0921 11.9022 38.9247 9.99868 38.9247C5.01411 38.9247 1.30469 35.1085 1.30469 29.8661C1.30469 24.6622 4.89819 20.8074 9.95999 20.7689C11.892 20.7689 13.6694 21.7326 14.7899 22.4265L13.283 25.3175C13.1548 25.2459 13.0266 25.1715 12.8971 25.0964C12.0511 24.6058 11.1511 24.084 9.8441 24.084C6.79154 24.084 4.74363 26.4354 4.74363 29.8661Z" fill="#1B1B1B"/>
</g>
</g>
</g>
<defs>
<clipPath id="clip0_63_523">
<rect width="157.283" height="60.208" fill="white" transform="translate(0.853516 0.0327148)"/>
</clipPath>
<clipPath id="clip1_63_523">
<rect width="157.283" height="60.208" fill="white" transform="translate(0.853516 0.0327148)"/>
</clipPath>
</defs>
</svg>
