<svg width="129" height="61" viewBox="0 0 129 61" fill="none" xmlns="http://www.w3.org/2000/svg">
<g clip-path="url(#clip0_63_591)">
<g clip-path="url(#clip1_63_591)">
<g opacity="0.85">
<path d="M51.6149 42.1741C47.5545 39.5585 42.044 39.0995 33.157 41.565C23.6829 43.7914 20.5241 45.2186 16.3757 42.3536C14.782 40.9462 14.2106 38.6802 14.6373 35.4161C15.6268 30.095 18.3011 24.9743 23.0514 19.2943C25.7029 16.3395 28.1623 13.8038 31.4101 12.7856C33.8991 12.1468 33.6664 14.1029 33.3653 14.3827C33.0475 14.3827 32.5136 14.4328 32.101 14.702C31.7661 14.9617 30.8469 15.8003 30.7975 16.9283C30.7263 18.6553 32.5134 18.2958 33.2842 17.3477C34.1151 16.2793 35.3429 14.2332 34.3771 12.3263C33.9723 11.6475 33.2728 11.1785 32.4043 11.0188C29.4305 10.8488 26.6608 12.2664 24.1048 13.8337C18.5148 17.7169 14.043 23.0977 11.5128 28.9876C10.054 32.5413 8.73468 37.6318 10.7123 41.775C12.242 44.6498 15.418 46.1768 19.2071 45.8575C21.8647 45.5783 25.0782 44.7193 27.2395 44.2007C29.4008 43.6813 40.4642 39.8783 44.0993 46.4973C44.0993 46.4973 45.3081 44.1507 48.329 44.1007C50.8126 43.8715 54.3955 44.8196 57.0047 46.7359C56.1355 45.4286 53.6709 43.502 51.6149 42.1741Z" fill="#1B1B1B"/>
<path d="M34.2849 19.9629C32.2157 18.6053 28.0568 21.2007 24.7258 25.6528C21.6796 29.6462 20.3643 34.2876 21.7957 36.4338C23.925 38.9594 27.8779 35.2859 29.559 33.3196L29.7759 33.0898C30.9191 31.8619 31.8023 30.3844 32.6571 28.9668C32.6571 28.9668 33.4428 27.6691 33.4803 27.609C33.9659 27.5196 34.5508 27.3797 35.2099 27.19C35.2005 27.2197 32.6882 31.4425 32.9445 33.5384C33.0243 34.1779 32.9633 36.5138 35.244 37.2224C38.2836 37.7319 40.7107 35.3757 42.8519 33.2793C42.8519 33.2793 43.2168 32.9302 43.4232 32.7309C43.371 32.9401 43.3029 33.219 43.3029 33.219C42.413 36.3136 43.6126 36.963 44.3629 37.2027C46.6306 37.8618 49.3396 34.5673 49.3484 34.5673C49.2781 35.6051 49.0727 36.4636 50.1666 37.1525C51.1992 37.522 52.2442 36.9586 53.0384 36.4295C55.8995 34.413 58.2044 31.2571 60.0662 28.5291H58.8786C58.8646 28.5291 55.9484 32.7559 54.0547 33.6746C54.0517 33.6746 53.7071 33.8515 53.5085 33.7115C53.2627 33.5018 53.3597 33.0658 53.5115 32.757C53.521 32.7368 60.8231 20.0721 60.8231 20.0721H57.3754C57.3754 20.0721 56.9988 20.6815 56.9681 20.7214C56.9449 20.7015 56.8897 20.5967 56.8513 20.5465C54.7153 17.5918 49.878 22.1367 46.2362 27.4073C44.8341 29.4339 43.049 31.7159 41.198 33.3629C41.198 33.3629 38.456 35.8765 37.2842 34.0706C36.856 33.3117 36.9877 32.2024 37.2293 31.4738C38.5935 27.5906 40.9441 24.0664 43.619 21.9399C44.3741 21.3513 45.1947 21.1811 45.6021 21.4307C45.9901 21.6607 46.0527 22.2292 45.8073 22.6186C45.1843 22.5987 44.6852 22.788 44.2794 23.2074C43.4801 24.046 43.2023 24.8547 43.4565 25.6135C44.6911 27.3703 47.1532 23.8963 47.0342 21.7801C46.9916 21.0212 46.5868 20.3026 45.9827 19.9529C45.0822 19.4141 43.7087 19.5537 42.8197 19.9832C41.6298 20.4322 39.746 21.9994 38.6465 23.2175C37.2623 24.745 34.8884 26.4418 34.1459 26.2519C34.3891 25.6027 36.3944 21.5 34.2849 19.9629ZM50.907 26.0323C51.5777 25.104 53.5298 22.6182 54.0057 22.1991C55.6062 20.791 56.2459 21.4105 56.3013 21.8494C54.8076 24.5247 53.0446 27.5896 51.3871 30.3448C51.3905 30.3351 50.8683 31.1334 50.8683 31.1334C50.1362 32.2512 49.3991 33.2095 48.1967 33.8783C48.0253 33.9285 47.7426 33.9486 47.5546 33.8084C47.3281 33.6586 47.2388 33.409 47.2643 33.1493C47.3363 32.291 48.2102 29.6661 50.907 26.0323ZM32.1511 27.6393C32.1511 27.6393 32.1211 27.7295 32.1062 27.759C32.1024 27.759 30.6031 30.2043 30.6031 30.2043C29.6981 31.4125 28.5684 32.9302 27.156 33.6586C26.7374 33.7984 26.1588 33.8884 25.8639 33.5194C25.2387 32.7705 25.561 31.7323 25.8227 30.8939L25.9153 30.5943C26.6658 28.5581 27.8566 26.7609 29.0156 25.0938C29.03 25.084 29.0625 25.074 29.0742 25.074C29.0769 25.084 29.0816 25.084 29.0836 25.104C29.8109 26.5013 31.1747 27.1499 32.1946 27.4499C32.2007 27.4499 32.2072 27.4598 32.2072 27.4799C32.2074 27.5096 32.1907 27.5498 32.1511 27.6393ZM33.5715 24.7547C33.565 24.7746 32.9037 26.2918 32.9037 26.2918C32.8081 26.3716 32.657 26.3318 32.4837 26.2918L32.1869 26.2416C31.2549 25.9523 30.5519 25.3333 30.3351 24.5947C30.0362 23.1572 31.2642 22.0291 31.8053 21.6201C32.3244 21.2603 33.1315 21.0708 33.6002 21.4403C33.8892 21.7798 33.9988 22.2188 33.9988 22.6983C33.9989 23.347 33.7987 24.0757 33.5715 24.7547Z" fill="#1B1B1B"/>
<path d="M77.1585 29.3864C76.8259 28.6679 76.0364 28.2086 75.1957 28.2584C72.4645 28.5081 69.7931 30.7541 68.3904 33.9783C67.6544 35.6356 67.2527 37.003 66.9893 39.1792C67.8386 38.2011 69.5709 36.594 71.5367 35.7155C71.5367 35.7155 71.8042 33.6292 73.1682 31.7724C73.6844 31.0035 74.7173 29.7657 75.8769 30.0951C76.8906 30.4347 76.5346 33.2398 75.1875 35.9544C74.191 37.9513 72.666 39.9483 71.123 41.3256C69.7588 42.4836 67.7405 43.8811 65.9746 42.8031C64.8624 42.1445 64.2951 40.7666 64.415 38.9897C64.9465 33.9487 67.2411 29.6561 70.525 24.7647C73.9111 20.2227 77.6439 15.5609 82.6718 13.0748C83.6975 12.5558 84.6473 12.436 85.4683 12.7555C85.4683 12.7555 80.7482 15.3509 78.4981 20.1527C77.9261 21.3707 77.1299 23.0174 77.9314 24.475C78.3506 25.2336 79.0941 25.2935 79.6931 25.2536C82.4505 24.6145 84.2326 22.0392 85.6888 19.6835C86.5324 17.8966 87.2827 16.1197 87.2827 14.1431C87.2827 13.9036 87.2699 13.5842 87.2496 13.3444C88.5674 12.646 91.2698 13.8835 91.2698 13.8835C93.3808 14.5826 97.8766 18.0267 99.393 18.6853C100.133 17.8269 101.348 16.5293 102.033 15.8803L101.042 15.2713C99.4555 14.3029 97.7787 13.3844 96.1284 12.4761C92.3799 10.43 89.329 11.1485 87.7764 11.7076C87.1661 11.9271 86.6084 12.1168 86.6084 12.1168C85.4563 10.8591 83.5666 10.9786 82.1736 11.3182C77.166 12.7556 72.5164 16.2594 67.5315 22.339C63.8667 27.1007 61.5934 31.2137 60.3817 35.2764C59.4478 38.0114 59.1639 42.0345 61.4435 44.4204C63.3817 46.4462 65.9516 46.0074 67.7664 45.2789C71.6985 43.3423 75.2325 39.1693 76.9937 34.3677C77.4181 32.9404 77.89 30.9239 77.1585 29.3864ZM86.1998 14.3429C85.6798 20.3125 81.0395 23.8167 79.8911 24.0958C79.1949 24.2354 78.0081 23.9261 79.0677 21.4208C80.6286 18.0464 83.2934 15.1816 86.1524 13.7141C86.2224 13.9637 86.2201 14.123 86.1998 14.3429Z" fill="#1B1B1B"/>
<path d="M113.725 15.1012C111.23 16.519 108.641 17.4371 105.509 17.1178C104.642 18.0964 103.796 19.1045 103.018 20.1425C107.413 21.2606 112.074 18.7749 114.673 16.4093C117.423 14.0233 118.833 11.0188 118.833 11.0188C118.833 11.0188 116.771 13.3745 113.725 15.1012Z" fill="#1B1B1B"/>
<path d="M64.7071 23.0734L66.5546 20.0725H63.2805L61.4336 23.0734H64.7071Z" fill="#1B1B1B"/>
<path d="M105.497 42.4515C105.145 42.6911 104.65 42.5069 104.835 41.958C105.296 40.5604 107.127 37.7123 107.127 37.7123L112.228 28.6654H108.734C108.568 28.9382 108.213 29.5646 108.213 29.5646C108.051 29.2954 107.568 28.6966 107.369 28.5673C106.515 28.0278 105.263 28.2829 104.399 28.7719C100.642 30.9684 97.9013 35.308 95.7399 38.6922C95.7399 38.6922 93.4649 42.4542 92.2014 42.734C91.2155 42.814 91.3171 41.4857 91.36 41.1762C91.7415 38.9397 92.6266 36.8136 93.5191 34.8869C95.3328 33.6291 97.4038 31.9821 99.2853 30.1753C103.369 26.2718 106.812 21.8495 107.315 20.8612C107.315 20.8612 106.77 20.9712 106.127 20.991C102.986 25.3733 96.5565 31.7425 94.6073 32.6905C95.4713 30.6138 101.049 20.7014 105.796 15.9598L106.544 15.2408C107.699 14.1128 108.895 12.9549 109.829 12.7651C109.927 12.7551 110.054 12.7651 110.163 12.995C110.205 13.8734 109.878 14.5224 109.503 15.2609L108.977 16.3392C108.977 16.3392 109.722 16.1994 110.211 16.0393C110.778 14.9717 111.407 13.7733 111.175 12.3462C111.097 11.8869 110.765 11.5376 110.331 11.4577C108.914 11.1881 107.371 12.236 106.129 13.0848L106.079 13.1146C99.6954 18.1159 94.3048 25.3234 89.5922 35.1663C89.2506 35.4254 87.9306 35.7352 87.7063 35.5853C88.1714 34.6272 88.7576 33.3392 89.0511 31.9416C89.1016 31.5422 89.149 31.1331 89.149 30.7339C89.149 29.8747 88.9428 29.0664 88.1729 28.5076C87.2706 28.0582 86.1553 28.268 85.4035 28.6072C82.0342 30.0048 79.5161 33.4591 77.6995 36.3038C76.7226 38.111 75.7481 40.0468 75.4786 42.2633C75.2882 43.9999 75.6751 45.118 76.6624 45.6773C77.6784 46.1961 78.9562 45.6569 79.4582 45.3975C82.8711 43.6007 85.2559 39.9973 87.1359 36.7027C87.2104 36.6929 88.2369 36.6632 89.0127 36.4632C89.0233 36.4632 89.0278 36.4632 89.0444 36.4737C89 36.6228 88.5988 37.8211 88.5988 37.8211C87.4075 41.3148 86.8567 43.6909 87.9825 45.0981C89.59 47.0848 92.2525 45.0285 94.4177 42.3128C93.9533 45.5671 95.6398 46.0764 96.9252 45.8271C98.4025 45.4279 100.048 43.8503 100.811 43.042C100.566 43.9901 100.633 45.6874 101.976 45.857C102.898 46.0272 103.586 45.5263 104.384 45.0969C107.244 43.5394 110.668 38.3498 111.557 36.8494H110.392C109.127 38.7592 107.52 41.2631 105.497 42.4515ZM79.8232 42.104C79.6418 41.8344 79.5816 41.5397 79.5756 41.221C79.541 39.2637 81.6474 35.7583 83.1337 33.8487C83.1367 33.8487 83.1367 33.8487 83.1367 33.8487C83.7599 35.2127 85.1702 36.0894 86.0221 36.4589C84.964 38.8151 81.3366 43.8609 79.8232 42.104ZM86.6188 35.4056C86.518 35.4759 84.7389 34.8767 84.3958 33.2296C84.1038 31.8116 85.0806 30.7036 86.0251 30.1451C86.4307 29.8255 87.041 29.7159 87.4896 29.875C87.905 30.1549 88.0179 30.6543 88.0179 31.1926C88.0179 31.5227 87.9742 31.8618 87.9358 32.1711C87.9358 32.1711 87.9283 32.2313 87.9268 32.2413C87.6303 33.349 87.1772 34.4373 86.6188 35.4056ZM100.886 41.4752C100.884 41.4752 100.549 41.7745 100.549 41.7745C100.069 42.2036 99.575 42.6628 98.9789 42.4331C98.8141 42.3732 98.6983 42.1539 98.6704 41.9837C98.6433 40.7558 99.1964 39.6181 99.7323 38.5102L99.87 38.2205C101.413 35.645 103.205 32.6104 105.839 30.5044C106.282 30.1842 106.763 29.9152 107.272 30.125C107.389 30.2346 107.525 30.4244 107.525 30.6138C107.525 30.674 107.472 30.8336 107.441 30.8833C106.706 32.0717 106.005 33.3194 105.324 34.5172C103.993 36.8832 102.612 39.3286 100.886 41.4752Z" fill="#1B1B1B"/>
</g>
</g>
</g>
<defs>
<clipPath id="clip0_63_591">
<rect width="128.688" height="60.208" fill="white" transform="translate(0.214844 0.481445)"/>
</clipPath>
<clipPath id="clip1_63_591">
<rect width="128.688" height="60.208" fill="white" transform="translate(0.214844 0.481445)"/>
</clipPath>
</defs>
</svg>
