<svg width="143" height="62" viewBox="0 0 143 62" fill="none" xmlns="http://www.w3.org/2000/svg">
<g clip-path="url(#clip0_63_665)">
<g clip-path="url(#clip1_63_665)">
<g opacity="0.85">
<path d="M39.1823 33.3567C39.2057 30.8272 39.7681 28.7618 40.9688 26.8786C42.4683 24.5259 44.5769 22.8305 47.3357 21.8971C48.4075 21.5382 49.5146 21.3449 50.6568 21.3007C53.5093 21.1903 56.063 21.9689 58.3181 23.6036C59.9757 24.8076 61.2174 26.3318 62.0608 28.1432C62.5822 29.2644 62.9394 30.4241 63.0742 31.6391C63.3787 34.3839 62.8282 36.9574 61.2936 39.3267C59.9698 41.3645 58.1599 42.8943 55.8463 43.8663C54.5284 44.424 53.1344 44.7167 51.6817 44.7719C49.579 44.8548 47.5993 44.4351 45.7366 43.5073C44.0439 42.6623 42.6557 41.4915 41.5428 40.028C40.4006 38.5203 39.6802 36.847 39.3639 35.0245C39.2526 34.3728 39.2175 33.699 39.1823 33.3567ZM51.1605 27.9002C50.1647 27.8671 49.2393 28.1212 48.4251 28.6458C46.4922 29.8829 45.6839 31.6225 45.9709 33.7984C46.2521 35.9192 47.9156 37.6478 50.112 38.0675C52.0566 38.443 53.7377 37.9018 55.0438 36.4991C56.3734 35.0687 56.7249 33.3898 56.1977 31.5507C55.6062 29.4687 53.4799 27.8284 51.1605 27.9002ZM103.542 44.2197C103.636 43.9159 103.712 43.6619 103.794 43.4134C104.614 40.8729 105.44 38.3325 106.266 35.7921C107.226 32.8375 108.187 29.8884 109.142 26.9338C109.645 25.3874 110.149 23.8411 110.63 22.2892C110.723 21.9965 110.858 21.8751 111.192 21.8806C113.745 21.9027 116.305 21.9082 118.864 21.9082C119.087 21.9082 119.146 22.0076 119.199 22.1677C119.585 23.3551 119.978 24.5369 120.364 25.7188C121.231 28.3531 122.104 30.9819 122.971 33.6162C123.808 36.1732 124.64 38.7301 125.478 41.2872C125.77 42.1763 126.069 43.0599 126.362 43.9436C126.391 44.0264 126.415 44.1148 126.45 44.2362C126.269 44.2418 126.116 44.2584 125.964 44.2584C123.768 44.2473 121.571 44.2362 119.374 44.2307C118.835 44.2307 118.83 44.2307 118.7 43.7337C118.455 42.7783 118.203 41.8229 117.969 40.8675C117.921 40.6797 117.845 40.6079 117.641 40.6079C116.012 40.6079 114.384 40.5913 112.75 40.5858C112.65 40.5858 112.556 40.6024 112.457 40.6079C111.848 40.6521 111.848 40.6521 111.701 41.2209C111.461 42.1377 111.209 43.0544 110.981 43.9767C110.922 44.2031 110.823 44.2584 110.577 44.2473C109.885 44.2197 109.194 44.2253 108.497 44.2197H103.542ZM116.569 35.2675C116.006 32.9148 115.45 30.6063 114.899 28.3034C114.87 28.309 114.846 28.309 114.818 28.3145C114.25 30.6285 113.675 32.9369 113.101 35.273C114.267 35.2675 115.397 35.2675 116.569 35.2675ZM37.0854 24.7523C35.504 26.3042 33.9401 27.834 32.3703 29.3748C32.095 29.165 31.849 28.9661 31.5854 28.7784C29.594 27.3756 26.7297 27.6131 24.9492 29.2699C22.9752 31.1089 22.7175 34.2568 24.5509 36.3555C26.4954 38.5811 29.8283 38.7688 32.0189 36.9298C32.1068 36.858 32.2005 36.7917 32.3118 36.7034C32.8448 37.228 33.3661 37.7416 33.8932 38.2553C34.8714 39.2162 35.8437 40.1771 36.8277 41.1325C36.9976 41.2927 36.9625 41.3921 36.8101 41.5357C35.094 43.1593 33.038 44.181 30.6483 44.5842C27.8895 45.0481 25.2713 44.6394 22.8289 43.3195C20.0993 41.8505 18.2542 39.6635 17.2586 36.869C16.216 33.9476 16.3682 31.0371 17.6451 28.1985C18.3011 26.7405 19.25 25.4647 20.4566 24.3713C22.0791 22.8967 24.0003 21.9192 26.2143 21.4884C28.9087 20.9583 31.4917 21.3228 33.9401 22.4935C35.0588 23.0292 36.0429 23.7472 36.939 24.5756C36.9859 24.6198 37.021 24.6695 37.0854 24.7523ZM67.7951 46.4067C68.5097 45.8157 69.2302 45.2966 69.8628 44.6892C70.9756 43.6287 71.7839 42.4028 71.9655 40.8729C72.0885 39.8237 71.8777 38.8241 71.3564 37.9128C70.8 36.9353 70.1498 36.0075 69.5172 35.0687C68.6913 33.8482 67.9475 32.5945 67.6487 31.1475C67.3148 29.5239 67.4788 27.95 68.0822 26.4036C68.7089 24.8021 69.6929 23.438 70.9991 22.2616C71.2041 22.0794 71.4208 21.9082 71.6317 21.7315C71.8133 21.5768 72.0241 21.5216 72.2701 21.5216C74.9527 21.5271 77.6416 21.5271 80.3238 21.5271C80.4179 21.5271 80.5112 21.5326 80.6286 21.5934C80.3532 21.7811 80.0717 21.9634 79.8023 22.1623C78.5605 23.0734 77.4594 24.1062 76.7685 25.4647C75.7728 27.4198 75.6554 29.43 76.6398 31.4071C77.2081 32.5503 77.9343 33.6272 78.6192 34.7097C79.4982 36.0848 80.2884 37.4931 80.6053 39.0947C80.9041 40.6079 80.7046 42.0603 79.9957 43.4465C79.076 45.2414 77.6995 46.6717 76.025 47.8591C75.1636 48.4666 75.1636 48.4335 74.1152 48.1408C72.112 47.583 70.1088 47.0473 68.0997 46.5061C68.0119 46.473 67.9006 46.4343 67.7951 46.4067ZM89.8886 35.991C89.8886 33.4339 89.9007 30.877 89.8826 28.3145C89.8773 27.6793 89.9887 27.7677 89.3151 27.7622C88.0146 27.7567 86.7202 27.7567 85.4197 27.7567C85.2443 27.7567 85.1036 27.7677 85.1036 27.5192C85.1209 25.7243 85.1269 23.9295 85.1269 22.1346C85.1269 21.9137 85.2029 21.8529 85.4317 21.8529C90.6909 21.864 95.9508 21.8695 101.211 21.8695C101.492 21.8695 101.568 21.9469 101.568 22.2119C101.556 23.9681 101.556 25.7243 101.568 27.4861C101.568 27.7346 101.486 27.7953 101.234 27.7953C99.8696 27.7842 98.4991 27.7953 97.1339 27.7842C96.8765 27.7842 96.8065 27.8506 96.8065 28.0936C96.8118 30.3744 96.7945 32.6552 96.7945 34.9416C96.7945 36.1677 96.8005 37.3882 96.7945 38.6142C96.7885 39.8457 96.7711 41.0773 96.7651 42.3144C96.7651 42.8556 96.7772 43.3968 96.7945 43.9436C96.8065 44.1644 96.7185 44.2253 96.4897 44.2253C94.6744 44.2142 92.8584 44.2086 91.0424 44.2031C90.7323 44.2031 90.4162 44.2086 90.1054 44.2197C89.93 44.2253 89.8653 44.17 89.8653 43.9988C89.8713 42.2592 89.8653 40.5195 89.8653 38.7799V35.991H89.8886Z" fill="#1B1B1B"/>
</g>
</g>
</g>
<defs>
<clipPath id="clip0_63_665">
<rect width="142.998" height="60.208" fill="white" transform="translate(0.0117188 0.930176)"/>
</clipPath>
<clipPath id="clip1_63_665">
<rect width="142.998" height="60.208" fill="white" transform="translate(0.0117188 0.930176)"/>
</clipPath>
</defs>
</svg>
