<svg width="161" height="62" viewBox="0 0 161 62" fill="none" xmlns="http://www.w3.org/2000/svg">
<g clip-path="url(#clip0_63_958)">
<g clip-path="url(#clip1_63_958)">
<g opacity="0.85">
<path d="M72.7359 41.0872C72.9512 40.8831 73.2048 40.7237 73.4819 40.6179C73.7591 40.5121 74.0543 40.4621 74.3509 40.4707C74.6474 40.4793 74.9393 40.5464 75.2098 40.6681C75.4804 40.7898 75.7242 40.9638 75.9273 41.1799C76.3381 41.6173 76.5593 42.1997 76.5413 42.7995C76.5239 43.3992 76.2703 43.9678 75.8346 44.3807C72.3898 47.6562 67.8163 49.4796 63.0628 49.4726C58.3546 49.4777 53.8214 47.6889 50.3852 44.4701C49.9469 44.0601 49.6887 43.4932 49.6674 42.8933C49.646 42.2934 49.8631 41.7096 50.2712 41.2694C50.4727 41.0517 50.7152 40.876 50.9848 40.7523C51.2544 40.6287 51.5458 40.5596 51.8423 40.549C52.1387 40.5384 52.4342 40.5865 52.712 40.6906C52.9898 40.7947 53.2442 40.9527 53.4606 41.1554C56.0635 43.5928 59.4969 44.9473 63.0628 44.9433C66.6628 44.9477 70.1266 43.5674 72.7359 41.0872ZM62.8369 16.6477C55.2592 16.6477 49.0725 22.5933 48.7544 30.1816L48.7458 30.3108L48.4939 32.8521C47.9949 37.3951 45.8461 41.597 42.455 44.661C39.0422 47.7521 34.6013 49.4628 29.9967 49.4601C27.4852 49.4601 25.0465 48.9677 22.7516 47.9936C20.5405 47.0547 18.5324 45.6958 16.8386 43.9923C15.138 42.2903 13.7837 40.2745 12.8506 38.0567C11.8801 35.757 11.3822 33.2854 11.3867 30.7892C11.3867 28.2691 11.8792 25.8245 12.8506 23.521C13.7837 21.3032 15.138 19.2874 16.8386 17.5854C18.5631 15.8512 20.6136 14.4753 22.872 13.5369C25.1306 12.5985 27.5524 12.1162 29.998 12.1177C34.8992 12.1177 39.528 14.0143 43.0262 17.4588C43.4541 17.8797 43.6978 18.4529 43.704 19.0531C43.7102 19.6532 43.4784 20.2313 43.0593 20.6609C42.8521 20.8735 42.6049 21.0431 42.3319 21.1598C42.0589 21.2764 41.7655 21.338 41.4687 21.3408C41.1718 21.3436 40.8772 21.2877 40.6021 21.1763C40.3269 21.0648 40.0765 20.9 39.8652 20.6914C37.239 18.0936 33.692 16.6397 29.998 16.647C22.2255 16.647 15.9029 22.9908 15.9029 30.7886C15.9029 38.5869 22.2255 44.9307 29.998 44.9307C37.1934 44.9307 43.2144 39.5312 44.0049 32.3664L44.2475 29.9258C44.4564 25.1501 46.4955 20.6381 49.9419 17.3256C53.4269 13.9679 58.006 12.1177 62.8376 12.1177C67.7413 12.1177 72.3675 14.0143 75.8684 17.4588C76.7572 18.3342 76.8302 19.7994 75.9572 20.6927C75.2468 21.4203 74.1295 21.5436 73.2587 21.0923C73.0554 20.9876 72.8692 20.8524 72.7067 20.6914C70.0798 18.0935 66.5321 16.6397 62.8376 16.647L62.8369 16.6477Z" fill="#434345"/>
<path d="M91.4172 25.5608C91.4157 25.5595 91.4142 25.5585 91.4119 25.5577C91.4104 25.5571 91.4089 25.5567 91.4067 25.5567C91.4051 25.5567 91.4029 25.5571 91.4014 25.5577C91.3999 25.5585 91.3984 25.5595 91.3969 25.5608C90.3704 26.5251 89.4349 27.1215 87.9351 27.1215C85.6691 27.1215 83.9616 25.2739 83.9616 22.8227V22.7882C83.9616 20.388 85.7075 18.5074 87.9351 18.5074C89.1542 18.5074 90.1943 18.9725 91.3103 20.0162C91.3133 20.0196 91.3171 20.0216 91.3209 20.0216L91.3314 20.0162L92.695 18.4325C92.6965 18.4311 92.6973 18.4296 92.698 18.4279C92.6988 18.4262 92.6996 18.4244 92.6996 18.4225C92.6996 18.4207 92.6988 18.4189 92.698 18.4171C92.6973 18.4154 92.6965 18.4139 92.695 18.4126C91.7182 17.4736 90.3914 16.5127 87.9531 16.5127C86.2042 16.5127 84.6065 17.172 83.4536 18.3682C82.3247 19.5365 81.7046 21.1183 81.7046 22.8227V22.8584C81.7046 24.5628 82.3293 26.1447 83.4626 27.3096C84.605 28.4859 86.1688 29.134 87.8674 29.134C88.948 29.134 89.8752 28.9438 90.7007 28.5508C91.421 28.2076 92.0825 27.7066 92.7816 26.9723C92.7816 26.9723 92.7838 26.9695 92.7846 26.9678C92.7853 26.9661 92.7853 26.9643 92.7853 26.9624C92.7853 26.9606 92.7853 26.9587 92.7846 26.957C92.7838 26.9553 92.7816 26.9525 92.7816 26.9525L91.4172 25.5608ZM113.07 16.5127C111.3 16.5127 109.676 17.1753 108.5 18.3801C107.351 19.5544 106.718 21.1328 106.718 22.824V22.8584C106.718 24.5496 107.344 26.1208 108.481 27.2845C109.647 28.4766 111.266 29.1333 113.035 29.1333C114.807 29.1333 116.429 28.4707 117.607 27.2666C118.755 26.0923 119.388 24.5139 119.388 22.824V22.7882C119.388 21.0984 118.76 19.5259 117.623 18.3615C116.456 17.1694 114.839 16.5127 113.07 16.5127ZM108.975 22.7882C108.975 20.3483 110.72 18.5074 113.035 18.5074C115.332 18.5074 117.131 20.4039 117.131 22.824V22.8584C117.131 25.2891 115.384 27.1228 113.07 27.1228C110.735 27.1228 108.975 25.2733 108.975 22.824V22.7882ZM150.538 16.7215C150.548 16.7215 150.553 16.7281 150.553 16.736V28.9114C150.553 28.9152 150.552 28.9189 150.549 28.9217C150.546 28.9244 150.543 28.9259 150.538 28.9259H148.76C148.756 28.9259 148.751 28.9239 148.749 28.9206L142.11 20.2926V28.9114C142.11 28.9186 142.104 28.9259 142.094 28.9259H140.007C139.997 28.9259 139.991 28.9193 139.991 28.9114V16.7367C139.991 16.7294 139.997 16.7221 140.007 16.7221H141.975C141.978 16.7221 141.983 16.7241 141.986 16.7274L148.436 25.1109V16.7367C148.436 16.7294 148.441 16.7221 148.449 16.7221L150.538 16.7215ZM102.141 24.3104C103.983 23.7683 104.999 22.4549 104.999 20.6147V20.5789C104.999 19.5358 104.651 18.624 103.991 17.9434C103.18 17.1442 101.971 16.7221 100.494 16.7221H95.1062C95.0972 16.7221 95.0919 16.7274 95.0919 16.7367V28.91C95.0919 28.9193 95.0972 28.9252 95.1062 28.9252H97.2292C97.2382 28.9252 97.2458 28.9193 97.2458 28.9107V24.6821H99.882L102.846 28.9193C102.85 28.9233 102.853 28.9252 102.859 28.9252H105.382C105.388 28.9252 105.396 28.9193 105.396 28.9107C105.396 28.9067 105.394 28.9014 105.391 28.9001L102.141 24.3104ZM97.2458 18.6989H100.321C101.903 18.6989 102.809 19.4278 102.809 20.7008V20.7373C102.809 21.9632 101.839 22.7571 100.339 22.7571H97.2458V18.6989ZM138.045 16.7215C138.05 16.7215 138.055 16.7234 138.058 16.7267C138.06 16.7321 138.061 16.736 138.06 16.7413L133.863 29.0035C133.861 29.0088 133.856 29.0121 133.849 29.0121H132.002C131.995 29.0121 131.99 29.0088 131.988 29.0035L129.032 20.2945L126.076 29.0035C126.075 29.0088 126.067 29.0121 126.062 29.0121H124.231C124.226 29.0121 124.221 29.0088 124.217 29.0035L120.005 16.7413C120.002 16.736 120.002 16.7321 120.006 16.7267C120.008 16.725 120.009 16.7236 120.012 16.7227C120.014 16.7218 120.016 16.7213 120.018 16.7215H122.315C122.32 16.7215 122.327 16.7248 122.329 16.7321L125.199 25.7152L128.155 16.6962C128.157 16.691 128.162 16.687 128.169 16.687H129.965C129.97 16.687 129.977 16.691 129.978 16.6962L132.934 25.7152L135.805 16.7321C135.806 16.7254 135.812 16.7215 135.817 16.7215H138.045ZM101.134 33.1929C101.132 33.1876 101.127 33.1836 101.12 33.1836H99.1317C99.1287 33.1837 99.1264 33.1847 99.1242 33.1864C99.1219 33.188 99.1204 33.1903 99.1197 33.1929L93.7471 45.5783C93.7449 45.5829 93.7449 45.5882 93.7471 45.5929C93.7501 45.5988 93.7531 45.6002 93.7592 45.6002H95.9574C95.9627 45.6002 95.9694 45.5969 95.9717 45.5915L97.2232 42.6307H102.978L104.213 45.5915C104.214 45.5941 104.216 45.5963 104.218 45.5978C104.221 45.5993 104.223 45.6002 104.226 45.6002H106.495C106.502 45.6002 106.509 45.5935 106.509 45.5862C106.509 45.5823 106.508 45.5789 106.505 45.575L101.134 33.1929ZM102.18 40.6857H98.0194L100.091 35.8197L102.18 40.6857ZM116.036 39.7149C116.703 40.2928 117.028 41.0575 117.028 42.0542V42.0886C117.028 44.3292 115.309 45.7764 112.651 45.7764C110.747 45.7764 108.982 45.0938 107.548 43.8049C107.542 43.7997 107.542 43.7904 107.547 43.7838L108.837 42.2377C108.839 42.2337 108.843 42.2325 108.849 42.2325C108.852 42.2325 108.855 42.2337 108.859 42.2358C110.123 43.3398 111.31 43.8321 112.703 43.8321C113.988 43.8321 114.853 43.2158 114.853 42.3V42.2642C114.853 41.4332 114.441 40.9409 112.107 40.3988C110.611 40.0363 109.711 39.6679 109.094 39.1728C108.369 38.5904 108.032 37.8078 108.032 36.7123V36.6786C108.032 35.6567 108.451 34.7389 109.212 34.0928C109.968 33.45 111.034 33.0961 112.216 33.0961C113.913 33.0961 115.366 33.6024 116.655 34.6454C116.66 34.6515 116.661 34.66 116.658 34.6654L115.507 36.2995C115.506 36.3011 115.504 36.3024 115.503 36.3033C115.501 36.3042 115.5 36.3048 115.498 36.3048C115.492 36.3068 115.489 36.3048 115.485 36.3028C114.355 35.4539 113.275 35.0411 112.18 35.0411C111.584 35.0411 111.08 35.1882 110.724 35.4645C110.391 35.723 110.207 36.0861 110.207 36.4844V36.5189C110.207 37.4811 110.83 37.8939 113.107 38.438C114.491 38.7772 115.421 39.1835 116.036 39.7149ZM128.315 33.2717C128.324 33.2717 128.33 33.279 128.33 33.2863V35.2902C128.33 35.2969 128.324 35.3048 128.315 35.3048H124.458V45.5862C124.458 45.5929 124.451 45.6008 124.443 45.6008H122.281C122.272 45.6008 122.265 45.5935 122.265 45.5862V35.3048H118.407C118.4 35.3048 118.393 35.2975 118.393 35.2902V33.2863C118.393 33.2797 118.4 33.2717 118.407 33.2717H128.315ZM150.522 43.6379C150.53 43.6379 150.535 43.6446 150.535 43.6519V45.5862C150.535 45.5929 150.53 45.6002 150.522 45.6002H141.381C141.379 45.6002 141.377 45.5999 141.376 45.5993C141.374 45.5986 141.372 45.5976 141.371 45.5963C141.37 45.595 141.368 45.5935 141.368 45.5917C141.367 45.59 141.367 45.5881 141.367 45.5862V33.2863C141.367 33.279 141.372 33.2717 141.381 33.2717H150.433C150.443 33.2717 150.448 33.2783 150.448 33.2863V35.22C150.448 35.2266 150.443 35.2346 150.434 35.2346H143.54V38.4021H149.65C149.656 38.4021 149.663 38.4088 149.663 38.4161V40.3498C149.663 40.3571 149.656 40.3644 149.65 40.3644H143.54V43.6379H150.522ZM139.148 43.6029C139.157 43.6029 139.163 43.6095 139.163 43.6174V45.5856C139.163 45.5941 139.157 45.5995 139.148 45.5995H130.582C130.58 45.5996 130.578 45.5993 130.577 45.5986C130.574 45.5978 130.573 45.5968 130.571 45.5954C130.571 45.5941 130.569 45.5924 130.568 45.5906C130.568 45.5888 130.568 45.5868 130.568 45.5849V33.287C130.568 33.2783 130.575 33.2711 130.582 33.2711H132.729C132.737 33.2711 132.743 33.2777 132.743 33.287V43.6029H139.148ZM91.5135 42.2013C91.512 42.1999 91.5105 42.1989 91.509 42.1982C91.5075 42.1975 91.5052 42.1971 91.5037 42.1971C91.5015 42.1971 91.5 42.1975 91.4985 42.1982C91.4962 42.1989 91.4947 42.1999 91.4939 42.2013C90.4569 43.1747 89.5125 43.7784 87.9968 43.7784C85.709 43.7784 83.9819 41.9124 83.9819 39.4359V39.4001C83.9819 36.9761 85.7466 35.0762 87.9968 35.0762C89.2287 35.0762 90.2786 35.5467 91.4067 36.6004C91.4089 36.603 91.4119 36.6044 91.4172 36.6044C91.421 36.6044 91.424 36.603 91.4285 36.599L92.8064 35.0013C92.8094 34.994 92.8094 34.9848 92.8042 34.9794C91.8183 34.0318 90.4787 33.0617 88.0141 33.0617C86.2493 33.0617 84.6344 33.7263 83.4679 34.9344C82.3308 36.1159 81.7031 37.7143 81.7031 39.4359V39.4704C81.7031 41.194 82.333 42.7904 83.4777 43.9679C84.6321 45.1568 86.2125 45.8102 87.9276 45.8102C89.0203 45.8102 89.9557 45.618 90.7903 45.2218C91.5173 44.8752 92.1863 44.3689 92.8922 43.6273C92.8922 43.6273 92.8945 43.6245 92.8952 43.6228C92.896 43.6211 92.896 43.6193 92.896 43.6174C92.896 43.6156 92.896 43.6137 92.8952 43.6121C92.8945 43.6103 92.8922 43.6075 92.8922 43.6075L91.5135 42.2013Z" fill="#1B1B1B"/>
</g>
</g>
</g>
<defs>
<clipPath id="clip0_63_958">
<rect width="159.543" height="60.208" fill="white" transform="translate(0.851562 0.827637)"/>
</clipPath>
<clipPath id="clip1_63_958">
<rect width="159.543" height="60.208" fill="white" transform="translate(0.851562 0.827637)"/>
</clipPath>
</defs>
</svg>
