<svg width="144" height="62" viewBox="0 0 144 62" fill="none" xmlns="http://www.w3.org/2000/svg">
<g clip-path="url(#clip0_63_675)">
<g clip-path="url(#clip1_63_675)">
<path opacity="0.85" fill-rule="evenodd" clip-rule="evenodd" d="M9.15983 25.5337L17.4158 31.0322L25.9931 18.1533C23.3147 14.5049 19.3253 12.1904 14.8684 12.1904H1.57227V36.9249L9.15983 25.5337ZM100.801 19.5709H101.905V37.8217H100.801V19.5709ZM83.9602 29.1502C83.9602 24.2472 87.9301 20.2897 92.8544 20.2897C95.2665 20.2897 97.6725 21.3556 99.1431 22.9026L98.4364 23.7431C97.0863 22.2966 95.0956 21.3282 92.8755 21.3282C88.542 21.3282 85.0921 24.8334 85.0921 29.1487C85.0921 33.5081 88.5209 36.9981 92.8755 36.9981C95.0911 36.9981 97.1088 35.9977 98.4628 34.5283L99.1627 35.4084C97.5627 37.0484 95.3259 38.0411 92.8424 38.0411C87.9076 38.0411 83.9602 34.0974 83.9602 29.1502ZM110.097 25.7074C106.691 25.7059 103.88 28.503 103.88 31.8743C103.88 35.2684 106.689 38.0412 110.097 38.0412C113.503 38.0412 116.384 35.2684 116.384 31.8743C116.384 28.433 113.783 25.7104 110.097 25.7074ZM110.097 26.6804C113.12 26.6774 115.28 29.0314 115.28 31.8743C115.28 34.7171 112.978 37.0651 110.097 37.0636C107.145 37.0636 104.984 34.7171 104.984 31.8743C104.984 29.0801 107.239 26.6835 110.097 26.6804ZM129.198 31.8909C129.198 28.4359 131.956 25.7165 135.316 25.7165C137.452 25.7165 139.336 26.8158 140.359 28.5578V19.5709H141.556V37.8202H140.359V35.1784C139.295 36.899 137.45 38.041 135.316 38.041C131.956 38.041 129.198 35.323 129.198 31.8909ZM140.554 31.8437C140.554 28.9338 138.282 26.6818 135.432 26.6803C132.577 26.6787 130.302 28.9582 130.302 31.8437C130.302 34.7307 132.577 37.0741 135.432 37.0741C138.282 37.0741 140.554 34.7307 140.554 31.8437ZM35.4692 20.3886H42.3213C46.4767 20.3886 49.8449 24.2913 49.8449 29.1044C49.8449 33.9192 46.4767 37.8218 42.3213 37.8218H35.4692V20.3886ZM38.0867 35.2058H42.3213C45.2296 35.2058 47.5867 32.4726 47.5867 29.1044C47.5867 25.7363 45.2296 23.0045 42.3213 23.0045H38.0867V35.2058ZM61.2514 34.1081C60.42 35.2805 59.1181 35.9247 57.5635 35.9247C55.7438 35.9247 54.1877 34.7293 53.7065 33.0544H63.5948L63.6542 32.5397C63.6816 32.3022 63.706 32.0525 63.706 31.8301C63.706 28.3386 61.0656 25.7074 57.5635 25.7074C54.1237 25.7074 51.325 28.4543 51.325 31.8301C51.325 35.2546 54.1237 38.0412 57.565 38.0412C59.8657 38.0412 61.8985 36.9692 63.1441 35.0994L61.2514 34.1081ZM57.5635 27.824C59.6541 27.824 61.1768 29.1365 61.4402 31.081H53.6151C53.9441 29.2142 55.5764 27.824 57.5635 27.824ZM74.3309 27.5925V25.9267H76.827V37.8219H74.3294V36.086C73.2773 37.289 71.7866 38.0412 70.1345 38.0412C66.9475 38.0412 64.3559 35.2546 64.3559 31.8286C64.3559 30.1704 64.9543 28.6264 66.04 27.4798C67.1226 26.3363 68.5737 25.7074 70.1299 25.7074H70.1345C71.8048 25.7089 73.2864 26.4277 74.3309 27.5925ZM66.9978 31.8499C66.9978 33.8416 68.6438 35.4617 70.6674 35.4617C72.688 35.4617 74.331 33.8401 74.3325 31.8499C74.3325 29.8552 72.723 28.2914 70.6674 28.2899H70.6644C69.6761 28.2899 68.7534 28.6554 68.0667 29.3207C67.3769 29.9892 66.9978 30.8861 66.9978 31.8499ZM82.0057 19.5709H79.5078V37.8217H82.0057V19.5709ZM126.356 29.4287V25.9251H127.532V29.4287V33.0238V37.8203H126.356V35.8408C125.437 37.0361 124.059 38.0395 122.516 38.0395C119.746 38.0395 117.501 35.7936 117.501 33.0238V25.9251H118.676V33.0938C118.676 35.215 120.395 36.934 122.516 36.934C124.637 36.934 126.356 35.215 126.356 33.0938V29.4287ZM17.8284 33.0953L26.8839 19.4977C28.5131 22.2264 29.4678 25.5367 29.4678 29.1059C29.4678 38.4475 22.931 46.0199 14.8684 46.0199H1.57227V39.6109L9.57248 27.5969L17.8284 33.0953Z" fill="#1B1B1B"/>
</g>
</g>
<defs>
<clipPath id="clip0_63_675">
<rect width="142.998" height="60.208" fill="white" transform="translate(0.0644531 0.930176)"/>
</clipPath>
<clipPath id="clip1_63_675">
<rect width="142.998" height="60.208" fill="white" transform="translate(0.0644531 0.930176)"/>
</clipPath>
</defs>
</svg>
