<svg width="138" height="62" viewBox="0 0 138 62" fill="none" xmlns="http://www.w3.org/2000/svg">
<g clip-path="url(#clip0_63_943)">
<g clip-path="url(#clip1_63_943)">
<mask id="mask0_63_943" style="mask-type:luminance" maskUnits="userSpaceOnUse" x="6" y="17" width="125" height="27">
<path d="M130.269 17.3862H6.10156V43.7249H130.269V17.3862Z" fill="white"/>
</mask>
<g mask="url(#mask0_63_943)">
<g opacity="0.85">
<path d="M110.856 17.7812H106.507C106.263 17.7812 106.14 17.905 106.14 18.1525V35.5351C106.14 36.4012 105.865 37.0506 105.497 37.5457C105.13 38.0407 104.64 38.1643 104.027 38.1643C103.415 38.1643 102.895 37.9167 102.527 37.5457C102.159 37.0506 101.915 36.4012 101.915 35.5351V18.1525C101.915 17.905 101.669 17.7812 101.547 17.7812H97.1677C96.9232 17.7812 96.8005 17.905 96.8005 18.1525V35.659C96.8005 37.9168 97.2904 40.0511 98.6683 41.4428C100.016 42.8348 101.884 43.5771 104.027 43.5771C106.262 43.5771 108.131 42.8349 109.386 41.4428C110.733 40.0821 111.254 38.0717 111.254 35.659V18.1525C111.376 18.0289 111.131 17.7812 110.856 17.7812ZM127.544 30.1226C128.279 29.3801 129.657 27.6171 129.657 25.3284C129.657 22.6685 128.647 21.0601 127.881 20.1629C126.503 18.6783 124.666 17.905 122.523 17.905H115.663C115.388 17.905 115.265 18.1525 115.265 18.2761V42.8348C115.265 43.0821 115.51 43.2061 115.663 43.2061H122.92C125.156 43.2061 127.268 42.3399 128.647 40.546C129.381 39.5562 130.269 37.8857 130.269 35.3807C130.024 32.3804 128.187 30.6174 127.544 30.1226ZM120.318 22.9465H122.553C123.165 22.9465 123.655 23.0702 124.023 23.5652C124.421 23.9672 124.543 24.5859 124.543 25.3592C124.543 26.1323 124.421 26.7199 124.023 27.246C123.655 27.6171 123.165 27.8645 122.676 27.8645H120.441V22.9465H120.318ZM124.298 37.4219C123.931 37.9168 123.441 38.0406 122.676 38.0406H120.195V32.7204H122.676C123.288 32.7204 123.778 32.9988 124.145 33.3702C124.543 33.865 124.789 34.4835 124.789 35.2568C124.911 36.2774 124.696 36.8961 124.298 37.4219ZM35.6202 32.2566C36.1101 31.8855 36.5082 31.6381 36.8757 31.1122C37.733 30.1225 38.8659 28.3593 38.8659 25.5757C38.8659 22.9156 37.8555 21.1836 36.8757 20.1629C35.6202 18.6783 33.7522 17.905 31.6394 17.7812H24.4129C24.1679 17.7812 24.0455 18.0289 24.0455 18.1525V42.6803C24.0455 42.9277 24.2904 43.0513 24.4129 43.0513H28.761C29.006 43.0513 29.1286 42.8038 29.1286 42.6803V33.6176H30.629L33.3542 42.9277C33.3542 43.0513 33.6298 43.1751 33.7523 43.1751H38.3455C38.4679 43.1751 38.5905 43.0513 38.7129 43.0513C38.8354 43.0513 38.8354 42.8038 38.8354 42.6803L35.6202 32.2566ZM32.8642 27.7097C32.4968 28.2049 31.8844 28.4829 31.1188 28.4829H29.0059V22.9465H31.1188C31.8537 22.9465 32.466 23.194 32.8642 23.6889C33.3541 24.2149 33.5072 24.8334 33.5072 25.6995C33.5072 26.5964 33.3848 27.2148 32.8642 27.7097ZM72.4571 30.1226C73.2227 29.3801 74.5701 27.6171 74.5701 25.3284C74.5701 22.6685 73.5902 21.0601 72.8247 20.1629C71.4468 18.6783 69.5787 17.905 67.466 17.905H60.6374C60.3925 17.905 60.2699 18.1525 60.2699 18.2761V42.8348C60.2699 43.0821 60.515 43.2061 60.6374 43.2061H67.864C70.0994 43.2061 72.2123 42.3399 73.6207 40.546C74.3557 39.5562 75.2437 37.8857 75.2437 35.3807C75.0907 32.3804 73.2227 30.6174 72.4571 30.1226ZM65.2611 22.9465H67.4966C68.109 22.9465 68.599 23.0702 68.9665 23.5652C69.3338 23.9672 69.4564 24.5859 69.4564 25.3592C69.4564 26.1323 69.3338 26.7199 68.9665 27.246C68.5989 27.6171 68.109 27.8645 67.619 27.8645H65.3836V22.9465H65.2611ZM69.3644 37.4219C68.9972 37.9168 68.507 38.0406 67.7415 38.0406H65.2611V32.7204H67.7415C68.3538 32.7204 68.8438 32.9988 69.2112 33.3702C69.5786 33.865 69.8543 34.4835 69.8543 35.2568C69.8849 36.2774 69.7626 36.8961 69.3644 37.4219ZM13.2976 17.4102C11.0621 17.4102 9.19432 18.1525 7.93887 19.5442C6.59145 20.9361 6.10156 22.9156 6.10156 25.3283V35.7825C6.10156 38.0407 6.59145 40.1746 7.93887 41.5667C9.31676 42.9586 11.1847 43.701 13.2976 43.701C15.5328 43.701 17.4312 42.9588 18.6867 41.5667C20.0341 40.2056 20.524 38.1952 20.524 35.7825V30.0294C20.524 29.7513 20.279 29.5039 20.0341 29.5039H13.6956C13.4201 29.5039 13.1751 29.7513 13.1751 30.0294V34.298C13.1751 34.5453 13.4201 34.7929 13.6956 34.7929H15.3186V35.8136C15.3186 36.6796 15.0736 37.4529 14.7062 37.9479C14.3386 38.4428 13.8182 38.5664 13.2057 38.5664C12.5934 38.5664 12.1033 38.319 11.7053 37.9479C11.3379 37.4529 11.093 36.6798 11.093 35.8136V25.4831C11.093 24.5859 11.3379 23.8127 11.7053 23.3485C12.1035 22.8537 12.5934 22.73 13.2057 22.73C13.8182 22.73 14.3386 22.9775 14.7062 23.3485C15.0736 23.8434 15.3186 24.5859 15.3186 25.4831V26.4728C15.3186 26.72 15.5635 26.8748 15.686 26.8748H20.0342C20.2791 26.8748 20.4016 26.72 20.4016 26.4728V25.4831C20.4016 23.2249 19.9117 21.0908 18.5338 19.699C17.4313 18.1525 15.4103 17.4102 13.2976 17.4102ZM55.9219 17.7812H51.5737C51.3287 17.7812 51.2062 17.905 51.2062 18.1525V35.5351C51.2062 36.4012 50.9307 37.0506 50.5632 37.5457C50.1957 38.0407 49.7057 38.1643 49.0934 38.1643C48.481 38.1643 47.9603 37.9167 47.593 37.5457C47.2256 37.0506 46.9807 36.4012 46.9807 35.5351V18.1525C46.9807 17.905 46.705 17.7812 46.5825 17.7812H42.2345C41.9894 17.7812 41.867 17.905 41.867 18.1525V35.659C41.867 37.9168 42.3875 40.0511 43.7348 41.4428C45.1127 42.8348 46.9807 43.5771 49.0934 43.5771C51.3289 43.5771 53.2273 42.8349 54.4521 41.4428C55.83 40.0821 56.3199 38.0717 56.3199 35.659V18.1525C56.2894 18.0289 56.1668 17.7812 55.9219 17.7812ZM92.5442 17.7812H88.1961C87.9515 17.7812 87.8288 18.0289 87.8288 18.1525V27.7097H83.4807V18.1525C83.4807 17.905 83.2361 17.7812 83.1135 17.7812H78.7653C78.52 17.7812 78.3973 18.0289 78.3973 18.1525V42.6803C78.3973 42.9277 78.6427 43.0513 78.7653 43.0513H83.1135C83.358 43.0513 83.4807 42.8038 83.4807 42.6803V32.8754H87.8288V42.6803C87.8288 42.9277 88.0742 43.0513 88.1961 43.0513H92.5442C92.7895 43.0513 92.9122 42.8038 92.9122 42.6803V18.1525C92.9122 18.0289 92.7895 17.7812 92.5442 17.7812Z" fill="#1B1B1B"/>
</g>
</g>
</g>
</g>
<defs>
<clipPath id="clip0_63_943">
<rect width="136.961" height="60.208" fill="white" transform="translate(0.0820312 0.827637)"/>
</clipPath>
<clipPath id="clip1_63_943">
<rect width="136.961" height="60.208" fill="white" transform="translate(0.0820312 0.827637)"/>
</clipPath>
</defs>
</svg>
