<svg width="83" height="62" viewBox="0 0 83 62" fill="none" xmlns="http://www.w3.org/2000/svg">
<g clip-path="url(#clip0_63_821)">
<g opacity="0.85">
<path d="M4.5625 43.5454H18.9013V45.6087H4.5625V43.5454Z" fill="#1B1B1B"/>
<path d="M4.5625 39.5879H18.9013V41.6584H4.5625V39.5879Z" fill="#1B1B1B"/>
<path d="M8.65234 35.6377H14.8027V37.7082H8.65234V35.6377Z" fill="#1B1B1B"/>
<path d="M8.65234 31.6875H14.8027V33.7581H8.65234V31.6875Z" fill="#1B1B1B"/>
<path d="M8.65234 27.7373H14.8027V29.8079H8.65234V27.7373Z" fill="#1B1B1B"/>
<path d="M8.65234 23.7798H14.8027V25.8503H8.65234V23.7798Z" fill="#1B1B1B"/>
<path d="M18.9013 19.8296H4.5625V21.9001H18.9013V19.8296Z" fill="#1B1B1B"/>
<path d="M18.9013 15.8794H4.5625V17.9499H18.9013V15.8794Z" fill="#1B1B1B"/>
<path d="M20.9453 41.658H42.9977C43.3702 41.0192 43.6478 40.3216 43.8159 39.5874H20.9453V41.658Z" fill="#1B1B1B"/>
<path d="M41.2829 31.6875H25.0449V33.7581H42.9995C42.5319 32.965 41.9549 32.2676 41.2829 31.6875Z" fill="#1B1B1B"/>
<path d="M25.0449 27.7373V29.8079H41.2829C41.9695 29.2278 42.5465 28.5302 42.9995 27.7373H25.0449Z" fill="#1B1B1B"/>
<path d="M42.9978 19.8296H20.9453V21.9001H43.8159C43.626 21.1659 43.3484 20.4685 42.9978 19.8296Z" fill="#1B1B1B"/>
<path d="M36.2211 15.8794H20.9473V17.9499H41.4876C40.1144 16.6723 38.2518 15.8794 36.2211 15.8794Z" fill="#1B1B1B"/>
<path d="M31.1879 23.7798H25.0449V25.8503H31.1879V23.7798Z" fill="#1B1B1B"/>
<path d="M37.3379 25.8503H43.7658C43.9484 25.1896 44.0434 24.492 44.0434 23.7798H37.3379V25.8503Z" fill="#1B1B1B"/>
<path d="M25.0449 35.6377H31.1879V37.7082H25.0449V35.6377Z" fill="#1B1B1B"/>
<path d="M37.3379 35.6377V37.7082H44.0434C44.0434 36.996 43.9484 36.2986 43.7658 35.6377H37.3379Z" fill="#1B1B1B"/>
<path d="M20.9453 45.5939L36.2192 45.616C38.2645 45.616 40.1125 44.823 41.493 43.5454H20.9453V45.5939Z" fill="#1B1B1B"/>
<path d="M45.5332 43.5454H55.7741V45.6086H45.5332V43.5454Z" fill="#1B1B1B"/>
<path d="M45.5332 39.5879H55.7741V41.6584H45.5332V39.5879Z" fill="#1B1B1B"/>
<path d="M49.625 35.6377H55.7754V37.7082H49.625V35.6377Z" fill="#1B1B1B"/>
<path d="M49.625 31.6875H55.7754V33.7581H49.625V31.6875Z" fill="#1B1B1B"/>
<path d="M58.623 19.8296H45.5332V21.9001H59.3314L58.623 19.8296Z" fill="#1B1B1B"/>
<path d="M57.2642 15.8794H45.5332V17.9499H57.9728L57.2642 15.8794Z" fill="#1B1B1B"/>
<path d="M68.0625 43.5454H78.3108V45.6086H68.0625V43.5454Z" fill="#1B1B1B"/>
<path d="M68.0625 39.5879H78.3108V41.6584H68.0625V39.5879Z" fill="#1B1B1B"/>
<path d="M68.0625 35.6377H74.2129V37.7082H68.0625V35.6377Z" fill="#1B1B1B"/>
<path d="M68.0625 31.6875H74.2129V33.7581H68.0625V31.6875Z" fill="#1B1B1B"/>
<path d="M68.0617 29.8079H74.2121V27.7373H68.0617H62.4957L61.9186 29.4114L61.3416 27.7373H55.7754H49.625V29.8079H55.7754V27.9061L56.4256 29.8079H67.4116L68.0617 27.9061V29.8079Z" fill="#1B1B1B"/>
<path d="M74.2109 23.7798H63.8531L63.1445 25.8503H74.2109V23.7798Z" fill="#1B1B1B"/>
<path d="M66.5777 15.8794L65.8691 17.9499H78.3087V15.8794H66.5777Z" fill="#1B1B1B"/>
<path d="M61.9195 45.5939L62.628 43.5454H61.2109L61.9195 45.5939Z" fill="#1B1B1B"/>
<path d="M60.5591 41.6584H63.2764L64.0068 39.5879H59.8359L60.5591 41.6584Z" fill="#1B1B1B"/>
<path d="M59.1783 37.7082H64.6567L65.3798 35.6377H58.4551L59.1783 37.7082Z" fill="#1B1B1B"/>
<path d="M57.8062 33.7581H66.0384L66.7397 31.6875H57.0977L57.8062 33.7581Z" fill="#1B1B1B"/>
<path d="M49.625 25.8503H60.6914L59.9829 23.7798H49.625V25.8503Z" fill="#1B1B1B"/>
<path d="M64.5117 21.9001H78.3103V19.8296H65.213L64.5117 21.9001Z" fill="#1B1B1B"/>
</g>
</g>
<defs>
<clipPath id="clip0_63_821">
<rect width="81.2808" height="60.208" fill="white" transform="translate(0.798828 0.827637)"/>
</clipPath>
</defs>
</svg>
