<svg width="143" height="61" viewBox="0 0 143 61" fill="none" xmlns="http://www.w3.org/2000/svg">
<g clip-path="url(#clip0_63_537)">
<g clip-path="url(#clip1_63_537)">
<g clip-path="url(#clip2_63_537)">
<mask id="mask0_63_537" style="mask-type:luminance" maskUnits="userSpaceOnUse" x="1" y="0" width="141" height="61">
<path d="M141.928 0.0327148H1.19141V60.2407H141.928V0.0327148Z" fill="white"/>
</mask>
<g mask="url(#mask0_63_537)">
<g opacity="0.85">
<path fill-rule="evenodd" clip-rule="evenodd" d="M33.3825 38.4153H29.6403V28.1317L24.027 33.6457L18.4135 28.1317V38.4153H14.6713V21.1055H16.6608L24.0743 28.3876L31.393 21.1055H33.3825V38.4153ZM10.9292 28.8804H1.26562L10.9292 38.3728V28.8804ZM38.3077 38.3643H55.4053V34.9031H42.0644V30.9677H50.3482V27.5064H42.0644V24.6615H54.6828V21.1055H38.3077V38.3643ZM74.3223 38.3645H78.506L73.8895 31.149C74.9955 30.7716 75.861 30.1586 76.5342 29.2626C77.1596 28.3666 77.496 27.3762 77.496 26.2444C77.496 24.5938 76.9188 23.3204 75.7649 22.4244C74.7071 21.6227 73.3607 21.1983 71.6296 21.1983H59.8968V38.3645H63.5994V31.3376H69.7062L74.3223 38.3645ZM73.2164 25.1125C73.553 25.3955 73.6972 25.7728 73.6972 26.2444C73.6972 26.6688 73.553 27.0461 73.2164 27.4706C72.8798 27.7536 72.3508 27.8949 71.5815 27.8949H63.5994V24.7353H71.5815C72.3028 24.7353 72.8798 24.8767 73.2164 25.1125ZM96.4759 38.3645H100.858L92.6722 27.5177L100.28 21.1983H95.0798L87.3273 27.6119V21.1983H83.5718V38.3645H87.3273V31.9979L89.9757 29.7814L96.4759 38.3645ZM105.211 38.3643H120.986V34.9031H108.962V21.1055H105.211V38.3643ZM125.033 38.3643H142.131V34.9031H128.741V30.9677H137.026V27.5064H128.741V24.6615H141.408V21.1055H125.033V38.3643Z" fill="#1B1B1B"/>
</g>
</g>
</g>
</g>
</g>
<defs>
<clipPath id="clip0_63_537">
<rect width="141.489" height="60.208" fill="white" transform="translate(0.814453 0.0327148)"/>
</clipPath>
<clipPath id="clip1_63_537">
<rect width="141.489" height="60.208" fill="white" transform="translate(0.814453 0.0327148)"/>
</clipPath>
<clipPath id="clip2_63_537">
<rect width="141.489" height="60.208" fill="white" transform="translate(0.814453 0.0327148)"/>
</clipPath>
</defs>
</svg>
