<svg width="139" height="62" viewBox="0 0 139 62" fill="none" xmlns="http://www.w3.org/2000/svg">
<g clip-path="url(#clip0_63_898)">
<g clip-path="url(#clip1_63_898)">
<mask id="mask0_63_898" style="mask-type:luminance" maskUnits="userSpaceOnUse" x="7" y="4" width="125" height="42">
<path d="M131.961 4.59229H7.03711V45.9828H131.961V4.59229Z" fill="white"/>
</mask>
<g mask="url(#mask0_63_898)">
<path d="M76.2422 27.3814C77.3101 27.3814 78.1213 27.1637 78.1213 25.1126V16.2953L76.559 16.2154V15.5444L81.346 15.6243L84.4134 24.0083H84.433L87.5403 15.6243L92.2701 15.5444V16.2154L90.6672 16.2953V27.3015L92.2701 27.3814V28.0524C91.4784 28.0524 89.9944 27.9726 89.2027 27.9726C88.4118 27.9726 87.0052 28.0524 86.2143 28.0524V27.3814L87.7969 27.3015V17.1621H87.7563L83.8603 28.0125H82.891L78.9521 17.1621H78.9123V25.1126C78.9123 27.1637 79.6859 27.3814 80.9494 27.3814V28.0524C79.9621 28.0524 79.3894 27.9726 78.5962 27.9726C77.803 27.9726 77.2295 28.0524 76.2422 28.0524V27.3814Z" fill="#1B1B1B"/>
<path d="M92.6055 23.5931C92.6055 20.2399 94.8812 18.6802 97.415 18.6802C99.9497 18.6802 102.243 20.0422 102.243 23.3954C102.243 26.7485 100.027 28.3083 97.415 28.3083C94.8029 28.3083 92.6055 26.9663 92.6055 23.5931ZM99.3544 23.4953C99.3544 20.8111 98.8193 19.3532 97.415 19.3532C96.0108 19.3532 95.496 20.8131 95.496 23.4953C95.496 26.1774 96.0514 27.6373 97.415 27.6373C98.7794 27.6373 99.3544 26.1974 99.3544 23.4953Z" fill="#1B1B1B"/>
<path d="M103.922 20.773C103.922 19.6886 103.587 19.6886 102.578 19.6886V19.0176L106.534 18.8198V24.2441C106.534 26.1393 106.574 27.104 107.8 27.104C108.769 27.104 109.995 25.9596 109.995 24.0264V20.7711C109.995 19.6866 109.541 19.6866 108.669 19.6866V19.0156L112.608 18.8179V27.2617L113.954 27.3017V27.9707L110.154 28.1684L110.096 26.413H110.076C109.443 27.4775 108.335 28.2663 106.771 28.2663C104.694 28.2663 103.92 27.2018 103.92 24.953V20.7711L103.922 20.773Z" fill="#1B1B1B"/>
<path d="M119.634 27.3816V28.0526C118.684 28.0526 118.169 27.9727 117.022 27.9727C115.873 27.9727 115.34 28.0526 114.371 28.0526V27.3816L115.715 27.2837V20.7351C115.715 19.6886 115.379 19.6886 114.371 19.6886V19.0176L118.169 18.8219L118.209 20.5374H118.229C118.902 19.453 119.97 18.6641 121.535 18.6641C123.196 18.6641 124.383 19.6706 124.383 22.157V27.2857L125.749 27.3835V28.0546C124.78 28.0546 124.245 27.9747 123.097 27.9747C121.949 27.9747 121.454 28.0546 120.485 28.0546V27.3835L121.791 27.2857V22.7282C121.791 20.5973 121.553 19.8284 120.505 19.8284C119.535 19.8284 118.327 20.9728 118.327 22.906V27.2857L119.634 27.3835V27.3816Z" fill="#1B1B1B"/>
<path d="M129.37 25.4282C129.331 26.6524 129.37 27.3215 130.181 27.3215C130.914 27.3215 131.328 26.2769 131.328 26.2769L131.961 26.5126C131.961 26.5126 131.547 28.328 129.467 28.328C127.034 28.328 126.777 27.0059 126.777 25.4681V19.7863H125.293V19.0174H126.777V15.7221C128.262 15.7221 129.37 15.3467 129.37 15.3467V19.0154H131.585V19.7843H129.37V25.4262V25.4282Z" fill="#1B1B1B"/>
<path d="M77.8441 40.9919C78.0029 41.8806 79.289 45.2338 81.8786 45.2338C83.5018 45.2338 84.1543 44.3271 84.1543 43.3006C84.1543 39.6518 77.3279 41.6829 77.3279 36.6921C77.3279 33.7543 79.7616 32.7856 81.5603 32.7856C83.2031 32.7856 84.0542 33.3169 84.3711 33.3169C84.7074 33.3169 84.8053 32.8836 84.8053 32.8836H85.4585C85.4585 33.5346 85.4186 34.0079 85.4186 34.639C85.4186 35.5657 85.4585 36.0989 85.4585 36.73H84.8053C84.6472 35.8632 83.5199 33.4567 81.4022 33.4567C80.2139 33.4567 79.4027 34.1856 79.4027 35.2122C79.4027 38.5653 86.4285 36.6321 86.4285 41.9185C86.4285 44.8184 84.2326 45.9827 81.8169 45.9827C79.7195 45.9827 78.6321 45.2717 78.2754 45.2717C77.8607 45.2717 77.7802 45.745 77.7802 45.745H77.127C77.127 44.7984 77.1856 44.2272 77.1856 43.2806C77.1856 42.3339 77.127 41.8007 77.127 40.9919H77.8404H77.8441Z" fill="#1B1B1B"/>
<path d="M89.8366 31.6416C90.6478 31.6416 91.4192 32.1728 91.4192 33.1414C91.4192 34.1101 90.6478 34.6413 89.8366 34.6413C89.0253 34.6413 88.2344 34.1101 88.2344 33.1414C88.2344 32.1728 89.0057 31.6416 89.8366 31.6416Z" fill="#1B1B1B"/>
<path d="M92.4688 44.9182V45.5872C91.5176 45.5872 90.9645 45.5073 89.8168 45.5073C88.6684 45.5073 88.1356 45.5872 87.1641 45.5872V44.9182L88.5089 44.8183V38.3097C88.5089 37.2252 88.1522 37.2252 87.1641 37.2252V36.5542L91.121 36.3564V44.8203L92.4666 44.9201L92.4688 44.9182Z" fill="#1B1B1B"/>
<path d="M98.1469 44.9163V45.5872C97.1957 45.5872 96.6832 45.5074 95.5333 45.5074C94.3834 45.5074 93.8521 45.5872 92.8828 45.5872V44.9163L94.2269 44.8183V38.2678C94.2269 37.2233 93.8905 37.2233 92.8828 37.2233V36.5522L96.6832 36.3565L96.7231 38.0721H96.7427C97.4162 36.9856 98.4841 36.1987 100.049 36.1987C101.711 36.1987 102.899 37.2053 102.899 39.6917V44.8204L104.263 44.9182V45.5893C103.294 45.5893 102.759 45.5093 101.612 45.5093C100.467 45.5093 99.9704 45.5893 99.0003 45.5893V44.9182L100.307 44.8204V40.2629C100.307 38.132 100.068 37.3631 99.0207 37.3631C98.0514 37.3631 96.8435 38.5074 96.8435 40.4407V44.8204L98.1492 44.9182L98.1469 44.9163Z" fill="#1B1B1B"/>
<path d="M114.808 44.0695C114.808 44.0695 114.529 45.8649 112.492 45.8649C111.523 45.8649 110.711 45.4715 110.375 44.4829H110.334C109.9 45.3117 109.069 45.9428 107.624 45.9428C106.18 45.9428 104.598 45.3117 104.598 43.2387C104.598 40.6744 107.624 40.4387 110.315 40.4567V39.4901C110.373 37.9124 110.234 36.8659 108.948 36.8659C107.959 36.8659 107.524 37.3591 107.424 37.5569C107.424 37.5569 107.861 37.7945 107.861 38.4656C107.861 39.1366 107.346 39.6478 106.535 39.6478C105.723 39.6478 105.209 39.1746 105.209 38.3857C105.209 36.9857 107.01 36.1968 109.147 36.1968C112.609 36.1968 112.904 38.148 112.867 40.0034L112.768 43.732C112.749 44.3431 112.945 44.7585 113.379 44.7585C113.954 44.7585 114.153 43.9097 114.153 43.9097L114.806 44.0675L114.808 44.0695ZM110.276 41.1297C107.822 41.0897 107.27 41.7409 107.27 42.983C107.27 44.1474 107.725 44.7385 108.556 44.7385C109.327 44.7385 110.198 44.0695 110.237 42.6496L110.276 41.1297Z" fill="#1B1B1B"/>
<path d="M117.499 31.6416C118.31 31.6416 119.081 32.1728 119.081 33.1414C119.081 34.1101 118.31 34.6413 117.499 34.6413C116.687 34.6413 115.896 34.1101 115.896 33.1414C115.896 32.1728 116.668 31.6416 117.499 31.6416Z" fill="#1B1B1B"/>
<path d="M120.129 44.9182V45.5872C119.179 45.5872 118.624 45.5073 117.479 45.5073C116.333 45.5073 115.798 45.5872 114.826 45.5872V44.9182L116.17 44.8183V38.3097C116.17 37.2252 115.814 37.2252 114.826 37.2252V36.5542L118.782 36.3564V44.8203L120.127 44.9201L120.129 44.9182Z" fill="#1B1B1B"/>
<path d="M29.8149 45.7549H24.7969L48.4648 10.0981L51.1291 13.9426L29.8149 45.7549Z" fill="#29292B"/>
<path d="M38.6977 45.7552H33.6797L52.8744 16.4634L55.5367 20.3098L38.6977 45.7552Z" fill="#29292B"/>
<path d="M45.243 5.44306C45.0708 5.19542 44.7763 4.59229 44.1212 4.59229C43.4662 4.59229 43.1697 5.2114 42.9994 5.44306L15.918 45.7552H20.938L46.7755 7.65388L45.245 5.44506L45.243 5.44306Z" fill="#29292B"/>
<path d="M32.3737 11.3766C32.2014 11.129 31.907 10.5278 31.2499 10.5278C30.5928 10.5278 30.2984 11.1449 30.1281 11.3766L7.03711 45.7553H12.0551L33.8741 13.6294L32.3737 11.3766Z" fill="#29292B"/>
<path d="M32.3675 11.3781C32.1952 11.1304 31.9008 10.5293 31.2457 10.5293C30.5906 10.5293 30.2942 11.1484 30.1219 11.3781L28.6055 13.6428L50.3783 45.7527H55.3984L32.3675 11.3781Z" fill="#919191"/>
<path d="M45.2386 5.44501C45.0663 5.19737 44.7699 4.59424 44.1168 4.59424C43.4638 4.59424 43.1653 5.21334 42.993 5.44501L41.4766 7.70976L68.1273 45.7551H73.1454L45.2386 5.44501Z" fill="#919191"/>
<path d="M51.1253 13.9484L48.463 10.104L45.8789 13.9944L48.5451 17.8009L51.1253 13.9484Z" fill="#919191"/>
<path d="M55.5324 20.3158L52.8702 16.4673L50.3281 20.3457L52.9944 24.1503L55.5324 20.3158Z" fill="#919191"/>
<path d="M59.2522 45.7551H64.2722L39.9212 10.0464L37.291 13.9388L59.2522 45.7551Z" fill="#919191"/>
<path d="M45.2386 5.44501C45.0663 5.19737 44.7698 4.59424 44.1168 4.59424C44.0327 4.59424 43.9565 4.60422 43.8824 4.6222C43.3796 4.74601 43.1472 5.24131 42.997 5.44501L41.6248 7.48608L41.4746 7.70976L44.1469 11.5243L46.7691 7.65983L45.2366 5.44701L45.2386 5.44501Z" fill="#919191"/>
<path d="M39.9212 10.0464L37.291 13.9388L39.9232 17.7533L42.5434 13.8908L39.9212 10.0464Z" fill="#919191"/>
<path d="M44.3137 24.1143L46.8918 20.2678L44.2676 16.4214L41.6875 20.3078L44.3137 24.1143Z" fill="#919191"/>
<path d="M48.759 30.5509L51.2931 26.7224L48.6709 22.876L46.1328 26.7484L48.759 30.5509Z" fill="#919191"/>
<path d="M32.3676 11.3781C32.1953 11.1304 31.9008 10.5293 31.2457 10.5293C31.1616 10.5293 31.0855 10.5393 31.0114 10.5553C30.5086 10.6791 30.2782 11.1744 30.1259 11.3761L28.6035 13.6428L31.2317 17.5193L33.872 13.6288L33.8519 13.5989L32.3655 11.3781H32.3676Z" fill="#919191"/>
<path d="M38.2727 20.1921L35.6845 16.3296L33.0703 20.224L35.6584 24.0446L38.2727 20.1921Z" fill="#919191"/>
<path d="M42.6093 26.6645L40.0272 22.812L37.4551 26.6905L40.0372 30.503L42.6093 26.6645Z" fill="#919191"/>
<path d="M46.9969 33.2152L44.4188 29.3667L41.8848 33.2292L44.4669 37.0357L46.9969 33.2152Z" fill="#919191"/>
</g>
</g>
</g>
<defs>
<clipPath id="clip0_63_898">
<rect width="138.47" height="60.208" fill="white" transform="translate(0.263672 0.827637)"/>
</clipPath>
<clipPath id="clip1_63_898">
<rect width="138.47" height="60.208" fill="white" transform="translate(0.263672 0.827637)"/>
</clipPath>
</defs>
</svg>
