<svg width="141" height="61" viewBox="0 0 141 61" fill="none" xmlns="http://www.w3.org/2000/svg">
<g clip-path="url(#clip0_63_748)">
<g clip-path="url(#clip1_63_748)">
<g opacity="0.85">
<path d="M48.077 20.3975C47.8246 20.3975 47.6101 20.5798 47.5706 20.8282L44.6483 39.2689C44.6377 39.3362 44.6418 39.4051 44.6605 39.4707C44.6792 39.5363 44.7119 39.5972 44.7565 39.6489C44.801 39.7008 44.8562 39.7424 44.9185 39.7709C44.9807 39.7994 45.0485 39.8142 45.117 39.8142H48.5826C48.8348 39.8142 49.0495 39.6315 49.089 39.3835L49.9475 33.9683C49.9866 33.7203 50.2014 33.5375 50.4538 33.5375H53.6047C57.2863 33.5375 60.4115 30.8647 60.9823 27.2428C61.5579 23.5903 58.6903 20.4054 54.6258 20.3975H48.077ZM51.446 24.5141H53.967C56.0425 24.5141 56.7184 25.7327 56.5047 27.0803C56.291 28.4308 55.2413 29.4255 53.2335 29.4255H50.6676L51.446 24.5141ZM68.0311 25.7676C67.156 25.7709 66.149 25.9493 65.0186 26.4179C62.4254 27.4934 61.1801 29.716 60.6513 31.3365C60.6513 31.3365 58.9681 36.2803 62.771 38.9964C62.771 38.9964 66.2979 41.6113 70.2681 38.8353L70.1996 39.2689C70.189 39.3362 70.1932 39.405 70.2118 39.4706C70.2305 39.5361 70.2631 39.5969 70.3075 39.6487C70.352 39.7005 70.4073 39.7421 70.4693 39.7707C70.5315 39.7992 70.5992 39.8141 70.6676 39.8142H73.9576C74.2101 39.8142 74.4245 39.6315 74.464 39.3835L76.4651 26.7552C76.4756 26.6879 76.4718 26.619 76.453 26.5533C76.435 26.4877 76.4018 26.4268 76.3574 26.375C76.313 26.323 76.2581 26.2813 76.1956 26.2527C76.1332 26.2241 76.0654 26.2092 75.997 26.2092H72.7073C72.4548 26.2092 72.24 26.3919 72.2009 26.6399L72.0933 27.3196C72.0933 27.3196 70.6567 25.7579 68.0311 25.7676ZM68.1386 29.7564C68.5164 29.7564 68.862 29.8083 69.172 29.9074C70.5916 30.3608 71.3964 31.7178 71.1635 33.1887C70.8763 34.9997 69.3836 36.3333 67.4693 36.3333C67.0918 36.3333 66.7463 36.2817 66.4359 36.1826C65.0167 35.7293 64.2068 34.3723 64.4397 32.9014C64.7269 31.0903 66.2243 29.7564 68.1386 29.7564Z" fill="#1B1B1B"/>
<path d="M95.4541 20.3975C95.2012 20.3975 94.9867 20.5798 94.9476 20.8282L92.0253 39.2689C92.0148 39.3362 92.0185 39.4051 92.0374 39.4707C92.0562 39.5363 92.0885 39.5972 92.1337 39.6489C92.1781 39.7008 92.233 39.7424 92.2955 39.7709C92.358 39.7994 92.4257 39.8142 92.4942 39.8142H95.9598C96.2119 39.8142 96.4264 39.6315 96.4663 39.3835L97.3242 33.9683C97.3634 33.7203 97.5786 33.5375 97.8307 33.5375H100.982C104.663 33.5375 107.788 30.8647 108.359 27.2428C108.934 23.5903 106.067 20.4054 102.003 20.3975H95.4541ZM98.8226 24.5141H101.344C103.419 24.5141 104.095 25.7327 103.881 27.0803C103.668 28.4308 102.619 29.4255 100.611 29.4255H98.0444L98.8226 24.5141ZM115.408 25.7676C114.533 25.7709 113.526 25.9493 112.395 26.4179C109.802 27.4934 108.556 29.716 108.028 31.3365C108.028 31.3365 106.345 36.2803 110.148 38.9964C110.148 38.9964 113.675 41.6113 117.645 38.8353L117.577 39.2689C117.566 39.3362 117.57 39.4051 117.589 39.4707C117.608 39.5363 117.64 39.5972 117.684 39.6489C117.73 39.7008 117.785 39.7424 117.847 39.7709C117.909 39.7994 117.976 39.8142 118.045 39.8142H121.335C121.587 39.8142 121.802 39.6315 121.841 39.3835L123.844 26.7552C123.854 26.6878 123.85 26.6189 123.832 26.5532C123.813 26.4875 123.78 26.4266 123.735 26.3747C123.691 26.3228 123.636 26.2811 123.573 26.2525C123.511 26.224 123.443 26.2092 123.375 26.2092H120.084C119.832 26.2092 119.617 26.3919 119.578 26.6399L119.47 27.3196C119.47 27.3196 118.034 25.7579 115.408 25.7676ZM115.516 29.7564C115.893 29.7564 116.239 29.8083 116.549 29.9074C117.968 30.3608 118.773 31.7178 118.54 33.1887C118.253 34.9997 116.76 36.3333 114.846 36.3333C114.469 36.3333 114.123 36.2817 113.812 36.1826C112.393 35.7293 111.583 34.3723 111.817 32.9014C112.103 31.0903 113.601 29.7564 115.516 29.7564Z" fill="#1B1B1B"/>
<path d="M78.0278 26.2094C77.7667 26.2094 77.5815 26.4628 77.6613 26.7096L81.2677 37.8469L78.0067 43.0953C77.8479 43.3501 78.0323 43.6792 78.3333 43.6792H82.1881C82.2979 43.679 82.4063 43.6507 82.5026 43.5968C82.5982 43.5428 82.6787 43.4652 82.7359 43.3714L92.8092 26.7896C92.9642 26.5348 92.7791 26.209 92.4803 26.209H88.6256C88.515 26.2091 88.4051 26.238 88.3088 26.2929C88.2117 26.3478 88.1312 26.4269 88.0747 26.5222L84.1094 33.1834L82.097 26.5716C82.0308 26.3564 81.8313 26.209 81.6056 26.209L78.0278 26.2094Z" fill="#1B1B1B"/>
<path d="M127.582 20.3975C127.329 20.3975 127.115 20.5802 127.076 20.8282L124.152 39.2682C124.142 39.3356 124.146 39.4045 124.164 39.4702C124.183 39.5359 124.216 39.5968 124.26 39.6487C124.305 39.7006 124.36 39.7423 124.422 39.7708C124.485 39.7994 124.552 39.8142 124.621 39.8142H128.087C128.339 39.8142 128.554 39.6315 128.593 39.3835L131.515 20.9428C131.526 20.8754 131.522 20.8066 131.503 20.7411C131.484 20.6755 131.452 20.6148 131.408 20.563C131.363 20.5112 131.308 20.4696 131.246 20.441C131.183 20.4124 131.116 20.3975 131.047 20.3975H127.582Z" fill="#1B1B1B"/>
<path opacity="0.8" d="M19.1868 20.3975C18.9635 20.3976 18.7477 20.477 18.578 20.6214C18.4083 20.7657 18.2958 20.9656 18.2609 21.185L16.7227 30.8931C16.7944 30.4398 17.187 30.1056 17.6485 30.1056H22.1562C26.693 30.1056 30.5425 26.8125 31.246 22.3498C31.2984 22.0166 31.328 21.6803 31.3348 21.3432C30.1818 20.7416 28.8275 20.3975 27.3435 20.3975H19.1868Z" fill="#1B1B1B"/>
<path opacity="0.5" d="M31.3321 21.3438C31.3254 21.6809 31.2957 22.0172 31.2434 22.3504C30.54 26.8131 26.69 30.1062 22.1536 30.1062H17.6458C17.1847 30.1062 16.7918 30.4399 16.7201 30.8937L15.3056 39.8148L14.4196 45.4113C14.4023 45.5195 14.4088 45.63 14.4386 45.7355C14.4684 45.8408 14.5209 45.9385 14.5924 46.0218C14.6638 46.1051 14.7525 46.1719 14.8525 46.2177C14.9524 46.2636 15.0612 46.2872 15.1712 46.2872H20.064C20.2873 46.287 20.5031 46.2076 20.6728 46.0632C20.8426 45.9189 20.9549 45.7191 20.9898 45.4997L22.2786 37.3661C22.3135 37.1466 22.4261 36.9466 22.5958 36.8023C22.7657 36.658 22.9818 36.5786 23.2051 36.5786H26.0858C30.6226 36.5786 34.4722 33.2854 35.1756 28.8228C35.6751 25.6554 34.072 22.7732 31.3321 21.3438Z" fill="#1B1B1B"/>
<path d="M13.6263 13.9263C13.1652 13.9263 12.7722 14.26 12.7004 14.7131L8.86102 38.9389C8.78817 39.3988 9.14535 39.8147 9.6133 39.8147H15.307L16.7207 30.8937L18.259 21.1854C18.2939 20.966 18.4063 20.7662 18.5761 20.6219C18.7458 20.4775 18.9616 20.3981 19.1848 20.3979H27.3416C28.8259 20.3979 30.1799 20.7425 31.3328 21.3437C31.4118 17.2807 28.0424 13.9263 23.4101 13.9263H13.6263Z" fill="#1B1B1B"/>
</g>
</g>
</g>
<defs>
<clipPath id="clip0_63_748">
<rect width="139.98" height="60.208" fill="white" transform="translate(0.574219 0.378906)"/>
</clipPath>
<clipPath id="clip1_63_748">
<rect width="139.98" height="60.208" fill="white" transform="translate(0.574219 0.378906)"/>
</clipPath>
</defs>
</svg>
