<svg width="217" height="62" viewBox="0 0 217 62" fill="none" xmlns="http://www.w3.org/2000/svg">
<g clip-path="url(#clip0_63_646)">
<g clip-path="url(#clip1_63_646)">
<g opacity="0.85">
<path d="M151.238 28.248C150.471 29.8899 149.828 31.4001 149.125 32.9102C148.932 33.3055 148.803 33.8275 148.422 33.8275C147.908 33.8275 147.844 33.3004 147.656 32.8443C147.076 31.5318 146.503 30.2193 145.923 28.9727C145.794 28.7751 145.794 28.3797 145.538 28.4457C145.216 28.5115 145.28 28.9068 145.28 29.1652C145.28 31.7903 145.28 34.4153 145.28 37.1062C145.28 37.5015 145.28 37.8917 145.216 38.2869C145.152 38.6823 144.894 38.9457 144.513 38.9457C144.127 38.8799 143.999 38.6163 143.934 38.2869C143.934 38.0234 143.934 37.7599 143.934 37.5015C143.934 33.6299 143.934 29.824 143.934 25.9523C143.934 25.4253 143.805 24.7058 144.384 24.5081C145.028 24.3104 145.409 24.8375 145.666 25.4253C146.369 26.9355 146.947 28.4457 147.65 29.8899C147.844 30.2852 147.908 31.0048 148.417 31.0707C148.997 31.0707 149.061 30.2852 149.249 29.8899C149.952 28.4457 150.53 27.0014 151.233 25.5571C151.491 24.9642 151.812 24.3764 152.515 24.5081C153.217 24.7058 153.029 25.4253 153.029 26.0183C153.029 29.824 153.029 33.6299 153.029 37.4406C153.029 38.0336 153.222 38.9508 152.386 38.9508C151.491 38.9508 151.683 38.0336 151.683 37.3748C151.683 34.8816 151.683 32.3882 151.683 29.8291C151.624 29.297 151.753 28.7751 151.238 28.248Z" fill="#1B1B1B"/>
<path d="M178.733 28.5774C178.347 28.9726 178.476 29.4946 178.476 29.9557C178.476 32.5808 178.476 35.1399 178.476 37.7649C178.476 38.2261 178.605 38.9458 177.961 38.9458C177.258 39.0116 177.258 38.2869 177.258 37.7649C177.258 33.7616 177.258 29.7581 177.258 25.6888C177.258 25.2277 177.194 24.6399 177.709 24.5081C178.288 24.3104 178.605 24.7716 178.862 25.2935C179.886 27.6551 180.975 30.0217 182.004 32.4491C182.197 32.9761 182.454 33.4322 182.648 33.9592C182.776 34.2227 182.776 34.618 183.162 34.4862C183.484 34.3545 183.42 33.9592 183.42 33.7008C183.42 31.1416 183.42 28.5824 183.42 26.0233C183.42 25.6939 183.42 25.4304 183.484 25.1061C183.548 24.6449 183.805 24.4473 184.187 24.4473C184.573 24.5131 184.701 24.8425 184.701 25.2327C184.701 26.2158 184.701 27.2041 184.701 28.1872C184.701 31.2734 184.701 34.2886 184.701 37.3747C184.701 37.9018 184.894 38.6214 184.251 38.819C183.548 39.0826 183.291 38.3579 183.034 37.7701C181.816 35.0791 180.663 32.3223 179.446 29.6315C179.248 29.2311 179.184 28.775 178.733 28.5774Z" fill="#1B1B1B"/>
<path d="M105.986 31.6635C105.922 33.1077 106.051 34.4861 105.857 35.9304C105.536 37.9625 104.448 38.9507 102.463 38.9507C100.35 38.9507 99.1329 38.0334 98.8755 35.9962C98.5534 33.0418 98.4894 30.0215 98.8755 27.0722C99.1329 25.1668 100.415 24.2495 102.334 24.2495C104.254 24.2495 105.476 25.2326 105.793 27.0722C106.115 28.6431 105.927 30.1533 105.986 31.6635ZM104.704 31.6635C104.704 30.5486 104.769 29.4337 104.704 28.3138C104.64 26.6059 103.745 25.6228 102.27 25.6888C100.859 25.6888 100.028 26.6059 99.9637 28.3138C99.8998 30.5435 99.8998 32.8442 99.9637 35.074C100.028 36.7817 100.859 37.699 102.27 37.7649C103.745 37.7649 104.64 36.8476 104.704 35.074C104.769 33.9591 104.704 32.8442 104.704 31.6635Z" fill="#1B1B1B"/>
<path d="M169.315 38.0282C169.315 38.4894 169.251 38.8137 168.865 38.8796C168.544 38.9454 168.286 38.8796 168.162 38.4843C168.098 38.2208 167.97 37.8914 167.905 37.6329C167.326 35.6008 167.326 35.6008 165.599 35.6008C165.406 35.6008 165.213 35.6008 165.02 35.6008C162.843 35.6008 162.843 35.6008 162.071 37.9623C161.942 38.4235 161.878 39.0772 161.239 38.8796C160.596 38.616 160.789 37.9623 160.918 37.4353C161.942 33.4978 162.966 29.4943 164.06 25.5568C164.253 24.9639 164.317 24.1125 165.149 24.1784C165.852 24.2443 165.98 24.9639 166.109 25.5568C167.069 29.2967 168.093 33.0366 169.058 36.8474C169.186 37.2377 169.251 37.6329 169.315 38.0282ZM165.02 34.3542C165.213 34.3542 165.47 34.3542 165.664 34.3542C167.074 34.3542 167.138 34.2883 166.688 32.6464C166.302 31.0704 165.921 29.4943 165.47 27.9842C165.406 27.6548 165.47 27.1987 165.084 27.1987C164.699 27.1987 164.634 27.6599 164.57 28.0501C164.248 29.3626 163.927 30.6751 163.546 31.9876C162.902 34.3542 162.966 34.3542 165.02 34.3542Z" fill="#1B1B1B"/>
<path d="M83.4297 31.6635C83.4297 29.6313 83.4297 27.5942 83.4297 25.562C83.4297 24.5789 83.7511 24.2495 84.5187 24.2495C85.2209 24.2495 85.993 24.2495 86.6959 24.2495C89.6453 24.3154 90.7335 25.6938 90.6696 29.1701C90.6049 31.5317 89.4519 32.91 87.4628 33.0418C86.8841 33.0418 86.3738 33.1077 85.7951 33.0418C84.8995 32.976 84.5774 33.4371 84.6421 34.4203C84.7061 35.601 84.6421 36.7817 84.6421 37.8966C84.6421 38.3578 84.5774 38.8797 83.9987 38.8797C83.4199 38.8797 83.4199 38.3527 83.4199 37.8308C83.4297 35.7986 83.4297 33.6956 83.4297 31.6635ZM86.4385 31.856C88.2989 31.856 89.0018 31.3949 89.3232 30.0165C89.6453 28.6381 89.6453 27.3256 88.6797 26.2766C87.6555 25.2276 86.3099 25.6836 85.0922 25.7496C84.6421 25.7496 84.6421 26.3425 84.6421 26.7985C84.6421 27.7816 84.6421 28.7698 84.6421 29.7529C84.6474 31.856 84.6474 31.856 86.4385 31.856Z" fill="#1B1B1B"/>
<path d="M117.399 39.0774C116.052 39.0774 114.964 38.814 114.127 37.7649C113.87 37.4355 113.549 36.9795 113.935 36.5183C114.256 36.123 114.638 36.3866 114.895 36.716C115.662 37.5673 116.498 37.8309 117.522 37.7649C118.483 37.6991 119.19 37.2379 119.571 36.123C119.957 35.0081 119.7 33.9592 118.992 33.1686C118.289 32.3831 117.388 32.0537 116.493 31.5926C115.211 30.9996 114.252 30.1483 114.123 28.3746C113.929 26.0132 114.954 24.7006 117.201 24.2395C118.16 24.0418 119.061 24.3053 119.893 24.6347C120.343 24.7665 120.724 25.1618 120.536 25.7496C120.343 26.4084 119.893 26.1449 119.511 25.9472C118.681 25.4861 117.78 25.4861 116.948 25.6178C116.246 25.7496 115.602 26.2108 115.474 27.128C115.345 28.0452 115.474 28.8358 116.117 29.4237C116.948 30.1433 117.913 30.4068 118.809 30.8679C120.219 31.5875 120.986 32.8392 120.986 34.6737C120.986 36.3815 120.6 37.694 119.19 38.5454C118.552 39.0116 117.849 38.9457 117.399 39.0774Z" fill="#1B1B1B"/>
<path d="M131.433 32.1855C131.433 30.4778 131.369 28.8359 131.433 27.1331C131.497 25.8865 131.047 25.4912 130.087 25.623C129.701 25.6888 129.255 25.623 128.87 25.623C128.484 25.623 128.227 25.4254 128.227 24.9034C128.227 24.5081 128.484 24.2446 128.805 24.2446C130.983 24.2446 133.165 24.2446 135.342 24.2446C135.664 24.2446 135.921 24.4423 135.921 24.8375C135.921 25.2986 135.664 25.5571 135.278 25.5571C134.827 25.5571 134.318 25.623 133.868 25.5571C132.972 25.4912 132.714 25.9524 132.714 26.9355C132.714 30.1535 132.714 33.4322 132.714 36.6501C132.714 36.9795 132.714 37.3697 132.714 37.6991C132.714 38.2262 132.65 38.814 132.072 38.814C131.428 38.814 131.428 38.2211 131.428 37.6991C131.428 36.1231 131.428 34.6129 131.428 33.0369C131.433 32.7785 131.433 32.5149 131.433 32.1855Z" fill="#1B1B1B"/>
<path d="M64.8395 20.5461C64.729 20.6169 64.6737 20.7725 64.7428 20.8998C64.8671 21.1686 64.8395 21.494 64.6599 21.7203C64.5909 21.8052 64.5355 21.9608 64.6599 22.0457C64.7013 22.074 64.7428 22.0882 64.7842 22.0882C65.1019 22.1023 65.2263 21.7345 65.2815 21.4799C65.3368 21.211 65.3092 20.914 65.1986 20.6593C65.1158 20.5461 64.9638 20.4895 64.8395 20.5461Z" fill="#1B1B1B"/>
<path d="M70.0495 18.1838C62.8103 8.57799 49.3266 6.80962 39.9322 14.2226C30.5517 21.6497 28.8247 35.4571 36.0639 45.0629C43.317 54.6686 56.8007 56.4511 66.1812 49.024C75.5756 41.5969 77.3027 27.8036 70.0495 18.1838ZM57.298 23.2201C58.0025 22.7673 58.8868 22.8664 59.5222 23.3756C59.1769 23.4322 58.8453 23.5596 58.5828 23.8284L50.6805 31.878L49.1332 30.2935C53.2363 26.1202 55.7369 23.9415 57.298 23.2201ZM51.1088 32.3165L59.0387 24.2669C59.4255 23.8708 60.061 23.8708 60.4478 24.2669C60.6551 24.465 60.7656 24.7338 60.7518 25.0167C60.738 25.2996 60.6136 25.5684 60.4065 25.7523L51.9929 33.2502L51.1088 32.3165ZM51.537 33.7029L49.5339 34.0141L50.6943 32.8258L51.537 33.7029ZM48.6911 30.7603L50.0174 32.1043L46.674 32.8399L48.6911 30.7603ZM40.0704 43.6906L41.6868 42.0354L43.6486 43.9169L40.0704 43.6906ZM44.3254 41.4412C44.1182 41.5403 43.9939 41.7949 44.063 42.0212L44.4221 43.6199C44.4498 43.6623 44.4498 43.7048 44.4221 43.7472C44.3807 43.7897 44.3254 43.7897 44.284 43.7472L42.1703 41.5686L48.6773 34.8064L52.0482 34.2688L53.2916 35.542C50.5285 37.8762 47.5306 39.8568 44.3254 41.4412ZM53.858 35.061L52.5455 33.7171L60.7518 26.3465C60.1853 28.7232 57.0908 31.9346 53.858 35.061ZM60.4755 23.3332C59.8952 22.739 59.5637 21.9186 59.5637 21.0839C59.5499 19.3014 60.959 17.8584 62.6997 17.8442C63.4043 17.8442 64.0813 18.0847 64.6339 18.5233L61.8432 21.3951C61.7741 21.4516 61.7327 21.5224 61.7327 21.6214C61.7327 21.7205 61.7741 21.8054 61.8432 21.862L63.9569 24.0264C62.7688 24.5357 61.3873 24.2669 60.4755 23.3332ZM64.9379 23.3615C64.8134 23.4747 64.6891 23.5879 64.551 23.6869L62.5339 21.6214L65.1036 18.9901C65.601 19.5701 65.8772 20.3058 65.8772 21.0839C65.8635 21.9186 65.5319 22.7532 64.9379 23.3615Z" fill="#1B1B1B"/>
</g>
</g>
</g>
<defs>
<clipPath id="clip0_63_646">
<rect width="215.24" height="60.208" fill="white" transform="translate(0.827148 0.930176)"/>
</clipPath>
<clipPath id="clip1_63_646">
<rect width="215.24" height="60.208" fill="white" transform="translate(0.827148 0.930176)"/>
</clipPath>
</defs>
</svg>
