<svg width="69" height="61" viewBox="0 0 69 61" fill="none" xmlns="http://www.w3.org/2000/svg">
<g clip-path="url(#clip0_63_709)">
<g clip-path="url(#clip1_63_709)">
<g clip-path="url(#clip2_63_709)">
<g opacity="0.85">
<path d="M67.5608 26.7238H43.1973V20.4878H67.5608V26.7238Z" fill="black" fill-opacity="0.5"/>
<path d="M64.3963 26.7237H43.1973V11.127H64.3963V26.7237Z" fill="black" fill-opacity="0.5"/>
<path d="M55.638 26.724H43.1973V4.89453H55.638V26.724Z" fill="black" fill-opacity="0.5"/>
<path d="M58.0855 26.7237H43.1973V7.33008H58.0855V26.7237Z" fill="black" fill-opacity="0.5"/>
<path d="M43.1934 7.33398V26.722H55.6361V7.33398H43.1934Z" fill="black" fill-opacity="0.5"/>
<path d="M30.7227 26.7241H43.1978V29.8424H30.7227V26.7241Z" fill="black" fill-opacity="0.5"/>
<path d="M43.1934 11.1235V26.7217H58.0921V11.1235H43.1934Z" fill="black" fill-opacity="0.5"/>
<path d="M43.1934 11.1235V26.7217H55.6361V11.1235H43.1934Z" fill="black" fill-opacity="0.5"/>
<path d="M50.977 26.7241H43.1973V17.3628H50.977V26.7241Z" fill="black" fill-opacity="0.5"/>
<path d="M43.1934 20.4922V26.7218H64.403V20.4922H43.1934Z" fill="black" fill-opacity="0.5"/>
<path d="M43.1934 20.4922V26.7218H58.0921V20.4922H43.1934Z" fill="black" fill-opacity="0.5"/>
<path d="M43.1934 20.4922V26.7218H55.6361V20.4922H43.1934Z" fill="black" fill-opacity="0.5"/>
<path d="M43.1934 20.4922V26.7217H50.9843V20.4922H43.1934Z" fill="black" fill-opacity="0.5"/>
<path fill-rule="evenodd" clip-rule="evenodd" d="M35.2972 43.8462C37.2312 41.4405 37.9387 40.45 37.9387 39.2707C37.9387 38.0915 36.9953 37.0537 35.6746 37.0537C34.9198 37.0537 34.2123 37.4783 33.8821 37.8556V42.8085L30.7217 47.0537V37.4311H27.7028L22.7028 45.6858V37.4311H21.0047L16.4292 38.4688V39.6481L18.9291 39.8839V50.1198H22.0895L26.9009 42.1952V50.1198H30.4387L35.2972 43.8462ZM45.9104 38.4688C43.7878 38.8462 42.6557 40.45 42.6557 43.233C42.6557 46.0632 44.1651 47.95 46.3821 47.95C47.467 47.95 48.4104 47.5727 50.3915 46.5821V48.8934C47.9859 50.0255 46.5708 50.3085 44.684 50.3085C42.5613 50.3085 41.0519 49.7897 39.8727 48.516C38.6462 47.2896 37.9858 45.6858 37.9858 43.8462C37.9858 39.8368 41.0047 37.0537 45.3916 37.0537C48.2689 37.0537 50.2972 38.4216 50.2972 40.3556C50.2972 41.6292 49.3538 42.5254 47.9859 42.5254C47.2783 42.5254 46.7123 42.2896 45.9104 41.8651V38.4688ZM7.56124 48.516H6.85369V40.0254C7.56124 39.8839 7.98577 39.8368 8.26879 39.8368C10.3914 39.8368 11.5235 41.2519 11.5235 43.8462C11.5235 46.9594 10.1084 48.516 7.56124 48.516ZM8.9292 54.5538L6.85369 54.0821V50.0255C6.92494 50.0294 6.99587 50.0334 7.06629 50.0373C7.83502 50.0802 8.54424 50.1198 8.97631 50.1198C13.2217 50.1198 16.0047 47.3368 16.0047 43.2802C16.0047 39.7425 13.9292 37.1953 11.1933 37.1953C9.96688 37.1953 9.16499 37.4311 6.85369 38.8462V37.1481H5.53293L0.580078 38.6575V39.8368H2.65556V54.0821L0.768759 54.5538V55.7331H8.9292V54.5538Z" fill="#1B1B1B"/>
</g>
</g>
</g>
</g>
<defs>
<clipPath id="clip0_63_709">
<rect width="67.7381" height="60.208" fill="white" transform="translate(0.578125 0.378906)"/>
</clipPath>
<clipPath id="clip1_63_709">
<rect width="67.7381" height="60.208" fill="white" transform="translate(0.578125 0.378906)"/>
</clipPath>
<clipPath id="clip2_63_709">
<rect width="67.734" height="60.208" fill="white" transform="translate(0.580078 0.378906)"/>
</clipPath>
</defs>
</svg>
