<svg width="77" height="61" viewBox="0 0 77 61" fill="none" xmlns="http://www.w3.org/2000/svg">
<g clip-path="url(#clip0_63_617)">
<g clip-path="url(#clip1_63_617)">
<g opacity="0.85">
<path d="M40.5171 27.2836L41.6107 24.0868C43.4851 24.0797 45.3572 24.0655 47.2291 24.0466L48.3322 27.2648C49.9621 27.2576 51.6108 27.2883 53.2383 27.2789L46.747 9.42003C45.9756 9.45074 42.8407 9.53337 42.1022 9.55226L37.2009 23.4328C35.1925 23.4304 33.3133 23.4186 31.2649 23.3997V19.8086L34.9244 19.8511V16.6141L31.2649 16.5598V13.1127C35.2442 13.2048 37.0811 13.1859 37.0787 13.1859L36.3308 9.33973C36.3308 9.33973 31.5707 9.26184 26.373 9.04224V27.26C27.4032 27.2648 32.549 27.2812 35.8393 27.2883V27.2907C36.439 27.2907 37.0081 27.2907 37.5702 27.293C37.7302 27.293 37.8783 27.293 38.0076 27.293C38.8285 27.2836 39.6422 27.2836 40.5171 27.2836ZM46.1191 20.8002C44.988 20.8167 43.8543 20.8309 42.7207 20.8404L44.4259 15.8586L46.1191 20.8002Z" fill="#1B1B1B"/>
<path d="M55.2343 27.2743C56.8618 27.2625 58.4868 27.2791 60.1122 27.2649L60.1356 12.5485C61.911 12.4069 63.6843 12.2511 65.4552 12.074L64.7006 8.0083C60.0365 8.56784 55.3684 8.97634 50.6812 9.23606L49.9238 13.1766C51.6947 13.101 53.4656 13.009 55.2343 12.9004V27.2743Z" fill="#1B1B1B"/>
<path d="M16.9036 13.3608C16.9036 11.1438 21.6238 11.7411 23.8016 13.028L24.0038 8.64818C23.4887 8.48765 21.4051 8.01074 18.9191 8.01074C15.4031 8.01074 12.334 10.0979 12.334 13.4152C12.334 19.3295 20.3749 19.738 20.3749 22.1108C20.3749 25.2321 15.0433 23.4967 12.334 20.9209V25.9097C12.334 25.9097 14.3283 27.7702 18.2912 27.7702C22.6586 27.7702 24.8763 24.9134 24.8763 21.8346C24.8787 15.8376 16.9036 15.8116 16.9036 13.3608Z" fill="#1B1B1B"/>
<path d="M67.8869 50.1528L61.445 39.1386L67.1435 30.3154H61.6451L56.6518 38.1776C56.6707 35.5616 56.6333 32.9432 56.6518 30.3248C55.0058 30.3201 53.4183 30.3178 51.7695 30.3154C51.7695 35.1177 51.7695 43.8747 51.7695 48.677C51.7695 48.677 54.994 48.8755 56.6518 49.0054C56.6518 46.1723 56.6518 43.3507 56.6518 40.5198L61.4709 49.409C63.877 49.6569 66.0618 49.9119 67.8869 50.1528Z" fill="#1B1B1B"/>
<path d="M31.2747 40.8621C32.4906 40.8432 34.9224 40.8173 34.9224 40.8173V37.5473C34.9224 37.5473 32.4906 37.5661 31.2747 37.578C31.2747 36.4258 31.2747 35.2712 31.2747 34.119C34.6849 34.1214 37.0814 34.1403 37.0814 34.1403L36.3264 30.3438H26.3828V48.571C28.6735 48.4221 34.9741 48.2781 37.1143 48.2711C37.366 46.9843 37.6176 45.6953 37.8693 44.4107C35.6703 44.4107 33.4713 44.4366 31.2747 44.484C31.2747 43.2657 31.2747 42.0805 31.2747 40.8621Z" fill="#1B1B1B"/>
<path d="M43.9856 40.8244C45.1169 40.8409 46.2504 40.8598 47.3818 40.8858C47.3818 39.7974 47.3818 38.7089 47.3818 37.6204C46.2504 37.6016 45.1191 37.5897 43.9856 37.578C43.9856 36.4211 43.9856 35.3019 43.9856 34.145L49.823 34.1827L49.0705 30.3485C49.0705 30.3485 42.4193 30.3438 39.0938 30.3438V48.2735C42.4804 48.2756 46.1727 48.3845 49.8041 48.571L50.5919 44.6825C48.6776 44.614 45.7285 44.5171 43.988 44.4792C43.9856 43.2587 43.9856 42.0403 43.9856 40.8244Z" fill="#1B1B1B"/>
<path d="M16.9429 41.2824L19.9109 41.1359L19.9133 44.9324C15.4542 45.3384 13.6197 43.8536 13.6197 39.4242C13.6197 35.3137 16.9335 34.2889 19.9862 34.2889C22.6767 34.2889 24.1043 34.5888 24.1043 34.5888L23.2976 30.3295C22.5873 30.2941 21.3291 30.2539 19.1936 30.2539C14.2595 30.2539 8.78906 32.6244 8.78906 40.1254C8.78906 46.4387 13.0883 49.6498 18.5422 49.1353C22.3828 48.7739 24.109 48.6959 24.109 48.6959V37.7077L17.6955 37.8517L16.9429 41.2824Z" fill="#1B1B1B"/>
<path fill-rule="evenodd" clip-rule="evenodd" d="M31.7797 27.2312L26.3984 27.1968V18.1512V9.10571L28.5042 9.17314C29.6623 9.21017 31.8842 9.27211 33.4418 9.31072C35.9018 9.37167 36.28 9.40268 36.3226 9.54688C36.3673 9.69829 37.005 12.9923 37.005 13.0716C37.005 13.0903 35.6936 13.1057 34.0909 13.1057H31.1767L31.2052 14.8542L31.2338 16.6028L33.0795 16.6313L34.9252 16.6598V18.2233V19.7868H33.0535H31.1818V21.6152V23.4436L34.2229 23.4159L37.264 23.3883L39.6939 16.4984C41.0303 12.709 42.1301 9.60332 42.138 9.59692C42.1458 9.5906 43.1817 9.55734 44.44 9.52309L46.7277 9.46086L49.8922 18.1992C51.6327 23.0053 53.0767 26.9963 53.101 27.0681C53.1353 27.17 52.6213 27.1986 50.7551 27.1986H48.3651L47.8187 25.6305C47.5182 24.7679 47.2433 24.0446 47.2079 24.023C47.1726 24.0014 45.8851 24.0137 44.3469 24.0514L41.5503 24.1192L41.0308 25.6589L40.5113 27.1987H39.6057C39.1076 27.1987 38.3538 27.2138 37.9305 27.2321C37.5073 27.2506 34.7394 27.2503 31.7797 27.2312ZM46.1303 20.7003C46.1041 20.6285 45.7169 19.4973 45.2701 18.1865C44.7826 16.7567 44.4267 15.8588 44.3804 15.9421C44.2897 16.1056 42.7242 20.6613 42.7242 20.762C42.7242 20.7998 43.5013 20.8308 44.4511 20.8308C45.7887 20.8308 46.1672 20.8013 46.1303 20.7003Z" stroke="#1B1B1B" stroke-width="0.0112228"/>
<path fill-rule="evenodd" clip-rule="evenodd" d="M16.8327 27.6539C15.532 27.4886 13.8807 26.903 12.8583 26.2444L12.3613 25.9242V23.4861V21.0479L13.0344 21.5592C14.517 22.6859 16.0032 23.393 17.5453 23.7054C19.3406 24.0691 20.3683 23.5144 20.3683 22.1814C20.3683 21.6466 20.3474 21.6055 19.8192 21.0976C19.4413 20.7342 18.8055 20.3275 17.7783 19.7921C14.1017 17.8757 12.774 16.4811 12.4448 14.1898C12.0604 11.5146 13.5924 9.35925 16.5728 8.38172C17.8484 7.96335 21.2631 8.04081 23.403 8.53668L23.9038 8.65273L23.9034 9.33946C23.9032 9.71718 23.8729 10.6854 23.8363 11.4912L23.7695 12.9564L23.2837 12.7229C23.0166 12.5946 22.38 12.3628 21.8691 12.2078C21.0703 11.9656 20.7436 11.9246 19.5364 11.9157C18.2706 11.9063 18.0898 11.9282 17.6976 12.1388C17.1967 12.4075 16.9636 12.6995 16.8761 13.1678C16.73 13.9498 17.398 14.5638 19.5754 15.6486C20.449 16.0838 21.5111 16.6688 21.9359 16.9486C23.4684 17.9582 24.3878 19.1765 24.6869 20.5938C25.3435 23.7042 23.5292 26.6268 20.4203 27.4672C19.8059 27.6333 17.5815 27.7491 16.8327 27.6539Z" stroke="#1B1B1B" stroke-width="0.0112228"/>
<path fill-rule="evenodd" clip-rule="evenodd" d="M16.8327 27.6539C15.532 27.4886 13.8807 26.903 12.8583 26.2444L12.3613 25.9242V23.4861V21.0479L13.0344 21.5592C14.517 22.6859 16.0032 23.393 17.5453 23.7054C19.3406 24.0691 20.3683 23.5144 20.3683 22.1814C20.3683 21.6466 20.3474 21.6055 19.8192 21.0976C19.4413 20.7342 18.8055 20.3275 17.7783 19.7921C14.1017 17.8757 12.774 16.4811 12.4448 14.1898C12.0604 11.5146 13.5924 9.35925 16.5728 8.38172C17.8484 7.96335 21.2631 8.04081 23.403 8.53668L23.9038 8.65273L23.9034 9.33946C23.9032 9.71718 23.8729 10.6854 23.8363 11.4912L23.7695 12.9564L23.2837 12.7229C23.0166 12.5946 22.38 12.3628 21.8691 12.2078C21.0703 11.9656 20.7436 11.9246 19.5364 11.9157C18.2706 11.9063 18.0898 11.9282 17.6976 12.1388C17.1967 12.4075 16.9636 12.6995 16.8761 13.1678C16.73 13.9498 17.398 14.5638 19.5754 15.6486C20.449 16.0838 21.5111 16.6688 21.9359 16.9486C23.4684 17.9582 24.3878 19.1765 24.6869 20.5938C25.3435 23.7042 23.5292 26.6268 20.4203 27.4672C19.8059 27.6333 17.5815 27.7491 16.8327 27.6539Z" stroke="#1B1B1B" stroke-width="0.0112228"/>
<path fill-rule="evenodd" clip-rule="evenodd" d="M16.8327 27.6539C15.532 27.4886 13.8807 26.903 12.8583 26.2444L12.3613 25.9242V23.4861V21.0479L13.0344 21.5592C14.517 22.6859 16.0032 23.393 17.5453 23.7054C19.3406 24.0691 20.3683 23.5144 20.3683 22.1814C20.3683 21.6466 20.3474 21.6055 19.8192 21.0976C19.4413 20.7342 18.8055 20.3275 17.7783 19.7921C14.1017 17.8757 12.774 16.4811 12.4448 14.1898C12.0604 11.5146 13.5924 9.35925 16.5728 8.38172C17.8484 7.96335 21.2631 8.04081 23.403 8.53668L23.9038 8.65273L23.9034 9.33946C23.9032 9.71718 23.8729 10.6854 23.8363 11.4912L23.7695 12.9564L23.2837 12.7229C23.0166 12.5946 22.38 12.3628 21.8691 12.2078C21.0703 11.9656 20.7436 11.9246 19.5364 11.9157C18.2706 11.9063 18.0898 11.9282 17.6976 12.1388C17.1967 12.4075 16.9636 12.6995 16.8761 13.1678C16.73 13.9498 17.398 14.5638 19.5754 15.6486C20.449 16.0838 21.5111 16.6688 21.9359 16.9486C23.4684 17.9582 24.3878 19.1765 24.6869 20.5938C25.3435 23.7042 23.5292 26.6268 20.4203 27.4672C19.8059 27.6333 17.5815 27.7491 16.8327 27.6539Z" stroke="#1B1B1B" stroke-width="0.0112228"/>
</g>
</g>
</g>
<defs>
<clipPath id="clip0_63_617">
<rect width="76.0106" height="60.208" fill="white" transform="translate(0.619141 0.481689)"/>
</clipPath>
<clipPath id="clip1_63_617">
<rect width="76.0106" height="60.208" fill="white" transform="translate(0.619141 0.481689)"/>
</clipPath>
</defs>
</svg>
