<svg width="69" height="61" viewBox="0 0 69 61" fill="none" xmlns="http://www.w3.org/2000/svg">
<g clip-path="url(#clip0_63_551)">
<g clip-path="url(#clip1_63_551)">
<g opacity="0.85">
<path fill-rule="evenodd" clip-rule="evenodd" d="M59.3499 18.6462C59.4517 18.718 59.5877 18.7359 59.7317 18.6999L62.7359 17.9746C63.0545 17.8939 63.3125 17.5833 63.3125 17.2754V13.6872C63.3125 13.5391 63.2511 13.4169 63.1449 13.3416C63.0747 13.2966 62.9913 13.2697 62.9 13.2697C62.8561 13.2697 62.8105 13.2756 62.7631 13.2874L59.7589 14.0136C59.4411 14.0943 59.1822 14.4041 59.1822 14.7128V18.3015C59.1822 18.4495 59.2437 18.5717 59.3499 18.6462ZM67.5183 23.8342V26.2806C67.5183 27.8021 66.3381 29.3356 64.7733 29.8473L3.26116 51.7671C3.23483 51.7769 3.20849 51.7847 3.18217 51.794C3.1295 51.8038 3.07069 51.8117 3.01715 51.8117C2.9013 51.8117 2.79422 51.7757 2.70644 51.7192C2.57127 51.625 2.49667 51.475 2.49667 51.2964V41.9042C2.49667 41.5541 2.79158 41.1987 3.15408 41.1107L10.258 39.3933C10.5748 39.3214 10.832 39.0046 10.832 38.6976L10.8291 36.1309C10.8291 35.9208 10.7089 35.7647 10.514 35.7242L5.2693 34.7418C3.58357 34.3989 2.49414 33.0172 2.49414 31.2219L2.49633 27.0504C2.49633 25.4432 3.84933 23.8088 5.51243 23.4062L11.9935 21.8395C12.786 21.6482 13.5367 21.7588 14.1081 22.1555C14.7076 22.5702 15.0377 23.2418 15.0377 24.0443L15.0388 27.2627C15.0388 27.6119 14.7439 27.9682 14.3823 28.0561L11.5202 28.7473C11.3429 28.7923 11.1743 28.765 11.0444 28.6755C10.9084 28.5822 10.8346 28.4322 10.8346 28.2527V26.3736C10.8346 26.2255 10.7732 26.1025 10.6678 26.028C10.5652 25.9561 10.4318 25.9383 10.2861 25.9742L7.28181 26.7003C6.96407 26.7811 6.70427 27.0909 6.70427 27.3997V30.348C6.70427 30.5589 6.82452 30.7151 7.01937 30.7555L12.2797 31.7486C13.9548 32.0224 15.0382 33.3301 15.0382 35.0824L15.0426 38.7525C15.0426 39.1412 14.9636 39.5388 14.8065 39.9362L18.716 38.9914V20.8509C18.716 20.5009 19.01 20.1453 19.3726 20.0583L22.2346 19.3653C22.4128 19.3203 22.5813 19.3477 22.7104 19.4372C22.8455 19.5305 22.9201 19.6814 22.9201 19.8591V36.3428L27.2244 35.2931C27.4035 35.2481 27.572 35.2754 27.701 35.3649C27.8362 35.4592 27.9099 35.6092 27.9099 35.7878L27.9131 36.7673L30.407 36.1641L30.4086 24.693C30.4086 24.3429 30.7027 23.9874 31.066 23.8995L33.9282 23.2074C34.1046 23.1624 34.274 23.1897 34.4039 23.2792C34.539 23.3725 34.6136 23.5226 34.6136 23.7011L34.6154 35.1449L38.6646 34.1664V18.306C38.6646 16.6984 40.0177 15.0638 41.6808 14.6617L48.1521 13.0969C48.943 12.9057 49.6954 13.0163 50.2663 13.4139C50.8657 13.8285 51.1958 14.4996 51.1958 15.3027L51.1926 19.693C51.1926 20.0431 50.8976 20.3985 50.5352 20.4865L47.673 21.1786C47.4957 21.2235 47.3272 21.1963 47.1973 21.1067C47.0621 21.0132 46.9875 20.8625 46.9875 20.6848L46.9934 17.6327C46.9934 17.4847 46.932 17.3625 46.8258 17.288C46.724 17.2161 46.5888 17.1973 46.444 17.2342L43.4397 17.9604C43.1221 18.0411 42.8631 18.3509 42.8631 18.6597V30.9905C42.8631 31.1385 42.9246 31.2606 43.0299 31.336C43.1317 31.4079 43.2669 31.4258 43.4117 31.3899L46.416 30.6636C46.7337 30.5829 46.9926 30.2732 46.9926 29.9653L46.9867 28.7738C46.9867 28.4237 47.2816 28.0683 47.6441 27.9803L50.5062 27.2891C50.6835 27.2441 50.8529 27.2714 50.9819 27.361C51.1171 27.4552 51.1917 27.6051 51.1917 27.7838L51.1944 31.1405L54.9738 30.2267V14.3666C54.9738 12.7591 56.3273 11.125 57.9898 10.7225L64.4715 9.15572C65.2631 8.96366 66.0147 9.07504 66.5856 9.47174C67.1851 9.88642 67.5152 10.5574 67.5152 11.3605L67.5173 17.628C67.5173 19.2351 66.1643 20.8697 64.5012 21.2718L59.7593 22.4174C59.4415 22.4981 59.1826 22.8079 59.1826 23.1167V27.045C59.1826 27.1931 59.244 27.316 59.3502 27.3896C59.4521 27.4615 59.5881 27.4794 59.732 27.4435L62.7363 26.7173C63.0549 26.6366 63.313 26.3268 63.313 26.018L63.3119 24.8246C63.3119 24.4745 63.6068 24.1191 63.9693 24.032L66.8315 23.3399C67.0088 23.2949 67.1791 23.3222 67.309 23.4118C67.4441 23.505 67.5188 23.655 67.5188 23.8336L67.5183 23.8342ZM30.4091 20.449V18.0217C30.4091 17.6724 30.7031 17.3161 31.0665 17.2281L33.9286 16.5369C34.1051 16.492 34.2745 16.5192 34.4035 16.6088C34.5387 16.703 34.6132 16.8529 34.6132 17.0316V19.4584C34.6132 19.8086 34.3184 20.164 33.9559 20.252L31.0942 20.9441C31.0416 20.9618 30.9828 20.9618 30.9292 20.9618C30.8134 20.9618 30.7063 20.9259 30.6185 20.8693C30.4834 20.7758 30.4088 20.626 30.4088 20.4474" fill="#1B1B1B"/>
</g>
</g>
</g>
<defs>
<clipPath id="clip0_63_551">
<rect width="67.7381" height="60.208" fill="white" transform="translate(0.759766 0.0327148)"/>
</clipPath>
<clipPath id="clip1_63_551">
<rect width="67.7381" height="60.208" fill="white" transform="translate(0.759766 0.0327148)"/>
</clipPath>
</defs>
</svg>
