<svg width="205" height="61" viewBox="0 0 205 61" fill="none" xmlns="http://www.w3.org/2000/svg">
<g clip-path="url(#clip0_63_509)">
<g clip-path="url(#clip1_63_509)">
<g clip-path="url(#clip2_63_509)">
<mask id="mask0_63_509" style="mask-type:luminance" maskUnits="userSpaceOnUse" x="0" y="0" width="205" height="61">
<path d="M204.42 0.0339355H0.473633V60.2395H204.42V0.0339355Z" fill="white"/>
</mask>
<g mask="url(#mask0_63_509)">
<g opacity="0.85">
<path fill-rule="evenodd" clip-rule="evenodd" d="M174.46 30.1368C174.46 25.9826 177.734 22.6111 181.772 22.6111C185.81 22.6111 189.084 25.9826 189.084 30.1368C189.084 34.291 185.81 37.6625 181.772 37.6625C177.734 37.6625 174.46 34.291 174.46 30.1368ZM177.16 30.1368C177.16 33.4997 179.223 35.4607 181.772 35.4607C184.317 35.4607 186.383 33.4997 186.383 30.1368C186.383 26.7738 184.317 24.8129 181.772 24.8129C179.227 24.8129 177.16 26.7738 177.16 30.1368ZM24.9591 29.1088H18.0828V22.9249H15.5074V37.3527H18.0828V31.1688H24.9591V37.3527H27.5345V22.9249H24.9591V29.1088ZM0.473633 24.9848H5.22753V37.3528H7.79862V24.9848H12.5525V22.925H0.473633V24.9848ZM31.6362 24.9848V22.9249H40.6781V24.9848H37.4426V35.2929H40.6781V37.3527H31.6362V35.2929H34.8673V24.9848H31.6362ZM147.219 22.925V24.9848H150.454V35.2929H147.219V37.3528H156.261V35.2929H153.029V24.9848H156.261V22.925H147.219ZM58.2775 24.9848V22.9249H70.3564V24.9848H65.6025V37.3527H63.0271V24.9848H58.2775ZM79.1947 29.582L75.0406 22.925H72.297L77.8446 31.8182V37.3528H80.4199V31.93L80.459 31.9515L86.0882 22.925H83.3451L79.1947 29.582ZM98.8691 22.9249L103.787 29.8658L108.705 22.9249H111.281V37.3527H108.705V26.4943L104.633 32.2395H102.942L98.8691 26.4943V37.3527H96.2938V22.9249H98.8691ZM202.446 22.9249V33.7834L194.75 22.9249H192.175V37.3527H194.75V26.4943L202.446 37.3527H205.021V22.9249H202.446ZM120.246 22.9251L114.155 37.3486L116.829 37.3443L118.115 34.132H124.814L126.099 37.3443L128.774 37.3486L122.678 22.9251H120.246ZM118.939 32.0763L121.462 25.7634L123.985 32.0763H118.939ZM131.999 22.9249H137.481C141.52 22.9249 144.793 25.9782 144.793 30.1366C144.793 34.2952 141.52 37.3484 137.481 37.3484H131.999V22.9249ZM134.574 35.2929H137.481C140.031 35.2929 142.171 33.4996 142.171 30.1366C142.171 26.7738 140.031 24.9848 137.481 24.9848H134.574V35.2929ZM53.0765 30.9452H53.0592C54.871 30.4033 56.1911 28.9197 56.1911 26.8943C56.1911 24.5075 54.0687 22.9207 51.4976 22.9207H47.3433H44.7679V31.1689V37.3442H47.3433V31.1774H48.9395C52.3647 31.2763 53.7797 35.6499 53.7797 37.3528H56.5363C55.5656 31.9945 53.0765 30.9452 53.0765 30.9452ZM51.4976 29.2939H47.3433V24.9032H51.4976C52.7141 24.9032 53.6977 25.8879 53.6977 27.0964C53.6977 28.3134 52.7141 29.2939 51.4976 29.2939ZM165.438 24.628C162.716 24.628 162.41 26.2664 162.41 26.6449C162.41 28.0322 164.066 28.4142 165.96 28.8513C168.492 29.4358 171.452 30.1186 171.452 33.4351C171.452 36.2347 168.29 37.6066 165.706 37.6066C162.932 37.6066 159.571 35.8305 159.571 32.4547H162.126L162.132 32.4958C162.269 33.2821 162.664 35.5724 165.71 35.5724C168.432 35.5724 169.076 34.3555 169.076 33.6287C169.076 31.9544 167.342 31.5802 165.408 31.1625C162.966 30.6351 160.201 30.0383 160.201 26.6663C160.201 23.8711 162.855 22.6884 165.438 22.6626C168.342 22.6325 171.211 24.228 171.211 27.5651H168.726C168.717 27.5098 168.708 27.4466 168.698 27.377C168.575 26.505 168.311 24.628 165.438 24.628Z" fill="#1B1B1B"/>
</g>
</g>
</g>
</g>
</g>
<defs>
<clipPath id="clip0_63_509">
<rect width="204.699" height="60.208" fill="white" transform="translate(0.0976562 0.0327148)"/>
</clipPath>
<clipPath id="clip1_63_509">
<rect width="204.699" height="60.208" fill="white" transform="translate(0.0976562 0.0327148)"/>
</clipPath>
<clipPath id="clip2_63_509">
<rect width="204.699" height="60.2056" fill="white" transform="translate(0.0976562 0.0339355)"/>
</clipPath>
</defs>
</svg>
