<svg width="115" height="61" viewBox="0 0 115 61" fill="none" xmlns="http://www.w3.org/2000/svg">
<g clip-path="url(#clip0_63_769)">
<g clip-path="url(#clip1_63_769)">
<g opacity="0.85">
<path d="M28.7811 29.2751C28.6773 31.5275 27.1087 34.6111 24.0713 38.5261C20.9316 42.6151 18.2755 44.6596 16.1031 44.6596C14.7581 44.6596 13.6182 43.4152 12.6883 40.9249C12.067 38.6425 11.4458 36.3602 10.8247 34.0778C10.1334 31.5888 9.39218 30.3431 8.59975 30.3431C8.42727 30.3431 7.8223 30.7074 6.78736 31.4323L5.70117 30.0276C6.84111 29.0247 7.96475 28.0206 9.071 27.0165C10.5909 25.7007 11.7321 25.0083 12.492 24.9382C14.2895 24.7654 15.3956 25.9961 15.8106 28.6303C16.2593 31.4736 16.5693 33.2414 16.7443 33.9325C17.263 36.2913 17.8317 37.4694 18.4554 37.4694C18.9391 37.4694 19.6641 36.7045 20.6328 35.1745C21.599 33.6446 22.1177 32.4802 22.1877 31.6802C22.3252 30.3593 21.8078 29.6983 20.6328 29.6983C20.0791 29.6983 19.5104 29.826 18.9242 30.0776C20.0591 26.353 22.2277 24.5439 25.4275 24.6478C27.7986 24.7191 28.9173 26.2603 28.7811 29.2751Z" fill="#1B1B1B"/>
<path d="M43.0321 36.5703C42.0634 38.4032 40.7335 40.0646 39.0398 41.5519C36.7224 43.5589 34.4076 44.5617 32.0927 44.5617C31.0203 44.5617 30.199 44.2162 29.6291 43.5238C29.0592 42.8315 28.7916 41.9339 28.8266 40.8258C28.8604 39.6853 29.2141 37.9199 29.8891 35.5324C30.5628 33.1449 30.9016 31.864 30.9016 31.6913C30.9016 30.7923 30.589 30.3416 29.9679 30.3416C29.7603 30.3416 29.1729 30.7059 28.2042 31.4309L27.0117 30.0287C28.118 29.0258 29.2241 28.0217 30.3303 27.0176C31.8165 25.7017 32.9227 25.0094 33.6501 24.9393C34.79 24.8366 35.6275 25.1709 36.1637 25.9484C36.6987 26.7259 36.8975 27.7337 36.7612 28.9744C36.3112 31.0791 35.8262 33.752 35.3076 36.9935C35.2725 38.4783 35.8088 39.2182 36.9149 39.2182C37.3987 39.2182 38.2624 38.7075 39.5073 37.6808C40.5435 36.8282 41.3909 36.0244 42.0484 35.2719L43.0321 36.5703ZM38.5211 18.1009C38.4861 18.9635 38.0549 19.7898 37.2237 20.5823C36.2899 21.4776 35.1838 21.9258 33.9051 21.9258C31.9352 21.9258 30.984 21.0656 31.054 19.3429C31.0877 18.4477 31.614 17.5851 32.6339 16.7588C33.6551 15.9324 34.7863 15.5181 36.0312 15.5181C36.7574 15.5181 37.3612 15.8035 37.8461 16.3706C38.3299 16.9403 38.5549 17.5174 38.5211 18.1009Z" fill="#1B1B1B"/>
<path d="M75.4116 36.57C74.4429 38.4029 73.1129 40.0643 71.4193 41.5518C69.1032 43.5586 66.7871 44.5615 64.4722 44.5615C62.2236 44.5615 61.1361 43.317 61.2049 40.8243C61.2386 39.7163 61.4548 38.3854 61.8523 36.8279C62.2498 35.2705 62.466 34.0598 62.501 33.1947C62.536 31.8801 62.1373 31.2215 61.3036 31.2215C60.4024 31.2215 59.3275 32.2957 58.0788 34.4416C56.7602 36.6927 56.0489 38.8737 55.9452 40.9846C55.8752 42.4744 56.0214 43.6175 56.3814 44.4126C53.969 44.4826 52.2791 44.0832 51.3154 43.2181C50.4517 42.4556 50.0568 41.1937 50.1255 39.4271C50.1593 38.3191 50.328 37.2111 50.6342 36.103C50.9392 34.995 51.1079 34.0085 51.1429 33.142C51.2129 31.8613 50.7442 31.2203 49.7418 31.2203C48.8756 31.2203 47.9406 32.2081 46.937 34.1812C45.9333 36.1544 45.3796 38.2152 45.2758 40.3611C45.2058 42.3004 45.3308 43.6501 45.647 44.4113C43.2747 44.4814 41.5897 43.9806 40.5923 42.9089C39.7649 42.0125 39.3874 40.6491 39.4574 38.8187C39.4911 37.9222 39.6486 36.6689 39.9336 35.0639C40.2186 33.4576 40.3773 32.2081 40.4111 31.3091C40.4798 30.6881 40.3236 30.3777 39.9448 30.3777C39.7373 30.3777 39.1499 30.7283 38.1812 31.4281L36.9375 30.0259C37.1101 29.8894 38.1987 28.8841 40.2048 27.0148C41.656 25.6652 42.641 24.9741 43.1597 24.939C44.0584 24.8689 44.7846 25.2408 45.337 26.0546C45.8895 26.8684 46.167 27.8124 46.167 28.8853C46.167 29.2308 46.132 29.5602 46.0645 29.8719C46.5833 29.0769 47.187 28.3832 47.8794 27.7936C49.4693 26.4101 51.2492 25.6289 53.2191 25.4561C54.9127 25.3184 56.1227 25.7152 56.8501 26.6505C57.4363 27.413 57.7126 28.5034 57.6788 29.9232C57.9213 29.7166 58.1801 29.4913 58.4575 29.2484C59.2512 28.3132 60.0287 27.5694 60.7899 27.0161C62.0685 26.0808 63.401 25.5626 64.7822 25.4573C66.4408 25.3196 67.6333 25.7152 68.3595 26.6467C68.9807 27.4055 69.2581 28.4922 69.1894 29.9056C69.1544 30.8722 68.9207 32.2782 68.4894 34.1237C68.0557 35.9691 67.8407 37.0283 67.8407 37.305C67.8057 38.0298 67.8757 38.5294 68.0482 38.8061C68.2207 39.0828 68.6344 39.2192 69.2919 39.2192C69.7756 39.2192 70.6381 38.7085 71.8842 37.6818C72.9204 36.8292 73.7679 36.0254 74.4254 35.273L75.4116 36.57Z" fill="#1B1B1B"/>
<path d="M94.8542 36.5164C93.8511 38.1765 91.8824 39.8354 88.9437 41.4943C85.2803 43.6039 81.5627 44.6568 77.797 44.6568C74.9969 44.6568 72.9908 43.7216 71.7809 41.8536C70.9172 40.5728 70.5022 39.0504 70.5372 37.2838C70.571 34.4807 71.8159 31.8152 74.2707 29.2874C76.967 26.5192 80.1465 25.1333 83.8098 25.1333C87.1978 25.1333 88.9949 26.5155 89.2026 29.2786C89.3396 31.0389 88.3725 32.8531 86.2985 34.7186C84.0853 36.7568 81.3016 38.0514 77.9505 38.6034C78.5721 39.4673 79.5053 39.898 80.7507 39.898C83.2387 39.898 85.9523 39.2645 88.891 37.9963C90.9982 37.1048 92.6583 36.1796 93.8684 35.2206L94.8542 36.5164ZM83.0852 31.094C83.119 30.165 82.7405 29.6993 81.945 29.6993C80.9088 29.6993 79.8567 30.4141 78.7881 31.844C77.718 33.2737 77.1656 34.6422 77.1318 35.9505C77.1122 35.9505 77.1122 36.1746 77.1318 36.6228C78.8227 36.0031 80.2894 35.0566 81.5319 33.782C82.5313 32.6803 83.0505 31.7839 83.0852 31.094Z" fill="#1B1B1B"/>
<path d="M108.93 33.0358C108.791 36.2171 107.616 38.9652 105.404 41.2814C103.191 43.5976 100.442 44.7557 97.159 44.7557C94.4295 44.7557 92.3548 43.8743 90.9385 42.1102C89.9022 40.7969 89.331 39.1555 89.2272 37.1849C89.0534 34.2114 90.1242 31.4796 92.4421 28.9906C94.9307 26.225 98.0576 24.8428 101.825 24.8428C104.243 24.8428 106.075 25.6566 107.321 27.2803C108.498 28.7678 109.032 30.6858 108.93 33.0358ZM103.07 32.8393C103.105 31.9027 102.975 31.0439 102.681 30.2639C102.388 29.4839 101.963 29.092 101.412 29.092C99.6477 29.092 98.1968 30.0473 97.0567 31.9541C96.0866 33.5153 95.5681 35.1804 95.5004 36.9483C95.4658 37.8159 95.6216 38.5796 95.967 39.2381C96.3455 40.0019 96.8813 40.3825 97.5744 40.3825C99.1292 40.3825 100.46 39.4647 101.567 37.6243C102.5 36.0994 103.001 34.5044 103.07 32.8393Z" fill="#1B1B1B"/>
</g>
</g>
</g>
<defs>
<clipPath id="clip0_63_769">
<rect width="114.387" height="60.208" fill="white" transform="translate(0.433594 0.378906)"/>
</clipPath>
<clipPath id="clip1_63_769">
<rect width="114.387" height="60.208" fill="white" transform="translate(0.433594 0.378906)"/>
</clipPath>
</defs>
</svg>
