<svg width="361" height="182" viewBox="0 0 361 182" fill="none" xmlns="http://www.w3.org/2000/svg">
<rect x="0.5" y="0.94873" width="359.06" height="180.449" rx="7.5" stroke="#E8EEF4"/>
<g clip-path="url(#clip0_63_556)">
<g clip-path="url(#clip1_63_556)">
<g clip-path="url(#clip2_63_556)">
<g opacity="0.85">
<path fill-rule="evenodd" clip-rule="evenodd" d="M147.199 96.3508C147.613 99.4521 150.47 101.632 153.582 101.218C156.129 100.882 158.132 98.8861 158.466 96.3474C158.53 95.8526 158.53 95.3509 158.466 94.8561C158.051 91.7548 155.194 89.5754 152.082 89.9889C148.97 90.4024 146.784 93.2495 147.199 96.3508ZM147.178 86.2956V76.6787C147.178 76.2687 146.845 75.9331 146.43 75.9331H146.41H142.339C141.934 75.9331 141.607 76.2584 141.607 76.6618V95.6662C141.638 102.021 146.43 107.068 152.507 107.16H152.603C158.874 107.224 164.009 102.211 164.074 95.9611C164.139 89.711 159.109 84.593 152.837 84.5286C150.822 84.5794 148.864 85.1921 147.178 86.2956ZM215.979 75.9331C214.173 75.9369 212.704 77.395 212.701 79.2005C212.697 80.7969 213.854 82.1662 215.432 82.4339C215.615 82.4645 215.802 82.4814 215.993 82.4814C217.805 82.478 219.274 81.007 219.268 79.2005C219.265 77.6075 218.112 76.2516 216.537 75.9839C216.351 75.9502 216.165 75.9333 215.979 75.9331ZM215.979 75.9331H215.976H215.98H215.979ZM214 106.587H217.982C218.455 106.587 218.836 106.204 218.836 105.733V85.8776C218.836 85.4064 218.452 85.0268 217.982 85.0234H214C213.527 85.0234 213.146 85.4064 213.146 85.8776V105.733C213.146 106.204 213.527 106.583 214 106.587ZM188.713 85.0066H193.053C193.379 85.0133 193.668 85.2167 193.78 85.515L198.882 98.9946C198.919 99.0963 199.001 99.1776 199.103 99.2149C199.297 99.2861 199.511 99.1878 199.582 98.9946L204.701 85.4878C204.803 85.1997 205.078 85.0066 205.384 85.0066H209.863C209.965 85.0066 210.067 85.0269 210.159 85.0675C210.53 85.2302 210.697 85.6606 210.533 86.0301L202.041 106.072C201.912 106.373 201.609 106.57 201.279 106.566H197.188C196.858 106.57 196.559 106.373 196.426 106.072L187.982 86.0912C187.944 85.9997 187.924 85.9013 187.924 85.803C187.921 85.3658 188.274 85.0099 188.713 85.0066ZM171.838 93.602C171.631 93.6055 171.461 93.4428 171.457 93.236C171.457 93.2089 171.461 93.1783 171.464 93.1512C171.838 91.1176 174.403 89.3043 177.093 89.3043C179.783 89.3043 182.35 91.121 182.721 93.1512C182.765 93.3512 182.636 93.5512 182.432 93.5918C182.405 93.5986 182.374 93.602 182.347 93.5986H171.838V93.602ZM183.221 100.798C182.935 100.503 182.473 100.469 182.15 100.716C180.738 101.811 179.007 102.421 177.222 102.455C174.511 102.377 172.165 100.557 171.42 97.9574C171.376 97.7574 171.505 97.5575 171.709 97.5168C171.736 97.51 171.767 97.5066 171.794 97.51H187.408C187.836 97.51 188.19 97.1778 188.214 96.7508C188.244 96.3305 188.261 96.0356 188.261 95.8662C188.493 89.7381 183.694 84.5828 177.545 84.3524C177.355 84.3456 177.164 84.3422 176.97 84.3456C170.995 84.3456 165.944 89.528 165.944 95.6526C165.856 101.943 170.889 107.126 177.205 107.238C180.211 107.261 183.112 106.119 185.292 104.055C185.619 103.753 185.636 103.241 185.333 102.919C185.329 102.913 185.323 102.908 185.316 102.902C185.314 102.9 185.312 102.898 185.31 102.896C185.309 102.895 185.307 102.894 185.306 102.892L183.221 100.798Z" fill="#1B1B1B"/>
</g>
</g>
</g>
</g>
<g clip-path="url(#clip3_63_556)">
<g clip-path="url(#clip4_63_556)">
<g clip-path="url(#clip5_63_556)">
<g opacity="0.85">
<path fill-rule="evenodd" clip-rule="evenodd" d="M147.199 96.3508C147.613 99.4521 150.47 101.632 153.582 101.218C156.129 100.882 158.132 98.8861 158.466 96.3474C158.53 95.8526 158.53 95.3509 158.466 94.8561C158.051 91.7548 155.194 89.5754 152.082 89.9889C148.97 90.4024 146.784 93.2495 147.199 96.3508ZM147.178 86.2956V76.6787C147.178 76.2687 146.845 75.9331 146.43 75.9331H146.41H142.339C141.934 75.9331 141.607 76.2584 141.607 76.6618V95.6662C141.638 102.021 146.43 107.068 152.507 107.16H152.603C158.874 107.224 164.009 102.211 164.074 95.9611C164.139 89.711 159.109 84.593 152.837 84.5286C150.822 84.5794 148.864 85.1921 147.178 86.2956ZM215.979 75.9331C214.173 75.9369 212.704 77.395 212.701 79.2005C212.697 80.7969 213.854 82.1662 215.432 82.4339C215.615 82.4645 215.802 82.4814 215.993 82.4814C217.805 82.478 219.274 81.007 219.268 79.2005C219.265 77.6075 218.112 76.2516 216.537 75.9839C216.351 75.9502 216.165 75.9333 215.979 75.9331ZM215.979 75.9331H215.976H215.98H215.979ZM214 106.587H217.982C218.455 106.587 218.836 106.204 218.836 105.733V85.8776C218.836 85.4064 218.452 85.0268 217.982 85.0234H214C213.527 85.0234 213.146 85.4064 213.146 85.8776V105.733C213.146 106.204 213.527 106.583 214 106.587ZM188.713 85.0066H193.053C193.379 85.0133 193.668 85.2167 193.78 85.515L198.882 98.9946C198.919 99.0963 199.001 99.1776 199.103 99.2149C199.297 99.2861 199.511 99.1878 199.582 98.9946L204.701 85.4878C204.803 85.1997 205.078 85.0066 205.384 85.0066H209.863C209.965 85.0066 210.067 85.0269 210.159 85.0675C210.53 85.2302 210.697 85.6606 210.533 86.0301L202.041 106.072C201.912 106.373 201.609 106.57 201.279 106.566H197.188C196.858 106.57 196.559 106.373 196.426 106.072L187.982 86.0912C187.944 85.9997 187.924 85.9013 187.924 85.803C187.921 85.3658 188.274 85.0099 188.713 85.0066ZM171.838 93.602C171.631 93.6055 171.461 93.4428 171.457 93.236C171.457 93.2089 171.461 93.1783 171.464 93.1512C171.838 91.1176 174.403 89.3043 177.093 89.3043C179.783 89.3043 182.35 91.121 182.721 93.1512C182.765 93.3512 182.636 93.5512 182.432 93.5918C182.405 93.5986 182.374 93.602 182.347 93.5986H171.838V93.602ZM183.221 100.798C182.935 100.503 182.473 100.469 182.15 100.716C180.738 101.811 179.007 102.421 177.222 102.455C174.511 102.377 172.165 100.557 171.42 97.9574C171.376 97.7574 171.505 97.5575 171.709 97.5168C171.736 97.51 171.767 97.5066 171.794 97.51H187.408C187.836 97.51 188.19 97.1778 188.214 96.7508C188.244 96.3305 188.261 96.0356 188.261 95.8662C188.493 89.7381 183.694 84.5828 177.545 84.3524C177.355 84.3456 177.164 84.3422 176.97 84.3456C170.995 84.3456 165.944 89.528 165.944 95.6526C165.856 101.943 170.889 107.126 177.205 107.238C180.211 107.261 183.112 106.119 185.292 104.055C185.619 103.753 185.636 103.241 185.333 102.919C185.329 102.913 185.323 102.908 185.316 102.902C185.314 102.9 185.312 102.898 185.31 102.896C185.309 102.895 185.307 102.894 185.306 102.892L183.221 100.798Z" fill="#1B1B1B"/>
</g>
</g>
</g>
</g>
<defs>
<clipPath id="clip0_63_556">
<rect width="78.2622" height="60.208" fill="white" transform="translate(141.307 61.4817)"/>
</clipPath>
<clipPath id="clip1_63_556">
<rect width="78.2622" height="60.208" fill="white" transform="translate(141.307 61.4817)"/>
</clipPath>
<clipPath id="clip2_63_556">
<rect width="78.2622" height="60.2017" fill="white" transform="translate(141.307 61.4851)"/>
</clipPath>
<clipPath id="clip3_63_556">
<rect width="78.2622" height="60.208" fill="white" transform="translate(141.307 61.4817)"/>
</clipPath>
<clipPath id="clip4_63_556">
<rect width="78.2622" height="60.208" fill="white" transform="translate(141.307 61.4817)"/>
</clipPath>
<clipPath id="clip5_63_556">
<rect width="78.2622" height="60.2017" fill="white" transform="translate(141.307 61.4851)"/>
</clipPath>
</defs>
</svg>
