<svg width="361" height="183" viewBox="0 0 361 183" fill="none" xmlns="http://www.w3.org/2000/svg">
<rect x="0.681641" y="1.39746" width="359.06" height="180.449" rx="7.5" stroke="#E8EEF4"/>
<g clip-path="url(#clip0_63_679)">
<g clip-path="url(#clip1_63_679)">
<g clip-path="url(#clip2_63_679)">
<g opacity="0.85">
<path fill-rule="evenodd" clip-rule="evenodd" d="M123.247 81.8467V103.674H126.884V81.8467H123.247ZM118.854 90.9186C119.391 90.0837 119.667 89.1095 119.648 88.1188C119.648 84.8071 116.92 82.7373 112.678 82.7373H103.232V103.699H113.019C117.716 103.699 120.81 101.692 120.81 97.9284C120.81 95.0558 119.092 93.6508 116.63 92.8103C117.543 92.4118 118.317 91.7535 118.854 90.9186ZM112.198 85.9988C114.597 85.9988 115.86 86.9898 115.86 88.6958C115.86 90.6276 114.307 91.5559 111.92 91.5559H106.869V85.9988H112.198ZM112.703 94.6418C115.62 94.6418 117.034 95.683 117.034 97.4769L117.122 97.5145C117.122 99.4087 115.544 100.412 113.006 100.412H106.869V94.6418H112.703ZM139.852 103.674V101.729C139.224 102.47 138.436 103.059 137.545 103.453C136.655 103.846 135.686 104.033 134.712 104C131.694 104 129.055 102.294 129.055 99.1202C129.055 95.7082 131.795 94.0398 135.495 94.0398C136.971 94.0014 138.443 94.2048 139.852 94.6419V94.253C139.852 92.0703 138.463 90.8786 135.937 90.8786C134.369 90.8779 132.819 91.2116 131.391 91.857L130.394 88.9593C132.291 88.0872 134.365 87.6581 136.455 87.7049C141.14 87.7049 143.425 90.2137 143.425 94.3784V103.674H139.852ZM139.94 96.9751C138.776 96.5484 137.544 96.3359 136.303 96.3479C134.018 96.3479 132.667 97.2762 132.667 98.8567C132.667 100.35 134.018 101.19 135.735 101.19C138.147 101.19 139.94 99.8477 139.94 97.8657V96.9751ZM150.476 103.43C151.48 103.836 152.557 104.039 153.641 104.025C154.885 104.06 156.119 103.807 157.248 103.287C158.376 102.767 159.368 101.993 160.144 101.027L157.947 98.8819C157.437 99.4804 156.806 99.9652 156.094 100.305C155.382 100.644 154.607 100.83 153.818 100.851C153.164 100.841 152.519 100.698 151.922 100.433C151.325 100.168 150.788 99.785 150.344 99.3077C149.9 98.8305 149.559 98.2687 149.34 97.6565C149.121 97.0443 149.029 96.3943 149.07 95.7458C149.032 95.1169 149.122 94.4867 149.332 93.8924C149.542 93.298 149.87 92.7513 150.296 92.2841C150.721 91.817 151.236 91.4388 151.811 91.1716C152.385 90.9044 153.007 90.7536 153.641 90.7281C154.431 90.7325 155.21 90.9117 155.922 91.2523C156.634 91.5929 157.261 92.0866 157.757 92.6975L159.98 90.2765C159.202 89.3799 158.23 88.6696 157.136 88.1982C156.043 87.7269 154.857 87.5068 153.666 87.5544C152.573 87.5492 151.49 87.7609 150.481 88.177C149.472 88.5932 148.556 89.2053 147.788 89.9777C147.02 90.75 146.415 91.6669 146.009 92.6747C145.602 93.6824 145.402 94.7607 145.421 95.8461C145.405 96.9233 145.607 97.9927 146.015 98.991C146.423 99.9894 147.027 100.896 147.793 101.659C148.56 102.421 149.472 103.023 150.476 103.43ZM176.836 103.674H172.682L167.846 96.8999L165.624 99.1578V103.674H161.974V81.8467H165.624V94.8802L172.202 87.8805H176.634L170.321 94.3157L176.836 103.674ZM184.795 103.273C185.733 103.759 186.777 104.008 187.834 104C191.623 104 195.246 101.052 195.246 95.7834C195.246 90.5148 191.623 87.5543 187.834 87.5543C186.756 87.5493 185.694 87.8187 184.75 88.3369C183.806 88.8552 183.012 89.605 182.443 90.5148V81.8467H178.793V103.724H182.455V101.215C183.054 102.081 183.858 102.788 184.795 103.273ZM185.12 91.126C185.707 90.8573 186.343 90.7092 186.988 90.6904C189.451 90.6904 191.521 92.6473 191.521 95.7834C191.521 98.9195 189.514 100.864 186.988 100.864C186.343 100.847 185.708 100.7 185.121 100.433C184.534 100.166 184.008 99.7831 183.574 99.3085C183.14 98.8338 182.807 98.2769 182.595 97.6711C182.383 97.0653 182.297 96.4232 182.341 95.7834C182.297 95.143 182.383 94.5003 182.595 93.8938C182.806 93.2873 183.139 92.7295 183.573 92.2539C184.007 91.7783 184.533 91.3947 185.12 91.126ZM205.009 104.025C203.912 104.052 202.82 103.86 201.798 103.461C200.776 103.062 199.845 102.463 199.06 101.701C198.275 100.939 197.652 100.028 197.227 99.0222C196.802 98.0166 196.584 96.9367 196.586 95.8461C196.539 94.1699 196.996 92.5177 197.899 91.1014C198.803 89.685 200.113 88.5692 201.658 87.8968C203.205 87.2245 204.918 87.0264 206.579 87.3278C208.24 87.6293 209.771 88.4166 210.978 89.5888C212.185 90.7609 213.012 92.2646 213.354 93.9069C213.695 95.5492 213.535 97.2553 212.893 98.8064C212.252 100.358 211.158 101.683 209.754 102.613C208.349 103.543 206.697 104.034 205.009 104.025ZM205.009 90.728C204.357 90.7271 203.712 90.8582 203.114 91.1134C202.516 91.3686 201.975 91.7426 201.527 92.2123C201.08 92.6821 200.733 93.2378 200.508 93.8454C200.284 94.4529 200.187 95.0996 200.223 95.7458C200.192 96.4001 200.295 97.0538 200.524 97.668C200.753 98.2822 201.104 98.8442 201.557 99.3207C202.009 99.7971 202.554 100.178 203.157 100.441C203.762 100.704 204.413 100.844 205.072 100.851C205.725 100.856 206.373 100.727 206.975 100.473C207.576 100.22 208.119 99.8463 208.57 99.3762C209.021 98.906 209.369 98.3492 209.595 97.7399C209.822 97.1306 209.919 96.4819 209.883 95.8336C209.912 95.1776 209.807 94.5225 209.576 93.9075C209.344 93.2924 208.991 92.73 208.536 92.2536C208.082 91.7771 207.534 91.3965 206.929 91.1345C206.323 90.8724 205.67 90.7342 205.009 90.728ZM225.441 101.729V103.674H229.064V94.3784C229.064 90.2137 226.767 87.7048 222.069 87.7048C219.983 87.6595 217.914 88.0887 216.021 88.9593L217.018 91.857C218.445 91.2116 219.996 90.8779 221.564 90.8785C224.09 90.8785 225.478 92.0703 225.478 94.253V94.692C224.06 94.2338 222.576 94.0134 221.084 94.0398C217.384 94.0398 214.644 95.7082 214.644 99.1202C214.644 102.294 217.283 104 220.301 104C221.275 104.035 222.244 103.849 223.135 103.455C224.026 103.062 224.814 102.472 225.441 101.729ZM221.892 96.3478C223.132 96.3359 224.365 96.5484 225.529 96.9751V97.8657C225.529 99.8477 223.723 101.19 221.324 101.19C219.607 101.19 218.256 100.35 218.256 98.8567C218.256 97.2762 219.607 96.3478 221.892 96.3478ZM235.529 103.674H231.892V87.8805H235.529V91.4431C235.911 90.2752 236.669 89.2649 237.687 88.5687C238.706 87.8725 239.926 87.5292 241.161 87.592V91.418H240.946C237.751 91.418 235.529 93.4752 235.529 97.6901V103.674ZM254.344 101.039V103.674H257.981V81.8467H254.344V90.3392C253.734 89.4758 252.923 88.7717 251.98 88.2869C251.037 87.802 249.989 87.5507 248.927 87.5543C245.127 87.5543 241.553 90.5273 241.553 95.7834C241.553 101.039 245.139 104 248.927 104C250.01 104.009 251.077 103.742 252.025 103.223C252.975 102.705 253.773 101.953 254.344 101.039ZM245.215 95.7834C245.215 92.6097 247.273 90.6904 249.799 90.6904C250.441 90.714 251.071 90.8659 251.654 91.1368C252.235 91.4078 252.756 91.7925 253.185 92.2677C253.614 92.7431 253.942 93.2993 254.15 93.9033C254.358 94.5073 254.441 95.1467 254.395 95.7834C254.44 96.4191 254.355 97.0572 254.146 97.6597C253.937 98.2623 253.609 98.817 253.18 99.2909C252.752 99.7648 252.231 100.148 251.65 100.418C251.069 100.689 250.44 100.84 249.799 100.864C249.156 100.847 248.523 100.7 247.94 100.432C247.356 100.164 246.833 99.7808 246.404 99.3052C245.976 98.8296 245.648 98.2718 245.444 97.6662C245.239 97.0606 245.161 96.4199 245.215 95.7834Z" fill="#1B1B1B"/>
</g>
</g>
</g>
</g>
<g clip-path="url(#clip3_63_679)">
<g clip-path="url(#clip4_63_679)">
<g clip-path="url(#clip5_63_679)">
<g opacity="0.85">
<path fill-rule="evenodd" clip-rule="evenodd" d="M123.247 81.8467V103.674H126.884V81.8467H123.247ZM118.854 90.9186C119.391 90.0837 119.667 89.1095 119.648 88.1188C119.648 84.8071 116.92 82.7373 112.678 82.7373H103.232V103.699H113.019C117.716 103.699 120.81 101.692 120.81 97.9284C120.81 95.0558 119.092 93.6508 116.63 92.8103C117.543 92.4118 118.317 91.7535 118.854 90.9186ZM112.198 85.9988C114.597 85.9988 115.86 86.9898 115.86 88.6958C115.86 90.6276 114.307 91.5559 111.92 91.5559H106.869V85.9988H112.198ZM112.703 94.6418C115.62 94.6418 117.034 95.683 117.034 97.4769L117.122 97.5145C117.122 99.4087 115.544 100.412 113.006 100.412H106.869V94.6418H112.703ZM139.852 103.674V101.729C139.224 102.47 138.436 103.059 137.545 103.453C136.655 103.846 135.686 104.033 134.712 104C131.694 104 129.055 102.294 129.055 99.1202C129.055 95.7082 131.795 94.0398 135.495 94.0398C136.971 94.0014 138.443 94.2048 139.852 94.6419V94.253C139.852 92.0703 138.463 90.8786 135.937 90.8786C134.369 90.8779 132.819 91.2116 131.391 91.857L130.394 88.9593C132.291 88.0872 134.365 87.6581 136.455 87.7049C141.14 87.7049 143.425 90.2137 143.425 94.3784V103.674H139.852ZM139.94 96.9751C138.776 96.5484 137.544 96.3359 136.303 96.3479C134.018 96.3479 132.667 97.2762 132.667 98.8567C132.667 100.35 134.018 101.19 135.735 101.19C138.147 101.19 139.94 99.8477 139.94 97.8657V96.9751ZM150.476 103.43C151.48 103.836 152.557 104.039 153.641 104.025C154.885 104.06 156.119 103.807 157.248 103.287C158.376 102.767 159.368 101.993 160.144 101.027L157.947 98.8819C157.437 99.4804 156.806 99.9652 156.094 100.305C155.382 100.644 154.607 100.83 153.818 100.851C153.164 100.841 152.519 100.698 151.922 100.433C151.325 100.168 150.788 99.785 150.344 99.3077C149.9 98.8305 149.559 98.2687 149.34 97.6565C149.121 97.0443 149.029 96.3943 149.07 95.7458C149.032 95.1169 149.122 94.4867 149.332 93.8924C149.542 93.298 149.87 92.7513 150.296 92.2841C150.721 91.817 151.236 91.4388 151.811 91.1716C152.385 90.9044 153.007 90.7536 153.641 90.7281C154.431 90.7325 155.21 90.9117 155.922 91.2523C156.634 91.5929 157.261 92.0866 157.757 92.6975L159.98 90.2765C159.202 89.3799 158.23 88.6696 157.136 88.1982C156.043 87.7269 154.857 87.5068 153.666 87.5544C152.573 87.5492 151.49 87.7609 150.481 88.177C149.472 88.5932 148.556 89.2053 147.788 89.9777C147.02 90.75 146.415 91.6669 146.009 92.6747C145.602 93.6824 145.402 94.7607 145.421 95.8461C145.405 96.9233 145.607 97.9927 146.015 98.991C146.423 99.9894 147.027 100.896 147.793 101.659C148.56 102.421 149.472 103.023 150.476 103.43ZM176.836 103.674H172.682L167.846 96.8999L165.624 99.1578V103.674H161.974V81.8467H165.624V94.8802L172.202 87.8805H176.634L170.321 94.3157L176.836 103.674ZM184.795 103.273C185.733 103.759 186.777 104.008 187.834 104C191.623 104 195.246 101.052 195.246 95.7834C195.246 90.5148 191.623 87.5543 187.834 87.5543C186.756 87.5493 185.694 87.8187 184.75 88.3369C183.806 88.8552 183.012 89.605 182.443 90.5148V81.8467H178.793V103.724H182.455V101.215C183.054 102.081 183.858 102.788 184.795 103.273ZM185.12 91.126C185.707 90.8573 186.343 90.7092 186.988 90.6904C189.451 90.6904 191.521 92.6473 191.521 95.7834C191.521 98.9195 189.514 100.864 186.988 100.864C186.343 100.847 185.708 100.7 185.121 100.433C184.534 100.166 184.008 99.7831 183.574 99.3085C183.14 98.8338 182.807 98.2769 182.595 97.6711C182.383 97.0653 182.297 96.4232 182.341 95.7834C182.297 95.143 182.383 94.5003 182.595 93.8938C182.806 93.2873 183.139 92.7295 183.573 92.2539C184.007 91.7783 184.533 91.3947 185.12 91.126ZM205.009 104.025C203.912 104.052 202.82 103.86 201.798 103.461C200.776 103.062 199.845 102.463 199.06 101.701C198.275 100.939 197.652 100.028 197.227 99.0222C196.802 98.0166 196.584 96.9367 196.586 95.8461C196.539 94.1699 196.996 92.5177 197.899 91.1014C198.803 89.685 200.113 88.5692 201.658 87.8968C203.205 87.2245 204.918 87.0264 206.579 87.3278C208.24 87.6293 209.771 88.4166 210.978 89.5888C212.185 90.7609 213.012 92.2646 213.354 93.9069C213.695 95.5492 213.535 97.2553 212.893 98.8064C212.252 100.358 211.158 101.683 209.754 102.613C208.349 103.543 206.697 104.034 205.009 104.025ZM205.009 90.728C204.357 90.7271 203.712 90.8582 203.114 91.1134C202.516 91.3686 201.975 91.7426 201.527 92.2123C201.08 92.6821 200.733 93.2378 200.508 93.8454C200.284 94.4529 200.187 95.0996 200.223 95.7458C200.192 96.4001 200.295 97.0538 200.524 97.668C200.753 98.2822 201.104 98.8442 201.557 99.3207C202.009 99.7971 202.554 100.178 203.157 100.441C203.762 100.704 204.413 100.844 205.072 100.851C205.725 100.856 206.373 100.727 206.975 100.473C207.576 100.22 208.119 99.8463 208.57 99.3762C209.021 98.906 209.369 98.3492 209.595 97.7399C209.822 97.1306 209.919 96.4819 209.883 95.8336C209.912 95.1776 209.807 94.5225 209.576 93.9075C209.344 93.2924 208.991 92.73 208.536 92.2536C208.082 91.7771 207.534 91.3965 206.929 91.1345C206.323 90.8724 205.67 90.7342 205.009 90.728ZM225.441 101.729V103.674H229.064V94.3784C229.064 90.2137 226.767 87.7048 222.069 87.7048C219.983 87.6595 217.914 88.0887 216.021 88.9593L217.018 91.857C218.445 91.2116 219.996 90.8779 221.564 90.8785C224.09 90.8785 225.478 92.0703 225.478 94.253V94.692C224.06 94.2338 222.576 94.0134 221.084 94.0398C217.384 94.0398 214.644 95.7082 214.644 99.1202C214.644 102.294 217.283 104 220.301 104C221.275 104.035 222.244 103.849 223.135 103.455C224.026 103.062 224.814 102.472 225.441 101.729ZM221.892 96.3478C223.132 96.3359 224.365 96.5484 225.529 96.9751V97.8657C225.529 99.8477 223.723 101.19 221.324 101.19C219.607 101.19 218.256 100.35 218.256 98.8567C218.256 97.2762 219.607 96.3478 221.892 96.3478ZM235.529 103.674H231.892V87.8805H235.529V91.4431C235.911 90.2752 236.669 89.2649 237.687 88.5687C238.706 87.8725 239.926 87.5292 241.161 87.592V91.418H240.946C237.751 91.418 235.529 93.4752 235.529 97.6901V103.674ZM254.344 101.039V103.674H257.981V81.8467H254.344V90.3392C253.734 89.4758 252.923 88.7717 251.98 88.2869C251.037 87.802 249.989 87.5507 248.927 87.5543C245.127 87.5543 241.553 90.5273 241.553 95.7834C241.553 101.039 245.139 104 248.927 104C250.01 104.009 251.077 103.742 252.025 103.223C252.975 102.705 253.773 101.953 254.344 101.039ZM245.215 95.7834C245.215 92.6097 247.273 90.6904 249.799 90.6904C250.441 90.714 251.071 90.8659 251.654 91.1368C252.235 91.4078 252.756 91.7925 253.185 92.2677C253.614 92.7431 253.942 93.2993 254.15 93.9033C254.358 94.5073 254.441 95.1467 254.395 95.7834C254.44 96.4191 254.355 97.0572 254.146 97.6597C253.937 98.2623 253.609 98.817 253.18 99.2909C252.752 99.7648 252.231 100.148 251.65 100.418C251.069 100.689 250.44 100.84 249.799 100.864C249.156 100.847 248.523 100.7 247.94 100.432C247.356 100.164 246.833 99.7808 246.404 99.3052C245.976 98.8296 245.648 98.2718 245.444 97.6662C245.239 97.0606 245.161 96.4199 245.215 95.7834Z" fill="#1B1B1B"/>
</g>
</g>
</g>
</g>
<defs>
<clipPath id="clip0_63_679">
<rect width="155.032" height="60.208" fill="white" transform="translate(103.104 61.9302)"/>
</clipPath>
<clipPath id="clip1_63_679">
<rect width="155.032" height="60.208" fill="white" transform="translate(103.104 61.9302)"/>
</clipPath>
<clipPath id="clip2_63_679">
<rect width="155.032" height="60.2064" fill="white" transform="translate(103.104 61.9312)"/>
</clipPath>
<clipPath id="clip3_63_679">
<rect width="155.032" height="60.208" fill="white" transform="translate(103.104 61.9302)"/>
</clipPath>
<clipPath id="clip4_63_679">
<rect width="155.032" height="60.208" fill="white" transform="translate(103.104 61.9302)"/>
</clipPath>
<clipPath id="clip5_63_679">
<rect width="155.032" height="60.2064" fill="white" transform="translate(103.104 61.9312)"/>
</clipPath>
</defs>
</svg>
