<svg width="361" height="182" viewBox="0 0 361 182" fill="none" xmlns="http://www.w3.org/2000/svg">
<rect x="0.560547" y="0.846191" width="359.06" height="180.449" rx="7.5" stroke="#E8EEF4"/>
<g clip-path="url(#clip0_63_727)">
<g clip-path="url(#clip1_63_727)">
<path opacity="0.85" d="M201.247 82.0653C199.173 82.0653 197.549 82.8074 196.062 84.3501V82.4168H191.972V101.378H196.375V90.3842C196.375 87.8651 197.881 86.2833 200.151 86.2833C200.562 86.2833 200.934 86.342 201.188 86.381L204.24 82.3777C203.047 82.163 202.029 82.0653 201.247 82.0653ZM239.205 82.4168H234.137L229.441 88.6072L224.745 82.4168H219.678L226.839 91.966L219.678 101.378H224.863L229.422 95.3833L233.981 101.378H239.205L231.985 91.9855L239.205 82.4168ZM146.775 78.1598C145.268 80.1711 144.916 80.835 143.468 80.835H121.809V106.534H130.3C132.218 106.534 134.076 105.616 135.27 104.073C136.816 102.023 137.031 101.398 138.538 101.398H160.236V75.6993H151.686C149.768 75.6993 147.91 76.6171 146.775 78.1598ZM153.506 94.7584H144.446C142.47 94.7584 140.67 95.5786 139.477 97.18C137.931 99.2303 137.618 99.8552 136.17 99.8552H128.481V87.5332H137.54C139.516 87.5332 141.316 86.6153 142.509 85.0726C144.055 83.0613 144.486 82.4558 145.875 82.4558H153.486V94.7584H153.506ZM186.024 88.4314C187.942 87.3574 189.292 85.4437 189.292 82.9245C189.292 79.2338 186.435 75.6797 182.307 75.6797H169.882V101.378H182.287C186.787 101.378 189.898 98.1954 189.898 94.1921C189.898 91.8292 188.822 89.7788 186.024 88.4314ZM174.265 79.7025H181.935C183.852 79.7025 184.987 81.499 184.987 83.1003C184.987 85.0531 183.285 86.381 181.681 86.381H174.265V79.7025ZM181.661 97.3752H174.265V90.3842H181.935C183.911 90.3842 185.516 92.0832 185.516 93.8211C185.496 95.7739 183.481 97.3752 181.661 97.3752ZM215.275 95.9301C214.551 97.0628 213.143 97.7267 211.597 97.7267C209.171 97.7267 207.136 96.0864 207.136 93.5672H220.284C220.5 92.8057 220.539 92.4347 220.539 91.7707C220.539 86.0099 216.958 82.0653 211.577 82.0653C206.295 82.0653 202.558 85.8147 202.558 91.9269C202.558 97.8829 206.138 101.749 211.675 101.749C215.569 101.749 218.973 99.8552 219.952 95.9496C219.991 95.9301 215.275 95.9301 215.275 95.9301ZM211.597 86.0686C214.023 86.0686 215.902 87.6113 215.843 89.9155H207.195C207.195 87.6698 209.171 86.0686 211.597 86.0686Z" fill="#1B1B1B"/>
</g>
</g>
<g clip-path="url(#clip2_63_727)">
<g clip-path="url(#clip3_63_727)">
<path opacity="0.85" d="M201.247 82.0653C199.173 82.0653 197.549 82.8074 196.062 84.3501V82.4168H191.972V101.378H196.375V90.3842C196.375 87.8651 197.881 86.2833 200.151 86.2833C200.562 86.2833 200.934 86.342 201.188 86.381L204.24 82.3777C203.047 82.163 202.029 82.0653 201.247 82.0653ZM239.205 82.4168H234.137L229.441 88.6072L224.745 82.4168H219.678L226.839 91.966L219.678 101.378H224.863L229.422 95.3833L233.981 101.378H239.205L231.985 91.9855L239.205 82.4168ZM146.775 78.1598C145.268 80.1711 144.916 80.835 143.468 80.835H121.809V106.534H130.3C132.218 106.534 134.076 105.616 135.27 104.073C136.816 102.023 137.031 101.398 138.538 101.398H160.236V75.6993H151.686C149.768 75.6993 147.91 76.6171 146.775 78.1598ZM153.506 94.7584H144.446C142.47 94.7584 140.67 95.5786 139.477 97.18C137.931 99.2303 137.618 99.8552 136.17 99.8552H128.481V87.5332H137.54C139.516 87.5332 141.316 86.6153 142.509 85.0726C144.055 83.0613 144.486 82.4558 145.875 82.4558H153.486V94.7584H153.506ZM186.024 88.4314C187.942 87.3574 189.292 85.4437 189.292 82.9245C189.292 79.2338 186.435 75.6797 182.307 75.6797H169.882V101.378H182.287C186.787 101.378 189.898 98.1954 189.898 94.1921C189.898 91.8292 188.822 89.7788 186.024 88.4314ZM174.265 79.7025H181.935C183.852 79.7025 184.987 81.499 184.987 83.1003C184.987 85.0531 183.285 86.381 181.681 86.381H174.265V79.7025ZM181.661 97.3752H174.265V90.3842H181.935C183.911 90.3842 185.516 92.0832 185.516 93.8211C185.496 95.7739 183.481 97.3752 181.661 97.3752ZM215.275 95.9301C214.551 97.0628 213.143 97.7267 211.597 97.7267C209.171 97.7267 207.136 96.0864 207.136 93.5672H220.284C220.5 92.8057 220.539 92.4347 220.539 91.7707C220.539 86.0099 216.958 82.0653 211.577 82.0653C206.295 82.0653 202.558 85.8147 202.558 91.9269C202.558 97.8829 206.138 101.749 211.675 101.749C215.569 101.749 218.973 99.8552 219.952 95.9496C219.991 95.9301 215.275 95.9301 215.275 95.9301ZM211.597 86.0686C214.023 86.0686 215.902 87.6113 215.843 89.9155H207.195C207.195 87.6698 209.171 86.0686 211.597 86.0686Z" fill="#1B1B1B"/>
</g>
</g>
<defs>
<clipPath id="clip0_63_727">
<rect width="152.013" height="60.208" fill="white" transform="translate(104.5 61.3789)"/>
</clipPath>
<clipPath id="clip1_63_727">
<rect width="152.013" height="60.208" fill="white" transform="translate(104.5 61.3789)"/>
</clipPath>
<clipPath id="clip2_63_727">
<rect width="152.013" height="60.208" fill="white" transform="translate(104.5 61.3789)"/>
</clipPath>
<clipPath id="clip3_63_727">
<rect width="152.013" height="60.208" fill="white" transform="translate(104.5 61.3789)"/>
</clipPath>
</defs>
</svg>
