<svg width="361" height="182" viewBox="0 0 361 182" fill="none" xmlns="http://www.w3.org/2000/svg">
<rect x="0.560547" y="0.5" width="359.06" height="180.449" rx="7.5" stroke="#E8EEF4"/>
<g clip-path="url(#clip0_63_517)">
<g clip-path="url(#clip1_63_517)">
<g opacity="0.85">
<path fill-rule="evenodd" clip-rule="evenodd" d="M121.586 99.5392H124.909V73.8281H121.586V99.5392ZM143.071 84.0047L143.496 82.5014H146.394V99.3851H143.496L143.071 97.8818C142.105 98.8069 140.289 99.9248 138.241 99.9248C134.261 99.9248 130.397 96.6483 130.397 90.8662C130.397 85.3539 134.107 81.9232 138.241 81.9232C140.328 81.9232 142.105 83.0411 143.071 84.0047ZM138.666 96.6483C140.714 96.6483 143.071 94.8751 143.071 91.0204V90.7505C143.071 87.05 140.753 85.1226 138.396 85.1226C135.227 85.1226 133.836 88.0136 133.836 90.7505C133.836 95.1449 136.464 96.6483 138.666 96.6483ZM194.189 81.9232C192.141 81.9232 190.326 83.0411 189.359 83.9662L188.934 82.4628H186.036V106.94H189.205V98.4214H189.359C190.326 99.5007 192.102 100.349 193.919 100.349C198.208 100.349 202.033 97.4578 202.033 91.136C202.033 85.0841 198.324 81.9232 194.189 81.9232ZM193.764 96.9181C191.562 96.9181 189.359 95.1449 189.359 91.136V90.9818C189.359 87.2813 191.716 85.1997 194.035 85.1997C197.203 85.1997 198.594 88.0908 198.594 90.8276C198.44 95.4147 195.967 96.9181 193.764 96.9181ZM218.688 84.0048L219.113 82.5014H222.011V99.4237H219.113L218.688 97.9204C217.722 98.8455 215.906 99.9634 213.858 99.9634C209.878 99.9634 206.014 96.6869 206.014 90.9047C206.014 85.3925 209.723 81.9618 213.858 81.9618C215.945 81.9618 217.722 83.0411 218.688 84.0048ZM214.437 96.6483C216.486 96.6483 218.843 94.8751 218.843 91.0204V90.7506C218.843 87.05 216.524 85.1226 214.167 85.1226C210.999 85.1226 209.607 88.0137 209.607 90.7506C209.607 95.145 212.235 96.6483 214.437 96.6483ZM232.637 92.5234C234.994 93.2173 235.96 93.6028 235.96 94.8748C235.96 95.8385 235.148 96.8021 233.216 96.8021C231.439 96.8021 230.048 96.1083 228.812 95.4144L227.304 98.3055C228.541 99.115 231.014 100.079 233.371 100.079C237.08 100.079 239.283 97.4575 239.283 94.8748C239.283 90.6913 235.396 89.7568 233.955 89.4107C233.882 89.3933 233.816 89.3773 233.758 89.3626C231.285 88.6687 230.744 88.2447 230.744 87.1654C230.744 86.0475 231.709 85.3922 233.371 85.3922C234.688 85.3922 235.71 85.8047 236.67 86.1917C236.808 86.2473 236.945 86.3026 237.08 86.3558L238.742 83.4648C237.235 82.771 235.419 82.0771 233.371 82.0771C229.661 82.0771 227.459 84.6983 227.459 87.1654C227.536 90.8659 230.82 91.9838 232.637 92.5234ZM249.986 92.5234C252.343 93.2173 253.308 93.6028 253.308 94.8749C253.308 95.8385 252.497 96.8022 250.565 96.8022C248.788 96.8022 247.396 96.1084 246.16 95.4145L244.653 98.3056C245.889 99.115 248.362 100.079 250.719 100.079C254.429 100.079 256.631 97.4575 256.631 94.8749C256.631 90.6913 252.744 89.7569 251.304 89.4108L251.303 89.4106C251.231 89.3932 251.165 89.3773 251.106 89.3626C248.632 88.6687 248.092 88.2447 248.092 87.1654C248.092 86.0475 249.058 85.3922 250.719 85.3922C252.037 85.3922 253.059 85.8047 254.018 86.1918L254.019 86.1921L254.02 86.1925C254.157 86.2479 254.293 86.3029 254.429 86.3559L256.09 83.4648C254.584 82.771 252.767 82.0771 250.719 82.0771C247.01 82.0771 244.807 84.6983 244.807 87.1654C244.73 90.866 248.053 91.9838 249.986 92.5234ZM177.539 94.8749C177.539 93.6028 176.573 93.2173 174.216 92.5234C172.438 91.9838 169.115 90.866 169.038 87.1654C169.038 84.6983 171.24 82.0771 174.95 82.0771C176.998 82.0771 178.814 82.771 180.32 83.4648L178.66 86.3559C178.524 86.3028 178.388 86.2478 178.25 86.1924L178.249 86.1919C177.289 85.8047 176.267 85.3922 174.95 85.3922C173.288 85.3922 172.322 86.0475 172.322 87.1654C172.322 88.2447 172.863 88.6687 175.336 89.3626C175.396 89.3774 175.462 89.3934 175.535 89.4108C176.974 89.7569 180.862 90.6913 180.862 94.8749C180.862 97.4575 178.66 100.079 174.95 100.079C172.593 100.079 170.12 99.115 168.883 98.3056L170.39 95.4145C171.627 96.1084 173.018 96.8022 174.795 96.8022C176.727 96.8022 177.539 95.8385 177.539 94.8749ZM156.981 92.5234C159.338 93.2173 160.304 93.6028 160.304 94.8749C160.304 95.8385 159.492 96.8022 157.56 96.8022C155.783 96.8022 154.392 96.1084 153.155 95.4145L151.648 98.3056C152.885 99.115 155.358 100.079 157.715 100.079C161.424 100.079 163.627 97.4575 163.627 94.8749C163.627 90.6913 159.739 89.7569 158.299 89.4108C158.227 89.3934 158.16 89.3774 158.101 89.3626C155.628 88.6687 155.087 88.2447 155.087 87.1654C155.087 86.0475 156.053 85.3922 157.715 85.3922C159.032 85.3922 160.054 85.8047 161.013 86.1918L161.015 86.1924C161.152 86.2478 161.289 86.3028 161.424 86.3559L163.086 83.4648C161.579 82.771 159.763 82.0771 157.715 82.0771C154.005 82.0771 151.803 84.6983 151.803 87.1654C151.88 90.866 155.048 91.9838 156.981 92.5234ZM105.744 90.8661C105.744 93.8728 107.676 96.494 110.844 96.494C112.081 96.494 113.317 95.9543 114.283 95.4147L115.829 98.2671C115.741 98.3161 115.653 98.3663 115.562 98.4175C114.372 99.0921 112.902 99.9247 110.999 99.9247C106.014 99.9247 102.305 96.1085 102.305 90.8661C102.305 85.6622 105.898 81.8074 110.96 81.7689C112.892 81.7689 114.669 82.7326 115.79 83.4265L114.283 86.3175C114.155 86.2459 114.027 86.1715 113.897 86.0964C113.051 85.6058 112.151 85.084 110.844 85.084C107.792 85.084 105.744 87.4354 105.744 90.8661Z" fill="#1B1B1B"/>
</g>
</g>
</g>
<g clip-path="url(#clip2_63_517)">
<g clip-path="url(#clip3_63_517)">
<g opacity="0.85">
<path fill-rule="evenodd" clip-rule="evenodd" d="M121.586 99.5392H124.909V73.8281H121.586V99.5392ZM143.071 84.0047L143.496 82.5014H146.394V99.3851H143.496L143.071 97.8818C142.105 98.8069 140.289 99.9248 138.241 99.9248C134.261 99.9248 130.397 96.6483 130.397 90.8662C130.397 85.3539 134.107 81.9232 138.241 81.9232C140.328 81.9232 142.105 83.0411 143.071 84.0047ZM138.666 96.6483C140.714 96.6483 143.071 94.8751 143.071 91.0204V90.7505C143.071 87.05 140.753 85.1226 138.396 85.1226C135.227 85.1226 133.836 88.0136 133.836 90.7505C133.836 95.1449 136.464 96.6483 138.666 96.6483ZM194.189 81.9232C192.141 81.9232 190.326 83.0411 189.359 83.9662L188.934 82.4628H186.036V106.94H189.205V98.4214H189.359C190.326 99.5007 192.102 100.349 193.919 100.349C198.208 100.349 202.033 97.4578 202.033 91.136C202.033 85.0841 198.324 81.9232 194.189 81.9232ZM193.764 96.9181C191.562 96.9181 189.359 95.1449 189.359 91.136V90.9818C189.359 87.2813 191.716 85.1997 194.035 85.1997C197.203 85.1997 198.594 88.0908 198.594 90.8276C198.44 95.4147 195.967 96.9181 193.764 96.9181ZM218.688 84.0048L219.113 82.5014H222.011V99.4237H219.113L218.688 97.9204C217.722 98.8455 215.906 99.9634 213.858 99.9634C209.878 99.9634 206.014 96.6869 206.014 90.9047C206.014 85.3925 209.723 81.9618 213.858 81.9618C215.945 81.9618 217.722 83.0411 218.688 84.0048ZM214.437 96.6483C216.486 96.6483 218.843 94.8751 218.843 91.0204V90.7506C218.843 87.05 216.524 85.1226 214.167 85.1226C210.999 85.1226 209.607 88.0137 209.607 90.7506C209.607 95.145 212.235 96.6483 214.437 96.6483ZM232.637 92.5234C234.994 93.2173 235.96 93.6028 235.96 94.8748C235.96 95.8385 235.148 96.8021 233.216 96.8021C231.439 96.8021 230.048 96.1083 228.812 95.4144L227.304 98.3055C228.541 99.115 231.014 100.079 233.371 100.079C237.08 100.079 239.283 97.4575 239.283 94.8748C239.283 90.6913 235.396 89.7568 233.955 89.4107C233.882 89.3933 233.816 89.3773 233.758 89.3626C231.285 88.6687 230.744 88.2447 230.744 87.1654C230.744 86.0475 231.709 85.3922 233.371 85.3922C234.688 85.3922 235.71 85.8047 236.67 86.1917C236.808 86.2473 236.945 86.3026 237.08 86.3558L238.742 83.4648C237.235 82.771 235.419 82.0771 233.371 82.0771C229.661 82.0771 227.459 84.6983 227.459 87.1654C227.536 90.8659 230.82 91.9838 232.637 92.5234ZM249.986 92.5234C252.343 93.2173 253.308 93.6028 253.308 94.8749C253.308 95.8385 252.497 96.8022 250.565 96.8022C248.788 96.8022 247.396 96.1084 246.16 95.4145L244.653 98.3056C245.889 99.115 248.362 100.079 250.719 100.079C254.429 100.079 256.631 97.4575 256.631 94.8749C256.631 90.6913 252.744 89.7569 251.304 89.4108L251.303 89.4106C251.231 89.3932 251.165 89.3773 251.106 89.3626C248.632 88.6687 248.092 88.2447 248.092 87.1654C248.092 86.0475 249.058 85.3922 250.719 85.3922C252.037 85.3922 253.059 85.8047 254.018 86.1918L254.019 86.1921L254.02 86.1925C254.157 86.2479 254.293 86.3029 254.429 86.3559L256.09 83.4648C254.584 82.771 252.767 82.0771 250.719 82.0771C247.01 82.0771 244.807 84.6983 244.807 87.1654C244.73 90.866 248.053 91.9838 249.986 92.5234ZM177.539 94.8749C177.539 93.6028 176.573 93.2173 174.216 92.5234C172.438 91.9838 169.115 90.866 169.038 87.1654C169.038 84.6983 171.24 82.0771 174.95 82.0771C176.998 82.0771 178.814 82.771 180.32 83.4648L178.66 86.3559C178.524 86.3028 178.388 86.2478 178.25 86.1924L178.249 86.1919C177.289 85.8047 176.267 85.3922 174.95 85.3922C173.288 85.3922 172.322 86.0475 172.322 87.1654C172.322 88.2447 172.863 88.6687 175.336 89.3626C175.396 89.3774 175.462 89.3934 175.535 89.4108C176.974 89.7569 180.862 90.6913 180.862 94.8749C180.862 97.4575 178.66 100.079 174.95 100.079C172.593 100.079 170.12 99.115 168.883 98.3056L170.39 95.4145C171.627 96.1084 173.018 96.8022 174.795 96.8022C176.727 96.8022 177.539 95.8385 177.539 94.8749ZM156.981 92.5234C159.338 93.2173 160.304 93.6028 160.304 94.8749C160.304 95.8385 159.492 96.8022 157.56 96.8022C155.783 96.8022 154.392 96.1084 153.155 95.4145L151.648 98.3056C152.885 99.115 155.358 100.079 157.715 100.079C161.424 100.079 163.627 97.4575 163.627 94.8749C163.627 90.6913 159.739 89.7569 158.299 89.4108C158.227 89.3934 158.16 89.3774 158.101 89.3626C155.628 88.6687 155.087 88.2447 155.087 87.1654C155.087 86.0475 156.053 85.3922 157.715 85.3922C159.032 85.3922 160.054 85.8047 161.013 86.1918L161.015 86.1924C161.152 86.2478 161.289 86.3028 161.424 86.3559L163.086 83.4648C161.579 82.771 159.763 82.0771 157.715 82.0771C154.005 82.0771 151.803 84.6983 151.803 87.1654C151.88 90.866 155.048 91.9838 156.981 92.5234ZM105.744 90.8661C105.744 93.8728 107.676 96.494 110.844 96.494C112.081 96.494 113.317 95.9543 114.283 95.4147L115.829 98.2671C115.741 98.3161 115.653 98.3663 115.562 98.4175C114.372 99.0921 112.902 99.9247 110.999 99.9247C106.014 99.9247 102.305 96.1085 102.305 90.8661C102.305 85.6622 105.898 81.8074 110.96 81.7689C112.892 81.7689 114.669 82.7326 115.79 83.4265L114.283 86.3175C114.155 86.2459 114.027 86.1715 113.897 86.0964C113.051 85.6058 112.151 85.084 110.844 85.084C107.792 85.084 105.744 87.4354 105.744 90.8661Z" fill="#1B1B1B"/>
</g>
</g>
</g>
<defs>
<clipPath id="clip0_63_517">
<rect width="157.283" height="60.208" fill="white" transform="translate(101.854 61.0327)"/>
</clipPath>
<clipPath id="clip1_63_517">
<rect width="157.283" height="60.208" fill="white" transform="translate(101.854 61.0327)"/>
</clipPath>
<clipPath id="clip2_63_517">
<rect width="157.283" height="60.208" fill="white" transform="translate(101.854 61.0327)"/>
</clipPath>
<clipPath id="clip3_63_517">
<rect width="157.283" height="60.208" fill="white" transform="translate(101.854 61.0327)"/>
</clipPath>
</defs>
</svg>
