<svg width="361" height="182" viewBox="0 0 361 182" fill="none" xmlns="http://www.w3.org/2000/svg">
<rect x="0.621094" y="0.94873" width="359.06" height="180.449" rx="7.5" stroke="#E8EEF4"/>
<g clip-path="url(#clip0_63_580)">
<g clip-path="url(#clip1_63_580)">
<g opacity="0.85">
<path d="M167.615 103.174C163.554 100.558 158.044 100.099 149.157 102.565C139.683 104.791 136.524 106.219 132.376 103.354C130.782 101.946 130.211 99.6802 130.637 96.4161C131.627 91.095 134.301 85.9743 139.051 80.2943C141.703 77.3395 144.162 74.8038 147.41 73.7856C149.899 73.1468 149.666 75.1029 149.365 75.3827C149.047 75.3827 148.514 75.4328 148.101 75.702C147.766 75.9617 146.847 76.8003 146.798 77.9283C146.726 79.6553 148.513 79.2958 149.284 78.3477C150.115 77.2793 151.343 75.2332 150.377 73.3263C149.972 72.6475 149.273 72.1785 148.404 72.0188C145.43 71.8488 142.661 73.2664 140.105 74.8337C134.515 78.7169 130.043 84.0977 127.513 89.9876C126.054 93.5413 124.735 98.6318 126.712 102.775C128.242 105.65 131.418 107.177 135.207 106.858C137.865 106.578 141.078 105.719 143.239 105.201C145.401 104.681 156.464 100.878 160.099 107.497C160.099 107.497 161.308 105.151 164.329 105.101C166.813 104.871 170.395 105.82 173.005 107.736C172.135 106.429 169.671 104.502 167.615 103.174Z" fill="#1B1B1B"/>
<path d="M150.285 80.9629C148.216 79.6053 144.057 82.2007 140.726 86.6528C137.68 90.6462 136.364 95.2876 137.796 97.4338C139.925 99.9594 143.878 96.2859 145.559 94.3196L145.776 94.0898C146.919 92.8619 147.802 91.3844 148.657 89.9668C148.657 89.9668 149.443 88.6691 149.48 88.609C149.966 88.5196 150.551 88.3797 151.21 88.19C151.2 88.2197 148.688 92.4425 148.945 94.5384C149.024 95.1779 148.963 97.5138 151.244 98.2224C154.284 98.7319 156.711 96.3757 158.852 94.2793C158.852 94.2793 159.217 93.9302 159.423 93.7309C159.371 93.9401 159.303 94.219 159.303 94.219C158.413 97.3136 159.613 97.963 160.363 98.2027C162.631 98.8618 165.34 95.5673 165.348 95.5673C165.278 96.6051 165.073 97.4636 166.167 98.1525C167.199 98.522 168.244 97.9586 169.038 97.4295C171.9 95.413 174.204 92.2571 176.066 89.5291H174.879C174.865 89.5291 171.948 93.7559 170.055 94.6746C170.052 94.6746 169.707 94.8515 169.508 94.7115C169.263 94.5018 169.36 94.0658 169.511 93.757C169.521 93.7368 176.823 81.0721 176.823 81.0721H173.375C173.375 81.0721 172.999 81.6815 172.968 81.7214C172.945 81.7015 172.89 81.5967 172.851 81.5465C170.715 78.5918 165.878 83.1367 162.236 88.4073C160.834 90.4339 159.049 92.7159 157.198 94.3629C157.198 94.3629 154.456 96.8765 153.284 95.0706C152.856 94.3117 152.988 93.2024 153.229 92.4738C154.593 88.5906 156.944 85.0664 159.619 82.9399C160.374 82.3513 161.195 82.1811 161.602 82.4307C161.99 82.6607 162.053 83.2292 161.807 83.6186C161.184 83.5987 160.685 83.788 160.279 84.2074C159.48 85.046 159.202 85.8547 159.456 86.6135C160.691 88.3703 163.153 84.8963 163.034 82.7801C162.992 82.0212 162.587 81.3026 161.983 80.9529C161.082 80.4141 159.709 80.5537 158.82 80.9832C157.63 81.4322 155.746 82.9994 154.647 84.2175C153.262 85.745 150.888 87.4418 150.146 87.2519C150.389 86.6027 152.394 82.5 150.285 80.9629ZM166.907 87.0323C167.578 86.104 169.53 83.6182 170.006 83.1991C171.606 81.791 172.246 82.4105 172.301 82.8494C170.808 85.5247 169.045 88.5896 167.387 91.3448C167.39 91.3351 166.868 92.1334 166.868 92.1334C166.136 93.2512 165.399 94.2095 164.197 94.8783C164.025 94.9285 163.743 94.9486 163.555 94.8084C163.328 94.6586 163.239 94.409 163.264 94.1493C163.336 93.291 164.21 90.6661 166.907 87.0323ZM148.151 88.6393C148.151 88.6393 148.121 88.7295 148.106 88.759C148.102 88.759 146.603 91.2043 146.603 91.2043C145.698 92.4125 144.568 93.9302 143.156 94.6586C142.737 94.7984 142.159 94.8884 141.864 94.5194C141.239 93.7705 141.561 92.7323 141.823 91.8939L141.915 91.5943C142.666 89.5581 143.857 87.7609 145.016 86.0938C145.03 86.084 145.062 86.074 145.074 86.074C145.077 86.084 145.082 86.084 145.084 86.104C145.811 87.5013 147.175 88.1499 148.195 88.4499C148.201 88.4499 148.207 88.4598 148.207 88.4799C148.207 88.5096 148.191 88.5498 148.151 88.6393ZM149.572 85.7547C149.565 85.7746 148.904 87.2918 148.904 87.2918C148.808 87.3716 148.657 87.3318 148.484 87.2918L148.187 87.2416C147.255 86.9523 146.552 86.3333 146.335 85.5947C146.036 84.1572 147.264 83.0291 147.805 82.6201C148.324 82.2603 149.132 82.0708 149.6 82.4403C149.889 82.7798 149.999 83.2188 149.999 83.6983C149.999 84.347 149.799 85.0757 149.572 85.7547Z" fill="#1B1B1B"/>
<path d="M193.158 90.3864C192.826 89.6679 192.036 89.2086 191.196 89.2584C188.465 89.5081 185.793 91.7541 184.39 94.9783C183.654 96.6356 183.253 98.003 182.989 100.179C183.839 99.2011 185.571 97.594 187.537 96.7155C187.537 96.7155 187.804 94.6292 189.168 92.7724C189.684 92.0035 190.717 90.7657 191.877 91.0951C192.891 91.4347 192.535 94.2398 191.188 96.9544C190.191 98.9513 188.666 100.948 187.123 102.326C185.759 103.484 183.741 104.881 181.975 103.803C180.862 103.145 180.295 101.767 180.415 99.9897C180.946 94.9487 183.241 90.6561 186.525 85.7647C189.911 81.2227 193.644 76.5609 198.672 74.0748C199.698 73.5558 200.647 73.436 201.468 73.7555C201.468 73.7555 196.748 76.3509 194.498 81.1527C193.926 82.3707 193.13 84.0174 193.931 85.475C194.351 86.2336 195.094 86.2935 195.693 86.2536C198.451 85.6145 200.233 83.0392 201.689 80.6835C202.532 78.8966 203.283 77.1197 203.283 75.1431C203.283 74.9036 203.27 74.5842 203.25 74.3444C204.567 73.646 207.27 74.8835 207.27 74.8835C209.381 75.5826 213.877 79.0267 215.393 79.6853C216.133 78.8269 217.348 77.5293 218.033 76.8803L217.042 76.2713C215.455 75.3029 213.779 74.3844 212.128 73.4761C208.38 71.43 205.329 72.1485 203.776 72.7076C203.166 72.9271 202.608 73.1168 202.608 73.1168C201.456 71.8591 199.567 71.9786 198.174 72.3182C193.166 73.7556 188.516 77.2594 183.532 83.339C179.867 88.1007 177.593 92.2137 176.382 96.2764C175.448 99.0114 175.164 103.034 177.444 105.42C179.382 107.446 181.952 107.007 183.766 106.279C187.698 104.342 191.233 100.169 192.994 95.3677C193.418 93.9404 193.89 91.9239 193.158 90.3864ZM202.2 75.3429C201.68 81.3125 197.039 84.8167 195.891 85.0958C195.195 85.2354 194.008 84.9261 195.068 82.4208C196.629 79.0464 199.293 76.1816 202.152 74.7141C202.222 74.9637 202.22 75.123 202.2 75.3429Z" fill="#1B1B1B"/>
<path d="M229.725 76.1012C227.23 77.519 224.641 78.4371 221.509 78.1178C220.642 79.0964 219.796 80.1045 219.018 81.1425C223.413 82.2606 228.074 79.7749 230.673 77.4093C233.423 75.0233 234.833 72.0188 234.833 72.0188C234.833 72.0188 232.771 74.3745 229.725 76.1012Z" fill="#1B1B1B"/>
<path d="M180.707 84.0734L182.555 81.0725H179.28L177.434 84.0734H180.707Z" fill="#1B1B1B"/>
<path d="M221.497 103.452C221.145 103.691 220.65 103.507 220.835 102.958C221.296 101.56 223.127 98.7123 223.127 98.7123L228.228 89.6654H224.734C224.568 89.9382 224.213 90.5646 224.213 90.5646C224.051 90.2954 223.568 89.6966 223.369 89.5673C222.515 89.0278 221.263 89.2829 220.399 89.7719C216.642 91.9684 213.901 96.308 211.74 99.6922C211.74 99.6922 209.465 103.454 208.201 103.734C207.216 103.814 207.317 102.486 207.36 102.176C207.742 99.9397 208.627 97.8136 209.519 95.8869C211.333 94.6291 213.404 92.9821 215.285 91.1753C219.369 87.2718 222.812 82.8495 223.315 81.8612C223.315 81.8612 222.77 81.9712 222.127 81.991C218.986 86.3733 212.556 92.7425 210.607 93.6905C211.471 91.6138 217.049 81.7014 221.796 76.9598L222.544 76.2408C223.699 75.1128 224.895 73.9549 225.829 73.7651C225.927 73.7551 226.054 73.7651 226.163 73.995C226.205 74.8734 225.878 75.5224 225.503 76.2609L224.977 77.3392C224.977 77.3392 225.722 77.1994 226.211 77.0393C226.778 75.9717 227.407 74.7733 227.175 73.3462C227.097 72.8869 226.765 72.5376 226.331 72.4577C224.914 72.1881 223.371 73.236 222.129 74.0848L222.079 74.1146C215.695 79.1159 210.305 86.3234 205.592 96.1663C205.251 96.4254 203.931 96.7352 203.706 96.5853C204.171 95.6272 204.758 94.3392 205.051 92.9416C205.102 92.5422 205.149 92.1331 205.149 91.7339C205.149 90.8747 204.943 90.0664 204.173 89.5076C203.271 89.0582 202.155 89.268 201.403 89.6072C198.034 91.0048 195.516 94.4591 193.699 97.3038C192.723 99.111 191.748 101.047 191.479 103.263C191.288 105 191.675 106.118 192.662 106.677C193.678 107.196 194.956 106.657 195.458 106.398C198.871 104.601 201.256 100.997 203.136 97.7027C203.21 97.6929 204.237 97.6632 205.013 97.4632C205.023 97.4632 205.028 97.4632 205.044 97.4737C205 97.6228 204.599 98.8211 204.599 98.8211C203.408 102.315 202.857 104.691 203.982 106.098C205.59 108.085 208.253 106.029 210.418 103.313C209.953 106.567 211.64 107.076 212.925 106.827C214.402 106.428 216.048 104.85 216.811 104.042C216.566 104.99 216.633 106.687 217.976 106.857C218.898 107.027 219.586 106.526 220.384 106.097C223.244 104.539 226.668 99.3498 227.557 97.8494H226.392C225.127 99.7592 223.52 102.263 221.497 103.452ZM195.823 103.104C195.642 102.834 195.582 102.54 195.576 102.221C195.541 100.264 197.647 96.7583 199.134 94.8487C199.137 94.8487 199.137 94.8487 199.137 94.8487C199.76 96.2127 201.17 97.0894 202.022 97.4589C200.964 99.8151 197.337 104.861 195.823 103.104ZM202.619 96.4056C202.518 96.4759 200.739 95.8767 200.396 94.2296C200.104 92.8116 201.081 91.7036 202.025 91.1451C202.431 90.8255 203.041 90.7159 203.49 90.875C203.905 91.1549 204.018 91.6543 204.018 92.1926C204.018 92.5227 203.974 92.8618 203.936 93.1711C203.936 93.1711 203.928 93.2313 203.927 93.2413C203.63 94.349 203.177 95.4373 202.619 96.4056ZM216.886 102.475C216.884 102.475 216.549 102.775 216.549 102.775C216.069 103.204 215.575 103.663 214.979 103.433C214.814 103.373 214.698 103.154 214.67 102.984C214.643 101.756 215.196 100.618 215.732 99.5102L215.87 99.2205C217.413 96.645 219.205 93.6104 221.839 91.5044C222.282 91.1842 222.763 90.9152 223.272 91.125C223.389 91.2346 223.525 91.4244 223.525 91.6138C223.525 91.674 223.472 91.8336 223.441 91.8833C222.706 93.0717 222.005 94.3194 221.324 95.5172C219.993 97.8832 218.612 100.329 216.886 102.475Z" fill="#1B1B1B"/>
</g>
</g>
</g>
<g clip-path="url(#clip2_63_580)">
<g clip-path="url(#clip3_63_580)">
<g opacity="0.85">
<path d="M167.615 103.174C163.554 100.558 158.044 100.099 149.157 102.565C139.683 104.791 136.524 106.219 132.376 103.354C130.782 101.946 130.211 99.6802 130.637 96.4161C131.627 91.095 134.301 85.9743 139.051 80.2943C141.703 77.3395 144.162 74.8038 147.41 73.7856C149.899 73.1468 149.666 75.1029 149.365 75.3827C149.047 75.3827 148.514 75.4328 148.101 75.702C147.766 75.9617 146.847 76.8003 146.798 77.9283C146.726 79.6553 148.513 79.2958 149.284 78.3477C150.115 77.2793 151.343 75.2332 150.377 73.3263C149.972 72.6475 149.273 72.1785 148.404 72.0188C145.43 71.8488 142.661 73.2664 140.105 74.8337C134.515 78.7169 130.043 84.0977 127.513 89.9876C126.054 93.5413 124.735 98.6318 126.712 102.775C128.242 105.65 131.418 107.177 135.207 106.858C137.865 106.578 141.078 105.719 143.239 105.201C145.401 104.681 156.464 100.878 160.099 107.497C160.099 107.497 161.308 105.151 164.329 105.101C166.813 104.871 170.395 105.82 173.005 107.736C172.135 106.429 169.671 104.502 167.615 103.174Z" fill="#1B1B1B"/>
<path d="M150.285 80.9629C148.216 79.6053 144.057 82.2007 140.726 86.6528C137.68 90.6462 136.364 95.2876 137.796 97.4338C139.925 99.9594 143.878 96.2859 145.559 94.3196L145.776 94.0898C146.919 92.8619 147.802 91.3844 148.657 89.9668C148.657 89.9668 149.443 88.6691 149.48 88.609C149.966 88.5196 150.551 88.3797 151.21 88.19C151.2 88.2197 148.688 92.4425 148.945 94.5384C149.024 95.1779 148.963 97.5138 151.244 98.2224C154.284 98.7319 156.711 96.3757 158.852 94.2793C158.852 94.2793 159.217 93.9302 159.423 93.7309C159.371 93.9401 159.303 94.219 159.303 94.219C158.413 97.3136 159.613 97.963 160.363 98.2027C162.631 98.8618 165.34 95.5673 165.348 95.5673C165.278 96.6051 165.073 97.4636 166.167 98.1525C167.199 98.522 168.244 97.9586 169.038 97.4295C171.9 95.413 174.204 92.2571 176.066 89.5291H174.879C174.865 89.5291 171.948 93.7559 170.055 94.6746C170.052 94.6746 169.707 94.8515 169.508 94.7115C169.263 94.5018 169.36 94.0658 169.511 93.757C169.521 93.7368 176.823 81.0721 176.823 81.0721H173.375C173.375 81.0721 172.999 81.6815 172.968 81.7214C172.945 81.7015 172.89 81.5967 172.851 81.5465C170.715 78.5918 165.878 83.1367 162.236 88.4073C160.834 90.4339 159.049 92.7159 157.198 94.3629C157.198 94.3629 154.456 96.8765 153.284 95.0706C152.856 94.3117 152.988 93.2024 153.229 92.4738C154.593 88.5906 156.944 85.0664 159.619 82.9399C160.374 82.3513 161.195 82.1811 161.602 82.4307C161.99 82.6607 162.053 83.2292 161.807 83.6186C161.184 83.5987 160.685 83.788 160.279 84.2074C159.48 85.046 159.202 85.8547 159.456 86.6135C160.691 88.3703 163.153 84.8963 163.034 82.7801C162.992 82.0212 162.587 81.3026 161.983 80.9529C161.082 80.4141 159.709 80.5537 158.82 80.9832C157.63 81.4322 155.746 82.9994 154.647 84.2175C153.262 85.745 150.888 87.4418 150.146 87.2519C150.389 86.6027 152.394 82.5 150.285 80.9629ZM166.907 87.0323C167.578 86.104 169.53 83.6182 170.006 83.1991C171.606 81.791 172.246 82.4105 172.301 82.8494C170.808 85.5247 169.045 88.5896 167.387 91.3448C167.39 91.3351 166.868 92.1334 166.868 92.1334C166.136 93.2512 165.399 94.2095 164.197 94.8783C164.025 94.9285 163.743 94.9486 163.555 94.8084C163.328 94.6586 163.239 94.409 163.264 94.1493C163.336 93.291 164.21 90.6661 166.907 87.0323ZM148.151 88.6393C148.151 88.6393 148.121 88.7295 148.106 88.759C148.102 88.759 146.603 91.2043 146.603 91.2043C145.698 92.4125 144.568 93.9302 143.156 94.6586C142.737 94.7984 142.159 94.8884 141.864 94.5194C141.239 93.7705 141.561 92.7323 141.823 91.8939L141.915 91.5943C142.666 89.5581 143.857 87.7609 145.016 86.0938C145.03 86.084 145.062 86.074 145.074 86.074C145.077 86.084 145.082 86.084 145.084 86.104C145.811 87.5013 147.175 88.1499 148.195 88.4499C148.201 88.4499 148.207 88.4598 148.207 88.4799C148.207 88.5096 148.191 88.5498 148.151 88.6393ZM149.572 85.7547C149.565 85.7746 148.904 87.2918 148.904 87.2918C148.808 87.3716 148.657 87.3318 148.484 87.2918L148.187 87.2416C147.255 86.9523 146.552 86.3333 146.335 85.5947C146.036 84.1572 147.264 83.0291 147.805 82.6201C148.324 82.2603 149.132 82.0708 149.6 82.4403C149.889 82.7798 149.999 83.2188 149.999 83.6983C149.999 84.347 149.799 85.0757 149.572 85.7547Z" fill="#1B1B1B"/>
<path d="M193.158 90.3864C192.826 89.6679 192.036 89.2086 191.196 89.2584C188.465 89.5081 185.793 91.7541 184.39 94.9783C183.654 96.6356 183.253 98.003 182.989 100.179C183.839 99.2011 185.571 97.594 187.537 96.7155C187.537 96.7155 187.804 94.6292 189.168 92.7724C189.684 92.0035 190.717 90.7657 191.877 91.0951C192.891 91.4347 192.535 94.2398 191.188 96.9544C190.191 98.9513 188.666 100.948 187.123 102.326C185.759 103.484 183.741 104.881 181.975 103.803C180.862 103.145 180.295 101.767 180.415 99.9897C180.946 94.9487 183.241 90.6561 186.525 85.7647C189.911 81.2227 193.644 76.5609 198.672 74.0748C199.698 73.5558 200.647 73.436 201.468 73.7555C201.468 73.7555 196.748 76.3509 194.498 81.1527C193.926 82.3707 193.13 84.0174 193.931 85.475C194.351 86.2336 195.094 86.2935 195.693 86.2536C198.451 85.6145 200.233 83.0392 201.689 80.6835C202.532 78.8966 203.283 77.1197 203.283 75.1431C203.283 74.9036 203.27 74.5842 203.25 74.3444C204.567 73.646 207.27 74.8835 207.27 74.8835C209.381 75.5826 213.877 79.0267 215.393 79.6853C216.133 78.8269 217.348 77.5293 218.033 76.8803L217.042 76.2713C215.455 75.3029 213.779 74.3844 212.128 73.4761C208.38 71.43 205.329 72.1485 203.776 72.7076C203.166 72.9271 202.608 73.1168 202.608 73.1168C201.456 71.8591 199.567 71.9786 198.174 72.3182C193.166 73.7556 188.516 77.2594 183.532 83.339C179.867 88.1007 177.593 92.2137 176.382 96.2764C175.448 99.0114 175.164 103.034 177.444 105.42C179.382 107.446 181.952 107.007 183.766 106.279C187.698 104.342 191.233 100.169 192.994 95.3677C193.418 93.9404 193.89 91.9239 193.158 90.3864ZM202.2 75.3429C201.68 81.3125 197.039 84.8167 195.891 85.0958C195.195 85.2354 194.008 84.9261 195.068 82.4208C196.629 79.0464 199.293 76.1816 202.152 74.7141C202.222 74.9637 202.22 75.123 202.2 75.3429Z" fill="#1B1B1B"/>
<path d="M229.725 76.1012C227.23 77.519 224.641 78.4371 221.509 78.1178C220.642 79.0964 219.796 80.1045 219.018 81.1425C223.413 82.2606 228.074 79.7749 230.673 77.4093C233.423 75.0233 234.833 72.0188 234.833 72.0188C234.833 72.0188 232.771 74.3745 229.725 76.1012Z" fill="#1B1B1B"/>
<path d="M180.707 84.0734L182.555 81.0725H179.28L177.434 84.0734H180.707Z" fill="#1B1B1B"/>
<path d="M221.497 103.452C221.145 103.691 220.65 103.507 220.835 102.958C221.296 101.56 223.127 98.7123 223.127 98.7123L228.228 89.6654H224.734C224.568 89.9382 224.213 90.5646 224.213 90.5646C224.051 90.2954 223.568 89.6966 223.369 89.5673C222.515 89.0278 221.263 89.2829 220.399 89.7719C216.642 91.9684 213.901 96.308 211.74 99.6922C211.74 99.6922 209.465 103.454 208.201 103.734C207.216 103.814 207.317 102.486 207.36 102.176C207.742 99.9397 208.627 97.8136 209.519 95.8869C211.333 94.6291 213.404 92.9821 215.285 91.1753C219.369 87.2718 222.812 82.8495 223.315 81.8612C223.315 81.8612 222.77 81.9712 222.127 81.991C218.986 86.3733 212.556 92.7425 210.607 93.6905C211.471 91.6138 217.049 81.7014 221.796 76.9598L222.544 76.2408C223.699 75.1128 224.895 73.9549 225.829 73.7651C225.927 73.7551 226.054 73.7651 226.163 73.995C226.205 74.8734 225.878 75.5224 225.503 76.2609L224.977 77.3392C224.977 77.3392 225.722 77.1994 226.211 77.0393C226.778 75.9717 227.407 74.7733 227.175 73.3462C227.097 72.8869 226.765 72.5376 226.331 72.4577C224.914 72.1881 223.371 73.236 222.129 74.0848L222.079 74.1146C215.695 79.1159 210.305 86.3234 205.592 96.1663C205.251 96.4254 203.931 96.7352 203.706 96.5853C204.171 95.6272 204.758 94.3392 205.051 92.9416C205.102 92.5422 205.149 92.1331 205.149 91.7339C205.149 90.8747 204.943 90.0664 204.173 89.5076C203.271 89.0582 202.155 89.268 201.403 89.6072C198.034 91.0048 195.516 94.4591 193.699 97.3038C192.723 99.111 191.748 101.047 191.479 103.263C191.288 105 191.675 106.118 192.662 106.677C193.678 107.196 194.956 106.657 195.458 106.398C198.871 104.601 201.256 100.997 203.136 97.7027C203.21 97.6929 204.237 97.6632 205.013 97.4632C205.023 97.4632 205.028 97.4632 205.044 97.4737C205 97.6228 204.599 98.8211 204.599 98.8211C203.408 102.315 202.857 104.691 203.982 106.098C205.59 108.085 208.253 106.029 210.418 103.313C209.953 106.567 211.64 107.076 212.925 106.827C214.402 106.428 216.048 104.85 216.811 104.042C216.566 104.99 216.633 106.687 217.976 106.857C218.898 107.027 219.586 106.526 220.384 106.097C223.244 104.539 226.668 99.3498 227.557 97.8494H226.392C225.127 99.7592 223.52 102.263 221.497 103.452ZM195.823 103.104C195.642 102.834 195.582 102.54 195.576 102.221C195.541 100.264 197.647 96.7583 199.134 94.8487C199.137 94.8487 199.137 94.8487 199.137 94.8487C199.76 96.2127 201.17 97.0894 202.022 97.4589C200.964 99.8151 197.337 104.861 195.823 103.104ZM202.619 96.4056C202.518 96.4759 200.739 95.8767 200.396 94.2296C200.104 92.8116 201.081 91.7036 202.025 91.1451C202.431 90.8255 203.041 90.7159 203.49 90.875C203.905 91.1549 204.018 91.6543 204.018 92.1926C204.018 92.5227 203.974 92.8618 203.936 93.1711C203.936 93.1711 203.928 93.2313 203.927 93.2413C203.63 94.349 203.177 95.4373 202.619 96.4056ZM216.886 102.475C216.884 102.475 216.549 102.775 216.549 102.775C216.069 103.204 215.575 103.663 214.979 103.433C214.814 103.373 214.698 103.154 214.67 102.984C214.643 101.756 215.196 100.618 215.732 99.5102L215.87 99.2205C217.413 96.645 219.205 93.6104 221.839 91.5044C222.282 91.1842 222.763 90.9152 223.272 91.125C223.389 91.2346 223.525 91.4244 223.525 91.6138C223.525 91.674 223.472 91.8336 223.441 91.8833C222.706 93.0717 222.005 94.3194 221.324 95.5172C219.993 97.8832 218.612 100.329 216.886 102.475Z" fill="#1B1B1B"/>
</g>
</g>
</g>
<defs>
<clipPath id="clip0_63_580">
<rect width="128.688" height="60.208" fill="white" transform="translate(116.215 61.4814)"/>
</clipPath>
<clipPath id="clip1_63_580">
<rect width="128.688" height="60.208" fill="white" transform="translate(116.215 61.4814)"/>
</clipPath>
<clipPath id="clip2_63_580">
<rect width="128.688" height="60.208" fill="white" transform="translate(116.215 61.4814)"/>
</clipPath>
<clipPath id="clip3_63_580">
<rect width="128.688" height="60.208" fill="white" transform="translate(116.215 61.4814)"/>
</clipPath>
</defs>
</svg>
