<svg width="361" height="183" viewBox="0 0 361 183" fill="none" xmlns="http://www.w3.org/2000/svg">
<rect x="0.560547" y="1.39746" width="359.06" height="180.449" rx="7.5" stroke="#E8EEF4"/>
<g clip-path="url(#clip0_63_659)">
<g clip-path="url(#clip1_63_659)">
<g opacity="0.85">
<path d="M148.182 94.3567C148.206 91.8272 148.768 89.7618 149.969 87.8786C151.468 85.5259 153.577 83.8305 156.336 82.8971C157.408 82.5382 158.515 82.3449 159.657 82.3007C162.509 82.1903 165.063 82.9689 167.318 84.6036C168.976 85.8076 170.217 87.3318 171.061 89.1432C171.582 90.2644 171.939 91.4241 172.074 92.6391C172.379 95.3839 171.828 97.9574 170.294 100.327C168.97 102.364 167.16 103.894 164.846 104.866C163.528 105.424 162.134 105.717 160.682 105.772C158.579 105.855 156.599 105.435 154.737 104.507C153.044 103.662 151.656 102.492 150.543 101.028C149.401 99.5203 148.68 97.847 148.364 96.0245C148.253 95.3728 148.217 94.699 148.182 94.3567ZM160.16 88.9002C159.165 88.8671 158.239 89.1212 157.425 89.6458C155.492 90.8829 154.684 92.6225 154.971 94.7984C155.252 96.9192 156.916 98.6478 159.112 99.0675C161.057 99.443 162.738 98.9018 164.044 97.4991C165.373 96.0687 165.725 94.3898 165.198 92.5507C164.606 90.4687 162.48 88.8284 160.16 88.9002ZM212.542 105.22C212.636 104.916 212.712 104.662 212.794 104.413C213.614 101.873 214.44 99.3325 215.266 96.7921C216.226 93.8375 217.187 90.8884 218.142 87.9338C218.645 86.3874 219.149 84.8411 219.63 83.2892C219.723 82.9965 219.858 82.8751 220.192 82.8806C222.745 82.9027 225.305 82.9082 227.864 82.9082C228.087 82.9082 228.146 83.0076 228.199 83.1677C228.585 84.3551 228.978 85.5369 229.364 86.7188C230.231 89.3531 231.104 91.9819 231.971 94.6162C232.808 97.1732 233.64 99.7301 234.478 102.287C234.77 103.176 235.069 104.06 235.362 104.944C235.391 105.026 235.415 105.115 235.45 105.236C235.269 105.242 235.116 105.258 234.964 105.258C232.768 105.247 230.571 105.236 228.374 105.231C227.835 105.231 227.83 105.231 227.7 104.734C227.455 103.778 227.203 102.823 226.969 101.867C226.921 101.68 226.845 101.608 226.641 101.608C225.012 101.608 223.384 101.591 221.75 101.586C221.65 101.586 221.556 101.602 221.457 101.608C220.848 101.652 220.848 101.652 220.701 102.221C220.461 103.138 220.209 104.054 219.981 104.977C219.922 105.203 219.823 105.258 219.577 105.247C218.885 105.22 218.194 105.225 217.497 105.22H212.542ZM225.569 96.2675C225.006 93.9148 224.45 91.6063 223.899 89.3034C223.87 89.309 223.846 89.309 223.818 89.3145C223.25 91.6285 222.675 93.9369 222.101 96.273C223.267 96.2675 224.397 96.2675 225.569 96.2675ZM146.085 85.7523C144.504 87.3042 142.94 88.834 141.37 90.3748C141.095 90.165 140.849 89.9661 140.585 89.7784C138.594 88.3756 135.73 88.6131 133.949 90.2699C131.975 92.1089 131.718 95.2568 133.551 97.3555C135.495 99.5811 138.828 99.7688 141.019 97.9298C141.107 97.858 141.2 97.7917 141.312 97.7034C141.845 98.228 142.366 98.7416 142.893 99.2553C143.871 100.216 144.844 101.177 145.828 102.133C145.998 102.293 145.962 102.392 145.81 102.536C144.094 104.159 142.038 105.181 139.648 105.584C136.889 106.048 134.271 105.639 131.829 104.319C129.099 102.85 127.254 100.664 126.259 97.869C125.216 94.9476 125.368 92.0371 126.645 89.1985C127.301 87.7405 128.25 86.4647 129.457 85.3713C131.079 83.8967 133 82.9192 135.214 82.4884C137.909 81.9583 140.492 82.3228 142.94 83.4935C144.059 84.0292 145.043 84.7472 145.939 85.5756C145.986 85.6198 146.021 85.6695 146.085 85.7523ZM176.795 107.407C177.51 106.816 178.23 106.297 178.863 105.689C179.976 104.629 180.784 103.403 180.966 101.873C181.088 100.824 180.878 99.8241 180.356 98.9128C179.8 97.9353 179.15 97.0075 178.517 96.0687C177.691 94.8482 176.947 93.5945 176.649 92.1475C176.315 90.5239 176.479 88.95 177.082 87.4036C177.709 85.8021 178.693 84.438 179.999 83.2616C180.204 83.0794 180.421 82.9082 180.632 82.7315C180.813 82.5768 181.024 82.5216 181.27 82.5216C183.953 82.5271 186.642 82.5271 189.324 82.5271C189.418 82.5271 189.511 82.5326 189.629 82.5934C189.353 82.7811 189.072 82.9634 188.802 83.1623C187.56 84.0734 186.459 85.1062 185.769 86.4647C184.773 88.4198 184.655 90.43 185.64 92.4071C186.208 93.5503 186.934 94.6272 187.619 95.7097C188.498 97.0848 189.288 98.4931 189.605 100.095C189.904 101.608 189.705 103.06 188.996 104.447C188.076 106.241 186.7 107.672 185.025 108.859C184.164 109.467 184.164 109.433 183.115 109.141C181.112 108.583 179.109 108.047 177.1 107.506C177.012 107.473 176.901 107.434 176.795 107.407ZM198.889 96.991C198.889 94.4339 198.901 91.877 198.883 89.3145C198.877 88.6793 198.989 88.7677 198.315 88.7622C197.015 88.7567 195.72 88.7567 194.42 88.7567C194.244 88.7567 194.104 88.7677 194.104 88.5192C194.121 86.7243 194.127 84.9295 194.127 83.1346C194.127 82.9137 194.203 82.8529 194.432 82.8529C199.691 82.864 204.951 82.8695 210.211 82.8695C210.492 82.8695 210.568 82.9469 210.568 83.2119C210.556 84.9681 210.556 86.7243 210.568 88.4861C210.568 88.7346 210.486 88.7953 210.234 88.7953C208.87 88.7842 207.499 88.7953 206.134 88.7842C205.877 88.7842 205.807 88.8506 205.807 89.0936C205.812 91.3744 205.794 93.6552 205.794 95.9416C205.794 97.1677 205.8 98.3882 205.794 99.6142C205.788 100.846 205.771 102.077 205.765 103.314C205.765 103.856 205.777 104.397 205.794 104.944C205.807 105.164 205.718 105.225 205.49 105.225C203.674 105.214 201.858 105.209 200.042 105.203C199.732 105.203 199.416 105.209 199.105 105.22C198.93 105.225 198.865 105.17 198.865 104.999C198.871 103.259 198.865 101.52 198.865 99.7799V96.991H198.889Z" fill="#1B1B1B"/>
</g>
</g>
</g>
<g clip-path="url(#clip2_63_659)">
<g clip-path="url(#clip3_63_659)">
<g opacity="0.85">
<path d="M148.182 94.3567C148.206 91.8272 148.768 89.7618 149.969 87.8786C151.468 85.5259 153.577 83.8305 156.336 82.8971C157.408 82.5382 158.515 82.3449 159.657 82.3007C162.509 82.1903 165.063 82.9689 167.318 84.6036C168.976 85.8076 170.217 87.3318 171.061 89.1432C171.582 90.2644 171.939 91.4241 172.074 92.6391C172.379 95.3839 171.828 97.9574 170.294 100.327C168.97 102.364 167.16 103.894 164.846 104.866C163.528 105.424 162.134 105.717 160.682 105.772C158.579 105.855 156.599 105.435 154.737 104.507C153.044 103.662 151.656 102.492 150.543 101.028C149.401 99.5203 148.68 97.847 148.364 96.0245C148.253 95.3728 148.217 94.699 148.182 94.3567ZM160.16 88.9002C159.165 88.8671 158.239 89.1212 157.425 89.6458C155.492 90.8829 154.684 92.6225 154.971 94.7984C155.252 96.9192 156.916 98.6478 159.112 99.0675C161.057 99.443 162.738 98.9018 164.044 97.4991C165.373 96.0687 165.725 94.3898 165.198 92.5507C164.606 90.4687 162.48 88.8284 160.16 88.9002ZM212.542 105.22C212.636 104.916 212.712 104.662 212.794 104.413C213.614 101.873 214.44 99.3325 215.266 96.7921C216.226 93.8375 217.187 90.8884 218.142 87.9338C218.645 86.3874 219.149 84.8411 219.63 83.2892C219.723 82.9965 219.858 82.8751 220.192 82.8806C222.745 82.9027 225.305 82.9082 227.864 82.9082C228.087 82.9082 228.146 83.0076 228.199 83.1677C228.585 84.3551 228.978 85.5369 229.364 86.7188C230.231 89.3531 231.104 91.9819 231.971 94.6162C232.808 97.1732 233.64 99.7301 234.478 102.287C234.77 103.176 235.069 104.06 235.362 104.944C235.391 105.026 235.415 105.115 235.45 105.236C235.269 105.242 235.116 105.258 234.964 105.258C232.768 105.247 230.571 105.236 228.374 105.231C227.835 105.231 227.83 105.231 227.7 104.734C227.455 103.778 227.203 102.823 226.969 101.867C226.921 101.68 226.845 101.608 226.641 101.608C225.012 101.608 223.384 101.591 221.75 101.586C221.65 101.586 221.556 101.602 221.457 101.608C220.848 101.652 220.848 101.652 220.701 102.221C220.461 103.138 220.209 104.054 219.981 104.977C219.922 105.203 219.823 105.258 219.577 105.247C218.885 105.22 218.194 105.225 217.497 105.22H212.542ZM225.569 96.2675C225.006 93.9148 224.45 91.6063 223.899 89.3034C223.87 89.309 223.846 89.309 223.818 89.3145C223.25 91.6285 222.675 93.9369 222.101 96.273C223.267 96.2675 224.397 96.2675 225.569 96.2675ZM146.085 85.7523C144.504 87.3042 142.94 88.834 141.37 90.3748C141.095 90.165 140.849 89.9661 140.585 89.7784C138.594 88.3756 135.73 88.6131 133.949 90.2699C131.975 92.1089 131.718 95.2568 133.551 97.3555C135.495 99.5811 138.828 99.7688 141.019 97.9298C141.107 97.858 141.2 97.7917 141.312 97.7034C141.845 98.228 142.366 98.7416 142.893 99.2553C143.871 100.216 144.844 101.177 145.828 102.133C145.998 102.293 145.962 102.392 145.81 102.536C144.094 104.159 142.038 105.181 139.648 105.584C136.889 106.048 134.271 105.639 131.829 104.319C129.099 102.85 127.254 100.664 126.259 97.869C125.216 94.9476 125.368 92.0371 126.645 89.1985C127.301 87.7405 128.25 86.4647 129.457 85.3713C131.079 83.8967 133 82.9192 135.214 82.4884C137.909 81.9583 140.492 82.3228 142.94 83.4935C144.059 84.0292 145.043 84.7472 145.939 85.5756C145.986 85.6198 146.021 85.6695 146.085 85.7523ZM176.795 107.407C177.51 106.816 178.23 106.297 178.863 105.689C179.976 104.629 180.784 103.403 180.966 101.873C181.088 100.824 180.878 99.8241 180.356 98.9128C179.8 97.9353 179.15 97.0075 178.517 96.0687C177.691 94.8482 176.947 93.5945 176.649 92.1475C176.315 90.5239 176.479 88.95 177.082 87.4036C177.709 85.8021 178.693 84.438 179.999 83.2616C180.204 83.0794 180.421 82.9082 180.632 82.7315C180.813 82.5768 181.024 82.5216 181.27 82.5216C183.953 82.5271 186.642 82.5271 189.324 82.5271C189.418 82.5271 189.511 82.5326 189.629 82.5934C189.353 82.7811 189.072 82.9634 188.802 83.1623C187.56 84.0734 186.459 85.1062 185.769 86.4647C184.773 88.4198 184.655 90.43 185.64 92.4071C186.208 93.5503 186.934 94.6272 187.619 95.7097C188.498 97.0848 189.288 98.4931 189.605 100.095C189.904 101.608 189.705 103.06 188.996 104.447C188.076 106.241 186.7 107.672 185.025 108.859C184.164 109.467 184.164 109.433 183.115 109.141C181.112 108.583 179.109 108.047 177.1 107.506C177.012 107.473 176.901 107.434 176.795 107.407ZM198.889 96.991C198.889 94.4339 198.901 91.877 198.883 89.3145C198.877 88.6793 198.989 88.7677 198.315 88.7622C197.015 88.7567 195.72 88.7567 194.42 88.7567C194.244 88.7567 194.104 88.7677 194.104 88.5192C194.121 86.7243 194.127 84.9295 194.127 83.1346C194.127 82.9137 194.203 82.8529 194.432 82.8529C199.691 82.864 204.951 82.8695 210.211 82.8695C210.492 82.8695 210.568 82.9469 210.568 83.2119C210.556 84.9681 210.556 86.7243 210.568 88.4861C210.568 88.7346 210.486 88.7953 210.234 88.7953C208.87 88.7842 207.499 88.7953 206.134 88.7842C205.877 88.7842 205.807 88.8506 205.807 89.0936C205.812 91.3744 205.794 93.6552 205.794 95.9416C205.794 97.1677 205.8 98.3882 205.794 99.6142C205.788 100.846 205.771 102.077 205.765 103.314C205.765 103.856 205.777 104.397 205.794 104.944C205.807 105.164 205.718 105.225 205.49 105.225C203.674 105.214 201.858 105.209 200.042 105.203C199.732 105.203 199.416 105.209 199.105 105.22C198.93 105.225 198.865 105.17 198.865 104.999C198.871 103.259 198.865 101.52 198.865 99.7799V96.991H198.889Z" fill="#1B1B1B"/>
</g>
</g>
</g>
<defs>
<clipPath id="clip0_63_659">
<rect width="142.998" height="60.208" fill="white" transform="translate(109.012 61.9302)"/>
</clipPath>
<clipPath id="clip1_63_659">
<rect width="142.998" height="60.208" fill="white" transform="translate(109.012 61.9302)"/>
</clipPath>
<clipPath id="clip2_63_659">
<rect width="142.998" height="60.208" fill="white" transform="translate(109.012 61.9302)"/>
</clipPath>
<clipPath id="clip3_63_659">
<rect width="142.998" height="60.208" fill="white" transform="translate(109.012 61.9302)"/>
</clipPath>
</defs>
</svg>
