<svg width="361" height="183" viewBox="0 0 361 183" fill="none" xmlns="http://www.w3.org/2000/svg">
<rect x="0.681641" y="1.29492" width="359.06" height="180.449" rx="7.5" stroke="#E8EEF4"/>
<g clip-path="url(#clip0_63_951)">
<g clip-path="url(#clip1_63_951)">
<g opacity="0.85">
<path d="M172.736 102.087C172.951 101.883 173.205 101.724 173.482 101.618C173.759 101.512 174.054 101.462 174.351 101.471C174.647 101.479 174.939 101.546 175.21 101.668C175.48 101.79 175.724 101.964 175.927 102.18C176.338 102.617 176.559 103.2 176.541 103.799C176.524 104.399 176.27 104.968 175.835 105.381C172.39 108.656 167.816 110.48 163.063 110.473C158.355 110.478 153.821 108.689 150.385 105.47C149.947 105.06 149.689 104.493 149.667 103.893C149.646 103.293 149.863 102.71 150.271 102.269C150.473 102.052 150.715 101.876 150.985 101.752C151.254 101.629 151.546 101.56 151.842 101.549C152.139 101.538 152.434 101.587 152.712 101.691C152.99 101.795 153.244 101.953 153.461 102.155C156.063 104.593 159.497 105.947 163.063 105.943C166.663 105.948 170.127 104.567 172.736 102.087ZM162.837 77.6477C155.259 77.6477 149.072 83.5933 148.754 91.1816L148.746 91.3108L148.494 93.8521C147.995 98.3951 145.846 102.597 142.455 105.661C139.042 108.752 134.601 110.463 129.997 110.46C127.485 110.46 125.046 109.968 122.752 108.994C120.54 108.055 118.532 106.696 116.839 104.992C115.138 103.29 113.784 101.275 112.851 99.0567C111.88 96.757 111.382 94.2854 111.387 91.7892C111.387 89.2691 111.879 86.8245 112.851 84.521C113.784 82.3032 115.138 80.2874 116.839 78.5854C118.563 76.8512 120.614 75.4753 122.872 74.5369C125.131 73.5985 127.552 73.1162 129.998 73.1177C134.899 73.1177 139.528 75.0143 143.026 78.4588C143.454 78.8797 143.698 79.4529 143.704 80.0531C143.71 80.6532 143.478 81.2313 143.059 81.6609C142.852 81.8735 142.605 82.0431 142.332 82.1598C142.059 82.2764 141.766 82.338 141.469 82.3408C141.172 82.3436 140.877 82.2877 140.602 82.1763C140.327 82.0648 140.076 81.9 139.865 81.6914C137.239 79.0936 133.692 77.6397 129.998 77.647C122.226 77.647 115.903 83.9908 115.903 91.7886C115.903 99.5869 122.226 105.931 129.998 105.931C137.193 105.931 143.214 100.531 144.005 93.3664L144.247 90.9258C144.456 86.1501 146.495 81.6381 149.942 78.3256C153.427 74.9679 158.006 73.1177 162.838 73.1177C167.741 73.1177 172.367 75.0143 175.868 78.4588C176.757 79.3342 176.83 80.7994 175.957 81.6927C175.247 82.4203 174.13 82.5436 173.259 82.0923C173.055 81.9876 172.869 81.8524 172.707 81.6914C170.08 79.0935 166.532 77.6397 162.838 77.647L162.837 77.6477Z" fill="#434345"/>
<path d="M191.417 86.5608C191.416 86.5595 191.414 86.5585 191.412 86.5577C191.41 86.5571 191.409 86.5567 191.407 86.5567C191.405 86.5567 191.403 86.5571 191.401 86.5577C191.4 86.5585 191.398 86.5595 191.397 86.5608C190.37 87.5251 189.435 88.1215 187.935 88.1215C185.669 88.1215 183.962 86.2739 183.962 83.8227V83.7882C183.962 81.388 185.708 79.5074 187.935 79.5074C189.154 79.5074 190.194 79.9725 191.31 81.0162C191.313 81.0196 191.317 81.0216 191.321 81.0216L191.331 81.0162L192.695 79.4325C192.697 79.4311 192.697 79.4296 192.698 79.4279C192.699 79.4262 192.7 79.4244 192.7 79.4225C192.7 79.4207 192.699 79.4189 192.698 79.4171C192.697 79.4154 192.697 79.4139 192.695 79.4126C191.718 78.4736 190.391 77.5127 187.953 77.5127C186.204 77.5127 184.607 78.172 183.454 79.3682C182.325 80.5365 181.705 82.1183 181.705 83.8227V83.8584C181.705 85.5628 182.329 87.1447 183.463 88.3096C184.605 89.4859 186.169 90.134 187.867 90.134C188.948 90.134 189.875 89.9438 190.701 89.5508C191.421 89.2076 192.082 88.7066 192.782 87.9723C192.782 87.9723 192.784 87.9695 192.785 87.9678C192.785 87.9661 192.785 87.9643 192.785 87.9624C192.785 87.9606 192.785 87.9587 192.785 87.957C192.784 87.9553 192.782 87.9525 192.782 87.9525L191.417 86.5608ZM213.07 77.5127C211.3 77.5127 209.676 78.1753 208.5 79.3801C207.351 80.5544 206.718 82.1328 206.718 83.824V83.8584C206.718 85.5496 207.344 87.1208 208.481 88.2845C209.647 89.4766 211.266 90.1333 213.035 90.1333C214.807 90.1333 216.429 89.4707 217.607 88.2666C218.755 87.0923 219.388 85.5139 219.388 83.824V83.7882C219.388 82.0984 218.76 80.5259 217.623 79.3615C216.456 78.1694 214.839 77.5127 213.07 77.5127ZM208.975 83.7882C208.975 81.3483 210.72 79.5074 213.035 79.5074C215.332 79.5074 217.131 81.4039 217.131 83.824V83.8584C217.131 86.2891 215.384 88.1228 213.07 88.1228C210.735 88.1228 208.975 86.2733 208.975 83.824V83.7882ZM250.538 77.7215C250.548 77.7215 250.553 77.7281 250.553 77.736V89.9114C250.553 89.9152 250.552 89.9189 250.549 89.9217C250.546 89.9244 250.543 89.9259 250.538 89.9259H248.76C248.756 89.9259 248.751 89.9239 248.749 89.9206L242.11 81.2926V89.9114C242.11 89.9186 242.104 89.9259 242.094 89.9259H240.007C239.997 89.9259 239.991 89.9193 239.991 89.9114V77.7367C239.991 77.7294 239.997 77.7221 240.007 77.7221H241.975C241.978 77.7221 241.983 77.7241 241.986 77.7274L248.436 86.1109V77.7367C248.436 77.7294 248.441 77.7221 248.449 77.7221L250.538 77.7215ZM202.141 85.3104C203.983 84.7683 204.999 83.4549 204.999 81.6147V81.5789C204.999 80.5358 204.651 79.624 203.991 78.9434C203.18 78.1442 201.971 77.7221 200.494 77.7221H195.106C195.097 77.7221 195.092 77.7274 195.092 77.7367V89.91C195.092 89.9193 195.097 89.9252 195.106 89.9252H197.229C197.238 89.9252 197.246 89.9193 197.246 89.9107V85.6821H199.882L202.846 89.9193C202.85 89.9233 202.853 89.9252 202.859 89.9252H205.382C205.388 89.9252 205.396 89.9193 205.396 89.9107C205.396 89.9067 205.394 89.9014 205.391 89.9001L202.141 85.3104ZM197.246 79.6989H200.321C201.903 79.6989 202.809 80.4278 202.809 81.7008V81.7373C202.809 82.9632 201.839 83.7571 200.339 83.7571H197.246V79.6989ZM238.045 77.7215C238.05 77.7215 238.055 77.7234 238.058 77.7267C238.06 77.7321 238.061 77.736 238.06 77.7413L233.863 90.0035C233.861 90.0088 233.856 90.0121 233.849 90.0121H232.002C231.995 90.0121 231.99 90.0088 231.988 90.0035L229.032 81.2945L226.076 90.0035C226.075 90.0088 226.067 90.0121 226.062 90.0121H224.231C224.226 90.0121 224.221 90.0088 224.217 90.0035L220.005 77.7413C220.002 77.736 220.002 77.7321 220.006 77.7267C220.008 77.725 220.009 77.7236 220.012 77.7227C220.014 77.7218 220.016 77.7213 220.018 77.7215H222.315C222.32 77.7215 222.327 77.7248 222.329 77.7321L225.199 86.7152L228.155 77.6962C228.157 77.691 228.162 77.687 228.169 77.687H229.965C229.97 77.687 229.977 77.691 229.978 77.6962L232.934 86.7152L235.805 77.7321C235.806 77.7254 235.812 77.7215 235.817 77.7215H238.045ZM201.134 94.1929C201.132 94.1876 201.127 94.1836 201.12 94.1836H199.132C199.129 94.1837 199.126 94.1847 199.124 94.1864C199.122 94.188 199.12 94.1903 199.12 94.1929L193.747 106.578C193.745 106.583 193.745 106.588 193.747 106.593C193.75 106.599 193.753 106.6 193.759 106.6H195.957C195.963 106.6 195.969 106.597 195.972 106.592L197.223 103.631H202.978L204.213 106.592C204.214 106.594 204.216 106.596 204.218 106.598C204.221 106.599 204.223 106.6 204.226 106.6H206.495C206.502 106.6 206.509 106.594 206.509 106.586C206.509 106.582 206.508 106.579 206.505 106.575L201.134 94.1929ZM202.18 101.686H198.019L200.091 96.8197L202.18 101.686ZM216.036 100.715C216.703 101.293 217.028 102.057 217.028 103.054V103.089C217.028 105.329 215.309 106.776 212.651 106.776C210.747 106.776 208.982 106.094 207.548 104.805C207.542 104.8 207.542 104.79 207.547 104.784L208.837 103.238C208.839 103.234 208.843 103.232 208.849 103.232C208.852 103.232 208.855 103.234 208.859 103.236C210.123 104.34 211.31 104.832 212.703 104.832C213.988 104.832 214.853 104.216 214.853 103.3V103.264C214.853 102.433 214.441 101.941 212.107 101.399C210.611 101.036 209.711 100.668 209.094 100.173C208.369 99.5904 208.032 98.8078 208.032 97.7123V97.6786C208.032 96.6567 208.451 95.7389 209.212 95.0928C209.968 94.45 211.034 94.0961 212.216 94.0961C213.913 94.0961 215.366 94.6024 216.655 95.6454C216.66 95.6515 216.661 95.66 216.658 95.6654L215.507 97.2995C215.506 97.3011 215.504 97.3024 215.503 97.3033C215.501 97.3042 215.5 97.3048 215.498 97.3048C215.492 97.3068 215.489 97.3048 215.485 97.3028C214.355 96.4539 213.275 96.0411 212.18 96.0411C211.584 96.0411 211.08 96.1882 210.724 96.4645C210.391 96.723 210.207 97.0861 210.207 97.4844V97.5189C210.207 98.4811 210.83 98.8939 213.107 99.438C214.491 99.7772 215.421 100.183 216.036 100.715ZM228.315 94.2717C228.324 94.2717 228.33 94.279 228.33 94.2863V96.2902C228.33 96.2969 228.324 96.3048 228.315 96.3048H224.458V106.586C224.458 106.593 224.451 106.601 224.443 106.601H222.281C222.272 106.601 222.265 106.594 222.265 106.586V96.3048H218.407C218.4 96.3048 218.393 96.2975 218.393 96.2902V94.2863C218.393 94.2797 218.4 94.2717 218.407 94.2717H228.315ZM250.522 104.638C250.53 104.638 250.535 104.645 250.535 104.652V106.586C250.535 106.593 250.53 106.6 250.522 106.6H241.381C241.379 106.6 241.377 106.6 241.376 106.599C241.374 106.599 241.372 106.598 241.371 106.596C241.37 106.595 241.368 106.593 241.368 106.592C241.367 106.59 241.367 106.588 241.367 106.586V94.2863C241.367 94.279 241.372 94.2717 241.381 94.2717H250.433C250.443 94.2717 250.448 94.2783 250.448 94.2863V96.22C250.448 96.2266 250.443 96.2346 250.434 96.2346H243.54V99.4021H249.65C249.656 99.4021 249.663 99.4088 249.663 99.4161V101.35C249.663 101.357 249.656 101.364 249.65 101.364H243.54V104.638H250.522ZM239.148 104.603C239.157 104.603 239.163 104.609 239.163 104.617V106.586C239.163 106.594 239.157 106.599 239.148 106.599H230.582C230.58 106.6 230.578 106.599 230.577 106.599C230.574 106.598 230.573 106.597 230.571 106.595C230.571 106.594 230.569 106.592 230.568 106.591C230.568 106.589 230.568 106.587 230.568 106.585V94.287C230.568 94.2783 230.575 94.2711 230.582 94.2711H232.729C232.737 94.2711 232.743 94.2777 232.743 94.287V104.603H239.148ZM191.514 103.201C191.512 103.2 191.511 103.199 191.509 103.198C191.507 103.197 191.505 103.197 191.504 103.197C191.501 103.197 191.5 103.197 191.498 103.198C191.496 103.199 191.495 103.2 191.494 103.201C190.457 104.175 189.512 104.778 187.997 104.778C185.709 104.778 183.982 102.912 183.982 100.436V100.4C183.982 97.9761 185.747 96.0762 187.997 96.0762C189.229 96.0762 190.279 96.5467 191.407 97.6004C191.409 97.603 191.412 97.6044 191.417 97.6044C191.421 97.6044 191.424 97.603 191.428 97.599L192.806 96.0013C192.809 95.994 192.809 95.9848 192.804 95.9794C191.818 95.0318 190.479 94.0617 188.014 94.0617C186.249 94.0617 184.634 94.7263 183.468 95.9344C182.331 97.1159 181.703 98.7143 181.703 100.436V100.47C181.703 102.194 182.333 103.79 183.478 104.968C184.632 106.157 186.212 106.81 187.928 106.81C189.02 106.81 189.956 106.618 190.79 106.222C191.517 105.875 192.186 105.369 192.892 104.627C192.892 104.627 192.894 104.625 192.895 104.623C192.896 104.621 192.896 104.619 192.896 104.617C192.896 104.616 192.896 104.614 192.895 104.612C192.894 104.61 192.892 104.607 192.892 104.607L191.514 103.201Z" fill="#1B1B1B"/>
</g>
</g>
</g>
<g clip-path="url(#clip2_63_951)">
<g clip-path="url(#clip3_63_951)">
<g opacity="0.85">
<path d="M172.736 102.087C172.951 101.883 173.205 101.724 173.482 101.618C173.759 101.512 174.054 101.462 174.351 101.471C174.647 101.479 174.939 101.546 175.21 101.668C175.48 101.79 175.724 101.964 175.927 102.18C176.338 102.617 176.559 103.2 176.541 103.799C176.524 104.399 176.27 104.968 175.835 105.381C172.39 108.656 167.816 110.48 163.063 110.473C158.355 110.478 153.821 108.689 150.385 105.47C149.947 105.06 149.689 104.493 149.667 103.893C149.646 103.293 149.863 102.71 150.271 102.269C150.473 102.052 150.715 101.876 150.985 101.752C151.254 101.629 151.546 101.56 151.842 101.549C152.139 101.538 152.434 101.587 152.712 101.691C152.99 101.795 153.244 101.953 153.461 102.155C156.063 104.593 159.497 105.947 163.063 105.943C166.663 105.948 170.127 104.567 172.736 102.087ZM162.837 77.6477C155.259 77.6477 149.072 83.5933 148.754 91.1816L148.746 91.3108L148.494 93.8521C147.995 98.3951 145.846 102.597 142.455 105.661C139.042 108.752 134.601 110.463 129.997 110.46C127.485 110.46 125.046 109.968 122.752 108.994C120.54 108.055 118.532 106.696 116.839 104.992C115.138 103.29 113.784 101.275 112.851 99.0567C111.88 96.757 111.382 94.2854 111.387 91.7892C111.387 89.2691 111.879 86.8245 112.851 84.521C113.784 82.3032 115.138 80.2874 116.839 78.5854C118.563 76.8512 120.614 75.4753 122.872 74.5369C125.131 73.5985 127.552 73.1162 129.998 73.1177C134.899 73.1177 139.528 75.0143 143.026 78.4588C143.454 78.8797 143.698 79.4529 143.704 80.0531C143.71 80.6532 143.478 81.2313 143.059 81.6609C142.852 81.8735 142.605 82.0431 142.332 82.1598C142.059 82.2764 141.766 82.338 141.469 82.3408C141.172 82.3436 140.877 82.2877 140.602 82.1763C140.327 82.0648 140.076 81.9 139.865 81.6914C137.239 79.0936 133.692 77.6397 129.998 77.647C122.226 77.647 115.903 83.9908 115.903 91.7886C115.903 99.5869 122.226 105.931 129.998 105.931C137.193 105.931 143.214 100.531 144.005 93.3664L144.247 90.9258C144.456 86.1501 146.495 81.6381 149.942 78.3256C153.427 74.9679 158.006 73.1177 162.838 73.1177C167.741 73.1177 172.367 75.0143 175.868 78.4588C176.757 79.3342 176.83 80.7994 175.957 81.6927C175.247 82.4203 174.13 82.5436 173.259 82.0923C173.055 81.9876 172.869 81.8524 172.707 81.6914C170.08 79.0935 166.532 77.6397 162.838 77.647L162.837 77.6477Z" fill="#434345"/>
<path d="M191.417 86.5608C191.416 86.5595 191.414 86.5585 191.412 86.5577C191.41 86.5571 191.409 86.5567 191.407 86.5567C191.405 86.5567 191.403 86.5571 191.401 86.5577C191.4 86.5585 191.398 86.5595 191.397 86.5608C190.37 87.5251 189.435 88.1215 187.935 88.1215C185.669 88.1215 183.962 86.2739 183.962 83.8227V83.7882C183.962 81.388 185.708 79.5074 187.935 79.5074C189.154 79.5074 190.194 79.9725 191.31 81.0162C191.313 81.0196 191.317 81.0216 191.321 81.0216L191.331 81.0162L192.695 79.4325C192.697 79.4311 192.697 79.4296 192.698 79.4279C192.699 79.4262 192.7 79.4244 192.7 79.4225C192.7 79.4207 192.699 79.4189 192.698 79.4171C192.697 79.4154 192.697 79.4139 192.695 79.4126C191.718 78.4736 190.391 77.5127 187.953 77.5127C186.204 77.5127 184.607 78.172 183.454 79.3682C182.325 80.5365 181.705 82.1183 181.705 83.8227V83.8584C181.705 85.5628 182.329 87.1447 183.463 88.3096C184.605 89.4859 186.169 90.134 187.867 90.134C188.948 90.134 189.875 89.9438 190.701 89.5508C191.421 89.2076 192.082 88.7066 192.782 87.9723C192.782 87.9723 192.784 87.9695 192.785 87.9678C192.785 87.9661 192.785 87.9643 192.785 87.9624C192.785 87.9606 192.785 87.9587 192.785 87.957C192.784 87.9553 192.782 87.9525 192.782 87.9525L191.417 86.5608ZM213.07 77.5127C211.3 77.5127 209.676 78.1753 208.5 79.3801C207.351 80.5544 206.718 82.1328 206.718 83.824V83.8584C206.718 85.5496 207.344 87.1208 208.481 88.2845C209.647 89.4766 211.266 90.1333 213.035 90.1333C214.807 90.1333 216.429 89.4707 217.607 88.2666C218.755 87.0923 219.388 85.5139 219.388 83.824V83.7882C219.388 82.0984 218.76 80.5259 217.623 79.3615C216.456 78.1694 214.839 77.5127 213.07 77.5127ZM208.975 83.7882C208.975 81.3483 210.72 79.5074 213.035 79.5074C215.332 79.5074 217.131 81.4039 217.131 83.824V83.8584C217.131 86.2891 215.384 88.1228 213.07 88.1228C210.735 88.1228 208.975 86.2733 208.975 83.824V83.7882ZM250.538 77.7215C250.548 77.7215 250.553 77.7281 250.553 77.736V89.9114C250.553 89.9152 250.552 89.9189 250.549 89.9217C250.546 89.9244 250.543 89.9259 250.538 89.9259H248.76C248.756 89.9259 248.751 89.9239 248.749 89.9206L242.11 81.2926V89.9114C242.11 89.9186 242.104 89.9259 242.094 89.9259H240.007C239.997 89.9259 239.991 89.9193 239.991 89.9114V77.7367C239.991 77.7294 239.997 77.7221 240.007 77.7221H241.975C241.978 77.7221 241.983 77.7241 241.986 77.7274L248.436 86.1109V77.7367C248.436 77.7294 248.441 77.7221 248.449 77.7221L250.538 77.7215ZM202.141 85.3104C203.983 84.7683 204.999 83.4549 204.999 81.6147V81.5789C204.999 80.5358 204.651 79.624 203.991 78.9434C203.18 78.1442 201.971 77.7221 200.494 77.7221H195.106C195.097 77.7221 195.092 77.7274 195.092 77.7367V89.91C195.092 89.9193 195.097 89.9252 195.106 89.9252H197.229C197.238 89.9252 197.246 89.9193 197.246 89.9107V85.6821H199.882L202.846 89.9193C202.85 89.9233 202.853 89.9252 202.859 89.9252H205.382C205.388 89.9252 205.396 89.9193 205.396 89.9107C205.396 89.9067 205.394 89.9014 205.391 89.9001L202.141 85.3104ZM197.246 79.6989H200.321C201.903 79.6989 202.809 80.4278 202.809 81.7008V81.7373C202.809 82.9632 201.839 83.7571 200.339 83.7571H197.246V79.6989ZM238.045 77.7215C238.05 77.7215 238.055 77.7234 238.058 77.7267C238.06 77.7321 238.061 77.736 238.06 77.7413L233.863 90.0035C233.861 90.0088 233.856 90.0121 233.849 90.0121H232.002C231.995 90.0121 231.99 90.0088 231.988 90.0035L229.032 81.2945L226.076 90.0035C226.075 90.0088 226.067 90.0121 226.062 90.0121H224.231C224.226 90.0121 224.221 90.0088 224.217 90.0035L220.005 77.7413C220.002 77.736 220.002 77.7321 220.006 77.7267C220.008 77.725 220.009 77.7236 220.012 77.7227C220.014 77.7218 220.016 77.7213 220.018 77.7215H222.315C222.32 77.7215 222.327 77.7248 222.329 77.7321L225.199 86.7152L228.155 77.6962C228.157 77.691 228.162 77.687 228.169 77.687H229.965C229.97 77.687 229.977 77.691 229.978 77.6962L232.934 86.7152L235.805 77.7321C235.806 77.7254 235.812 77.7215 235.817 77.7215H238.045ZM201.134 94.1929C201.132 94.1876 201.127 94.1836 201.12 94.1836H199.132C199.129 94.1837 199.126 94.1847 199.124 94.1864C199.122 94.188 199.12 94.1903 199.12 94.1929L193.747 106.578C193.745 106.583 193.745 106.588 193.747 106.593C193.75 106.599 193.753 106.6 193.759 106.6H195.957C195.963 106.6 195.969 106.597 195.972 106.592L197.223 103.631H202.978L204.213 106.592C204.214 106.594 204.216 106.596 204.218 106.598C204.221 106.599 204.223 106.6 204.226 106.6H206.495C206.502 106.6 206.509 106.594 206.509 106.586C206.509 106.582 206.508 106.579 206.505 106.575L201.134 94.1929ZM202.18 101.686H198.019L200.091 96.8197L202.18 101.686ZM216.036 100.715C216.703 101.293 217.028 102.057 217.028 103.054V103.089C217.028 105.329 215.309 106.776 212.651 106.776C210.747 106.776 208.982 106.094 207.548 104.805C207.542 104.8 207.542 104.79 207.547 104.784L208.837 103.238C208.839 103.234 208.843 103.232 208.849 103.232C208.852 103.232 208.855 103.234 208.859 103.236C210.123 104.34 211.31 104.832 212.703 104.832C213.988 104.832 214.853 104.216 214.853 103.3V103.264C214.853 102.433 214.441 101.941 212.107 101.399C210.611 101.036 209.711 100.668 209.094 100.173C208.369 99.5904 208.032 98.8078 208.032 97.7123V97.6786C208.032 96.6567 208.451 95.7389 209.212 95.0928C209.968 94.45 211.034 94.0961 212.216 94.0961C213.913 94.0961 215.366 94.6024 216.655 95.6454C216.66 95.6515 216.661 95.66 216.658 95.6654L215.507 97.2995C215.506 97.3011 215.504 97.3024 215.503 97.3033C215.501 97.3042 215.5 97.3048 215.498 97.3048C215.492 97.3068 215.489 97.3048 215.485 97.3028C214.355 96.4539 213.275 96.0411 212.18 96.0411C211.584 96.0411 211.08 96.1882 210.724 96.4645C210.391 96.723 210.207 97.0861 210.207 97.4844V97.5189C210.207 98.4811 210.83 98.8939 213.107 99.438C214.491 99.7772 215.421 100.183 216.036 100.715ZM228.315 94.2717C228.324 94.2717 228.33 94.279 228.33 94.2863V96.2902C228.33 96.2969 228.324 96.3048 228.315 96.3048H224.458V106.586C224.458 106.593 224.451 106.601 224.443 106.601H222.281C222.272 106.601 222.265 106.594 222.265 106.586V96.3048H218.407C218.4 96.3048 218.393 96.2975 218.393 96.2902V94.2863C218.393 94.2797 218.4 94.2717 218.407 94.2717H228.315ZM250.522 104.638C250.53 104.638 250.535 104.645 250.535 104.652V106.586C250.535 106.593 250.53 106.6 250.522 106.6H241.381C241.379 106.6 241.377 106.6 241.376 106.599C241.374 106.599 241.372 106.598 241.371 106.596C241.37 106.595 241.368 106.593 241.368 106.592C241.367 106.59 241.367 106.588 241.367 106.586V94.2863C241.367 94.279 241.372 94.2717 241.381 94.2717H250.433C250.443 94.2717 250.448 94.2783 250.448 94.2863V96.22C250.448 96.2266 250.443 96.2346 250.434 96.2346H243.54V99.4021H249.65C249.656 99.4021 249.663 99.4088 249.663 99.4161V101.35C249.663 101.357 249.656 101.364 249.65 101.364H243.54V104.638H250.522ZM239.148 104.603C239.157 104.603 239.163 104.609 239.163 104.617V106.586C239.163 106.594 239.157 106.599 239.148 106.599H230.582C230.58 106.6 230.578 106.599 230.577 106.599C230.574 106.598 230.573 106.597 230.571 106.595C230.571 106.594 230.569 106.592 230.568 106.591C230.568 106.589 230.568 106.587 230.568 106.585V94.287C230.568 94.2783 230.575 94.2711 230.582 94.2711H232.729C232.737 94.2711 232.743 94.2777 232.743 94.287V104.603H239.148ZM191.514 103.201C191.512 103.2 191.511 103.199 191.509 103.198C191.507 103.197 191.505 103.197 191.504 103.197C191.501 103.197 191.5 103.197 191.498 103.198C191.496 103.199 191.495 103.2 191.494 103.201C190.457 104.175 189.512 104.778 187.997 104.778C185.709 104.778 183.982 102.912 183.982 100.436V100.4C183.982 97.9761 185.747 96.0762 187.997 96.0762C189.229 96.0762 190.279 96.5467 191.407 97.6004C191.409 97.603 191.412 97.6044 191.417 97.6044C191.421 97.6044 191.424 97.603 191.428 97.599L192.806 96.0013C192.809 95.994 192.809 95.9848 192.804 95.9794C191.818 95.0318 190.479 94.0617 188.014 94.0617C186.249 94.0617 184.634 94.7263 183.468 95.9344C182.331 97.1159 181.703 98.7143 181.703 100.436V100.47C181.703 102.194 182.333 103.79 183.478 104.968C184.632 106.157 186.212 106.81 187.928 106.81C189.02 106.81 189.956 106.618 190.79 106.222C191.517 105.875 192.186 105.369 192.892 104.627C192.892 104.627 192.894 104.625 192.895 104.623C192.896 104.621 192.896 104.619 192.896 104.617C192.896 104.616 192.896 104.614 192.895 104.612C192.894 104.61 192.892 104.607 192.892 104.607L191.514 103.201Z" fill="#1B1B1B"/>
</g>
</g>
</g>
<defs>
<clipPath id="clip0_63_951">
<rect width="159.543" height="60.208" fill="white" transform="translate(100.852 61.8276)"/>
</clipPath>
<clipPath id="clip1_63_951">
<rect width="159.543" height="60.208" fill="white" transform="translate(100.852 61.8276)"/>
</clipPath>
<clipPath id="clip2_63_951">
<rect width="159.543" height="60.208" fill="white" transform="translate(100.852 61.8276)"/>
</clipPath>
<clipPath id="clip3_63_951">
<rect width="159.543" height="60.208" fill="white" transform="translate(100.852 61.8276)"/>
</clipPath>
</defs>
</svg>
