<svg width="361" height="183" viewBox="0 0 361 183" fill="none" xmlns="http://www.w3.org/2000/svg">
<rect x="0.621094" y="1.39746" width="359.06" height="180.449" rx="7.5" stroke="#E8EEF4"/>
<g clip-path="url(#clip0_63_670)">
<g clip-path="url(#clip1_63_670)">
<path opacity="0.85" fill-rule="evenodd" clip-rule="evenodd" d="M118.16 86.5337L126.416 92.0322L134.993 79.1533C132.315 75.5049 128.325 73.1904 123.868 73.1904H110.572V97.9249L118.16 86.5337ZM209.801 80.5709H210.905V98.8217H209.801V80.5709ZM192.96 90.1502C192.96 85.2472 196.93 81.2897 201.854 81.2897C204.266 81.2897 206.673 82.3556 208.143 83.9026L207.436 84.7431C206.086 83.2966 204.096 82.3282 201.875 82.3282C197.542 82.3282 194.092 85.8334 194.092 90.1487C194.092 94.5081 197.521 97.9981 201.875 97.9981C204.091 97.9981 206.109 96.9977 207.463 95.5283L208.163 96.4084C206.563 98.0484 204.326 99.0411 201.842 99.0411C196.908 99.0411 192.96 95.0974 192.96 90.1502ZM219.097 86.7074C215.691 86.7059 212.88 89.503 212.88 92.8743C212.88 96.2684 215.689 99.0412 219.097 99.0412C222.503 99.0412 225.384 96.2684 225.384 92.8743C225.384 89.433 222.783 86.7104 219.097 86.7074ZM219.097 87.6804C222.12 87.6774 224.28 90.0314 224.28 92.8743C224.28 95.7171 221.978 98.0651 219.097 98.0636C216.145 98.0636 213.984 95.7171 213.984 92.8743C213.984 90.0801 216.239 87.6835 219.097 87.6804ZM238.198 92.8909C238.198 89.4359 240.956 86.7165 244.316 86.7165C246.452 86.7165 248.336 87.8158 249.359 89.5578V80.5709H250.556V98.8202H249.359V96.1784C248.295 97.899 246.45 99.041 244.316 99.041C240.956 99.041 238.198 96.323 238.198 92.8909ZM249.554 92.8437C249.554 89.9338 247.282 87.6818 244.432 87.6803C241.577 87.6787 239.302 89.9582 239.302 92.8437C239.302 95.7307 241.577 98.0741 244.432 98.0741C247.282 98.0741 249.554 95.7307 249.554 92.8437ZM144.469 81.3886H151.321C155.477 81.3886 158.845 85.2913 158.845 90.1044C158.845 94.9192 155.477 98.8218 151.321 98.8218H144.469V81.3886ZM147.087 96.2058H151.321C154.23 96.2058 156.587 93.4726 156.587 90.1044C156.587 86.7363 154.23 84.0045 151.321 84.0045H147.087V96.2058ZM170.251 95.1081C169.42 96.2805 168.118 96.9247 166.563 96.9247C164.744 96.9247 163.188 95.7293 162.706 94.0544H172.595L172.654 93.5397C172.682 93.3022 172.706 93.0525 172.706 92.8301C172.706 89.3386 170.066 86.7074 166.563 86.7074C163.124 86.7074 160.325 89.4543 160.325 92.8301C160.325 96.2546 163.124 99.0412 166.565 99.0412C168.866 99.0412 170.899 97.9692 172.144 96.0994L170.251 95.1081ZM166.563 88.824C168.654 88.824 170.177 90.1365 170.44 92.081H162.615C162.944 90.2142 164.576 88.824 166.563 88.824ZM183.331 88.5925V86.9267H185.827V98.8219H183.329V97.086C182.277 98.289 180.787 99.0412 179.134 99.0412C175.947 99.0412 173.356 96.2546 173.356 92.8286C173.356 91.1704 173.954 89.6264 175.04 88.4798C176.123 87.3363 177.574 86.7074 179.13 86.7074H179.134C180.805 86.7089 182.286 87.4277 183.331 88.5925ZM175.998 92.8499C175.998 94.8416 177.644 96.4617 179.667 96.4617C181.688 96.4617 183.331 94.8401 183.333 92.8499C183.333 90.8552 181.723 89.2914 179.667 89.2899H179.664C178.676 89.2899 177.753 89.6554 177.067 90.3207C176.377 90.9892 175.998 91.8861 175.998 92.8499ZM191.006 80.5709H188.508V98.8217H191.006V80.5709ZM235.356 90.4287V86.9251H236.532V90.4287V94.0238V98.8203H235.356V96.8408C234.437 98.0361 233.059 99.0395 231.516 99.0395C228.746 99.0395 226.501 96.7936 226.501 94.0238V86.9251H227.676V94.0938C227.676 96.215 229.395 97.934 231.516 97.934C233.637 97.934 235.356 96.215 235.356 94.0938V90.4287ZM126.828 94.0953L135.884 80.4977C137.513 83.2264 138.468 86.5367 138.468 90.1059C138.468 99.4475 131.931 107.02 123.868 107.02H110.572V100.611L118.572 88.5969L126.828 94.0953Z" fill="#1B1B1B"/>
</g>
</g>
<g clip-path="url(#clip2_63_670)">
<g clip-path="url(#clip3_63_670)">
<path opacity="0.85" fill-rule="evenodd" clip-rule="evenodd" d="M118.16 86.5337L126.416 92.0322L134.993 79.1533C132.315 75.5049 128.325 73.1904 123.868 73.1904H110.572V97.9249L118.16 86.5337ZM209.801 80.5709H210.905V98.8217H209.801V80.5709ZM192.96 90.1502C192.96 85.2472 196.93 81.2897 201.854 81.2897C204.266 81.2897 206.673 82.3556 208.143 83.9026L207.436 84.7431C206.086 83.2966 204.096 82.3282 201.875 82.3282C197.542 82.3282 194.092 85.8334 194.092 90.1487C194.092 94.5081 197.521 97.9981 201.875 97.9981C204.091 97.9981 206.109 96.9977 207.463 95.5283L208.163 96.4084C206.563 98.0484 204.326 99.0411 201.842 99.0411C196.908 99.0411 192.96 95.0974 192.96 90.1502ZM219.097 86.7074C215.691 86.7059 212.88 89.503 212.88 92.8743C212.88 96.2684 215.689 99.0412 219.097 99.0412C222.503 99.0412 225.384 96.2684 225.384 92.8743C225.384 89.433 222.783 86.7104 219.097 86.7074ZM219.097 87.6804C222.12 87.6774 224.28 90.0314 224.28 92.8743C224.28 95.7171 221.978 98.0651 219.097 98.0636C216.145 98.0636 213.984 95.7171 213.984 92.8743C213.984 90.0801 216.239 87.6835 219.097 87.6804ZM238.198 92.8909C238.198 89.4359 240.956 86.7165 244.316 86.7165C246.452 86.7165 248.336 87.8158 249.359 89.5578V80.5709H250.556V98.8202H249.359V96.1784C248.295 97.899 246.45 99.041 244.316 99.041C240.956 99.041 238.198 96.323 238.198 92.8909ZM249.554 92.8437C249.554 89.9338 247.282 87.6818 244.432 87.6803C241.577 87.6787 239.302 89.9582 239.302 92.8437C239.302 95.7307 241.577 98.0741 244.432 98.0741C247.282 98.0741 249.554 95.7307 249.554 92.8437ZM144.469 81.3886H151.321C155.477 81.3886 158.845 85.2913 158.845 90.1044C158.845 94.9192 155.477 98.8218 151.321 98.8218H144.469V81.3886ZM147.087 96.2058H151.321C154.23 96.2058 156.587 93.4726 156.587 90.1044C156.587 86.7363 154.23 84.0045 151.321 84.0045H147.087V96.2058ZM170.251 95.1081C169.42 96.2805 168.118 96.9247 166.563 96.9247C164.744 96.9247 163.188 95.7293 162.706 94.0544H172.595L172.654 93.5397C172.682 93.3022 172.706 93.0525 172.706 92.8301C172.706 89.3386 170.066 86.7074 166.563 86.7074C163.124 86.7074 160.325 89.4543 160.325 92.8301C160.325 96.2546 163.124 99.0412 166.565 99.0412C168.866 99.0412 170.899 97.9692 172.144 96.0994L170.251 95.1081ZM166.563 88.824C168.654 88.824 170.177 90.1365 170.44 92.081H162.615C162.944 90.2142 164.576 88.824 166.563 88.824ZM183.331 88.5925V86.9267H185.827V98.8219H183.329V97.086C182.277 98.289 180.787 99.0412 179.134 99.0412C175.947 99.0412 173.356 96.2546 173.356 92.8286C173.356 91.1704 173.954 89.6264 175.04 88.4798C176.123 87.3363 177.574 86.7074 179.13 86.7074H179.134C180.805 86.7089 182.286 87.4277 183.331 88.5925ZM175.998 92.8499C175.998 94.8416 177.644 96.4617 179.667 96.4617C181.688 96.4617 183.331 94.8401 183.333 92.8499C183.333 90.8552 181.723 89.2914 179.667 89.2899H179.664C178.676 89.2899 177.753 89.6554 177.067 90.3207C176.377 90.9892 175.998 91.8861 175.998 92.8499ZM191.006 80.5709H188.508V98.8217H191.006V80.5709ZM235.356 90.4287V86.9251H236.532V90.4287V94.0238V98.8203H235.356V96.8408C234.437 98.0361 233.059 99.0395 231.516 99.0395C228.746 99.0395 226.501 96.7936 226.501 94.0238V86.9251H227.676V94.0938C227.676 96.215 229.395 97.934 231.516 97.934C233.637 97.934 235.356 96.215 235.356 94.0938V90.4287ZM126.828 94.0953L135.884 80.4977C137.513 83.2264 138.468 86.5367 138.468 90.1059C138.468 99.4475 131.931 107.02 123.868 107.02H110.572V100.611L118.572 88.5969L126.828 94.0953Z" fill="#1B1B1B"/>
</g>
</g>
<defs>
<clipPath id="clip0_63_670">
<rect width="142.998" height="60.208" fill="white" transform="translate(109.064 61.9302)"/>
</clipPath>
<clipPath id="clip1_63_670">
<rect width="142.998" height="60.208" fill="white" transform="translate(109.064 61.9302)"/>
</clipPath>
<clipPath id="clip2_63_670">
<rect width="142.998" height="60.208" fill="white" transform="translate(109.064 61.9302)"/>
</clipPath>
<clipPath id="clip3_63_670">
<rect width="142.998" height="60.208" fill="white" transform="translate(109.064 61.9302)"/>
</clipPath>
</defs>
</svg>
