<svg width="361" height="182" viewBox="0 0 361 182" fill="none" xmlns="http://www.w3.org/2000/svg">
<rect x="0.560547" y="0.94873" width="359.06" height="180.449" rx="7.5" stroke="#E8EEF4"/>
<g clip-path="url(#clip0_63_567)">
<g clip-path="url(#clip1_63_567)">
<g clip-path="url(#clip2_63_567)">
<g opacity="0.85">
<path fill-rule="evenodd" clip-rule="evenodd" d="M167.196 102.811H179.036V108.142H160.094V84.9736H173.522L176.664 90.3046H167.203V94.1279H175.764V98.9877H167.203L167.196 102.811ZM191.639 84.9736L187.618 92.5326L183.61 84.9736H175.758L184.026 98.9877V108.142H191.115V98.9877L199.383 84.9736H191.639Z" fill="#1B1B1B"/>
<path fill-rule="evenodd" clip-rule="evenodd" d="M206.444 70.1049V61.4824L159.637 78.1957L206.444 70.1049Z" fill="#1B1B1B"/>
</g>
</g>
</g>
</g>
<g clip-path="url(#clip3_63_567)">
<g clip-path="url(#clip4_63_567)">
<g clip-path="url(#clip5_63_567)">
<g opacity="0.85">
<path fill-rule="evenodd" clip-rule="evenodd" d="M167.196 102.811H179.036V108.142H160.094V84.9736H173.522L176.664 90.3046H167.203V94.1279H175.764V98.9877H167.203L167.196 102.811ZM191.639 84.9736L187.618 92.5326L183.61 84.9736H175.758L184.026 98.9877V108.142H191.115V98.9877L199.383 84.9736H191.639Z" fill="#1B1B1B"/>
<path fill-rule="evenodd" clip-rule="evenodd" d="M206.444 70.1049V61.4824L159.637 78.1957L206.444 70.1049Z" fill="#1B1B1B"/>
</g>
</g>
</g>
</g>
<defs>
<clipPath id="clip0_63_567">
<rect width="60.9586" height="60.208" fill="white" transform="translate(150.027 61.4814)"/>
</clipPath>
<clipPath id="clip1_63_567">
<rect width="60.9586" height="60.208" fill="white" transform="translate(150.027 61.4814)"/>
</clipPath>
<clipPath id="clip2_63_567">
<rect width="60.9586" height="60.206" fill="white" transform="translate(150.027 61.4824)"/>
</clipPath>
<clipPath id="clip3_63_567">
<rect width="60.9586" height="60.208" fill="white" transform="translate(150.027 61.4814)"/>
</clipPath>
<clipPath id="clip4_63_567">
<rect width="60.9586" height="60.208" fill="white" transform="translate(150.027 61.4814)"/>
</clipPath>
<clipPath id="clip5_63_567">
<rect width="60.9586" height="60.206" fill="white" transform="translate(150.027 61.4824)"/>
</clipPath>
</defs>
</svg>
