<svg width="361" height="183" viewBox="0 0 361 183" fill="none" xmlns="http://www.w3.org/2000/svg">
<rect x="0.621094" y="1.29492" width="359.06" height="180.449" rx="7.5" stroke="#E8EEF4"/>
<g clip-path="url(#clip0_63_934)">
<g clip-path="url(#clip1_63_934)">
<mask id="mask0_63_934" style="mask-type:luminance" maskUnits="userSpaceOnUse" x="118" y="78" width="125" height="27">
<path d="M242.269 78.3862H118.102V104.725H242.269V78.3862Z" fill="white"/>
</mask>
<g mask="url(#mask0_63_934)">
<g opacity="0.85">
<path d="M222.856 78.7812H218.507C218.263 78.7812 218.14 78.905 218.14 79.1525V96.5351C218.14 97.4012 217.865 98.0506 217.497 98.5457C217.13 99.0407 216.64 99.1643 216.027 99.1643C215.415 99.1643 214.895 98.9167 214.527 98.5457C214.159 98.0506 213.915 97.4012 213.915 96.5351V79.1525C213.915 78.905 213.669 78.7812 213.547 78.7812H209.168C208.923 78.7812 208.801 78.905 208.801 79.1525V96.659C208.801 98.9168 209.29 101.051 210.668 102.443C212.016 103.835 213.884 104.577 216.027 104.577C218.262 104.577 220.131 103.835 221.386 102.443C222.733 101.082 223.254 99.0717 223.254 96.659V79.1525C223.376 79.0289 223.131 78.7812 222.856 78.7812ZM239.544 91.1226C240.279 90.3801 241.657 88.6171 241.657 86.3284C241.657 83.6685 240.647 82.0601 239.881 81.1629C238.503 79.6783 236.666 78.905 234.523 78.905H227.663C227.388 78.905 227.265 79.1525 227.265 79.2761V103.835C227.265 104.082 227.51 104.206 227.663 104.206H234.92C237.156 104.206 239.268 103.34 240.647 101.546C241.381 100.556 242.269 98.8857 242.269 96.3807C242.024 93.3804 240.187 91.6174 239.544 91.1226ZM232.318 83.9465H234.553C235.165 83.9465 235.655 84.0702 236.023 84.5652C236.421 84.9672 236.543 85.5859 236.543 86.3592C236.543 87.1323 236.421 87.7199 236.023 88.246C235.655 88.6171 235.165 88.8645 234.676 88.8645H232.441V83.9465H232.318ZM236.298 98.4219C235.931 98.9168 235.441 99.0406 234.676 99.0406H232.195V93.7204H234.676C235.288 93.7204 235.778 93.9988 236.145 94.3702C236.543 94.865 236.789 95.4835 236.789 96.2568C236.911 97.2774 236.696 97.8961 236.298 98.4219ZM147.62 93.2566C148.11 92.8855 148.508 92.6381 148.876 92.1122C149.733 91.1225 150.866 89.3593 150.866 86.5757C150.866 83.9156 149.855 82.1836 148.876 81.1629C147.62 79.6783 145.752 78.905 143.639 78.7812H136.413C136.168 78.7812 136.045 79.0289 136.045 79.1525V103.68C136.045 103.928 136.29 104.051 136.413 104.051H140.761C141.006 104.051 141.129 103.804 141.129 103.68V94.6176H142.629L145.354 103.928C145.354 104.051 145.63 104.175 145.752 104.175H150.345C150.468 104.175 150.59 104.051 150.713 104.051C150.835 104.051 150.835 103.804 150.835 103.68L147.62 93.2566ZM144.864 88.7097C144.497 89.2049 143.884 89.4829 143.119 89.4829H141.006V83.9465H143.119C143.854 83.9465 144.466 84.194 144.864 84.6889C145.354 85.2149 145.507 85.8334 145.507 86.6995C145.507 87.5964 145.385 88.2148 144.864 88.7097ZM184.457 91.1226C185.223 90.3801 186.57 88.6171 186.57 86.3284C186.57 83.6685 185.59 82.0601 184.825 81.1629C183.447 79.6783 181.579 78.905 179.466 78.905H172.637C172.392 78.905 172.27 79.1525 172.27 79.2761V103.835C172.27 104.082 172.515 104.206 172.637 104.206H179.864C182.099 104.206 184.212 103.34 185.621 101.546C186.356 100.556 187.244 98.8857 187.244 96.3807C187.091 93.3804 185.223 91.6174 184.457 91.1226ZM177.261 83.9465H179.497C180.109 83.9465 180.599 84.0702 180.966 84.5652C181.334 84.9672 181.456 85.5859 181.456 86.3592C181.456 87.1323 181.334 87.7199 180.966 88.246C180.599 88.6171 180.109 88.8645 179.619 88.8645H177.384V83.9465H177.261ZM181.364 98.4219C180.997 98.9168 180.507 99.0406 179.741 99.0406H177.261V93.7204H179.741C180.354 93.7204 180.844 93.9988 181.211 94.3702C181.579 94.865 181.854 95.4835 181.854 96.2568C181.885 97.2774 181.763 97.8961 181.364 98.4219ZM125.298 78.4102C123.062 78.4102 121.194 79.1525 119.939 80.5442C118.591 81.9361 118.102 83.9156 118.102 86.3283V96.7825C118.102 99.0407 118.591 101.175 119.939 102.567C121.317 103.959 123.185 104.701 125.298 104.701C127.533 104.701 129.431 103.959 130.687 102.567C132.034 101.206 132.524 99.1952 132.524 96.7825V91.0294C132.524 90.7513 132.279 90.5039 132.034 90.5039H125.696C125.42 90.5039 125.175 90.7513 125.175 91.0294V95.298C125.175 95.5453 125.42 95.7929 125.696 95.7929H127.319V96.8136C127.319 97.6796 127.074 98.4529 126.706 98.9479C126.339 99.4428 125.818 99.5664 125.206 99.5664C124.593 99.5664 124.103 99.319 123.705 98.9479C123.338 98.4529 123.093 97.6798 123.093 96.8136V86.4831C123.093 85.5859 123.338 84.8127 123.705 84.3485C124.103 83.8537 124.593 83.73 125.206 83.73C125.818 83.73 126.339 83.9775 126.706 84.3485C127.074 84.8434 127.319 85.5859 127.319 86.4831V87.4728C127.319 87.72 127.563 87.8748 127.686 87.8748H132.034C132.279 87.8748 132.402 87.72 132.402 87.4728V86.4831C132.402 84.2249 131.912 82.0908 130.534 80.699C129.431 79.1525 127.41 78.4102 125.298 78.4102ZM167.922 78.7812H163.574C163.329 78.7812 163.206 78.905 163.206 79.1525V96.5351C163.206 97.4012 162.931 98.0506 162.563 98.5457C162.196 99.0407 161.706 99.1643 161.093 99.1643C160.481 99.1643 159.96 98.9167 159.593 98.5457C159.226 98.0506 158.981 97.4012 158.981 96.5351V79.1525C158.981 78.905 158.705 78.7812 158.583 78.7812H154.234C153.989 78.7812 153.867 78.905 153.867 79.1525V96.659C153.867 98.9168 154.388 101.051 155.735 102.443C157.113 103.835 158.981 104.577 161.093 104.577C163.329 104.577 165.227 103.835 166.452 102.443C167.83 101.082 168.32 99.0717 168.32 96.659V79.1525C168.289 79.0289 168.167 78.7812 167.922 78.7812ZM204.544 78.7812H200.196C199.951 78.7812 199.829 79.0289 199.829 79.1525V88.7097H195.481V79.1525C195.481 78.905 195.236 78.7812 195.113 78.7812H190.765C190.52 78.7812 190.397 79.0289 190.397 79.1525V103.68C190.397 103.928 190.643 104.051 190.765 104.051H195.113C195.358 104.051 195.481 103.804 195.481 103.68V93.8754H199.829V103.68C199.829 103.928 200.074 104.051 200.196 104.051H204.544C204.79 104.051 204.912 103.804 204.912 103.68V79.1525C204.912 79.0289 204.79 78.7812 204.544 78.7812Z" fill="#1B1B1B"/>
</g>
</g>
</g>
</g>
<g clip-path="url(#clip2_63_934)">
<g clip-path="url(#clip3_63_934)">
<mask id="mask1_63_934" style="mask-type:luminance" maskUnits="userSpaceOnUse" x="118" y="78" width="125" height="27">
<path d="M242.269 78.3862H118.102V104.725H242.269V78.3862Z" fill="white"/>
</mask>
<g mask="url(#mask1_63_934)">
<g opacity="0.85">
<path d="M222.856 78.7812H218.507C218.263 78.7812 218.14 78.905 218.14 79.1525V96.5351C218.14 97.4012 217.865 98.0506 217.497 98.5457C217.13 99.0407 216.64 99.1643 216.027 99.1643C215.415 99.1643 214.895 98.9167 214.527 98.5457C214.159 98.0506 213.915 97.4012 213.915 96.5351V79.1525C213.915 78.905 213.669 78.7812 213.547 78.7812H209.168C208.923 78.7812 208.801 78.905 208.801 79.1525V96.659C208.801 98.9168 209.29 101.051 210.668 102.443C212.016 103.835 213.884 104.577 216.027 104.577C218.262 104.577 220.131 103.835 221.386 102.443C222.733 101.082 223.254 99.0717 223.254 96.659V79.1525C223.376 79.0289 223.131 78.7812 222.856 78.7812ZM239.544 91.1226C240.279 90.3801 241.657 88.6171 241.657 86.3284C241.657 83.6685 240.647 82.0601 239.881 81.1629C238.503 79.6783 236.666 78.905 234.523 78.905H227.663C227.388 78.905 227.265 79.1525 227.265 79.2761V103.835C227.265 104.082 227.51 104.206 227.663 104.206H234.92C237.156 104.206 239.268 103.34 240.647 101.546C241.381 100.556 242.269 98.8857 242.269 96.3807C242.024 93.3804 240.187 91.6174 239.544 91.1226ZM232.318 83.9465H234.553C235.165 83.9465 235.655 84.0702 236.023 84.5652C236.421 84.9672 236.543 85.5859 236.543 86.3592C236.543 87.1323 236.421 87.7199 236.023 88.246C235.655 88.6171 235.165 88.8645 234.676 88.8645H232.441V83.9465H232.318ZM236.298 98.4219C235.931 98.9168 235.441 99.0406 234.676 99.0406H232.195V93.7204H234.676C235.288 93.7204 235.778 93.9988 236.145 94.3702C236.543 94.865 236.789 95.4835 236.789 96.2568C236.911 97.2774 236.696 97.8961 236.298 98.4219ZM147.62 93.2566C148.11 92.8855 148.508 92.6381 148.876 92.1122C149.733 91.1225 150.866 89.3593 150.866 86.5757C150.866 83.9156 149.855 82.1836 148.876 81.1629C147.62 79.6783 145.752 78.905 143.639 78.7812H136.413C136.168 78.7812 136.045 79.0289 136.045 79.1525V103.68C136.045 103.928 136.29 104.051 136.413 104.051H140.761C141.006 104.051 141.129 103.804 141.129 103.68V94.6176H142.629L145.354 103.928C145.354 104.051 145.63 104.175 145.752 104.175H150.345C150.468 104.175 150.59 104.051 150.713 104.051C150.835 104.051 150.835 103.804 150.835 103.68L147.62 93.2566ZM144.864 88.7097C144.497 89.2049 143.884 89.4829 143.119 89.4829H141.006V83.9465H143.119C143.854 83.9465 144.466 84.194 144.864 84.6889C145.354 85.2149 145.507 85.8334 145.507 86.6995C145.507 87.5964 145.385 88.2148 144.864 88.7097ZM184.457 91.1226C185.223 90.3801 186.57 88.6171 186.57 86.3284C186.57 83.6685 185.59 82.0601 184.825 81.1629C183.447 79.6783 181.579 78.905 179.466 78.905H172.637C172.392 78.905 172.27 79.1525 172.27 79.2761V103.835C172.27 104.082 172.515 104.206 172.637 104.206H179.864C182.099 104.206 184.212 103.34 185.621 101.546C186.356 100.556 187.244 98.8857 187.244 96.3807C187.091 93.3804 185.223 91.6174 184.457 91.1226ZM177.261 83.9465H179.497C180.109 83.9465 180.599 84.0702 180.966 84.5652C181.334 84.9672 181.456 85.5859 181.456 86.3592C181.456 87.1323 181.334 87.7199 180.966 88.246C180.599 88.6171 180.109 88.8645 179.619 88.8645H177.384V83.9465H177.261ZM181.364 98.4219C180.997 98.9168 180.507 99.0406 179.741 99.0406H177.261V93.7204H179.741C180.354 93.7204 180.844 93.9988 181.211 94.3702C181.579 94.865 181.854 95.4835 181.854 96.2568C181.885 97.2774 181.763 97.8961 181.364 98.4219ZM125.298 78.4102C123.062 78.4102 121.194 79.1525 119.939 80.5442C118.591 81.9361 118.102 83.9156 118.102 86.3283V96.7825C118.102 99.0407 118.591 101.175 119.939 102.567C121.317 103.959 123.185 104.701 125.298 104.701C127.533 104.701 129.431 103.959 130.687 102.567C132.034 101.206 132.524 99.1952 132.524 96.7825V91.0294C132.524 90.7513 132.279 90.5039 132.034 90.5039H125.696C125.42 90.5039 125.175 90.7513 125.175 91.0294V95.298C125.175 95.5453 125.42 95.7929 125.696 95.7929H127.319V96.8136C127.319 97.6796 127.074 98.4529 126.706 98.9479C126.339 99.4428 125.818 99.5664 125.206 99.5664C124.593 99.5664 124.103 99.319 123.705 98.9479C123.338 98.4529 123.093 97.6798 123.093 96.8136V86.4831C123.093 85.5859 123.338 84.8127 123.705 84.3485C124.103 83.8537 124.593 83.73 125.206 83.73C125.818 83.73 126.339 83.9775 126.706 84.3485C127.074 84.8434 127.319 85.5859 127.319 86.4831V87.4728C127.319 87.72 127.563 87.8748 127.686 87.8748H132.034C132.279 87.8748 132.402 87.72 132.402 87.4728V86.4831C132.402 84.2249 131.912 82.0908 130.534 80.699C129.431 79.1525 127.41 78.4102 125.298 78.4102ZM167.922 78.7812H163.574C163.329 78.7812 163.206 78.905 163.206 79.1525V96.5351C163.206 97.4012 162.931 98.0506 162.563 98.5457C162.196 99.0407 161.706 99.1643 161.093 99.1643C160.481 99.1643 159.96 98.9167 159.593 98.5457C159.226 98.0506 158.981 97.4012 158.981 96.5351V79.1525C158.981 78.905 158.705 78.7812 158.583 78.7812H154.234C153.989 78.7812 153.867 78.905 153.867 79.1525V96.659C153.867 98.9168 154.388 101.051 155.735 102.443C157.113 103.835 158.981 104.577 161.093 104.577C163.329 104.577 165.227 103.835 166.452 102.443C167.83 101.082 168.32 99.0717 168.32 96.659V79.1525C168.289 79.0289 168.167 78.7812 167.922 78.7812ZM204.544 78.7812H200.196C199.951 78.7812 199.829 79.0289 199.829 79.1525V88.7097H195.481V79.1525C195.481 78.905 195.236 78.7812 195.113 78.7812H190.765C190.52 78.7812 190.397 79.0289 190.397 79.1525V103.68C190.397 103.928 190.643 104.051 190.765 104.051H195.113C195.358 104.051 195.481 103.804 195.481 103.68V93.8754H199.829V103.68C199.829 103.928 200.074 104.051 200.196 104.051H204.544C204.79 104.051 204.912 103.804 204.912 103.68V79.1525C204.912 79.0289 204.79 78.7812 204.544 78.7812Z" fill="#1B1B1B"/>
</g>
</g>
</g>
</g>
<defs>
<clipPath id="clip0_63_934">
<rect width="136.961" height="60.208" fill="white" transform="translate(112.082 61.8276)"/>
</clipPath>
<clipPath id="clip1_63_934">
<rect width="136.961" height="60.208" fill="white" transform="translate(112.082 61.8276)"/>
</clipPath>
<clipPath id="clip2_63_934">
<rect width="136.961" height="60.208" fill="white" transform="translate(112.082 61.8276)"/>
</clipPath>
<clipPath id="clip3_63_934">
<rect width="136.961" height="60.208" fill="white" transform="translate(112.082 61.8276)"/>
</clipPath>
</defs>
</svg>
