<svg width="361" height="183" viewBox="0 0 361 183" fill="none" xmlns="http://www.w3.org/2000/svg">
<rect x="0.5" y="1.29492" width="359.06" height="180.449" rx="7.5" stroke="#E8EEF4"/>
<g clip-path="url(#clip0_63_778)">
<g clip-path="url(#clip1_63_778)">
<g opacity="0.85">
<path d="M143.562 104.545H157.901V106.609H143.562V104.545Z" fill="#1B1B1B"/>
<path d="M143.562 100.588H157.901V102.658H143.562V100.588Z" fill="#1B1B1B"/>
<path d="M147.652 96.6377H153.803V98.7082H147.652V96.6377Z" fill="#1B1B1B"/>
<path d="M147.652 92.6875H153.803V94.7581H147.652V92.6875Z" fill="#1B1B1B"/>
<path d="M147.652 88.7373H153.803V90.8079H147.652V88.7373Z" fill="#1B1B1B"/>
<path d="M147.652 84.7798H153.803V86.8503H147.652V84.7798Z" fill="#1B1B1B"/>
<path d="M157.901 80.8296H143.562V82.9001H157.901V80.8296Z" fill="#1B1B1B"/>
<path d="M157.901 76.8794H143.562V78.9499H157.901V76.8794Z" fill="#1B1B1B"/>
<path d="M159.945 102.658H181.998C182.37 102.019 182.648 101.322 182.816 100.587H159.945V102.658Z" fill="#1B1B1B"/>
<path d="M180.283 92.6875H164.045V94.7581H181.999C181.532 93.965 180.955 93.2676 180.283 92.6875Z" fill="#1B1B1B"/>
<path d="M164.045 88.7373V90.8079H180.283C180.97 90.2278 181.546 89.5302 181.999 88.7373H164.045Z" fill="#1B1B1B"/>
<path d="M181.998 80.8296H159.945V82.9001H182.816C182.626 82.1659 182.348 81.4685 181.998 80.8296Z" fill="#1B1B1B"/>
<path d="M175.221 76.8794H159.947V78.9499H180.488C179.114 77.6723 177.252 76.8794 175.221 76.8794Z" fill="#1B1B1B"/>
<path d="M170.188 84.7798H164.045V86.8503H170.188V84.7798Z" fill="#1B1B1B"/>
<path d="M176.338 86.8503H182.766C182.948 86.1896 183.043 85.492 183.043 84.7798H176.338V86.8503Z" fill="#1B1B1B"/>
<path d="M164.045 96.6377H170.188V98.7082H164.045V96.6377Z" fill="#1B1B1B"/>
<path d="M176.338 96.6377V98.7082H183.043C183.043 97.996 182.948 97.2986 182.766 96.6377H176.338Z" fill="#1B1B1B"/>
<path d="M159.945 106.594L175.219 106.616C177.264 106.616 179.112 105.823 180.493 104.545H159.945V106.594Z" fill="#1B1B1B"/>
<path d="M184.533 104.545H194.774V106.609H184.533V104.545Z" fill="#1B1B1B"/>
<path d="M184.533 100.588H194.774V102.658H184.533V100.588Z" fill="#1B1B1B"/>
<path d="M188.625 96.6377H194.775V98.7082H188.625V96.6377Z" fill="#1B1B1B"/>
<path d="M188.625 92.6875H194.775V94.7581H188.625V92.6875Z" fill="#1B1B1B"/>
<path d="M197.623 80.8296H184.533V82.9001H198.331L197.623 80.8296Z" fill="#1B1B1B"/>
<path d="M196.264 76.8794H184.533V78.9499H196.973L196.264 76.8794Z" fill="#1B1B1B"/>
<path d="M207.062 104.545H217.311V106.609H207.062V104.545Z" fill="#1B1B1B"/>
<path d="M207.062 100.588H217.311V102.658H207.062V100.588Z" fill="#1B1B1B"/>
<path d="M207.062 96.6377H213.213V98.7082H207.062V96.6377Z" fill="#1B1B1B"/>
<path d="M207.062 92.6875H213.213V94.7581H207.062V92.6875Z" fill="#1B1B1B"/>
<path d="M207.062 90.8079H213.212V88.7373H207.062H201.496L200.919 90.4114L200.342 88.7373H194.775H188.625V90.8079H194.775V88.9061L195.426 90.8079H206.412L207.062 88.9061V90.8079Z" fill="#1B1B1B"/>
<path d="M213.211 84.7798H202.853L202.145 86.8503H213.211V84.7798Z" fill="#1B1B1B"/>
<path d="M205.578 76.8794L204.869 78.9499H217.309V76.8794H205.578Z" fill="#1B1B1B"/>
<path d="M200.92 106.594L201.628 104.545H200.211L200.92 106.594Z" fill="#1B1B1B"/>
<path d="M199.559 102.658H202.276L203.007 100.588H198.836L199.559 102.658Z" fill="#1B1B1B"/>
<path d="M198.178 98.7082H203.657L204.38 96.6377H197.455L198.178 98.7082Z" fill="#1B1B1B"/>
<path d="M196.806 94.7581H205.038L205.74 92.6875H196.098L196.806 94.7581Z" fill="#1B1B1B"/>
<path d="M188.625 86.8503H199.691L198.983 84.7798H188.625V86.8503Z" fill="#1B1B1B"/>
<path d="M203.512 82.9001H217.31V80.8296H204.213L203.512 82.9001Z" fill="#1B1B1B"/>
</g>
</g>
</g>
<g clip-path="url(#clip2_63_778)">
<g clip-path="url(#clip3_63_778)">
<g opacity="0.85">
<path d="M143.562 104.545H157.901V106.609H143.562V104.545Z" fill="#1B1B1B"/>
<path d="M143.562 100.588H157.901V102.658H143.562V100.588Z" fill="#1B1B1B"/>
<path d="M147.652 96.6377H153.803V98.7082H147.652V96.6377Z" fill="#1B1B1B"/>
<path d="M147.652 92.6875H153.803V94.7581H147.652V92.6875Z" fill="#1B1B1B"/>
<path d="M147.652 88.7373H153.803V90.8079H147.652V88.7373Z" fill="#1B1B1B"/>
<path d="M147.652 84.7798H153.803V86.8503H147.652V84.7798Z" fill="#1B1B1B"/>
<path d="M157.901 80.8296H143.562V82.9001H157.901V80.8296Z" fill="#1B1B1B"/>
<path d="M157.901 76.8794H143.562V78.9499H157.901V76.8794Z" fill="#1B1B1B"/>
<path d="M159.945 102.658H181.998C182.37 102.019 182.648 101.322 182.816 100.587H159.945V102.658Z" fill="#1B1B1B"/>
<path d="M180.283 92.6875H164.045V94.7581H181.999C181.532 93.965 180.955 93.2676 180.283 92.6875Z" fill="#1B1B1B"/>
<path d="M164.045 88.7373V90.8079H180.283C180.97 90.2278 181.546 89.5302 181.999 88.7373H164.045Z" fill="#1B1B1B"/>
<path d="M181.998 80.8296H159.945V82.9001H182.816C182.626 82.1659 182.348 81.4685 181.998 80.8296Z" fill="#1B1B1B"/>
<path d="M175.221 76.8794H159.947V78.9499H180.488C179.114 77.6723 177.252 76.8794 175.221 76.8794Z" fill="#1B1B1B"/>
<path d="M170.188 84.7798H164.045V86.8503H170.188V84.7798Z" fill="#1B1B1B"/>
<path d="M176.338 86.8503H182.766C182.948 86.1896 183.043 85.492 183.043 84.7798H176.338V86.8503Z" fill="#1B1B1B"/>
<path d="M164.045 96.6377H170.188V98.7082H164.045V96.6377Z" fill="#1B1B1B"/>
<path d="M176.338 96.6377V98.7082H183.043C183.043 97.996 182.948 97.2986 182.766 96.6377H176.338Z" fill="#1B1B1B"/>
<path d="M159.945 106.594L175.219 106.616C177.264 106.616 179.112 105.823 180.493 104.545H159.945V106.594Z" fill="#1B1B1B"/>
<path d="M184.533 104.545H194.774V106.609H184.533V104.545Z" fill="#1B1B1B"/>
<path d="M184.533 100.588H194.774V102.658H184.533V100.588Z" fill="#1B1B1B"/>
<path d="M188.625 96.6377H194.775V98.7082H188.625V96.6377Z" fill="#1B1B1B"/>
<path d="M188.625 92.6875H194.775V94.7581H188.625V92.6875Z" fill="#1B1B1B"/>
<path d="M197.623 80.8296H184.533V82.9001H198.331L197.623 80.8296Z" fill="#1B1B1B"/>
<path d="M196.264 76.8794H184.533V78.9499H196.973L196.264 76.8794Z" fill="#1B1B1B"/>
<path d="M207.062 104.545H217.311V106.609H207.062V104.545Z" fill="#1B1B1B"/>
<path d="M207.062 100.588H217.311V102.658H207.062V100.588Z" fill="#1B1B1B"/>
<path d="M207.062 96.6377H213.213V98.7082H207.062V96.6377Z" fill="#1B1B1B"/>
<path d="M207.062 92.6875H213.213V94.7581H207.062V92.6875Z" fill="#1B1B1B"/>
<path d="M207.062 90.8079H213.212V88.7373H207.062H201.496L200.919 90.4114L200.342 88.7373H194.775H188.625V90.8079H194.775V88.9061L195.426 90.8079H206.412L207.062 88.9061V90.8079Z" fill="#1B1B1B"/>
<path d="M213.211 84.7798H202.853L202.145 86.8503H213.211V84.7798Z" fill="#1B1B1B"/>
<path d="M205.578 76.8794L204.869 78.9499H217.309V76.8794H205.578Z" fill="#1B1B1B"/>
<path d="M200.92 106.594L201.628 104.545H200.211L200.92 106.594Z" fill="#1B1B1B"/>
<path d="M199.559 102.658H202.276L203.007 100.588H198.836L199.559 102.658Z" fill="#1B1B1B"/>
<path d="M198.178 98.7082H203.657L204.38 96.6377H197.455L198.178 98.7082Z" fill="#1B1B1B"/>
<path d="M196.806 94.7581H205.038L205.74 92.6875H196.098L196.806 94.7581Z" fill="#1B1B1B"/>
<path d="M188.625 86.8503H199.691L198.983 84.7798H188.625V86.8503Z" fill="#1B1B1B"/>
<path d="M203.512 82.9001H217.31V80.8296H204.213L203.512 82.9001Z" fill="#1B1B1B"/>
</g>
</g>
</g>
<defs>
<clipPath id="clip0_63_778">
<rect width="81.2808" height="60.208" fill="white" transform="translate(139.799 61.8276)"/>
</clipPath>
<clipPath id="clip1_63_778">
<rect width="81.2808" height="60.208" fill="white" transform="translate(139.799 61.8276)"/>
</clipPath>
<clipPath id="clip2_63_778">
<rect width="81.2808" height="60.208" fill="white" transform="translate(139.799 61.8276)"/>
</clipPath>
<clipPath id="clip3_63_778">
<rect width="81.2808" height="60.208" fill="white" transform="translate(139.799 61.8276)"/>
</clipPath>
</defs>
</svg>
