<svg width="361" height="182" viewBox="0 0 361 182" fill="none" xmlns="http://www.w3.org/2000/svg">
<rect x="0.621094" y="0.5" width="359.06" height="180.449" rx="7.5" stroke="#E8EEF4"/>
<g clip-path="url(#clip0_63_528)">
<g clip-path="url(#clip1_63_528)">
<g clip-path="url(#clip2_63_528)">
<mask id="mask0_63_528" style="mask-type:luminance" maskUnits="userSpaceOnUse" x="110" y="61" width="141" height="61">
<path d="M250.928 61.0327H110.191V121.241H250.928V61.0327Z" fill="white"/>
</mask>
<g mask="url(#mask0_63_528)">
<g opacity="0.85">
<path fill-rule="evenodd" clip-rule="evenodd" d="M142.383 99.4153H138.64V89.1317L133.027 94.6457L127.414 89.1317V99.4153H123.671V82.1055H125.661L133.074 89.3876L140.393 82.1055H142.383V99.4153ZM119.929 89.8804H110.266L119.929 99.3728V89.8804ZM147.308 99.3643H164.405V95.9031H151.064V91.9677H159.348V88.5064H151.064V85.6615H163.683V82.1055H147.308V99.3643ZM183.322 99.3645H187.506L182.89 92.149C183.996 91.7716 184.861 91.1586 185.534 90.2626C186.16 89.3666 186.496 88.3762 186.496 87.2444C186.496 85.5938 185.919 84.3204 184.765 83.4244C183.707 82.6227 182.361 82.1983 180.63 82.1983H168.897V99.3645H172.599V92.3376H178.706L183.322 99.3645ZM182.216 86.1125C182.553 86.3955 182.697 86.7728 182.697 87.2444C182.697 87.6688 182.553 88.0461 182.216 88.4706C181.88 88.7536 181.351 88.8949 180.582 88.8949H172.599V85.7353H180.582C181.303 85.7353 181.88 85.8767 182.216 86.1125ZM205.476 99.3645H209.858L201.672 88.5177L209.28 82.1983H204.08L196.327 88.6119V82.1983H192.572V99.3645H196.327V92.9979L198.976 90.7814L205.476 99.3645ZM214.211 99.3643H229.986V95.9031H217.962V82.1055H214.211V99.3643ZM234.033 99.3643H251.131V95.9031H237.741V91.9677H246.026V88.5064H237.741V85.6615H250.408V82.1055H234.033V99.3643Z" fill="#1B1B1B"/>
</g>
</g>
</g>
</g>
</g>
<g clip-path="url(#clip3_63_528)">
<g clip-path="url(#clip4_63_528)">
<g clip-path="url(#clip5_63_528)">
<mask id="mask1_63_528" style="mask-type:luminance" maskUnits="userSpaceOnUse" x="110" y="61" width="141" height="61">
<path d="M250.928 61.0327H110.191V121.241H250.928V61.0327Z" fill="white"/>
</mask>
<g mask="url(#mask1_63_528)">
<g opacity="0.85">
<path fill-rule="evenodd" clip-rule="evenodd" d="M142.383 99.4153H138.64V89.1317L133.027 94.6457L127.414 89.1317V99.4153H123.671V82.1055H125.661L133.074 89.3876L140.393 82.1055H142.383V99.4153ZM119.929 89.8804H110.266L119.929 99.3728V89.8804ZM147.308 99.3643H164.405V95.9031H151.064V91.9677H159.348V88.5064H151.064V85.6615H163.683V82.1055H147.308V99.3643ZM183.322 99.3645H187.506L182.89 92.149C183.996 91.7716 184.861 91.1586 185.534 90.2626C186.16 89.3666 186.496 88.3762 186.496 87.2444C186.496 85.5938 185.919 84.3204 184.765 83.4244C183.707 82.6227 182.361 82.1983 180.63 82.1983H168.897V99.3645H172.599V92.3376H178.706L183.322 99.3645ZM182.216 86.1125C182.553 86.3955 182.697 86.7728 182.697 87.2444C182.697 87.6688 182.553 88.0461 182.216 88.4706C181.88 88.7536 181.351 88.8949 180.582 88.8949H172.599V85.7353H180.582C181.303 85.7353 181.88 85.8767 182.216 86.1125ZM205.476 99.3645H209.858L201.672 88.5177L209.28 82.1983H204.08L196.327 88.6119V82.1983H192.572V99.3645H196.327V92.9979L198.976 90.7814L205.476 99.3645ZM214.211 99.3643H229.986V95.9031H217.962V82.1055H214.211V99.3643ZM234.033 99.3643H251.131V95.9031H237.741V91.9677H246.026V88.5064H237.741V85.6615H250.408V82.1055H234.033V99.3643Z" fill="#1B1B1B"/>
</g>
</g>
</g>
</g>
</g>
<defs>
<clipPath id="clip0_63_528">
<rect width="141.489" height="60.208" fill="white" transform="translate(109.814 61.0327)"/>
</clipPath>
<clipPath id="clip1_63_528">
<rect width="141.489" height="60.208" fill="white" transform="translate(109.814 61.0327)"/>
</clipPath>
<clipPath id="clip2_63_528">
<rect width="141.489" height="60.208" fill="white" transform="translate(109.814 61.0327)"/>
</clipPath>
<clipPath id="clip3_63_528">
<rect width="141.489" height="60.208" fill="white" transform="translate(109.814 61.0327)"/>
</clipPath>
<clipPath id="clip4_63_528">
<rect width="141.489" height="60.208" fill="white" transform="translate(109.814 61.0327)"/>
</clipPath>
<clipPath id="clip5_63_528">
<rect width="141.489" height="60.208" fill="white" transform="translate(109.814 61.0327)"/>
</clipPath>
</defs>
</svg>
