<svg width="361" height="183" viewBox="0 0 361 183" fill="none" xmlns="http://www.w3.org/2000/svg">
<rect x="0.560547" y="1.29492" width="359.06" height="180.449" rx="7.5" stroke="#E8EEF4"/>
<g clip-path="url(#clip0_63_861)">
<g clip-path="url(#clip1_63_861)">
<mask id="mask0_63_861" style="mask-type:luminance" maskUnits="userSpaceOnUse" x="118" y="65" width="125" height="42">
<path d="M242.961 65.5923H118.037V106.983H242.961V65.5923Z" fill="white"/>
</mask>
<g mask="url(#mask0_63_861)">
<path d="M187.242 88.3814C188.31 88.3814 189.121 88.1637 189.121 86.1126V77.2953L187.559 77.2154V76.5444L192.346 76.6243L195.413 85.0083H195.433L198.54 76.6243L203.27 76.5444V77.2154L201.667 77.2953V88.3015L203.27 88.3814V89.0524C202.478 89.0524 200.994 88.9726 200.203 88.9726C199.412 88.9726 198.005 89.0524 197.214 89.0524V88.3814L198.797 88.3015V78.1621H198.756L194.86 89.0125H193.891L189.952 78.1621H189.912V86.1126C189.912 88.1637 190.686 88.3814 191.949 88.3814V89.0524C190.962 89.0524 190.389 88.9726 189.596 88.9726C188.803 88.9726 188.23 89.0524 187.242 89.0524V88.3814Z" fill="#1B1B1B"/>
<path d="M203.605 84.5931C203.605 81.2399 205.881 79.6802 208.415 79.6802C210.95 79.6802 213.243 81.0422 213.243 84.3954C213.243 87.7485 211.027 89.3083 208.415 89.3083C205.803 89.3083 203.605 87.9663 203.605 84.5931ZM210.354 84.4953C210.354 81.8111 209.819 80.3532 208.415 80.3532C207.011 80.3532 206.496 81.8131 206.496 84.4953C206.496 87.1774 207.051 88.6373 208.415 88.6373C209.779 88.6373 210.354 87.1974 210.354 84.4953Z" fill="#1B1B1B"/>
<path d="M214.922 81.773C214.922 80.6886 214.587 80.6886 213.578 80.6886V80.0176L217.534 79.8198V85.2441C217.534 87.1393 217.574 88.104 218.8 88.104C219.769 88.104 220.995 86.9596 220.995 85.0264V81.7711C220.995 80.6866 220.541 80.6866 219.669 80.6866V80.0156L223.608 79.8179V88.2617L224.954 88.3017V88.9707L221.154 89.1684L221.096 87.413H221.076C220.443 88.4775 219.335 89.2663 217.771 89.2663C215.694 89.2663 214.92 88.2018 214.92 85.953V81.7711L214.922 81.773Z" fill="#1B1B1B"/>
<path d="M230.634 88.3816V89.0526C229.684 89.0526 229.169 88.9727 228.022 88.9727C226.873 88.9727 226.34 89.0526 225.371 89.0526V88.3816L226.715 88.2837V81.7351C226.715 80.6886 226.379 80.6886 225.371 80.6886V80.0176L229.169 79.8219L229.209 81.5374H229.229C229.902 80.453 230.97 79.6641 232.535 79.6641C234.196 79.6641 235.383 80.6706 235.383 83.157V88.2857L236.749 88.3835V89.0546C235.78 89.0546 235.245 88.9747 234.097 88.9747C232.949 88.9747 232.454 89.0546 231.485 89.0546V88.3835L232.791 88.2857V83.7282C232.791 81.5973 232.553 80.8284 231.505 80.8284C230.535 80.8284 229.327 81.9728 229.327 83.906V88.2857L230.634 88.3835V88.3816Z" fill="#1B1B1B"/>
<path d="M240.37 86.4282C240.331 87.6524 240.37 88.3215 241.181 88.3215C241.914 88.3215 242.328 87.2769 242.328 87.2769L242.961 87.5126C242.961 87.5126 242.547 89.328 240.467 89.328C238.034 89.328 237.777 88.0059 237.777 86.4681V80.7863H236.293V80.0174H237.777V76.7221C239.262 76.7221 240.37 76.3467 240.37 76.3467V80.0154H242.585V80.7843H240.37V86.4262V86.4282Z" fill="#1B1B1B"/>
<path d="M188.844 101.992C189.003 102.881 190.289 106.234 192.879 106.234C194.502 106.234 195.154 105.327 195.154 104.301C195.154 100.652 188.328 102.683 188.328 97.6921C188.328 94.7543 190.762 93.7856 192.56 93.7856C194.203 93.7856 195.054 94.3169 195.371 94.3169C195.707 94.3169 195.805 93.8836 195.805 93.8836H196.458C196.458 94.5346 196.419 95.0079 196.419 95.639C196.419 96.5657 196.458 97.0989 196.458 97.73H195.805C195.647 96.8632 194.52 94.4567 192.402 94.4567C191.214 94.4567 190.403 95.1856 190.403 96.2122C190.403 99.5653 197.429 97.6321 197.429 102.919C197.429 105.818 195.233 106.983 192.817 106.983C190.72 106.983 189.632 106.272 189.275 106.272C188.861 106.272 188.78 106.745 188.78 106.745H188.127C188.127 105.798 188.186 105.227 188.186 104.281C188.186 103.334 188.127 102.801 188.127 101.992H188.84H188.844Z" fill="#1B1B1B"/>
<path d="M200.837 92.6416C201.648 92.6416 202.419 93.1728 202.419 94.1414C202.419 95.1101 201.648 95.6413 200.837 95.6413C200.025 95.6413 199.234 95.1101 199.234 94.1414C199.234 93.1728 200.006 92.6416 200.837 92.6416Z" fill="#1B1B1B"/>
<path d="M203.469 105.918V106.587C202.518 106.587 201.964 106.507 200.817 106.507C199.668 106.507 199.136 106.587 198.164 106.587V105.918L199.509 105.818V99.3097C199.509 98.2252 199.152 98.2252 198.164 98.2252V97.5542L202.121 97.3564V105.82L203.467 105.92L203.469 105.918Z" fill="#1B1B1B"/>
<path d="M209.147 105.916V106.587C208.196 106.587 207.683 106.507 206.533 106.507C205.383 106.507 204.852 106.587 203.883 106.587V105.916L205.227 105.818V99.2678C205.227 98.2233 204.89 98.2233 203.883 98.2233V97.5522L207.683 97.3565L207.723 99.0721H207.743C208.416 97.9856 209.484 97.1987 211.049 97.1987C212.711 97.1987 213.899 98.2053 213.899 100.692V105.82L215.263 105.918V106.589C214.294 106.589 213.759 106.509 212.612 106.509C211.467 106.509 210.97 106.589 210 106.589V105.918L211.307 105.82V101.263C211.307 99.132 211.068 98.3631 210.021 98.3631C209.051 98.3631 207.844 99.5074 207.844 101.441V105.82L209.149 105.918L209.147 105.916Z" fill="#1B1B1B"/>
<path d="M225.808 105.069C225.808 105.069 225.529 106.865 223.492 106.865C222.523 106.865 221.711 106.471 221.375 105.483H221.334C220.9 106.312 220.069 106.943 218.624 106.943C217.18 106.943 215.598 106.312 215.598 104.239C215.598 101.674 218.624 101.439 221.315 101.457V100.49C221.373 98.9124 221.234 97.8659 219.948 97.8659C218.959 97.8659 218.524 98.3591 218.424 98.5569C218.424 98.5569 218.861 98.7945 218.861 99.4656C218.861 100.137 218.346 100.648 217.535 100.648C216.723 100.648 216.209 100.175 216.209 99.3857C216.209 97.9857 218.01 97.1968 220.147 97.1968C223.609 97.1968 223.904 99.148 223.867 101.003L223.768 104.732C223.749 105.343 223.945 105.759 224.379 105.759C224.954 105.759 225.153 104.91 225.153 104.91L225.806 105.068L225.808 105.069ZM221.276 102.13C218.822 102.09 218.27 102.741 218.27 103.983C218.27 105.147 218.725 105.739 219.556 105.739C220.327 105.739 221.198 105.069 221.237 103.65L221.276 102.13Z" fill="#1B1B1B"/>
<path d="M228.499 92.6416C229.31 92.6416 230.081 93.1728 230.081 94.1414C230.081 95.1101 229.31 95.6413 228.499 95.6413C227.687 95.6413 226.896 95.1101 226.896 94.1414C226.896 93.1728 227.668 92.6416 228.499 92.6416Z" fill="#1B1B1B"/>
<path d="M231.129 105.918V106.587C230.179 106.587 229.624 106.507 228.479 106.507C227.333 106.507 226.798 106.587 225.826 106.587V105.918L227.17 105.818V99.3097C227.17 98.2252 226.814 98.2252 225.826 98.2252V97.5542L229.782 97.3564V105.82L231.127 105.92L231.129 105.918Z" fill="#1B1B1B"/>
<path d="M140.815 106.755H135.797L159.465 71.0981L162.129 74.9426L140.815 106.755Z" fill="#29292B"/>
<path d="M149.698 106.755H144.68L163.874 77.4634L166.537 81.3098L149.698 106.755Z" fill="#29292B"/>
<path d="M156.243 66.4431C156.071 66.1954 155.776 65.5923 155.121 65.5923C154.466 65.5923 154.17 66.2114 153.999 66.4431L126.918 106.755H131.938L157.775 68.6539L156.245 66.4451L156.243 66.4431Z" fill="#29292B"/>
<path d="M143.374 72.3766C143.201 72.129 142.907 71.5278 142.25 71.5278C141.593 71.5278 141.298 72.1449 141.128 72.3766L118.037 106.755H123.055L144.874 74.6294L143.374 72.3766Z" fill="#29292B"/>
<path d="M143.367 72.3781C143.195 72.1304 142.901 71.5293 142.246 71.5293C141.591 71.5293 141.294 72.1484 141.122 72.3781L139.605 74.6428L161.378 106.753H166.398L143.367 72.3781Z" fill="#919191"/>
<path d="M156.239 66.445C156.066 66.1974 155.77 65.5942 155.117 65.5942C154.464 65.5942 154.165 66.2133 153.993 66.445L152.477 68.7098L179.127 106.755H184.145L156.239 66.445Z" fill="#919191"/>
<path d="M162.125 74.9484L159.463 71.104L156.879 74.9944L159.545 78.8009L162.125 74.9484Z" fill="#919191"/>
<path d="M166.532 81.3158L163.87 77.4673L161.328 81.3457L163.994 85.1503L166.532 81.3158Z" fill="#919191"/>
<path d="M170.252 106.755H175.272L150.921 71.0464L148.291 74.9388L170.252 106.755Z" fill="#919191"/>
<path d="M156.239 66.445C156.066 66.1974 155.77 65.5942 155.117 65.5942C155.033 65.5942 154.957 65.6042 154.882 65.6222C154.38 65.746 154.147 66.2413 153.997 66.445L152.625 68.4861L152.475 68.7098L155.147 72.5243L157.769 68.6598L156.237 66.447L156.239 66.445Z" fill="#919191"/>
<path d="M150.921 71.0464L148.291 74.9388L150.923 78.7533L153.543 74.8908L150.921 71.0464Z" fill="#919191"/>
<path d="M155.314 85.1143L157.892 81.2678L155.268 77.4214L152.688 81.3078L155.314 85.1143Z" fill="#919191"/>
<path d="M159.759 91.5509L162.293 87.7224L159.671 83.876L157.133 87.7484L159.759 91.5509Z" fill="#919191"/>
<path d="M143.368 72.3781C143.195 72.1304 142.901 71.5293 142.246 71.5293C142.162 71.5293 142.086 71.5393 142.011 71.5553C141.509 71.6791 141.278 72.1744 141.126 72.3761L139.604 74.6428L142.232 78.5193L144.872 74.6288L144.852 74.5989L143.366 72.3781H143.368Z" fill="#919191"/>
<path d="M149.273 81.1921L146.684 77.3296L144.07 81.224L146.658 85.0446L149.273 81.1921Z" fill="#919191"/>
<path d="M153.609 87.6645L151.027 83.812L148.455 87.6905L151.037 91.503L153.609 87.6645Z" fill="#919191"/>
<path d="M157.997 94.2152L155.419 90.3667L152.885 94.2292L155.467 98.0357L157.997 94.2152Z" fill="#919191"/>
</g>
</g>
</g>
<g clip-path="url(#clip2_63_861)">
<g clip-path="url(#clip3_63_861)">
<mask id="mask1_63_861" style="mask-type:luminance" maskUnits="userSpaceOnUse" x="118" y="65" width="125" height="42">
<path d="M242.961 65.5923H118.037V106.983H242.961V65.5923Z" fill="white"/>
</mask>
<g mask="url(#mask1_63_861)">
<path d="M187.242 88.3814C188.31 88.3814 189.121 88.1637 189.121 86.1126V77.2953L187.559 77.2154V76.5444L192.346 76.6243L195.413 85.0083H195.433L198.54 76.6243L203.27 76.5444V77.2154L201.667 77.2953V88.3015L203.27 88.3814V89.0524C202.478 89.0524 200.994 88.9726 200.203 88.9726C199.412 88.9726 198.005 89.0524 197.214 89.0524V88.3814L198.797 88.3015V78.1621H198.756L194.86 89.0125H193.891L189.952 78.1621H189.912V86.1126C189.912 88.1637 190.686 88.3814 191.949 88.3814V89.0524C190.962 89.0524 190.389 88.9726 189.596 88.9726C188.803 88.9726 188.23 89.0524 187.242 89.0524V88.3814Z" fill="#1B1B1B"/>
<path d="M203.605 84.5931C203.605 81.2399 205.881 79.6802 208.415 79.6802C210.95 79.6802 213.243 81.0422 213.243 84.3954C213.243 87.7485 211.027 89.3083 208.415 89.3083C205.803 89.3083 203.605 87.9663 203.605 84.5931ZM210.354 84.4953C210.354 81.8111 209.819 80.3532 208.415 80.3532C207.011 80.3532 206.496 81.8131 206.496 84.4953C206.496 87.1774 207.051 88.6373 208.415 88.6373C209.779 88.6373 210.354 87.1974 210.354 84.4953Z" fill="#1B1B1B"/>
<path d="M214.922 81.773C214.922 80.6886 214.587 80.6886 213.578 80.6886V80.0176L217.534 79.8198V85.2441C217.534 87.1393 217.574 88.104 218.8 88.104C219.769 88.104 220.995 86.9596 220.995 85.0264V81.7711C220.995 80.6866 220.541 80.6866 219.669 80.6866V80.0156L223.608 79.8179V88.2617L224.954 88.3017V88.9707L221.154 89.1684L221.096 87.413H221.076C220.443 88.4775 219.335 89.2663 217.771 89.2663C215.694 89.2663 214.92 88.2018 214.92 85.953V81.7711L214.922 81.773Z" fill="#1B1B1B"/>
<path d="M230.634 88.3816V89.0526C229.684 89.0526 229.169 88.9727 228.022 88.9727C226.873 88.9727 226.34 89.0526 225.371 89.0526V88.3816L226.715 88.2837V81.7351C226.715 80.6886 226.379 80.6886 225.371 80.6886V80.0176L229.169 79.8219L229.209 81.5374H229.229C229.902 80.453 230.97 79.6641 232.535 79.6641C234.196 79.6641 235.383 80.6706 235.383 83.157V88.2857L236.749 88.3835V89.0546C235.78 89.0546 235.245 88.9747 234.097 88.9747C232.949 88.9747 232.454 89.0546 231.485 89.0546V88.3835L232.791 88.2857V83.7282C232.791 81.5973 232.553 80.8284 231.505 80.8284C230.535 80.8284 229.327 81.9728 229.327 83.906V88.2857L230.634 88.3835V88.3816Z" fill="#1B1B1B"/>
<path d="M240.37 86.4282C240.331 87.6524 240.37 88.3215 241.181 88.3215C241.914 88.3215 242.328 87.2769 242.328 87.2769L242.961 87.5126C242.961 87.5126 242.547 89.328 240.467 89.328C238.034 89.328 237.777 88.0059 237.777 86.4681V80.7863H236.293V80.0174H237.777V76.7221C239.262 76.7221 240.37 76.3467 240.37 76.3467V80.0154H242.585V80.7843H240.37V86.4262V86.4282Z" fill="#1B1B1B"/>
<path d="M188.844 101.992C189.003 102.881 190.289 106.234 192.879 106.234C194.502 106.234 195.154 105.327 195.154 104.301C195.154 100.652 188.328 102.683 188.328 97.6921C188.328 94.7543 190.762 93.7856 192.56 93.7856C194.203 93.7856 195.054 94.3169 195.371 94.3169C195.707 94.3169 195.805 93.8836 195.805 93.8836H196.458C196.458 94.5346 196.419 95.0079 196.419 95.639C196.419 96.5657 196.458 97.0989 196.458 97.73H195.805C195.647 96.8632 194.52 94.4567 192.402 94.4567C191.214 94.4567 190.403 95.1856 190.403 96.2122C190.403 99.5653 197.429 97.6321 197.429 102.919C197.429 105.818 195.233 106.983 192.817 106.983C190.72 106.983 189.632 106.272 189.275 106.272C188.861 106.272 188.78 106.745 188.78 106.745H188.127C188.127 105.798 188.186 105.227 188.186 104.281C188.186 103.334 188.127 102.801 188.127 101.992H188.84H188.844Z" fill="#1B1B1B"/>
<path d="M200.837 92.6416C201.648 92.6416 202.419 93.1728 202.419 94.1414C202.419 95.1101 201.648 95.6413 200.837 95.6413C200.025 95.6413 199.234 95.1101 199.234 94.1414C199.234 93.1728 200.006 92.6416 200.837 92.6416Z" fill="#1B1B1B"/>
<path d="M203.469 105.918V106.587C202.518 106.587 201.964 106.507 200.817 106.507C199.668 106.507 199.136 106.587 198.164 106.587V105.918L199.509 105.818V99.3097C199.509 98.2252 199.152 98.2252 198.164 98.2252V97.5542L202.121 97.3564V105.82L203.467 105.92L203.469 105.918Z" fill="#1B1B1B"/>
<path d="M209.147 105.916V106.587C208.196 106.587 207.683 106.507 206.533 106.507C205.383 106.507 204.852 106.587 203.883 106.587V105.916L205.227 105.818V99.2678C205.227 98.2233 204.89 98.2233 203.883 98.2233V97.5522L207.683 97.3565L207.723 99.0721H207.743C208.416 97.9856 209.484 97.1987 211.049 97.1987C212.711 97.1987 213.899 98.2053 213.899 100.692V105.82L215.263 105.918V106.589C214.294 106.589 213.759 106.509 212.612 106.509C211.467 106.509 210.97 106.589 210 106.589V105.918L211.307 105.82V101.263C211.307 99.132 211.068 98.3631 210.021 98.3631C209.051 98.3631 207.844 99.5074 207.844 101.441V105.82L209.149 105.918L209.147 105.916Z" fill="#1B1B1B"/>
<path d="M225.808 105.069C225.808 105.069 225.529 106.865 223.492 106.865C222.523 106.865 221.711 106.471 221.375 105.483H221.334C220.9 106.312 220.069 106.943 218.624 106.943C217.18 106.943 215.598 106.312 215.598 104.239C215.598 101.674 218.624 101.439 221.315 101.457V100.49C221.373 98.9124 221.234 97.8659 219.948 97.8659C218.959 97.8659 218.524 98.3591 218.424 98.5569C218.424 98.5569 218.861 98.7945 218.861 99.4656C218.861 100.137 218.346 100.648 217.535 100.648C216.723 100.648 216.209 100.175 216.209 99.3857C216.209 97.9857 218.01 97.1968 220.147 97.1968C223.609 97.1968 223.904 99.148 223.867 101.003L223.768 104.732C223.749 105.343 223.945 105.759 224.379 105.759C224.954 105.759 225.153 104.91 225.153 104.91L225.806 105.068L225.808 105.069ZM221.276 102.13C218.822 102.09 218.27 102.741 218.27 103.983C218.27 105.147 218.725 105.739 219.556 105.739C220.327 105.739 221.198 105.069 221.237 103.65L221.276 102.13Z" fill="#1B1B1B"/>
<path d="M228.499 92.6416C229.31 92.6416 230.081 93.1728 230.081 94.1414C230.081 95.1101 229.31 95.6413 228.499 95.6413C227.687 95.6413 226.896 95.1101 226.896 94.1414C226.896 93.1728 227.668 92.6416 228.499 92.6416Z" fill="#1B1B1B"/>
<path d="M231.129 105.918V106.587C230.179 106.587 229.624 106.507 228.479 106.507C227.333 106.507 226.798 106.587 225.826 106.587V105.918L227.17 105.818V99.3097C227.17 98.2252 226.814 98.2252 225.826 98.2252V97.5542L229.782 97.3564V105.82L231.127 105.92L231.129 105.918Z" fill="#1B1B1B"/>
<path d="M140.815 106.755H135.797L159.465 71.0981L162.129 74.9426L140.815 106.755Z" fill="#29292B"/>
<path d="M149.698 106.755H144.68L163.874 77.4634L166.537 81.3098L149.698 106.755Z" fill="#29292B"/>
<path d="M156.243 66.4431C156.071 66.1954 155.776 65.5923 155.121 65.5923C154.466 65.5923 154.17 66.2114 153.999 66.4431L126.918 106.755H131.938L157.775 68.6539L156.245 66.4451L156.243 66.4431Z" fill="#29292B"/>
<path d="M143.374 72.3766C143.201 72.129 142.907 71.5278 142.25 71.5278C141.593 71.5278 141.298 72.1449 141.128 72.3766L118.037 106.755H123.055L144.874 74.6294L143.374 72.3766Z" fill="#29292B"/>
<path d="M143.367 72.3781C143.195 72.1304 142.901 71.5293 142.246 71.5293C141.591 71.5293 141.294 72.1484 141.122 72.3781L139.605 74.6428L161.378 106.753H166.398L143.367 72.3781Z" fill="#919191"/>
<path d="M156.239 66.445C156.066 66.1974 155.77 65.5942 155.117 65.5942C154.464 65.5942 154.165 66.2133 153.993 66.445L152.477 68.7098L179.127 106.755H184.145L156.239 66.445Z" fill="#919191"/>
<path d="M162.125 74.9484L159.463 71.104L156.879 74.9944L159.545 78.8009L162.125 74.9484Z" fill="#919191"/>
<path d="M166.532 81.3158L163.87 77.4673L161.328 81.3457L163.994 85.1503L166.532 81.3158Z" fill="#919191"/>
<path d="M170.252 106.755H175.272L150.921 71.0464L148.291 74.9388L170.252 106.755Z" fill="#919191"/>
<path d="M156.239 66.445C156.066 66.1974 155.77 65.5942 155.117 65.5942C155.033 65.5942 154.957 65.6042 154.882 65.6222C154.38 65.746 154.147 66.2413 153.997 66.445L152.625 68.4861L152.475 68.7098L155.147 72.5243L157.769 68.6598L156.237 66.447L156.239 66.445Z" fill="#919191"/>
<path d="M150.921 71.0464L148.291 74.9388L150.923 78.7533L153.543 74.8908L150.921 71.0464Z" fill="#919191"/>
<path d="M155.314 85.1143L157.892 81.2678L155.268 77.4214L152.688 81.3078L155.314 85.1143Z" fill="#919191"/>
<path d="M159.759 91.5509L162.293 87.7224L159.671 83.876L157.133 87.7484L159.759 91.5509Z" fill="#919191"/>
<path d="M143.368 72.3781C143.195 72.1304 142.901 71.5293 142.246 71.5293C142.162 71.5293 142.086 71.5393 142.011 71.5553C141.509 71.6791 141.278 72.1744 141.126 72.3761L139.604 74.6428L142.232 78.5193L144.872 74.6288L144.852 74.5989L143.366 72.3781H143.368Z" fill="#919191"/>
<path d="M149.273 81.1921L146.684 77.3296L144.07 81.224L146.658 85.0446L149.273 81.1921Z" fill="#919191"/>
<path d="M153.609 87.6645L151.027 83.812L148.455 87.6905L151.037 91.503L153.609 87.6645Z" fill="#919191"/>
<path d="M157.997 94.2152L155.419 90.3667L152.885 94.2292L155.467 98.0357L157.997 94.2152Z" fill="#919191"/>
</g>
</g>
</g>
<defs>
<clipPath id="clip0_63_861">
<rect width="138.47" height="60.208" fill="white" transform="translate(111.264 61.8276)"/>
</clipPath>
<clipPath id="clip1_63_861">
<rect width="138.47" height="60.208" fill="white" transform="translate(111.264 61.8276)"/>
</clipPath>
<clipPath id="clip2_63_861">
<rect width="138.47" height="60.208" fill="white" transform="translate(111.264 61.8276)"/>
</clipPath>
<clipPath id="clip3_63_861">
<rect width="138.47" height="60.208" fill="white" transform="translate(111.264 61.8276)"/>
</clipPath>
</defs>
</svg>
