<svg width="361" height="182" viewBox="0 0 361 182" fill="none" xmlns="http://www.w3.org/2000/svg">
<rect x="0.621094" y="0.846191" width="359.06" height="180.449" rx="7.5" stroke="#E8EEF4"/>
<g clip-path="url(#clip0_63_736)">
<g clip-path="url(#clip1_63_736)">
<g opacity="0.85">
<path d="M158.077 81.3975C157.825 81.3975 157.61 81.5798 157.571 81.8282L154.648 100.269C154.638 100.336 154.642 100.405 154.661 100.471C154.679 100.536 154.712 100.597 154.756 100.649C154.801 100.701 154.856 100.742 154.918 100.771C154.981 100.799 155.048 100.814 155.117 100.814H158.583C158.835 100.814 159.05 100.631 159.089 100.383L159.948 94.9683C159.987 94.7203 160.201 94.5375 160.454 94.5375H163.605C167.286 94.5375 170.412 91.8647 170.982 88.2428C171.558 84.5903 168.69 81.4054 164.626 81.3975H158.077ZM161.446 85.5141H163.967C166.042 85.5141 166.718 86.7327 166.505 88.0803C166.291 89.4308 165.241 90.4255 163.233 90.4255H160.668L161.446 85.5141ZM178.031 86.7676C177.156 86.7709 176.149 86.9493 175.019 87.4179C172.425 88.4934 171.18 90.716 170.651 92.3365C170.651 92.3365 168.968 97.2803 172.771 99.9964C172.771 99.9964 176.298 102.611 180.268 99.8353L180.2 100.269C180.189 100.336 180.193 100.405 180.212 100.471C180.23 100.536 180.263 100.597 180.308 100.649C180.352 100.7 180.407 100.742 180.469 100.771C180.532 100.799 180.599 100.814 180.668 100.814H183.958C184.21 100.814 184.425 100.631 184.464 100.383L186.465 87.7552C186.476 87.6879 186.472 87.619 186.453 87.5533C186.435 87.4877 186.402 87.4268 186.357 87.375C186.313 87.323 186.258 87.2813 186.196 87.2527C186.133 87.2241 186.065 87.2092 185.997 87.2092H182.707C182.455 87.2092 182.24 87.3919 182.201 87.6399L182.093 88.3196C182.093 88.3196 180.657 86.7579 178.031 86.7676ZM178.139 90.7564C178.516 90.7564 178.862 90.8083 179.172 90.9074C180.592 91.3608 181.396 92.7178 181.164 94.1887C180.876 95.9997 179.384 97.3333 177.469 97.3333C177.092 97.3333 176.746 97.2817 176.436 97.1826C175.017 96.7293 174.207 95.3723 174.44 93.9014C174.727 92.0903 176.224 90.7564 178.139 90.7564Z" fill="#1B1B1B"/>
<path d="M205.454 81.3975C205.201 81.3975 204.987 81.5798 204.948 81.8282L202.025 100.269C202.015 100.336 202.019 100.405 202.037 100.471C202.056 100.536 202.089 100.597 202.134 100.649C202.178 100.701 202.233 100.742 202.295 100.771C202.358 100.799 202.426 100.814 202.494 100.814H205.96C206.212 100.814 206.426 100.631 206.466 100.383L207.324 94.9683C207.363 94.7203 207.579 94.5375 207.831 94.5375H210.982C214.663 94.5375 217.788 91.8647 218.359 88.2428C218.934 84.5903 216.067 81.4054 212.003 81.3975H205.454ZM208.823 85.5141H211.344C213.419 85.5141 214.095 86.7327 213.881 88.0803C213.668 89.4308 212.619 90.4255 210.611 90.4255H208.044L208.823 85.5141ZM225.408 86.7676C224.533 86.7709 223.526 86.9493 222.395 87.4179C219.802 88.4934 218.556 90.716 218.028 92.3365C218.028 92.3365 216.345 97.2803 220.148 99.9964C220.148 99.9964 223.675 102.611 227.645 99.8353L227.577 100.269C227.566 100.336 227.57 100.405 227.589 100.471C227.608 100.536 227.64 100.597 227.684 100.649C227.73 100.701 227.785 100.742 227.847 100.771C227.909 100.799 227.976 100.814 228.045 100.814H231.335C231.587 100.814 231.802 100.631 231.841 100.383L233.844 87.7552C233.854 87.6878 233.85 87.6189 233.832 87.5532C233.813 87.4875 233.78 87.4266 233.735 87.3747C233.691 87.3228 233.636 87.2811 233.573 87.2525C233.511 87.224 233.443 87.2092 233.375 87.2092H230.084C229.832 87.2092 229.617 87.3919 229.578 87.6399L229.47 88.3196C229.47 88.3196 228.034 86.7579 225.408 86.7676ZM225.516 90.7564C225.893 90.7564 226.239 90.8083 226.549 90.9074C227.968 91.3608 228.773 92.7178 228.54 94.1887C228.253 95.9997 226.76 97.3333 224.846 97.3333C224.469 97.3333 224.123 97.2817 223.812 97.1826C222.393 96.7293 221.583 95.3723 221.817 93.9014C222.103 92.0903 223.601 90.7564 225.516 90.7564Z" fill="#1B1B1B"/>
<path d="M188.028 87.2094C187.767 87.2094 187.582 87.4628 187.661 87.7096L191.268 98.8469L188.007 104.095C187.848 104.35 188.032 104.679 188.333 104.679H192.188C192.298 104.679 192.406 104.651 192.503 104.597C192.598 104.543 192.679 104.465 192.736 104.371L202.809 87.7896C202.964 87.5348 202.779 87.209 202.48 87.209H198.626C198.515 87.2091 198.405 87.238 198.309 87.2929C198.212 87.3478 198.131 87.4269 198.075 87.5222L194.109 94.1834L192.097 87.5716C192.031 87.3564 191.831 87.209 191.606 87.209L188.028 87.2094Z" fill="#1B1B1B"/>
<path d="M237.582 81.3975C237.329 81.3975 237.115 81.5802 237.076 81.8282L234.152 100.268C234.142 100.336 234.146 100.404 234.164 100.47C234.183 100.536 234.216 100.597 234.26 100.649C234.305 100.701 234.36 100.742 234.422 100.771C234.485 100.799 234.552 100.814 234.621 100.814H238.087C238.339 100.814 238.554 100.631 238.593 100.383L241.515 81.9428C241.526 81.8754 241.522 81.8066 241.503 81.7411C241.484 81.6755 241.452 81.6148 241.408 81.563C241.363 81.5112 241.308 81.4696 241.246 81.441C241.183 81.4124 241.116 81.3975 241.047 81.3975H237.582Z" fill="#1B1B1B"/>
<path opacity="0.8" d="M129.187 81.3975C128.964 81.3976 128.748 81.477 128.578 81.6214C128.408 81.7657 128.296 81.9656 128.261 82.185L126.723 91.8931C126.794 91.4398 127.187 91.1056 127.648 91.1056H132.156C136.693 91.1056 140.543 87.8125 141.246 83.3498C141.298 83.0166 141.328 82.6803 141.335 82.3432C140.182 81.7416 138.827 81.3975 137.343 81.3975H129.187Z" fill="#1B1B1B"/>
<path opacity="0.5" d="M141.332 82.3438C141.325 82.6809 141.296 83.0172 141.243 83.3504C140.54 87.8131 136.69 91.1062 132.154 91.1062H127.646C127.185 91.1062 126.792 91.4399 126.72 91.8937L125.306 100.815L124.42 106.411C124.402 106.519 124.409 106.63 124.439 106.735C124.468 106.841 124.521 106.939 124.592 107.022C124.664 107.105 124.753 107.172 124.852 107.218C124.952 107.264 125.061 107.287 125.171 107.287H130.064C130.287 107.287 130.503 107.208 130.673 107.063C130.843 106.919 130.955 106.719 130.99 106.5L132.279 98.3661C132.314 98.1466 132.426 97.9466 132.596 97.8023C132.766 97.658 132.982 97.5786 133.205 97.5786H136.086C140.623 97.5786 144.472 94.2854 145.176 89.8228C145.675 86.6554 144.072 83.7732 141.332 82.3438Z" fill="#1B1B1B"/>
<path d="M123.626 74.9263C123.165 74.9263 122.772 75.26 122.7 75.7131L118.861 99.9389C118.788 100.399 119.145 100.815 119.613 100.815H125.307L126.721 91.8937L128.259 82.1854C128.294 81.966 128.406 81.7662 128.576 81.6219C128.746 81.4775 128.962 81.3981 129.185 81.3979H137.342C138.826 81.3979 140.18 81.7425 141.333 82.3437C141.412 78.2807 138.042 74.9263 133.41 74.9263H123.626Z" fill="#1B1B1B"/>
</g>
</g>
</g>
<g clip-path="url(#clip2_63_736)">
<g clip-path="url(#clip3_63_736)">
<g opacity="0.85">
<path d="M158.077 81.3975C157.825 81.3975 157.61 81.5798 157.571 81.8282L154.648 100.269C154.638 100.336 154.642 100.405 154.661 100.471C154.679 100.536 154.712 100.597 154.756 100.649C154.801 100.701 154.856 100.742 154.918 100.771C154.981 100.799 155.048 100.814 155.117 100.814H158.583C158.835 100.814 159.05 100.631 159.089 100.383L159.948 94.9683C159.987 94.7203 160.201 94.5375 160.454 94.5375H163.605C167.286 94.5375 170.412 91.8647 170.982 88.2428C171.558 84.5903 168.69 81.4054 164.626 81.3975H158.077ZM161.446 85.5141H163.967C166.042 85.5141 166.718 86.7327 166.505 88.0803C166.291 89.4308 165.241 90.4255 163.233 90.4255H160.668L161.446 85.5141ZM178.031 86.7676C177.156 86.7709 176.149 86.9493 175.019 87.4179C172.425 88.4934 171.18 90.716 170.651 92.3365C170.651 92.3365 168.968 97.2803 172.771 99.9964C172.771 99.9964 176.298 102.611 180.268 99.8353L180.2 100.269C180.189 100.336 180.193 100.405 180.212 100.471C180.23 100.536 180.263 100.597 180.308 100.649C180.352 100.7 180.407 100.742 180.469 100.771C180.532 100.799 180.599 100.814 180.668 100.814H183.958C184.21 100.814 184.425 100.631 184.464 100.383L186.465 87.7552C186.476 87.6879 186.472 87.619 186.453 87.5533C186.435 87.4877 186.402 87.4268 186.357 87.375C186.313 87.323 186.258 87.2813 186.196 87.2527C186.133 87.2241 186.065 87.2092 185.997 87.2092H182.707C182.455 87.2092 182.24 87.3919 182.201 87.6399L182.093 88.3196C182.093 88.3196 180.657 86.7579 178.031 86.7676ZM178.139 90.7564C178.516 90.7564 178.862 90.8083 179.172 90.9074C180.592 91.3608 181.396 92.7178 181.164 94.1887C180.876 95.9997 179.384 97.3333 177.469 97.3333C177.092 97.3333 176.746 97.2817 176.436 97.1826C175.017 96.7293 174.207 95.3723 174.44 93.9014C174.727 92.0903 176.224 90.7564 178.139 90.7564Z" fill="#1B1B1B"/>
<path d="M205.454 81.3975C205.201 81.3975 204.987 81.5798 204.948 81.8282L202.025 100.269C202.015 100.336 202.019 100.405 202.037 100.471C202.056 100.536 202.089 100.597 202.134 100.649C202.178 100.701 202.233 100.742 202.295 100.771C202.358 100.799 202.426 100.814 202.494 100.814H205.96C206.212 100.814 206.426 100.631 206.466 100.383L207.324 94.9683C207.363 94.7203 207.579 94.5375 207.831 94.5375H210.982C214.663 94.5375 217.788 91.8647 218.359 88.2428C218.934 84.5903 216.067 81.4054 212.003 81.3975H205.454ZM208.823 85.5141H211.344C213.419 85.5141 214.095 86.7327 213.881 88.0803C213.668 89.4308 212.619 90.4255 210.611 90.4255H208.044L208.823 85.5141ZM225.408 86.7676C224.533 86.7709 223.526 86.9493 222.395 87.4179C219.802 88.4934 218.556 90.716 218.028 92.3365C218.028 92.3365 216.345 97.2803 220.148 99.9964C220.148 99.9964 223.675 102.611 227.645 99.8353L227.577 100.269C227.566 100.336 227.57 100.405 227.589 100.471C227.608 100.536 227.64 100.597 227.684 100.649C227.73 100.701 227.785 100.742 227.847 100.771C227.909 100.799 227.976 100.814 228.045 100.814H231.335C231.587 100.814 231.802 100.631 231.841 100.383L233.844 87.7552C233.854 87.6878 233.85 87.6189 233.832 87.5532C233.813 87.4875 233.78 87.4266 233.735 87.3747C233.691 87.3228 233.636 87.2811 233.573 87.2525C233.511 87.224 233.443 87.2092 233.375 87.2092H230.084C229.832 87.2092 229.617 87.3919 229.578 87.6399L229.47 88.3196C229.47 88.3196 228.034 86.7579 225.408 86.7676ZM225.516 90.7564C225.893 90.7564 226.239 90.8083 226.549 90.9074C227.968 91.3608 228.773 92.7178 228.54 94.1887C228.253 95.9997 226.76 97.3333 224.846 97.3333C224.469 97.3333 224.123 97.2817 223.812 97.1826C222.393 96.7293 221.583 95.3723 221.817 93.9014C222.103 92.0903 223.601 90.7564 225.516 90.7564Z" fill="#1B1B1B"/>
<path d="M188.028 87.2094C187.767 87.2094 187.582 87.4628 187.661 87.7096L191.268 98.8469L188.007 104.095C187.848 104.35 188.032 104.679 188.333 104.679H192.188C192.298 104.679 192.406 104.651 192.503 104.597C192.598 104.543 192.679 104.465 192.736 104.371L202.809 87.7896C202.964 87.5348 202.779 87.209 202.48 87.209H198.626C198.515 87.2091 198.405 87.238 198.309 87.2929C198.212 87.3478 198.131 87.4269 198.075 87.5222L194.109 94.1834L192.097 87.5716C192.031 87.3564 191.831 87.209 191.606 87.209L188.028 87.2094Z" fill="#1B1B1B"/>
<path d="M237.582 81.3975C237.329 81.3975 237.115 81.5802 237.076 81.8282L234.152 100.268C234.142 100.336 234.146 100.404 234.164 100.47C234.183 100.536 234.216 100.597 234.26 100.649C234.305 100.701 234.36 100.742 234.422 100.771C234.485 100.799 234.552 100.814 234.621 100.814H238.087C238.339 100.814 238.554 100.631 238.593 100.383L241.515 81.9428C241.526 81.8754 241.522 81.8066 241.503 81.7411C241.484 81.6755 241.452 81.6148 241.408 81.563C241.363 81.5112 241.308 81.4696 241.246 81.441C241.183 81.4124 241.116 81.3975 241.047 81.3975H237.582Z" fill="#1B1B1B"/>
<path opacity="0.8" d="M129.187 81.3975C128.964 81.3976 128.748 81.477 128.578 81.6214C128.408 81.7657 128.296 81.9656 128.261 82.185L126.723 91.8931C126.794 91.4398 127.187 91.1056 127.648 91.1056H132.156C136.693 91.1056 140.543 87.8125 141.246 83.3498C141.298 83.0166 141.328 82.6803 141.335 82.3432C140.182 81.7416 138.827 81.3975 137.343 81.3975H129.187Z" fill="#1B1B1B"/>
<path opacity="0.5" d="M141.332 82.3438C141.325 82.6809 141.296 83.0172 141.243 83.3504C140.54 87.8131 136.69 91.1062 132.154 91.1062H127.646C127.185 91.1062 126.792 91.4399 126.72 91.8937L125.306 100.815L124.42 106.411C124.402 106.519 124.409 106.63 124.439 106.735C124.468 106.841 124.521 106.939 124.592 107.022C124.664 107.105 124.753 107.172 124.852 107.218C124.952 107.264 125.061 107.287 125.171 107.287H130.064C130.287 107.287 130.503 107.208 130.673 107.063C130.843 106.919 130.955 106.719 130.99 106.5L132.279 98.3661C132.314 98.1466 132.426 97.9466 132.596 97.8023C132.766 97.658 132.982 97.5786 133.205 97.5786H136.086C140.623 97.5786 144.472 94.2854 145.176 89.8228C145.675 86.6554 144.072 83.7732 141.332 82.3438Z" fill="#1B1B1B"/>
<path d="M123.626 74.9263C123.165 74.9263 122.772 75.26 122.7 75.7131L118.861 99.9389C118.788 100.399 119.145 100.815 119.613 100.815H125.307L126.721 91.8937L128.259 82.1854C128.294 81.966 128.406 81.7662 128.576 81.6219C128.746 81.4775 128.962 81.3981 129.185 81.3979H137.342C138.826 81.3979 140.18 81.7425 141.333 82.3437C141.412 78.2807 138.042 74.9263 133.41 74.9263H123.626Z" fill="#1B1B1B"/>
</g>
</g>
</g>
<defs>
<clipPath id="clip0_63_736">
<rect width="139.98" height="60.208" fill="white" transform="translate(110.574 61.3789)"/>
</clipPath>
<clipPath id="clip1_63_736">
<rect width="139.98" height="60.208" fill="white" transform="translate(110.574 61.3789)"/>
</clipPath>
<clipPath id="clip2_63_736">
<rect width="139.98" height="60.208" fill="white" transform="translate(110.574 61.3789)"/>
</clipPath>
<clipPath id="clip3_63_736">
<rect width="139.98" height="60.208" fill="white" transform="translate(110.574 61.3789)"/>
</clipPath>
</defs>
</svg>
