<svg width="361" height="183" viewBox="0 0 361 183" fill="none" xmlns="http://www.w3.org/2000/svg">
<rect x="0.5" y="1.39746" width="359.06" height="180.449" rx="7.5" stroke="#E8EEF4"/>
<g clip-path="url(#clip0_63_632)">
<g clip-path="url(#clip1_63_632)">
<g opacity="0.85">
<path d="M223.238 89.248C222.471 90.8899 221.828 92.4001 221.125 93.9102C220.932 94.3055 220.803 94.8275 220.422 94.8275C219.908 94.8275 219.844 94.3004 219.656 93.8443C219.076 92.5318 218.503 91.2193 217.923 89.9727C217.794 89.7751 217.794 89.3797 217.538 89.4457C217.216 89.5115 217.28 89.9068 217.28 90.1652C217.28 92.7903 217.28 95.4153 217.28 98.1062C217.28 98.5015 217.28 98.8917 217.216 99.2869C217.152 99.6823 216.894 99.9457 216.513 99.9457C216.127 99.8799 215.999 99.6163 215.934 99.2869C215.934 99.0234 215.934 98.7599 215.934 98.5015C215.934 94.6299 215.934 90.824 215.934 86.9523C215.934 86.4253 215.805 85.7058 216.384 85.5081C217.028 85.3104 217.409 85.8375 217.666 86.4253C218.369 87.9355 218.947 89.4457 219.65 90.8899C219.844 91.2852 219.908 92.0048 220.417 92.0707C220.997 92.0707 221.061 91.2852 221.249 90.8899C221.952 89.4457 222.53 88.0014 223.233 86.5571C223.491 85.9642 223.812 85.3764 224.515 85.5081C225.217 85.7058 225.029 86.4253 225.029 87.0183C225.029 90.824 225.029 94.6299 225.029 98.4406C225.029 99.0336 225.222 99.9508 224.386 99.9508C223.491 99.9508 223.683 99.0336 223.683 98.3748C223.683 95.8816 223.683 93.3882 223.683 90.8291C223.624 90.297 223.753 89.7751 223.238 89.248Z" fill="#1B1B1B"/>
<path d="M250.733 89.5774C250.347 89.9726 250.476 90.4946 250.476 90.9557C250.476 93.5808 250.476 96.1399 250.476 98.7649C250.476 99.2261 250.605 99.9458 249.961 99.9458C249.258 100.012 249.258 99.2869 249.258 98.7649C249.258 94.7616 249.258 90.7581 249.258 86.6888C249.258 86.2277 249.194 85.6399 249.709 85.5081C250.288 85.3104 250.605 85.7716 250.862 86.2935C251.886 88.6551 252.975 91.0217 254.004 93.4491C254.197 93.9761 254.454 94.4322 254.648 94.9592C254.776 95.2227 254.776 95.618 255.162 95.4862C255.484 95.3545 255.42 94.9592 255.42 94.7008C255.42 92.1416 255.42 89.5824 255.42 87.0233C255.42 86.6939 255.42 86.4304 255.484 86.1061C255.548 85.6449 255.805 85.4473 256.187 85.4473C256.573 85.5131 256.701 85.8425 256.701 86.2327C256.701 87.2158 256.701 88.2041 256.701 89.1872C256.701 92.2734 256.701 95.2886 256.701 98.3747C256.701 98.9018 256.894 99.6214 256.251 99.819C255.548 100.083 255.291 99.3579 255.034 98.7701C253.816 96.0791 252.663 93.3223 251.446 90.6315C251.248 90.2311 251.184 89.775 250.733 89.5774Z" fill="#1B1B1B"/>
<path d="M177.986 92.6635C177.922 94.1077 178.051 95.4861 177.857 96.9304C177.536 98.9625 176.448 99.9507 174.463 99.9507C172.35 99.9507 171.133 99.0334 170.875 96.9962C170.553 94.0418 170.489 91.0215 170.875 88.0722C171.133 86.1668 172.415 85.2495 174.334 85.2495C176.254 85.2495 177.476 86.2326 177.793 88.0722C178.115 89.6431 177.927 91.1533 177.986 92.6635ZM176.704 92.6635C176.704 91.5486 176.769 90.4337 176.704 89.3138C176.64 87.6059 175.745 86.6228 174.27 86.6888C172.859 86.6888 172.028 87.6059 171.964 89.3138C171.9 91.5435 171.9 93.8442 171.964 96.074C172.028 97.7817 172.859 98.699 174.27 98.7649C175.745 98.7649 176.64 97.8476 176.704 96.074C176.769 94.9591 176.704 93.8442 176.704 92.6635Z" fill="#1B1B1B"/>
<path d="M241.315 99.0282C241.315 99.4894 241.251 99.8137 240.865 99.8796C240.544 99.9454 240.286 99.8796 240.162 99.4843C240.098 99.2208 239.97 98.8914 239.905 98.6329C239.326 96.6008 239.326 96.6008 237.599 96.6008C237.406 96.6008 237.213 96.6008 237.02 96.6008C234.843 96.6008 234.843 96.6008 234.071 98.9623C233.942 99.4235 233.878 100.077 233.239 99.8796C232.596 99.616 232.789 98.9623 232.918 98.4353C233.942 94.4978 234.966 90.4943 236.06 86.5568C236.253 85.9639 236.317 85.1125 237.149 85.1784C237.852 85.2443 237.98 85.9639 238.109 86.5568C239.069 90.2967 240.093 94.0366 241.058 97.8474C241.186 98.2377 241.251 98.6329 241.315 99.0282ZM237.02 95.3542C237.213 95.3542 237.47 95.3542 237.664 95.3542C239.074 95.3542 239.138 95.2883 238.688 93.6464C238.302 92.0704 237.921 90.4943 237.47 88.9842C237.406 88.6548 237.47 88.1987 237.084 88.1987C236.699 88.1987 236.634 88.6599 236.57 89.0501C236.248 90.3626 235.927 91.6751 235.546 92.9876C234.902 95.3542 234.966 95.3542 237.02 95.3542Z" fill="#1B1B1B"/>
<path d="M155.43 92.6635C155.43 90.6313 155.43 88.5942 155.43 86.562C155.43 85.5789 155.751 85.2495 156.519 85.2495C157.221 85.2495 157.993 85.2495 158.696 85.2495C161.645 85.3154 162.734 86.6938 162.67 90.1701C162.605 92.5317 161.452 93.91 159.463 94.0418C158.884 94.0418 158.374 94.1077 157.795 94.0418C156.9 93.976 156.577 94.4371 156.642 95.4203C156.706 96.601 156.642 97.7817 156.642 98.8966C156.642 99.3578 156.577 99.8797 155.999 99.8797C155.42 99.8797 155.42 99.3527 155.42 98.8308C155.43 96.7986 155.43 94.6956 155.43 92.6635ZM158.439 92.856C160.299 92.856 161.002 92.3949 161.323 91.0165C161.645 89.6381 161.645 88.3256 160.68 87.2766C159.655 86.2276 158.31 86.6836 157.092 86.7496C156.642 86.7496 156.642 87.3425 156.642 87.7985C156.642 88.7816 156.642 89.7698 156.642 90.7529C156.647 92.856 156.647 92.856 158.439 92.856Z" fill="#1B1B1B"/>
<path d="M189.399 100.077C188.052 100.077 186.964 99.814 186.127 98.7649C185.87 98.4355 185.549 97.9795 185.935 97.5183C186.256 97.123 186.638 97.3866 186.895 97.716C187.662 98.5673 188.498 98.8309 189.522 98.7649C190.483 98.6991 191.19 98.2379 191.571 97.123C191.957 96.0081 191.7 94.9592 190.992 94.1686C190.289 93.3831 189.388 93.0537 188.493 92.5926C187.211 91.9996 186.252 91.1483 186.123 89.3746C185.929 87.0132 186.954 85.7006 189.201 85.2395C190.16 85.0418 191.061 85.3053 191.893 85.6347C192.343 85.7665 192.724 86.1618 192.536 86.7496C192.343 87.4084 191.893 87.1449 191.511 86.9472C190.681 86.4861 189.78 86.4861 188.948 86.6178C188.246 86.7496 187.602 87.2108 187.474 88.128C187.345 89.0452 187.474 89.8358 188.117 90.4237C188.948 91.1433 189.913 91.4068 190.809 91.8679C192.219 92.5875 192.986 93.8392 192.986 95.6737C192.986 97.3815 192.6 98.694 191.19 99.5454C190.552 100.012 189.849 99.9457 189.399 100.077Z" fill="#1B1B1B"/>
<path d="M203.433 93.1855C203.433 91.4778 203.369 89.8359 203.433 88.1331C203.497 86.8865 203.047 86.4912 202.087 86.623C201.701 86.6888 201.255 86.623 200.87 86.623C200.484 86.623 200.227 86.4254 200.227 85.9034C200.227 85.5081 200.484 85.2446 200.805 85.2446C202.983 85.2446 205.165 85.2446 207.342 85.2446C207.664 85.2446 207.921 85.4423 207.921 85.8375C207.921 86.2986 207.664 86.5571 207.278 86.5571C206.827 86.5571 206.318 86.623 205.868 86.5571C204.972 86.4912 204.714 86.9524 204.714 87.9355C204.714 91.1535 204.714 94.4322 204.714 97.6501C204.714 97.9795 204.714 98.3697 204.714 98.6991C204.714 99.2262 204.65 99.814 204.072 99.814C203.428 99.814 203.428 99.2211 203.428 98.6991C203.428 97.1231 203.428 95.6129 203.428 94.0369C203.433 93.7785 203.433 93.5149 203.433 93.1855Z" fill="#1B1B1B"/>
<path d="M136.84 81.5461C136.729 81.6169 136.674 81.7725 136.743 81.8998C136.867 82.1686 136.84 82.494 136.66 82.7203C136.591 82.8052 136.536 82.9608 136.66 83.0457C136.701 83.074 136.743 83.0882 136.784 83.0882C137.102 83.1023 137.226 82.7345 137.282 82.4799C137.337 82.211 137.309 81.914 137.199 81.6593C137.116 81.5461 136.964 81.4895 136.84 81.5461Z" fill="#1B1B1B"/>
<path d="M142.049 79.1838C134.81 69.578 121.327 67.8096 111.932 75.2226C102.552 82.6497 100.825 96.4571 108.064 106.063C115.317 115.669 128.801 117.451 138.181 110.024C147.576 102.597 149.303 88.8036 142.049 79.1838ZM129.298 84.2201C130.003 83.7673 130.887 83.8664 131.522 84.3756C131.177 84.4322 130.845 84.5596 130.583 84.8284L122.68 92.878L121.133 91.2935C125.236 87.1202 127.737 84.9415 129.298 84.2201ZM123.109 93.3165L131.039 85.2669C131.426 84.8708 132.061 84.8708 132.448 85.2669C132.655 85.465 132.766 85.7338 132.752 86.0167C132.738 86.2996 132.614 86.5684 132.406 86.7523L123.993 94.2502L123.109 93.3165ZM123.537 94.7029L121.534 95.0141L122.694 93.8258L123.537 94.7029ZM120.691 91.7603L122.017 93.1043L118.674 93.8399L120.691 91.7603ZM112.07 104.691L113.687 103.035L115.649 104.917L112.07 104.691ZM116.325 102.441C116.118 102.54 115.994 102.795 116.063 103.021L116.422 104.62C116.45 104.662 116.45 104.705 116.422 104.747C116.381 104.79 116.325 104.79 116.284 104.747L114.17 102.569L120.677 95.8064L124.048 95.2688L125.292 96.542C122.529 98.8762 119.531 100.857 116.325 102.441ZM125.858 96.061L124.546 94.7171L132.752 87.3465C132.185 89.7232 129.091 92.9346 125.858 96.061ZM132.475 84.3332C131.895 83.739 131.564 82.9186 131.564 82.0839C131.55 80.3014 132.959 78.8584 134.7 78.8442C135.404 78.8442 136.081 79.0847 136.634 79.5233L133.843 82.3951C133.774 82.4516 133.733 82.5224 133.733 82.6214C133.733 82.7205 133.774 82.8054 133.843 82.862L135.957 85.0264C134.769 85.5357 133.387 85.2669 132.475 84.3332ZM136.938 84.3615C136.813 84.4747 136.689 84.5879 136.551 84.6869L134.534 82.6214L137.104 79.9901C137.601 80.5701 137.877 81.3058 137.877 82.0839C137.863 82.9186 137.532 83.7532 136.938 84.3615Z" fill="#1B1B1B"/>
</g>
</g>
</g>
<g clip-path="url(#clip2_63_632)">
<g clip-path="url(#clip3_63_632)">
<g opacity="0.85">
<path d="M223.238 89.248C222.471 90.8899 221.828 92.4001 221.125 93.9102C220.932 94.3055 220.803 94.8275 220.422 94.8275C219.908 94.8275 219.844 94.3004 219.656 93.8443C219.076 92.5318 218.503 91.2193 217.923 89.9727C217.794 89.7751 217.794 89.3797 217.538 89.4457C217.216 89.5115 217.28 89.9068 217.28 90.1652C217.28 92.7903 217.28 95.4153 217.28 98.1062C217.28 98.5015 217.28 98.8917 217.216 99.2869C217.152 99.6823 216.894 99.9457 216.513 99.9457C216.127 99.8799 215.999 99.6163 215.934 99.2869C215.934 99.0234 215.934 98.7599 215.934 98.5015C215.934 94.6299 215.934 90.824 215.934 86.9523C215.934 86.4253 215.805 85.7058 216.384 85.5081C217.028 85.3104 217.409 85.8375 217.666 86.4253C218.369 87.9355 218.947 89.4457 219.65 90.8899C219.844 91.2852 219.908 92.0048 220.417 92.0707C220.997 92.0707 221.061 91.2852 221.249 90.8899C221.952 89.4457 222.53 88.0014 223.233 86.5571C223.491 85.9642 223.812 85.3764 224.515 85.5081C225.217 85.7058 225.029 86.4253 225.029 87.0183C225.029 90.824 225.029 94.6299 225.029 98.4406C225.029 99.0336 225.222 99.9508 224.386 99.9508C223.491 99.9508 223.683 99.0336 223.683 98.3748C223.683 95.8816 223.683 93.3882 223.683 90.8291C223.624 90.297 223.753 89.7751 223.238 89.248Z" fill="#1B1B1B"/>
<path d="M250.733 89.5774C250.347 89.9726 250.476 90.4946 250.476 90.9557C250.476 93.5808 250.476 96.1399 250.476 98.7649C250.476 99.2261 250.605 99.9458 249.961 99.9458C249.258 100.012 249.258 99.2869 249.258 98.7649C249.258 94.7616 249.258 90.7581 249.258 86.6888C249.258 86.2277 249.194 85.6399 249.709 85.5081C250.288 85.3104 250.605 85.7716 250.862 86.2935C251.886 88.6551 252.975 91.0217 254.004 93.4491C254.197 93.9761 254.454 94.4322 254.648 94.9592C254.776 95.2227 254.776 95.618 255.162 95.4862C255.484 95.3545 255.42 94.9592 255.42 94.7008C255.42 92.1416 255.42 89.5824 255.42 87.0233C255.42 86.6939 255.42 86.4304 255.484 86.1061C255.548 85.6449 255.805 85.4473 256.187 85.4473C256.573 85.5131 256.701 85.8425 256.701 86.2327C256.701 87.2158 256.701 88.2041 256.701 89.1872C256.701 92.2734 256.701 95.2886 256.701 98.3747C256.701 98.9018 256.894 99.6214 256.251 99.819C255.548 100.083 255.291 99.3579 255.034 98.7701C253.816 96.0791 252.663 93.3223 251.446 90.6315C251.248 90.2311 251.184 89.775 250.733 89.5774Z" fill="#1B1B1B"/>
<path d="M177.986 92.6635C177.922 94.1077 178.051 95.4861 177.857 96.9304C177.536 98.9625 176.448 99.9507 174.463 99.9507C172.35 99.9507 171.133 99.0334 170.875 96.9962C170.553 94.0418 170.489 91.0215 170.875 88.0722C171.133 86.1668 172.415 85.2495 174.334 85.2495C176.254 85.2495 177.476 86.2326 177.793 88.0722C178.115 89.6431 177.927 91.1533 177.986 92.6635ZM176.704 92.6635C176.704 91.5486 176.769 90.4337 176.704 89.3138C176.64 87.6059 175.745 86.6228 174.27 86.6888C172.859 86.6888 172.028 87.6059 171.964 89.3138C171.9 91.5435 171.9 93.8442 171.964 96.074C172.028 97.7817 172.859 98.699 174.27 98.7649C175.745 98.7649 176.64 97.8476 176.704 96.074C176.769 94.9591 176.704 93.8442 176.704 92.6635Z" fill="#1B1B1B"/>
<path d="M241.315 99.0282C241.315 99.4894 241.251 99.8137 240.865 99.8796C240.544 99.9454 240.286 99.8796 240.162 99.4843C240.098 99.2208 239.97 98.8914 239.905 98.6329C239.326 96.6008 239.326 96.6008 237.599 96.6008C237.406 96.6008 237.213 96.6008 237.02 96.6008C234.843 96.6008 234.843 96.6008 234.071 98.9623C233.942 99.4235 233.878 100.077 233.239 99.8796C232.596 99.616 232.789 98.9623 232.918 98.4353C233.942 94.4978 234.966 90.4943 236.06 86.5568C236.253 85.9639 236.317 85.1125 237.149 85.1784C237.852 85.2443 237.98 85.9639 238.109 86.5568C239.069 90.2967 240.093 94.0366 241.058 97.8474C241.186 98.2377 241.251 98.6329 241.315 99.0282ZM237.02 95.3542C237.213 95.3542 237.47 95.3542 237.664 95.3542C239.074 95.3542 239.138 95.2883 238.688 93.6464C238.302 92.0704 237.921 90.4943 237.47 88.9842C237.406 88.6548 237.47 88.1987 237.084 88.1987C236.699 88.1987 236.634 88.6599 236.57 89.0501C236.248 90.3626 235.927 91.6751 235.546 92.9876C234.902 95.3542 234.966 95.3542 237.02 95.3542Z" fill="#1B1B1B"/>
<path d="M155.43 92.6635C155.43 90.6313 155.43 88.5942 155.43 86.562C155.43 85.5789 155.751 85.2495 156.519 85.2495C157.221 85.2495 157.993 85.2495 158.696 85.2495C161.645 85.3154 162.734 86.6938 162.67 90.1701C162.605 92.5317 161.452 93.91 159.463 94.0418C158.884 94.0418 158.374 94.1077 157.795 94.0418C156.9 93.976 156.577 94.4371 156.642 95.4203C156.706 96.601 156.642 97.7817 156.642 98.8966C156.642 99.3578 156.577 99.8797 155.999 99.8797C155.42 99.8797 155.42 99.3527 155.42 98.8308C155.43 96.7986 155.43 94.6956 155.43 92.6635ZM158.439 92.856C160.299 92.856 161.002 92.3949 161.323 91.0165C161.645 89.6381 161.645 88.3256 160.68 87.2766C159.655 86.2276 158.31 86.6836 157.092 86.7496C156.642 86.7496 156.642 87.3425 156.642 87.7985C156.642 88.7816 156.642 89.7698 156.642 90.7529C156.647 92.856 156.647 92.856 158.439 92.856Z" fill="#1B1B1B"/>
<path d="M189.399 100.077C188.052 100.077 186.964 99.814 186.127 98.7649C185.87 98.4355 185.549 97.9795 185.935 97.5183C186.256 97.123 186.638 97.3866 186.895 97.716C187.662 98.5673 188.498 98.8309 189.522 98.7649C190.483 98.6991 191.19 98.2379 191.571 97.123C191.957 96.0081 191.7 94.9592 190.992 94.1686C190.289 93.3831 189.388 93.0537 188.493 92.5926C187.211 91.9996 186.252 91.1483 186.123 89.3746C185.929 87.0132 186.954 85.7006 189.201 85.2395C190.16 85.0418 191.061 85.3053 191.893 85.6347C192.343 85.7665 192.724 86.1618 192.536 86.7496C192.343 87.4084 191.893 87.1449 191.511 86.9472C190.681 86.4861 189.78 86.4861 188.948 86.6178C188.246 86.7496 187.602 87.2108 187.474 88.128C187.345 89.0452 187.474 89.8358 188.117 90.4237C188.948 91.1433 189.913 91.4068 190.809 91.8679C192.219 92.5875 192.986 93.8392 192.986 95.6737C192.986 97.3815 192.6 98.694 191.19 99.5454C190.552 100.012 189.849 99.9457 189.399 100.077Z" fill="#1B1B1B"/>
<path d="M203.433 93.1855C203.433 91.4778 203.369 89.8359 203.433 88.1331C203.497 86.8865 203.047 86.4912 202.087 86.623C201.701 86.6888 201.255 86.623 200.87 86.623C200.484 86.623 200.227 86.4254 200.227 85.9034C200.227 85.5081 200.484 85.2446 200.805 85.2446C202.983 85.2446 205.165 85.2446 207.342 85.2446C207.664 85.2446 207.921 85.4423 207.921 85.8375C207.921 86.2986 207.664 86.5571 207.278 86.5571C206.827 86.5571 206.318 86.623 205.868 86.5571C204.972 86.4912 204.714 86.9524 204.714 87.9355C204.714 91.1535 204.714 94.4322 204.714 97.6501C204.714 97.9795 204.714 98.3697 204.714 98.6991C204.714 99.2262 204.65 99.814 204.072 99.814C203.428 99.814 203.428 99.2211 203.428 98.6991C203.428 97.1231 203.428 95.6129 203.428 94.0369C203.433 93.7785 203.433 93.5149 203.433 93.1855Z" fill="#1B1B1B"/>
<path d="M136.84 81.5461C136.729 81.6169 136.674 81.7725 136.743 81.8998C136.867 82.1686 136.84 82.494 136.66 82.7203C136.591 82.8052 136.536 82.9608 136.66 83.0457C136.701 83.074 136.743 83.0882 136.784 83.0882C137.102 83.1023 137.226 82.7345 137.282 82.4799C137.337 82.211 137.309 81.914 137.199 81.6593C137.116 81.5461 136.964 81.4895 136.84 81.5461Z" fill="#1B1B1B"/>
<path d="M142.049 79.1838C134.81 69.578 121.327 67.8096 111.932 75.2226C102.552 82.6497 100.825 96.4571 108.064 106.063C115.317 115.669 128.801 117.451 138.181 110.024C147.576 102.597 149.303 88.8036 142.049 79.1838ZM129.298 84.2201C130.003 83.7673 130.887 83.8664 131.522 84.3756C131.177 84.4322 130.845 84.5596 130.583 84.8284L122.68 92.878L121.133 91.2935C125.236 87.1202 127.737 84.9415 129.298 84.2201ZM123.109 93.3165L131.039 85.2669C131.426 84.8708 132.061 84.8708 132.448 85.2669C132.655 85.465 132.766 85.7338 132.752 86.0167C132.738 86.2996 132.614 86.5684 132.406 86.7523L123.993 94.2502L123.109 93.3165ZM123.537 94.7029L121.534 95.0141L122.694 93.8258L123.537 94.7029ZM120.691 91.7603L122.017 93.1043L118.674 93.8399L120.691 91.7603ZM112.07 104.691L113.687 103.035L115.649 104.917L112.07 104.691ZM116.325 102.441C116.118 102.54 115.994 102.795 116.063 103.021L116.422 104.62C116.45 104.662 116.45 104.705 116.422 104.747C116.381 104.79 116.325 104.79 116.284 104.747L114.17 102.569L120.677 95.8064L124.048 95.2688L125.292 96.542C122.529 98.8762 119.531 100.857 116.325 102.441ZM125.858 96.061L124.546 94.7171L132.752 87.3465C132.185 89.7232 129.091 92.9346 125.858 96.061ZM132.475 84.3332C131.895 83.739 131.564 82.9186 131.564 82.0839C131.55 80.3014 132.959 78.8584 134.7 78.8442C135.404 78.8442 136.081 79.0847 136.634 79.5233L133.843 82.3951C133.774 82.4516 133.733 82.5224 133.733 82.6214C133.733 82.7205 133.774 82.8054 133.843 82.862L135.957 85.0264C134.769 85.5357 133.387 85.2669 132.475 84.3332ZM136.938 84.3615C136.813 84.4747 136.689 84.5879 136.551 84.6869L134.534 82.6214L137.104 79.9901C137.601 80.5701 137.877 81.3058 137.877 82.0839C137.863 82.9186 137.532 83.7532 136.938 84.3615Z" fill="#1B1B1B"/>
</g>
</g>
</g>
<defs>
<clipPath id="clip0_63_632">
<rect width="215.24" height="60.208" fill="white" transform="translate(72.8271 61.9302)"/>
</clipPath>
<clipPath id="clip1_63_632">
<rect width="215.24" height="60.208" fill="white" transform="translate(72.8271 61.9302)"/>
</clipPath>
<clipPath id="clip2_63_632">
<rect width="215.24" height="60.208" fill="white" transform="translate(72.8271 61.9302)"/>
</clipPath>
<clipPath id="clip3_63_632">
<rect width="215.24" height="60.208" fill="white" transform="translate(72.8271 61.9302)"/>
</clipPath>
</defs>
</svg>
