<svg width="361" height="182" viewBox="0 0 361 182" fill="none" xmlns="http://www.w3.org/2000/svg">
<rect x="0.5" y="0.846191" width="359.06" height="180.449" rx="7.5" stroke="#E8EEF4"/>
<g clip-path="url(#clip0_63_690)">
<g clip-path="url(#clip1_63_690)">
<g clip-path="url(#clip2_63_690)">
<g opacity="0.85">
<path d="M213.561 87.7238H189.197V81.4878H213.561V87.7238Z" fill="black" fill-opacity="0.5"/>
<path d="M210.396 87.7237H189.197V72.127H210.396V87.7237Z" fill="black" fill-opacity="0.5"/>
<path d="M201.638 87.724H189.197V65.8945H201.638V87.724Z" fill="black" fill-opacity="0.5"/>
<path d="M204.086 87.7237H189.197V68.3301H204.086V87.7237Z" fill="black" fill-opacity="0.5"/>
<path d="M189.193 68.334V87.722H201.636V68.334H189.193Z" fill="black" fill-opacity="0.5"/>
<path d="M176.723 87.7241H189.198V90.8424H176.723V87.7241Z" fill="black" fill-opacity="0.5"/>
<path d="M189.193 72.1235V87.7217H204.092V72.1235H189.193Z" fill="black" fill-opacity="0.5"/>
<path d="M189.193 72.1235V87.7217H201.636V72.1235H189.193Z" fill="black" fill-opacity="0.5"/>
<path d="M196.977 87.7241H189.197V78.3628H196.977V87.7241Z" fill="black" fill-opacity="0.5"/>
<path d="M189.193 81.4922V87.7218H210.403V81.4922H189.193Z" fill="black" fill-opacity="0.5"/>
<path d="M189.193 81.4922V87.7218H204.092V81.4922H189.193Z" fill="black" fill-opacity="0.5"/>
<path d="M189.193 81.4922V87.7218H201.636V81.4922H189.193Z" fill="black" fill-opacity="0.5"/>
<path d="M189.193 81.4922V87.7217H196.984V81.4922H189.193Z" fill="black" fill-opacity="0.5"/>
<path fill-rule="evenodd" clip-rule="evenodd" d="M181.297 104.846C183.231 102.441 183.939 101.45 183.939 100.271C183.939 99.0915 182.995 98.0537 181.675 98.0537C180.92 98.0537 180.212 98.4783 179.882 98.8556V103.808L176.722 108.054V98.4311H173.703L168.703 106.686V98.4311H167.005L162.429 99.4688V100.648L164.929 100.884V111.12H168.09L172.901 103.195V111.12H176.439L181.297 104.846ZM191.91 99.4688C189.788 99.8462 188.656 101.45 188.656 104.233C188.656 107.063 190.165 108.95 192.382 108.95C193.467 108.95 194.41 108.573 196.392 107.582V109.893C193.986 111.025 192.571 111.309 190.684 111.309C188.561 111.309 187.052 110.79 185.873 109.516C184.646 108.29 183.986 106.686 183.986 104.846C183.986 100.837 187.005 98.0537 191.392 98.0537C194.269 98.0537 196.297 99.4216 196.297 101.356C196.297 102.629 195.354 103.525 193.986 103.525C193.278 103.525 192.712 103.29 191.91 102.865V99.4688ZM153.561 109.516H152.854V101.025C153.561 100.884 153.986 100.837 154.269 100.837C156.391 100.837 157.523 102.252 157.523 104.846C157.523 107.959 156.108 109.516 153.561 109.516ZM154.929 115.554L152.854 115.082V111.026C152.925 111.029 152.996 111.033 153.066 111.037C153.835 111.08 154.544 111.12 154.976 111.12C159.222 111.12 162.005 108.337 162.005 104.28C162.005 100.742 159.929 98.1953 157.193 98.1953C155.967 98.1953 155.165 98.4311 152.854 99.8462V98.1481H151.533L146.58 99.6575V100.837H148.656V115.082L146.769 115.554V116.733H154.929V115.554Z" fill="#1B1B1B"/>
</g>
</g>
</g>
</g>
<g clip-path="url(#clip3_63_690)">
<g clip-path="url(#clip4_63_690)">
<g clip-path="url(#clip5_63_690)">
<g opacity="0.85">
<path d="M213.561 87.7238H189.197V81.4878H213.561V87.7238Z" fill="black" fill-opacity="0.5"/>
<path d="M210.396 87.7237H189.197V72.127H210.396V87.7237Z" fill="black" fill-opacity="0.5"/>
<path d="M201.638 87.724H189.197V65.8945H201.638V87.724Z" fill="black" fill-opacity="0.5"/>
<path d="M204.086 87.7237H189.197V68.3301H204.086V87.7237Z" fill="black" fill-opacity="0.5"/>
<path d="M189.193 68.334V87.722H201.636V68.334H189.193Z" fill="black" fill-opacity="0.5"/>
<path d="M176.723 87.7241H189.198V90.8424H176.723V87.7241Z" fill="black" fill-opacity="0.5"/>
<path d="M189.193 72.1235V87.7217H204.092V72.1235H189.193Z" fill="black" fill-opacity="0.5"/>
<path d="M189.193 72.1235V87.7217H201.636V72.1235H189.193Z" fill="black" fill-opacity="0.5"/>
<path d="M196.977 87.7241H189.197V78.3628H196.977V87.7241Z" fill="black" fill-opacity="0.5"/>
<path d="M189.193 81.4922V87.7218H210.403V81.4922H189.193Z" fill="black" fill-opacity="0.5"/>
<path d="M189.193 81.4922V87.7218H204.092V81.4922H189.193Z" fill="black" fill-opacity="0.5"/>
<path d="M189.193 81.4922V87.7218H201.636V81.4922H189.193Z" fill="black" fill-opacity="0.5"/>
<path d="M189.193 81.4922V87.7217H196.984V81.4922H189.193Z" fill="black" fill-opacity="0.5"/>
<path fill-rule="evenodd" clip-rule="evenodd" d="M181.297 104.846C183.231 102.441 183.939 101.45 183.939 100.271C183.939 99.0915 182.995 98.0537 181.675 98.0537C180.92 98.0537 180.212 98.4783 179.882 98.8556V103.808L176.722 108.054V98.4311H173.703L168.703 106.686V98.4311H167.005L162.429 99.4688V100.648L164.929 100.884V111.12H168.09L172.901 103.195V111.12H176.439L181.297 104.846ZM191.91 99.4688C189.788 99.8462 188.656 101.45 188.656 104.233C188.656 107.063 190.165 108.95 192.382 108.95C193.467 108.95 194.41 108.573 196.392 107.582V109.893C193.986 111.025 192.571 111.309 190.684 111.309C188.561 111.309 187.052 110.79 185.873 109.516C184.646 108.29 183.986 106.686 183.986 104.846C183.986 100.837 187.005 98.0537 191.392 98.0537C194.269 98.0537 196.297 99.4216 196.297 101.356C196.297 102.629 195.354 103.525 193.986 103.525C193.278 103.525 192.712 103.29 191.91 102.865V99.4688ZM153.561 109.516H152.854V101.025C153.561 100.884 153.986 100.837 154.269 100.837C156.391 100.837 157.523 102.252 157.523 104.846C157.523 107.959 156.108 109.516 153.561 109.516ZM154.929 115.554L152.854 115.082V111.026C152.925 111.029 152.996 111.033 153.066 111.037C153.835 111.08 154.544 111.12 154.976 111.12C159.222 111.12 162.005 108.337 162.005 104.28C162.005 100.742 159.929 98.1953 157.193 98.1953C155.967 98.1953 155.165 98.4311 152.854 99.8462V98.1481H151.533L146.58 99.6575V100.837H148.656V115.082L146.769 115.554V116.733H154.929V115.554Z" fill="#1B1B1B"/>
</g>
</g>
</g>
</g>
<defs>
<clipPath id="clip0_63_690">
<rect width="67.7381" height="60.208" fill="white" transform="translate(146.578 61.3789)"/>
</clipPath>
<clipPath id="clip1_63_690">
<rect width="67.7381" height="60.208" fill="white" transform="translate(146.578 61.3789)"/>
</clipPath>
<clipPath id="clip2_63_690">
<rect width="67.734" height="60.208" fill="white" transform="translate(146.58 61.3789)"/>
</clipPath>
<clipPath id="clip3_63_690">
<rect width="67.7381" height="60.208" fill="white" transform="translate(146.578 61.3789)"/>
</clipPath>
<clipPath id="clip4_63_690">
<rect width="67.7381" height="60.208" fill="white" transform="translate(146.578 61.3789)"/>
</clipPath>
<clipPath id="clip5_63_690">
<rect width="67.734" height="60.208" fill="white" transform="translate(146.58 61.3789)"/>
</clipPath>
</defs>
</svg>
