<svg width="361" height="182" viewBox="0 0 361 182" fill="none" xmlns="http://www.w3.org/2000/svg">
<rect x="0.681641" y="0.94873" width="359.06" height="180.449" rx="7.5" stroke="#E8EEF4"/>
<g clip-path="url(#clip0_63_601)">
<g clip-path="url(#clip1_63_601)">
<g opacity="0.85">
<path d="M182.517 88.2836L183.611 85.0868C185.485 85.0797 187.357 85.0655 189.229 85.0466L190.332 88.2648C191.962 88.2576 193.611 88.2883 195.238 88.2789L188.747 70.42C187.976 70.4507 184.841 70.5334 184.102 70.5523L179.201 84.4328C177.192 84.4304 175.313 84.4186 173.265 84.3997V80.8086L176.924 80.8511V77.6141L173.265 77.5598V74.1127C177.244 74.2048 179.081 74.1859 179.079 74.1859L178.331 70.3397C178.331 70.3397 173.571 70.2618 168.373 70.0422V88.26C169.403 88.2648 174.549 88.2812 177.839 88.2883V88.2907C178.439 88.2907 179.008 88.2907 179.57 88.293C179.73 88.293 179.878 88.293 180.008 88.293C180.828 88.2836 181.642 88.2836 182.517 88.2836ZM188.119 81.8002C186.988 81.8167 185.854 81.8309 184.721 81.8404L186.426 76.8586L188.119 81.8002Z" fill="#1B1B1B"/>
<path d="M197.234 88.2743C198.862 88.2625 200.487 88.2791 202.112 88.2649L202.136 73.5485C203.911 73.4069 205.684 73.2511 207.455 73.074L206.701 69.0083C202.037 69.5678 197.368 69.9763 192.681 70.2361L191.924 74.1766C193.695 74.101 195.466 74.009 197.234 73.9004V88.2743Z" fill="#1B1B1B"/>
<path d="M158.904 74.3608C158.904 72.1438 163.624 72.7411 165.802 74.028L166.004 69.6482C165.489 69.4877 163.405 69.0107 160.919 69.0107C157.403 69.0107 154.334 71.0979 154.334 74.4152C154.334 80.3295 162.375 80.738 162.375 83.1108C162.375 86.2321 157.043 84.4967 154.334 81.9209V86.9097C154.334 86.9097 156.328 88.7702 160.291 88.7702C164.659 88.7702 166.876 85.9134 166.876 82.8346C166.879 76.8376 158.904 76.8116 158.904 74.3608Z" fill="#1B1B1B"/>
<path d="M209.887 111.153L203.445 100.139L209.143 91.3154H203.645L198.652 99.1776C198.671 96.5616 198.633 93.9432 198.652 91.3248C197.006 91.3201 195.418 91.3178 193.77 91.3154C193.77 96.1177 193.77 104.875 193.77 109.677C193.77 109.677 196.994 109.875 198.652 110.005C198.652 107.172 198.652 104.351 198.652 101.52L203.471 110.409C205.877 110.657 208.062 110.912 209.887 111.153Z" fill="#1B1B1B"/>
<path d="M173.275 101.862C174.491 101.843 176.922 101.817 176.922 101.817V98.5473C176.922 98.5473 174.491 98.5661 173.275 98.578C173.275 97.4258 173.275 96.2712 173.275 95.119C176.685 95.1214 179.081 95.1403 179.081 95.1403L178.326 91.3438H168.383V109.571C170.674 109.422 176.974 109.278 179.114 109.271C179.366 107.984 179.618 106.695 179.869 105.411C177.67 105.411 175.471 105.437 173.275 105.484C173.275 104.266 173.275 103.08 173.275 101.862Z" fill="#1B1B1B"/>
<path d="M185.986 101.824C187.117 101.841 188.25 101.86 189.382 101.886C189.382 100.797 189.382 99.7089 189.382 98.6204C188.25 98.6016 187.119 98.5897 185.986 98.578C185.986 97.4211 185.986 96.3019 185.986 95.145L191.823 95.1827L191.07 91.3485C191.07 91.3485 184.419 91.3438 181.094 91.3438V109.274C184.48 109.276 188.173 109.385 191.804 109.571L192.592 105.683C190.678 105.614 187.728 105.517 185.988 105.479C185.986 104.259 185.986 103.04 185.986 101.824Z" fill="#1B1B1B"/>
<path d="M158.943 102.282L161.911 102.136L161.913 105.932C157.454 106.338 155.62 104.854 155.62 100.424C155.62 96.3137 158.933 95.2889 161.986 95.2889C164.677 95.2889 166.104 95.5888 166.104 95.5888L165.298 91.3295C164.587 91.2941 163.329 91.2539 161.194 91.2539C156.259 91.2539 150.789 93.6244 150.789 101.125C150.789 107.439 155.088 110.65 160.542 110.135C164.383 109.774 166.109 109.696 166.109 109.696V98.7077L159.695 98.8517L158.943 102.282Z" fill="#1B1B1B"/>
<path fill-rule="evenodd" clip-rule="evenodd" d="M173.78 88.2312L168.398 88.1968V79.1512V70.1057L170.504 70.1731C171.662 70.2102 173.884 70.2721 175.442 70.3107C177.902 70.3717 178.28 70.4027 178.323 70.5469C178.367 70.6983 179.005 73.9923 179.005 74.0716C179.005 74.0903 177.694 74.1057 176.091 74.1057H173.177L173.205 75.8542L173.234 77.6028L175.08 77.6313L176.925 77.6598V79.2233V80.7868H175.054H173.182V82.6152V84.4436L176.223 84.4159L179.264 84.3883L181.694 77.4984C183.03 73.709 184.13 70.6033 184.138 70.5969C184.146 70.5906 185.182 70.5573 186.44 70.5231L188.728 70.4609L191.892 79.1992C193.633 84.0053 195.077 87.9963 195.101 88.0681C195.135 88.17 194.621 88.1986 192.755 88.1986H190.365L189.819 86.6305C189.518 85.7679 189.243 85.0446 189.208 85.023C189.173 85.0014 187.885 85.0137 186.347 85.0514L183.55 85.1192L183.031 86.6589L182.511 88.1987H181.606C181.108 88.1987 180.354 88.2138 179.931 88.2321C179.507 88.2506 176.739 88.2503 173.78 88.2312ZM188.13 81.7003C188.104 81.6285 187.717 80.4973 187.27 79.1865C186.783 77.7567 186.427 76.8588 186.38 76.9421C186.29 77.1056 184.724 81.6613 184.724 81.762C184.724 81.7998 185.501 81.8308 186.451 81.8308C187.789 81.8308 188.167 81.8013 188.13 81.7003Z" stroke="#1B1B1B" stroke-width="0.0112228"/>
<path fill-rule="evenodd" clip-rule="evenodd" d="M158.833 88.6539C157.532 88.4886 155.881 87.903 154.858 87.2444L154.361 86.9242V84.4861V82.0479L155.034 82.5592C156.517 83.6859 158.003 84.393 159.545 84.7054C161.341 85.0691 162.368 84.5144 162.368 83.1814C162.368 82.6466 162.347 82.6055 161.819 82.0976C161.441 81.7342 160.806 81.3275 159.778 80.7921C156.102 78.8757 154.774 77.4811 154.445 75.1898C154.06 72.5146 155.592 70.3593 158.573 69.3817C159.848 68.9634 163.263 69.0408 165.403 69.5367L165.904 69.6527L165.903 70.3395C165.903 70.7172 165.873 71.6854 165.836 72.4912L165.769 73.9564L165.284 73.7229C165.017 73.5946 164.38 73.3628 163.869 73.2078C163.07 72.9656 162.744 72.9246 161.536 72.9157C160.271 72.9063 160.09 72.9282 159.698 73.1388C159.197 73.4075 158.964 73.6995 158.876 74.1678C158.73 74.9498 159.398 75.5638 161.575 76.6486C162.449 77.0838 163.511 77.6688 163.936 77.9486C165.468 78.9582 166.388 80.1765 166.687 81.5938C167.343 84.7042 165.529 87.6268 162.42 88.4672C161.806 88.6333 159.582 88.7491 158.833 88.6539Z" stroke="#1B1B1B" stroke-width="0.0112228"/>
<path fill-rule="evenodd" clip-rule="evenodd" d="M158.833 88.6539C157.532 88.4886 155.881 87.903 154.858 87.2444L154.361 86.9242V84.4861V82.0479L155.034 82.5592C156.517 83.6859 158.003 84.393 159.545 84.7054C161.341 85.0691 162.368 84.5144 162.368 83.1814C162.368 82.6466 162.347 82.6055 161.819 82.0976C161.441 81.7342 160.806 81.3275 159.778 80.7921C156.102 78.8757 154.774 77.4811 154.445 75.1898C154.06 72.5146 155.592 70.3593 158.573 69.3817C159.848 68.9634 163.263 69.0408 165.403 69.5367L165.904 69.6527L165.903 70.3395C165.903 70.7172 165.873 71.6854 165.836 72.4912L165.769 73.9564L165.284 73.7229C165.017 73.5946 164.38 73.3628 163.869 73.2078C163.07 72.9656 162.744 72.9246 161.536 72.9157C160.271 72.9063 160.09 72.9282 159.698 73.1388C159.197 73.4075 158.964 73.6995 158.876 74.1678C158.73 74.9498 159.398 75.5638 161.575 76.6486C162.449 77.0838 163.511 77.6688 163.936 77.9486C165.468 78.9582 166.388 80.1765 166.687 81.5938C167.343 84.7042 165.529 87.6268 162.42 88.4672C161.806 88.6333 159.582 88.7491 158.833 88.6539Z" stroke="#1B1B1B" stroke-width="0.0112228"/>
<path fill-rule="evenodd" clip-rule="evenodd" d="M158.833 88.6539C157.532 88.4886 155.881 87.903 154.858 87.2444L154.361 86.9242V84.4861V82.0479L155.034 82.5592C156.517 83.6859 158.003 84.393 159.545 84.7054C161.341 85.0691 162.368 84.5144 162.368 83.1814C162.368 82.6466 162.347 82.6055 161.819 82.0976C161.441 81.7342 160.806 81.3275 159.778 80.7921C156.102 78.8757 154.774 77.4811 154.445 75.1898C154.06 72.5146 155.592 70.3593 158.573 69.3817C159.848 68.9634 163.263 69.0408 165.403 69.5367L165.904 69.6527L165.903 70.3395C165.903 70.7172 165.873 71.6854 165.836 72.4912L165.769 73.9564L165.284 73.7229C165.017 73.5946 164.38 73.3628 163.869 73.2078C163.07 72.9656 162.744 72.9246 161.536 72.9157C160.271 72.9063 160.09 72.9282 159.698 73.1388C159.197 73.4075 158.964 73.6995 158.876 74.1678C158.73 74.9498 159.398 75.5638 161.575 76.6486C162.449 77.0838 163.511 77.6688 163.936 77.9486C165.468 78.9582 166.388 80.1765 166.687 81.5938C167.343 84.7042 165.529 87.6268 162.42 88.4672C161.806 88.6333 159.582 88.7491 158.833 88.6539Z" stroke="#1B1B1B" stroke-width="0.0112228"/>
</g>
</g>
</g>
<g clip-path="url(#clip2_63_601)">
<g clip-path="url(#clip3_63_601)">
<g opacity="0.85">
<path d="M182.517 88.2836L183.611 85.0868C185.485 85.0797 187.357 85.0655 189.229 85.0466L190.332 88.2648C191.962 88.2576 193.611 88.2883 195.238 88.2789L188.747 70.42C187.976 70.4507 184.841 70.5334 184.102 70.5523L179.201 84.4328C177.192 84.4304 175.313 84.4186 173.265 84.3997V80.8086L176.924 80.8511V77.6141L173.265 77.5598V74.1127C177.244 74.2048 179.081 74.1859 179.079 74.1859L178.331 70.3397C178.331 70.3397 173.571 70.2618 168.373 70.0422V88.26C169.403 88.2648 174.549 88.2812 177.839 88.2883V88.2907C178.439 88.2907 179.008 88.2907 179.57 88.293C179.73 88.293 179.878 88.293 180.008 88.293C180.828 88.2836 181.642 88.2836 182.517 88.2836ZM188.119 81.8002C186.988 81.8167 185.854 81.8309 184.721 81.8404L186.426 76.8586L188.119 81.8002Z" fill="#1B1B1B"/>
<path d="M197.234 88.2743C198.862 88.2625 200.487 88.2791 202.112 88.2649L202.136 73.5485C203.911 73.4069 205.684 73.2511 207.455 73.074L206.701 69.0083C202.037 69.5678 197.368 69.9763 192.681 70.2361L191.924 74.1766C193.695 74.101 195.466 74.009 197.234 73.9004V88.2743Z" fill="#1B1B1B"/>
<path d="M158.904 74.3608C158.904 72.1438 163.624 72.7411 165.802 74.028L166.004 69.6482C165.489 69.4877 163.405 69.0107 160.919 69.0107C157.403 69.0107 154.334 71.0979 154.334 74.4152C154.334 80.3295 162.375 80.738 162.375 83.1108C162.375 86.2321 157.043 84.4967 154.334 81.9209V86.9097C154.334 86.9097 156.328 88.7702 160.291 88.7702C164.659 88.7702 166.876 85.9134 166.876 82.8346C166.879 76.8376 158.904 76.8116 158.904 74.3608Z" fill="#1B1B1B"/>
<path d="M209.887 111.153L203.445 100.139L209.143 91.3154H203.645L198.652 99.1776C198.671 96.5616 198.633 93.9432 198.652 91.3248C197.006 91.3201 195.418 91.3178 193.77 91.3154C193.77 96.1177 193.77 104.875 193.77 109.677C193.77 109.677 196.994 109.875 198.652 110.005C198.652 107.172 198.652 104.351 198.652 101.52L203.471 110.409C205.877 110.657 208.062 110.912 209.887 111.153Z" fill="#1B1B1B"/>
<path d="M173.275 101.862C174.491 101.843 176.922 101.817 176.922 101.817V98.5473C176.922 98.5473 174.491 98.5661 173.275 98.578C173.275 97.4258 173.275 96.2712 173.275 95.119C176.685 95.1214 179.081 95.1403 179.081 95.1403L178.326 91.3438H168.383V109.571C170.674 109.422 176.974 109.278 179.114 109.271C179.366 107.984 179.618 106.695 179.869 105.411C177.67 105.411 175.471 105.437 173.275 105.484C173.275 104.266 173.275 103.08 173.275 101.862Z" fill="#1B1B1B"/>
<path d="M185.986 101.824C187.117 101.841 188.25 101.86 189.382 101.886C189.382 100.797 189.382 99.7089 189.382 98.6204C188.25 98.6016 187.119 98.5897 185.986 98.578C185.986 97.4211 185.986 96.3019 185.986 95.145L191.823 95.1827L191.07 91.3485C191.07 91.3485 184.419 91.3438 181.094 91.3438V109.274C184.48 109.276 188.173 109.385 191.804 109.571L192.592 105.683C190.678 105.614 187.728 105.517 185.988 105.479C185.986 104.259 185.986 103.04 185.986 101.824Z" fill="#1B1B1B"/>
<path d="M158.943 102.282L161.911 102.136L161.913 105.932C157.454 106.338 155.62 104.854 155.62 100.424C155.62 96.3137 158.933 95.2889 161.986 95.2889C164.677 95.2889 166.104 95.5888 166.104 95.5888L165.298 91.3295C164.587 91.2941 163.329 91.2539 161.194 91.2539C156.259 91.2539 150.789 93.6244 150.789 101.125C150.789 107.439 155.088 110.65 160.542 110.135C164.383 109.774 166.109 109.696 166.109 109.696V98.7077L159.695 98.8517L158.943 102.282Z" fill="#1B1B1B"/>
<path fill-rule="evenodd" clip-rule="evenodd" d="M173.78 88.2312L168.398 88.1968V79.1512V70.1057L170.504 70.1731C171.662 70.2102 173.884 70.2721 175.442 70.3107C177.902 70.3717 178.28 70.4027 178.323 70.5469C178.367 70.6983 179.005 73.9923 179.005 74.0716C179.005 74.0903 177.694 74.1057 176.091 74.1057H173.177L173.205 75.8542L173.234 77.6028L175.08 77.6313L176.925 77.6598V79.2233V80.7868H175.054H173.182V82.6152V84.4436L176.223 84.4159L179.264 84.3883L181.694 77.4984C183.03 73.709 184.13 70.6033 184.138 70.5969C184.146 70.5906 185.182 70.5573 186.44 70.5231L188.728 70.4609L191.892 79.1992C193.633 84.0053 195.077 87.9963 195.101 88.0681C195.135 88.17 194.621 88.1986 192.755 88.1986H190.365L189.819 86.6305C189.518 85.7679 189.243 85.0446 189.208 85.023C189.173 85.0014 187.885 85.0137 186.347 85.0514L183.55 85.1192L183.031 86.6589L182.511 88.1987H181.606C181.108 88.1987 180.354 88.2138 179.931 88.2321C179.507 88.2506 176.739 88.2503 173.78 88.2312ZM188.13 81.7003C188.104 81.6285 187.717 80.4973 187.27 79.1865C186.783 77.7567 186.427 76.8588 186.38 76.9421C186.29 77.1056 184.724 81.6613 184.724 81.762C184.724 81.7998 185.501 81.8308 186.451 81.8308C187.789 81.8308 188.167 81.8013 188.13 81.7003Z" stroke="#1B1B1B" stroke-width="0.0112228"/>
<path fill-rule="evenodd" clip-rule="evenodd" d="M158.833 88.6539C157.532 88.4886 155.881 87.903 154.858 87.2444L154.361 86.9242V84.4861V82.0479L155.034 82.5592C156.517 83.6859 158.003 84.393 159.545 84.7054C161.341 85.0691 162.368 84.5144 162.368 83.1814C162.368 82.6466 162.347 82.6055 161.819 82.0976C161.441 81.7342 160.806 81.3275 159.778 80.7921C156.102 78.8757 154.774 77.4811 154.445 75.1898C154.06 72.5146 155.592 70.3593 158.573 69.3817C159.848 68.9634 163.263 69.0408 165.403 69.5367L165.904 69.6527L165.903 70.3395C165.903 70.7172 165.873 71.6854 165.836 72.4912L165.769 73.9564L165.284 73.7229C165.017 73.5946 164.38 73.3628 163.869 73.2078C163.07 72.9656 162.744 72.9246 161.536 72.9157C160.271 72.9063 160.09 72.9282 159.698 73.1388C159.197 73.4075 158.964 73.6995 158.876 74.1678C158.73 74.9498 159.398 75.5638 161.575 76.6486C162.449 77.0838 163.511 77.6688 163.936 77.9486C165.468 78.9582 166.388 80.1765 166.687 81.5938C167.343 84.7042 165.529 87.6268 162.42 88.4672C161.806 88.6333 159.582 88.7491 158.833 88.6539Z" stroke="#1B1B1B" stroke-width="0.0112228"/>
<path fill-rule="evenodd" clip-rule="evenodd" d="M158.833 88.6539C157.532 88.4886 155.881 87.903 154.858 87.2444L154.361 86.9242V84.4861V82.0479L155.034 82.5592C156.517 83.6859 158.003 84.393 159.545 84.7054C161.341 85.0691 162.368 84.5144 162.368 83.1814C162.368 82.6466 162.347 82.6055 161.819 82.0976C161.441 81.7342 160.806 81.3275 159.778 80.7921C156.102 78.8757 154.774 77.4811 154.445 75.1898C154.06 72.5146 155.592 70.3593 158.573 69.3817C159.848 68.9634 163.263 69.0408 165.403 69.5367L165.904 69.6527L165.903 70.3395C165.903 70.7172 165.873 71.6854 165.836 72.4912L165.769 73.9564L165.284 73.7229C165.017 73.5946 164.38 73.3628 163.869 73.2078C163.07 72.9656 162.744 72.9246 161.536 72.9157C160.271 72.9063 160.09 72.9282 159.698 73.1388C159.197 73.4075 158.964 73.6995 158.876 74.1678C158.73 74.9498 159.398 75.5638 161.575 76.6486C162.449 77.0838 163.511 77.6688 163.936 77.9486C165.468 78.9582 166.388 80.1765 166.687 81.5938C167.343 84.7042 165.529 87.6268 162.42 88.4672C161.806 88.6333 159.582 88.7491 158.833 88.6539Z" stroke="#1B1B1B" stroke-width="0.0112228"/>
<path fill-rule="evenodd" clip-rule="evenodd" d="M158.833 88.6539C157.532 88.4886 155.881 87.903 154.858 87.2444L154.361 86.9242V84.4861V82.0479L155.034 82.5592C156.517 83.6859 158.003 84.393 159.545 84.7054C161.341 85.0691 162.368 84.5144 162.368 83.1814C162.368 82.6466 162.347 82.6055 161.819 82.0976C161.441 81.7342 160.806 81.3275 159.778 80.7921C156.102 78.8757 154.774 77.4811 154.445 75.1898C154.06 72.5146 155.592 70.3593 158.573 69.3817C159.848 68.9634 163.263 69.0408 165.403 69.5367L165.904 69.6527L165.903 70.3395C165.903 70.7172 165.873 71.6854 165.836 72.4912L165.769 73.9564L165.284 73.7229C165.017 73.5946 164.38 73.3628 163.869 73.2078C163.07 72.9656 162.744 72.9246 161.536 72.9157C160.271 72.9063 160.09 72.9282 159.698 73.1388C159.197 73.4075 158.964 73.6995 158.876 74.1678C158.73 74.9498 159.398 75.5638 161.575 76.6486C162.449 77.0838 163.511 77.6688 163.936 77.9486C165.468 78.9582 166.388 80.1765 166.687 81.5938C167.343 84.7042 165.529 87.6268 162.42 88.4672C161.806 88.6333 159.582 88.7491 158.833 88.6539Z" stroke="#1B1B1B" stroke-width="0.0112228"/>
</g>
</g>
</g>
<defs>
<clipPath id="clip0_63_601">
<rect width="76.0106" height="60.208" fill="white" transform="translate(142.619 61.4817)"/>
</clipPath>
<clipPath id="clip1_63_601">
<rect width="76.0106" height="60.208" fill="white" transform="translate(142.619 61.4817)"/>
</clipPath>
<clipPath id="clip2_63_601">
<rect width="76.0106" height="60.208" fill="white" transform="translate(142.619 61.4817)"/>
</clipPath>
<clipPath id="clip3_63_601">
<rect width="76.0106" height="60.208" fill="white" transform="translate(142.619 61.4817)"/>
</clipPath>
</defs>
</svg>
