<svg width="361" height="182" viewBox="0 0 361 182" fill="none" xmlns="http://www.w3.org/2000/svg">
<rect x="0.681641" y="0.5" width="359.06" height="180.449" rx="7.5" stroke="#E8EEF4"/>
<g clip-path="url(#clip0_63_545)">
<g clip-path="url(#clip1_63_545)">
<g opacity="0.85">
<path fill-rule="evenodd" clip-rule="evenodd" d="M205.35 79.6462C205.452 79.718 205.588 79.7359 205.732 79.6999L208.736 78.9746C209.055 78.8939 209.313 78.5833 209.313 78.2754V74.6872C209.313 74.5391 209.251 74.4169 209.145 74.3416C209.075 74.2966 208.991 74.2697 208.9 74.2697C208.856 74.2697 208.81 74.2756 208.763 74.2874L205.759 75.0136C205.441 75.0943 205.182 75.4041 205.182 75.7128V79.3015C205.182 79.4495 205.244 79.5717 205.35 79.6462ZM213.518 84.8342V87.2806C213.518 88.8021 212.338 90.3356 210.773 90.8473L149.261 112.767C149.235 112.777 149.208 112.785 149.182 112.794C149.13 112.804 149.071 112.812 149.017 112.812C148.901 112.812 148.794 112.776 148.706 112.719C148.571 112.625 148.497 112.475 148.497 112.296V102.904C148.497 102.554 148.792 102.199 149.154 102.111L156.258 100.393C156.575 100.321 156.832 100.005 156.832 99.6976L156.829 97.1309C156.829 96.9208 156.709 96.7647 156.514 96.7242L151.269 95.7418C149.584 95.3989 148.494 94.0172 148.494 92.2219L148.496 88.0504C148.496 86.4432 149.849 84.8088 151.512 84.4062L157.993 82.8395C158.786 82.6482 159.537 82.7588 160.108 83.1555C160.708 83.5702 161.038 84.2418 161.038 85.0443L161.039 88.2627C161.039 88.6119 160.744 88.9682 160.382 89.0561L157.52 89.7473C157.343 89.7923 157.174 89.765 157.044 89.6755C156.908 89.5822 156.835 89.4322 156.835 89.2527V87.3736C156.835 87.2255 156.773 87.1025 156.668 87.028C156.565 86.9561 156.432 86.9383 156.286 86.9742L153.282 87.7003C152.964 87.7811 152.704 88.0909 152.704 88.3997V91.348C152.704 91.5589 152.825 91.7151 153.019 91.7555L158.28 92.7486C159.955 93.0224 161.038 94.3301 161.038 96.0824L161.043 99.7525C161.043 100.141 160.964 100.539 160.806 100.936L164.716 99.9914V81.8509C164.716 81.5009 165.01 81.1453 165.373 81.0583L168.235 80.3653C168.413 80.3203 168.581 80.3477 168.71 80.4372C168.846 80.5305 168.92 80.6814 168.92 80.8591V97.3428L173.224 96.2931C173.403 96.2481 173.572 96.2754 173.701 96.3649C173.836 96.4592 173.91 96.6092 173.91 96.7878L173.913 97.7673L176.407 97.1641L176.409 85.693C176.409 85.3429 176.703 84.9874 177.066 84.8995L179.928 84.2074C180.105 84.1624 180.274 84.1897 180.404 84.2792C180.539 84.3725 180.614 84.5226 180.614 84.7011L180.615 96.1449L184.665 95.1664V79.306C184.665 77.6984 186.018 76.0638 187.681 75.6617L194.152 74.0969C194.943 73.9057 195.695 74.0163 196.266 74.4139C196.866 74.8285 197.196 75.4996 197.196 76.3027L197.193 80.693C197.193 81.0431 196.898 81.3985 196.535 81.4865L193.673 82.1786C193.496 82.2235 193.327 82.1963 193.197 82.1067C193.062 82.0132 192.987 81.8625 192.987 81.6848L192.993 78.6327C192.993 78.4847 192.932 78.3625 192.826 78.288C192.724 78.2161 192.589 78.1973 192.444 78.2342L189.44 78.9604C189.122 79.0411 188.863 79.3509 188.863 79.6597V91.9905C188.863 92.1385 188.925 92.2606 189.03 92.336C189.132 92.4079 189.267 92.4258 189.412 92.3899L192.416 91.6636C192.734 91.5829 192.993 91.2732 192.993 90.9653L192.987 89.7738C192.987 89.4237 193.282 89.0683 193.644 88.9803L196.506 88.2891C196.684 88.2441 196.853 88.2714 196.982 88.361C197.117 88.4552 197.192 88.6051 197.192 88.7838L197.194 92.1405L200.974 91.2267V75.3666C200.974 73.7591 202.327 72.125 203.99 71.7225L210.471 70.1557C211.263 69.9637 212.015 70.075 212.586 70.4717C213.185 70.8864 213.515 71.5574 213.515 72.3605L213.517 78.628C213.517 80.2351 212.164 81.8697 210.501 82.2718L205.759 83.4174C205.442 83.4981 205.183 83.8079 205.183 84.1167V88.045C205.183 88.1931 205.244 88.316 205.35 88.3896C205.452 88.4615 205.588 88.4794 205.732 88.4435L208.736 87.7173C209.055 87.6366 209.313 87.3268 209.313 87.018L209.312 85.8246C209.312 85.4745 209.607 85.1191 209.969 85.032L212.832 84.3399C213.009 84.2949 213.179 84.3222 213.309 84.4118C213.444 84.505 213.519 84.655 213.519 84.8336L213.518 84.8342ZM176.409 81.449V79.0217C176.409 78.6724 176.703 78.3161 177.066 78.2281L179.929 77.5369C180.105 77.492 180.275 77.5192 180.403 77.6088C180.539 77.703 180.613 77.8529 180.613 78.0316V80.4584C180.613 80.8086 180.318 81.164 179.956 81.252L177.094 81.9441C177.042 81.9618 176.983 81.9618 176.929 81.9618C176.813 81.9618 176.706 81.9259 176.619 81.8693C176.483 81.7758 176.409 81.626 176.409 81.4474" fill="#1B1B1B"/>
</g>
</g>
</g>
<g clip-path="url(#clip2_63_545)">
<g clip-path="url(#clip3_63_545)">
<g opacity="0.85">
<path fill-rule="evenodd" clip-rule="evenodd" d="M205.35 79.6462C205.452 79.718 205.588 79.7359 205.732 79.6999L208.736 78.9746C209.055 78.8939 209.313 78.5833 209.313 78.2754V74.6872C209.313 74.5391 209.251 74.4169 209.145 74.3416C209.075 74.2966 208.991 74.2697 208.9 74.2697C208.856 74.2697 208.81 74.2756 208.763 74.2874L205.759 75.0136C205.441 75.0943 205.182 75.4041 205.182 75.7128V79.3015C205.182 79.4495 205.244 79.5717 205.35 79.6462ZM213.518 84.8342V87.2806C213.518 88.8021 212.338 90.3356 210.773 90.8473L149.261 112.767C149.235 112.777 149.208 112.785 149.182 112.794C149.13 112.804 149.071 112.812 149.017 112.812C148.901 112.812 148.794 112.776 148.706 112.719C148.571 112.625 148.497 112.475 148.497 112.296V102.904C148.497 102.554 148.792 102.199 149.154 102.111L156.258 100.393C156.575 100.321 156.832 100.005 156.832 99.6976L156.829 97.1309C156.829 96.9208 156.709 96.7647 156.514 96.7242L151.269 95.7418C149.584 95.3989 148.494 94.0172 148.494 92.2219L148.496 88.0504C148.496 86.4432 149.849 84.8088 151.512 84.4062L157.993 82.8395C158.786 82.6482 159.537 82.7588 160.108 83.1555C160.708 83.5702 161.038 84.2418 161.038 85.0443L161.039 88.2627C161.039 88.6119 160.744 88.9682 160.382 89.0561L157.52 89.7473C157.343 89.7923 157.174 89.765 157.044 89.6755C156.908 89.5822 156.835 89.4322 156.835 89.2527V87.3736C156.835 87.2255 156.773 87.1025 156.668 87.028C156.565 86.9561 156.432 86.9383 156.286 86.9742L153.282 87.7003C152.964 87.7811 152.704 88.0909 152.704 88.3997V91.348C152.704 91.5589 152.825 91.7151 153.019 91.7555L158.28 92.7486C159.955 93.0224 161.038 94.3301 161.038 96.0824L161.043 99.7525C161.043 100.141 160.964 100.539 160.806 100.936L164.716 99.9914V81.8509C164.716 81.5009 165.01 81.1453 165.373 81.0583L168.235 80.3653C168.413 80.3203 168.581 80.3477 168.71 80.4372C168.846 80.5305 168.92 80.6814 168.92 80.8591V97.3428L173.224 96.2931C173.403 96.2481 173.572 96.2754 173.701 96.3649C173.836 96.4592 173.91 96.6092 173.91 96.7878L173.913 97.7673L176.407 97.1641L176.409 85.693C176.409 85.3429 176.703 84.9874 177.066 84.8995L179.928 84.2074C180.105 84.1624 180.274 84.1897 180.404 84.2792C180.539 84.3725 180.614 84.5226 180.614 84.7011L180.615 96.1449L184.665 95.1664V79.306C184.665 77.6984 186.018 76.0638 187.681 75.6617L194.152 74.0969C194.943 73.9057 195.695 74.0163 196.266 74.4139C196.866 74.8285 197.196 75.4996 197.196 76.3027L197.193 80.693C197.193 81.0431 196.898 81.3985 196.535 81.4865L193.673 82.1786C193.496 82.2235 193.327 82.1963 193.197 82.1067C193.062 82.0132 192.987 81.8625 192.987 81.6848L192.993 78.6327C192.993 78.4847 192.932 78.3625 192.826 78.288C192.724 78.2161 192.589 78.1973 192.444 78.2342L189.44 78.9604C189.122 79.0411 188.863 79.3509 188.863 79.6597V91.9905C188.863 92.1385 188.925 92.2606 189.03 92.336C189.132 92.4079 189.267 92.4258 189.412 92.3899L192.416 91.6636C192.734 91.5829 192.993 91.2732 192.993 90.9653L192.987 89.7738C192.987 89.4237 193.282 89.0683 193.644 88.9803L196.506 88.2891C196.684 88.2441 196.853 88.2714 196.982 88.361C197.117 88.4552 197.192 88.6051 197.192 88.7838L197.194 92.1405L200.974 91.2267V75.3666C200.974 73.7591 202.327 72.125 203.99 71.7225L210.471 70.1557C211.263 69.9637 212.015 70.075 212.586 70.4717C213.185 70.8864 213.515 71.5574 213.515 72.3605L213.517 78.628C213.517 80.2351 212.164 81.8697 210.501 82.2718L205.759 83.4174C205.442 83.4981 205.183 83.8079 205.183 84.1167V88.045C205.183 88.1931 205.244 88.316 205.35 88.3896C205.452 88.4615 205.588 88.4794 205.732 88.4435L208.736 87.7173C209.055 87.6366 209.313 87.3268 209.313 87.018L209.312 85.8246C209.312 85.4745 209.607 85.1191 209.969 85.032L212.832 84.3399C213.009 84.2949 213.179 84.3222 213.309 84.4118C213.444 84.505 213.519 84.655 213.519 84.8336L213.518 84.8342ZM176.409 81.449V79.0217C176.409 78.6724 176.703 78.3161 177.066 78.2281L179.929 77.5369C180.105 77.492 180.275 77.5192 180.403 77.6088C180.539 77.703 180.613 77.8529 180.613 78.0316V80.4584C180.613 80.8086 180.318 81.164 179.956 81.252L177.094 81.9441C177.042 81.9618 176.983 81.9618 176.929 81.9618C176.813 81.9618 176.706 81.9259 176.619 81.8693C176.483 81.7758 176.409 81.626 176.409 81.4474" fill="#1B1B1B"/>
</g>
</g>
</g>
<defs>
<clipPath id="clip0_63_545">
<rect width="67.7381" height="60.208" fill="white" transform="translate(146.76 61.0327)"/>
</clipPath>
<clipPath id="clip1_63_545">
<rect width="67.7381" height="60.208" fill="white" transform="translate(146.76 61.0327)"/>
</clipPath>
<clipPath id="clip2_63_545">
<rect width="67.7381" height="60.208" fill="white" transform="translate(146.76 61.0327)"/>
</clipPath>
<clipPath id="clip3_63_545">
<rect width="67.7381" height="60.208" fill="white" transform="translate(146.76 61.0327)"/>
</clipPath>
</defs>
</svg>
