<svg width="361" height="182" viewBox="0 0 361 182" fill="none" xmlns="http://www.w3.org/2000/svg">
<rect x="0.5" y="0.5" width="359.06" height="180.449" rx="7.5" stroke="#E8EEF4"/>
<g clip-path="url(#clip0_63_500)">
<g clip-path="url(#clip1_63_500)">
<g clip-path="url(#clip2_63_500)">
<mask id="mask0_63_500" style="mask-type:luminance" maskUnits="userSpaceOnUse" x="78" y="61" width="205" height="61">
<path d="M282.42 61.0339H78.4736V121.24H282.42V61.0339Z" fill="white"/>
</mask>
<g mask="url(#mask0_63_500)">
<g opacity="0.85">
<path fill-rule="evenodd" clip-rule="evenodd" d="M252.46 91.1368C252.46 86.9826 255.734 83.6111 259.772 83.6111C263.81 83.6111 267.084 86.9826 267.084 91.1368C267.084 95.291 263.81 98.6625 259.772 98.6625C255.734 98.6625 252.46 95.291 252.46 91.1368ZM255.16 91.1368C255.16 94.4997 257.223 96.4607 259.772 96.4607C262.317 96.4607 264.383 94.4997 264.383 91.1368C264.383 87.7738 262.317 85.8129 259.772 85.8129C257.227 85.8129 255.16 87.7738 255.16 91.1368ZM102.959 90.1088H96.0828V83.9249H93.5074V98.3527H96.0828V92.1688H102.959V98.3527H105.535V83.9249H102.959V90.1088ZM78.4736 85.9848H83.2275V98.3528H85.7986V85.9848H90.5525V83.925H78.4736V85.9848ZM109.636 85.9848V83.9249H118.678V85.9848H115.443V96.2929H118.678V98.3527H109.636V96.2929H112.867V85.9848H109.636ZM225.219 83.925V85.9848H228.454V96.2929H225.219V98.3528H234.261V96.2929H231.029V85.9848H234.261V83.925H225.219ZM136.277 85.9848V83.9249H148.356V85.9848H143.602V98.3527H141.027V85.9848H136.277ZM157.195 90.582L153.041 83.925H150.297L155.845 92.8182V98.3528H158.42V92.93L158.459 92.9515L164.088 83.925H161.345L157.195 90.582ZM176.869 83.9249L181.787 90.8658L186.705 83.9249H189.281V98.3527H186.705V87.4943L182.633 93.2395H180.942L176.869 87.4943V98.3527H174.294V83.9249H176.869ZM280.446 83.9249V94.7834L272.75 83.9249H270.175V98.3527H272.75V87.4943L280.446 98.3527H283.021V83.9249H280.446ZM198.246 83.9251L192.155 98.3486L194.829 98.3443L196.115 95.132H202.814L204.099 98.3443L206.774 98.3486L200.678 83.9251H198.246ZM196.939 93.0763L199.462 86.7634L201.985 93.0763H196.939ZM209.999 83.9249H215.481C219.52 83.9249 222.793 86.9782 222.793 91.1366C222.793 95.2952 219.52 98.3484 215.481 98.3484H209.999V83.9249ZM212.574 96.2929H215.481C218.031 96.2929 220.171 94.4996 220.171 91.1366C220.171 87.7738 218.031 85.9848 215.481 85.9848H212.574V96.2929ZM131.077 91.9452H131.059C132.871 91.4033 134.191 89.9197 134.191 87.8943C134.191 85.5075 132.069 83.9207 129.498 83.9207H125.343H122.768V92.1689V98.3442H125.343V92.1774H126.94C130.365 92.2763 131.78 96.6499 131.78 98.3528H134.536C133.566 92.9945 131.077 91.9452 131.077 91.9452ZM129.498 90.2939H125.343V85.9032H129.498C130.714 85.9032 131.698 86.8879 131.698 88.0964C131.698 89.3134 130.714 90.2939 129.498 90.2939ZM243.438 85.628C240.716 85.628 240.41 87.2664 240.41 87.6449C240.41 89.0322 242.066 89.4142 243.96 89.8513C246.492 90.4358 249.452 91.1186 249.452 94.4351C249.452 97.2347 246.29 98.6066 243.706 98.6066C240.932 98.6066 237.571 96.8305 237.571 93.4547H240.126L240.132 93.4958C240.269 94.2821 240.664 96.5724 243.71 96.5724C246.432 96.5724 247.076 95.3555 247.076 94.6287C247.076 92.9544 245.342 92.5802 243.408 92.1625C240.966 91.6351 238.201 91.0383 238.201 87.6663C238.201 84.8711 240.855 83.6884 243.438 83.6626C246.342 83.6325 249.211 85.228 249.211 88.5651H246.726C246.717 88.5098 246.708 88.4466 246.698 88.377C246.575 87.505 246.311 85.628 243.438 85.628Z" fill="#1B1B1B"/>
</g>
</g>
</g>
</g>
</g>
<g clip-path="url(#clip3_63_500)">
<g clip-path="url(#clip4_63_500)">
<g clip-path="url(#clip5_63_500)">
<mask id="mask1_63_500" style="mask-type:luminance" maskUnits="userSpaceOnUse" x="78" y="61" width="205" height="61">
<path d="M282.42 61.0339H78.4736V121.24H282.42V61.0339Z" fill="white"/>
</mask>
<g mask="url(#mask1_63_500)">
<g opacity="0.85">
<path fill-rule="evenodd" clip-rule="evenodd" d="M252.46 91.1368C252.46 86.9826 255.734 83.6111 259.772 83.6111C263.81 83.6111 267.084 86.9826 267.084 91.1368C267.084 95.291 263.81 98.6625 259.772 98.6625C255.734 98.6625 252.46 95.291 252.46 91.1368ZM255.16 91.1368C255.16 94.4997 257.223 96.4607 259.772 96.4607C262.317 96.4607 264.383 94.4997 264.383 91.1368C264.383 87.7738 262.317 85.8129 259.772 85.8129C257.227 85.8129 255.16 87.7738 255.16 91.1368ZM102.959 90.1088H96.0828V83.9249H93.5074V98.3527H96.0828V92.1688H102.959V98.3527H105.535V83.9249H102.959V90.1088ZM78.4736 85.9848H83.2275V98.3528H85.7986V85.9848H90.5525V83.925H78.4736V85.9848ZM109.636 85.9848V83.9249H118.678V85.9848H115.443V96.2929H118.678V98.3527H109.636V96.2929H112.867V85.9848H109.636ZM225.219 83.925V85.9848H228.454V96.2929H225.219V98.3528H234.261V96.2929H231.029V85.9848H234.261V83.925H225.219ZM136.277 85.9848V83.9249H148.356V85.9848H143.602V98.3527H141.027V85.9848H136.277ZM157.195 90.582L153.041 83.925H150.297L155.845 92.8182V98.3528H158.42V92.93L158.459 92.9515L164.088 83.925H161.345L157.195 90.582ZM176.869 83.9249L181.787 90.8658L186.705 83.9249H189.281V98.3527H186.705V87.4943L182.633 93.2395H180.942L176.869 87.4943V98.3527H174.294V83.9249H176.869ZM280.446 83.9249V94.7834L272.75 83.9249H270.175V98.3527H272.75V87.4943L280.446 98.3527H283.021V83.9249H280.446ZM198.246 83.9251L192.155 98.3486L194.829 98.3443L196.115 95.132H202.814L204.099 98.3443L206.774 98.3486L200.678 83.9251H198.246ZM196.939 93.0763L199.462 86.7634L201.985 93.0763H196.939ZM209.999 83.9249H215.481C219.52 83.9249 222.793 86.9782 222.793 91.1366C222.793 95.2952 219.52 98.3484 215.481 98.3484H209.999V83.9249ZM212.574 96.2929H215.481C218.031 96.2929 220.171 94.4996 220.171 91.1366C220.171 87.7738 218.031 85.9848 215.481 85.9848H212.574V96.2929ZM131.077 91.9452H131.059C132.871 91.4033 134.191 89.9197 134.191 87.8943C134.191 85.5075 132.069 83.9207 129.498 83.9207H125.343H122.768V92.1689V98.3442H125.343V92.1774H126.94C130.365 92.2763 131.78 96.6499 131.78 98.3528H134.536C133.566 92.9945 131.077 91.9452 131.077 91.9452ZM129.498 90.2939H125.343V85.9032H129.498C130.714 85.9032 131.698 86.8879 131.698 88.0964C131.698 89.3134 130.714 90.2939 129.498 90.2939ZM243.438 85.628C240.716 85.628 240.41 87.2664 240.41 87.6449C240.41 89.0322 242.066 89.4142 243.96 89.8513C246.492 90.4358 249.452 91.1186 249.452 94.4351C249.452 97.2347 246.29 98.6066 243.706 98.6066C240.932 98.6066 237.571 96.8305 237.571 93.4547H240.126L240.132 93.4958C240.269 94.2821 240.664 96.5724 243.71 96.5724C246.432 96.5724 247.076 95.3555 247.076 94.6287C247.076 92.9544 245.342 92.5802 243.408 92.1625C240.966 91.6351 238.201 91.0383 238.201 87.6663C238.201 84.8711 240.855 83.6884 243.438 83.6626C246.342 83.6325 249.211 85.228 249.211 88.5651H246.726C246.717 88.5098 246.708 88.4466 246.698 88.377C246.575 87.505 246.311 85.628 243.438 85.628Z" fill="#1B1B1B"/>
</g>
</g>
</g>
</g>
</g>
<defs>
<clipPath id="clip0_63_500">
<rect width="204.699" height="60.208" fill="white" transform="translate(78.0977 61.0327)"/>
</clipPath>
<clipPath id="clip1_63_500">
<rect width="204.699" height="60.208" fill="white" transform="translate(78.0977 61.0327)"/>
</clipPath>
<clipPath id="clip2_63_500">
<rect width="204.699" height="60.2056" fill="white" transform="translate(78.0977 61.0339)"/>
</clipPath>
<clipPath id="clip3_63_500">
<rect width="204.699" height="60.208" fill="white" transform="translate(78.0977 61.0327)"/>
</clipPath>
<clipPath id="clip4_63_500">
<rect width="204.699" height="60.208" fill="white" transform="translate(78.0977 61.0327)"/>
</clipPath>
<clipPath id="clip5_63_500">
<rect width="204.699" height="60.2056" fill="white" transform="translate(78.0977 61.0339)"/>
</clipPath>
</defs>
</svg>
