<svg width="361" height="182" viewBox="0 0 361 182" fill="none" xmlns="http://www.w3.org/2000/svg">
<rect x="0.681641" y="0.846191" width="359.06" height="180.449" rx="7.5" stroke="#E8EEF4"/>
<g clip-path="url(#clip0_63_759)">
<g clip-path="url(#clip1_63_759)">
<g opacity="0.85">
<path d="M151.781 90.2751C151.677 92.5275 150.109 95.6111 147.071 99.5261C143.932 103.615 141.275 105.66 139.103 105.66C137.758 105.66 136.618 104.415 135.688 101.925C135.067 99.6425 134.446 97.3602 133.825 95.0778C133.133 92.5888 132.392 91.3431 131.6 91.3431C131.427 91.3431 130.822 91.7074 129.787 92.4323L128.701 91.0276C129.841 90.0247 130.965 89.0206 132.071 88.0165C133.591 86.7007 134.732 86.0083 135.492 85.9382C137.289 85.7654 138.396 86.9961 138.811 89.6303C139.259 92.4736 139.569 94.2414 139.744 94.9325C140.263 97.2913 140.832 98.4694 141.455 98.4694C141.939 98.4694 142.664 97.7045 143.633 96.1745C144.599 94.6446 145.118 93.4802 145.188 92.6802C145.325 91.3593 144.808 90.6983 143.633 90.6983C143.079 90.6983 142.51 90.826 141.924 91.0776C143.059 87.353 145.228 85.5439 148.428 85.6478C150.799 85.7191 151.917 87.2603 151.781 90.2751Z" fill="#1B1B1B"/>
<path d="M166.032 97.5703C165.063 99.4032 163.733 101.065 162.04 102.552C159.722 104.559 157.408 105.562 155.093 105.562C154.02 105.562 153.199 105.216 152.629 104.524C152.059 103.831 151.792 102.934 151.827 101.826C151.86 100.685 152.214 98.9199 152.889 96.5324C153.563 94.1449 153.902 92.864 153.902 92.6913C153.902 91.7923 153.589 91.3416 152.968 91.3416C152.76 91.3416 152.173 91.7059 151.204 92.4309L150.012 91.0287C151.118 90.0258 152.224 89.0217 153.33 88.0176C154.816 86.7017 155.923 86.0094 156.65 85.9393C157.79 85.8366 158.628 86.1709 159.164 86.9484C159.699 87.7259 159.897 88.7337 159.761 89.9744C159.311 92.0791 158.826 94.752 158.308 97.9935C158.272 99.4783 158.809 100.218 159.915 100.218C160.399 100.218 161.262 99.7075 162.507 98.6808C163.543 97.8282 164.391 97.0244 165.048 96.2719L166.032 97.5703ZM161.521 79.1009C161.486 79.9635 161.055 80.7898 160.224 81.5823C159.29 82.4776 158.184 82.9258 156.905 82.9258C154.935 82.9258 153.984 82.0656 154.054 80.3429C154.088 79.4477 154.614 78.5851 155.634 77.7588C156.655 76.9324 157.786 76.5181 159.031 76.5181C159.757 76.5181 160.361 76.8035 160.846 77.3706C161.33 77.9403 161.555 78.5174 161.521 79.1009Z" fill="#1B1B1B"/>
<path d="M198.412 97.57C197.443 99.4029 196.113 101.064 194.419 102.552C192.103 104.559 189.787 105.561 187.472 105.561C185.224 105.561 184.136 104.317 184.205 101.824C184.239 100.716 184.455 99.3854 184.852 97.8279C185.25 96.2705 185.466 95.0598 185.501 94.1947C185.536 92.8801 185.137 92.2215 184.304 92.2215C183.402 92.2215 182.327 93.2957 181.079 95.4416C179.76 97.6927 179.049 99.8737 178.945 101.985C178.875 103.474 179.021 104.617 179.381 105.413C176.969 105.483 175.279 105.083 174.315 104.218C173.452 103.456 173.057 102.194 173.125 100.427C173.159 99.3191 173.328 98.2111 173.634 97.103C173.939 95.995 174.108 95.0085 174.143 94.142C174.213 92.8613 173.744 92.2203 172.742 92.2203C171.876 92.2203 170.941 93.2081 169.937 95.1812C168.933 97.1544 168.38 99.2152 168.276 101.361C168.206 103.3 168.331 104.65 168.647 105.411C166.275 105.481 164.59 104.981 163.592 103.909C162.765 103.012 162.387 101.649 162.457 99.8187C162.491 98.9222 162.649 97.6689 162.934 96.0639C163.219 94.4576 163.377 93.2081 163.411 92.3091C163.48 91.6881 163.324 91.3777 162.945 91.3777C162.737 91.3777 162.15 91.7283 161.181 92.4281L159.938 91.0259C160.11 90.8894 161.199 89.8841 163.205 88.0148C164.656 86.6652 165.641 85.9741 166.16 85.939C167.058 85.8689 167.785 86.2408 168.337 87.0546C168.889 87.8684 169.167 88.8124 169.167 89.8853C169.167 90.2308 169.132 90.5602 169.065 90.8719C169.583 90.0769 170.187 89.3832 170.879 88.7936C172.469 87.4101 174.249 86.6289 176.219 86.4561C177.913 86.3184 179.123 86.7152 179.85 87.6505C180.436 88.413 180.713 89.5034 180.679 90.9232C180.921 90.7166 181.18 90.4913 181.458 90.2484C182.251 89.3132 183.029 88.5694 183.79 88.0161C185.069 87.0808 186.401 86.5626 187.782 86.4573C189.441 86.3196 190.633 86.7152 191.359 87.6467C191.981 88.4055 192.258 89.4922 192.189 90.9056C192.154 91.8722 191.921 93.2782 191.489 95.1237C191.056 96.9691 190.841 98.0283 190.841 98.305C190.806 99.0298 190.876 99.5294 191.048 99.8061C191.221 100.083 191.634 100.219 192.292 100.219C192.776 100.219 193.638 99.7085 194.884 98.6818C195.92 97.8292 196.768 97.0254 197.425 96.273L198.412 97.57Z" fill="#1B1B1B"/>
<path d="M217.854 97.5164C216.851 99.1765 214.882 100.835 211.944 102.494C208.28 104.604 204.563 105.657 200.797 105.657C197.997 105.657 195.991 104.722 194.781 102.854C193.917 101.573 193.502 100.05 193.537 98.2838C193.571 95.4807 194.816 92.8152 197.271 90.2874C199.967 87.5192 203.146 86.1333 206.81 86.1333C210.198 86.1333 211.995 87.5155 212.203 90.2786C212.34 92.0389 211.373 93.8531 209.299 95.7186C207.085 97.7568 204.302 99.0514 200.951 99.6034C201.572 100.467 202.505 100.898 203.751 100.898C206.239 100.898 208.952 100.265 211.891 98.9963C213.998 98.1048 215.658 97.1796 216.868 96.2206L217.854 97.5164ZM206.085 92.094C206.119 91.165 205.74 90.6993 204.945 90.6993C203.909 90.6993 202.857 91.4141 201.788 92.844C200.718 94.2737 200.166 95.6422 200.132 96.9505C200.112 96.9505 200.112 97.1746 200.132 97.6228C201.823 97.0031 203.289 96.0566 204.532 94.782C205.531 93.6803 206.051 92.7839 206.085 92.094Z" fill="#1B1B1B"/>
<path d="M231.93 94.0358C231.791 97.2171 230.616 99.9652 228.404 102.281C226.191 104.598 223.442 105.756 220.159 105.756C217.43 105.756 215.355 104.874 213.938 103.11C212.902 101.797 212.331 100.156 212.227 98.1849C212.053 95.2114 213.124 92.4796 215.442 89.9906C217.931 87.225 221.058 85.8428 224.825 85.8428C227.243 85.8428 229.075 86.6566 230.321 88.2803C231.498 89.7678 232.032 91.6858 231.93 94.0358ZM226.07 93.8393C226.105 92.9027 225.975 92.0439 225.681 91.2639C225.388 90.4839 224.963 90.092 224.412 90.092C222.648 90.092 221.197 91.0473 220.057 92.9541C219.087 94.5153 218.568 96.1804 218.5 97.9483C218.466 98.8159 218.622 99.5796 218.967 100.238C219.346 101.002 219.881 101.382 220.574 101.382C222.129 101.382 223.46 100.465 224.567 98.6243C225.5 97.0994 226.001 95.5044 226.07 93.8393Z" fill="#1B1B1B"/>
</g>
</g>
</g>
<g clip-path="url(#clip2_63_759)">
<g clip-path="url(#clip3_63_759)">
<g opacity="0.85">
<path d="M151.781 90.2751C151.677 92.5275 150.109 95.6111 147.071 99.5261C143.932 103.615 141.275 105.66 139.103 105.66C137.758 105.66 136.618 104.415 135.688 101.925C135.067 99.6425 134.446 97.3602 133.825 95.0778C133.133 92.5888 132.392 91.3431 131.6 91.3431C131.427 91.3431 130.822 91.7074 129.787 92.4323L128.701 91.0276C129.841 90.0247 130.965 89.0206 132.071 88.0165C133.591 86.7007 134.732 86.0083 135.492 85.9382C137.289 85.7654 138.396 86.9961 138.811 89.6303C139.259 92.4736 139.569 94.2414 139.744 94.9325C140.263 97.2913 140.832 98.4694 141.455 98.4694C141.939 98.4694 142.664 97.7045 143.633 96.1745C144.599 94.6446 145.118 93.4802 145.188 92.6802C145.325 91.3593 144.808 90.6983 143.633 90.6983C143.079 90.6983 142.51 90.826 141.924 91.0776C143.059 87.353 145.228 85.5439 148.428 85.6478C150.799 85.7191 151.917 87.2603 151.781 90.2751Z" fill="#1B1B1B"/>
<path d="M166.032 97.5703C165.063 99.4032 163.733 101.065 162.04 102.552C159.722 104.559 157.408 105.562 155.093 105.562C154.02 105.562 153.199 105.216 152.629 104.524C152.059 103.831 151.792 102.934 151.827 101.826C151.86 100.685 152.214 98.9199 152.889 96.5324C153.563 94.1449 153.902 92.864 153.902 92.6913C153.902 91.7923 153.589 91.3416 152.968 91.3416C152.76 91.3416 152.173 91.7059 151.204 92.4309L150.012 91.0287C151.118 90.0258 152.224 89.0217 153.33 88.0176C154.816 86.7017 155.923 86.0094 156.65 85.9393C157.79 85.8366 158.628 86.1709 159.164 86.9484C159.699 87.7259 159.897 88.7337 159.761 89.9744C159.311 92.0791 158.826 94.752 158.308 97.9935C158.272 99.4783 158.809 100.218 159.915 100.218C160.399 100.218 161.262 99.7075 162.507 98.6808C163.543 97.8282 164.391 97.0244 165.048 96.2719L166.032 97.5703ZM161.521 79.1009C161.486 79.9635 161.055 80.7898 160.224 81.5823C159.29 82.4776 158.184 82.9258 156.905 82.9258C154.935 82.9258 153.984 82.0656 154.054 80.3429C154.088 79.4477 154.614 78.5851 155.634 77.7588C156.655 76.9324 157.786 76.5181 159.031 76.5181C159.757 76.5181 160.361 76.8035 160.846 77.3706C161.33 77.9403 161.555 78.5174 161.521 79.1009Z" fill="#1B1B1B"/>
<path d="M198.412 97.57C197.443 99.4029 196.113 101.064 194.419 102.552C192.103 104.559 189.787 105.561 187.472 105.561C185.224 105.561 184.136 104.317 184.205 101.824C184.239 100.716 184.455 99.3854 184.852 97.8279C185.25 96.2705 185.466 95.0598 185.501 94.1947C185.536 92.8801 185.137 92.2215 184.304 92.2215C183.402 92.2215 182.327 93.2957 181.079 95.4416C179.76 97.6927 179.049 99.8737 178.945 101.985C178.875 103.474 179.021 104.617 179.381 105.413C176.969 105.483 175.279 105.083 174.315 104.218C173.452 103.456 173.057 102.194 173.125 100.427C173.159 99.3191 173.328 98.2111 173.634 97.103C173.939 95.995 174.108 95.0085 174.143 94.142C174.213 92.8613 173.744 92.2203 172.742 92.2203C171.876 92.2203 170.941 93.2081 169.937 95.1812C168.933 97.1544 168.38 99.2152 168.276 101.361C168.206 103.3 168.331 104.65 168.647 105.411C166.275 105.481 164.59 104.981 163.592 103.909C162.765 103.012 162.387 101.649 162.457 99.8187C162.491 98.9222 162.649 97.6689 162.934 96.0639C163.219 94.4576 163.377 93.2081 163.411 92.3091C163.48 91.6881 163.324 91.3777 162.945 91.3777C162.737 91.3777 162.15 91.7283 161.181 92.4281L159.938 91.0259C160.11 90.8894 161.199 89.8841 163.205 88.0148C164.656 86.6652 165.641 85.9741 166.16 85.939C167.058 85.8689 167.785 86.2408 168.337 87.0546C168.889 87.8684 169.167 88.8124 169.167 89.8853C169.167 90.2308 169.132 90.5602 169.065 90.8719C169.583 90.0769 170.187 89.3832 170.879 88.7936C172.469 87.4101 174.249 86.6289 176.219 86.4561C177.913 86.3184 179.123 86.7152 179.85 87.6505C180.436 88.413 180.713 89.5034 180.679 90.9232C180.921 90.7166 181.18 90.4913 181.458 90.2484C182.251 89.3132 183.029 88.5694 183.79 88.0161C185.069 87.0808 186.401 86.5626 187.782 86.4573C189.441 86.3196 190.633 86.7152 191.359 87.6467C191.981 88.4055 192.258 89.4922 192.189 90.9056C192.154 91.8722 191.921 93.2782 191.489 95.1237C191.056 96.9691 190.841 98.0283 190.841 98.305C190.806 99.0298 190.876 99.5294 191.048 99.8061C191.221 100.083 191.634 100.219 192.292 100.219C192.776 100.219 193.638 99.7085 194.884 98.6818C195.92 97.8292 196.768 97.0254 197.425 96.273L198.412 97.57Z" fill="#1B1B1B"/>
<path d="M217.854 97.5164C216.851 99.1765 214.882 100.835 211.944 102.494C208.28 104.604 204.563 105.657 200.797 105.657C197.997 105.657 195.991 104.722 194.781 102.854C193.917 101.573 193.502 100.05 193.537 98.2838C193.571 95.4807 194.816 92.8152 197.271 90.2874C199.967 87.5192 203.146 86.1333 206.81 86.1333C210.198 86.1333 211.995 87.5155 212.203 90.2786C212.34 92.0389 211.373 93.8531 209.299 95.7186C207.085 97.7568 204.302 99.0514 200.951 99.6034C201.572 100.467 202.505 100.898 203.751 100.898C206.239 100.898 208.952 100.265 211.891 98.9963C213.998 98.1048 215.658 97.1796 216.868 96.2206L217.854 97.5164ZM206.085 92.094C206.119 91.165 205.74 90.6993 204.945 90.6993C203.909 90.6993 202.857 91.4141 201.788 92.844C200.718 94.2737 200.166 95.6422 200.132 96.9505C200.112 96.9505 200.112 97.1746 200.132 97.6228C201.823 97.0031 203.289 96.0566 204.532 94.782C205.531 93.6803 206.051 92.7839 206.085 92.094Z" fill="#1B1B1B"/>
<path d="M231.93 94.0358C231.791 97.2171 230.616 99.9652 228.404 102.281C226.191 104.598 223.442 105.756 220.159 105.756C217.43 105.756 215.355 104.874 213.938 103.11C212.902 101.797 212.331 100.156 212.227 98.1849C212.053 95.2114 213.124 92.4796 215.442 89.9906C217.931 87.225 221.058 85.8428 224.825 85.8428C227.243 85.8428 229.075 86.6566 230.321 88.2803C231.498 89.7678 232.032 91.6858 231.93 94.0358ZM226.07 93.8393C226.105 92.9027 225.975 92.0439 225.681 91.2639C225.388 90.4839 224.963 90.092 224.412 90.092C222.648 90.092 221.197 91.0473 220.057 92.9541C219.087 94.5153 218.568 96.1804 218.5 97.9483C218.466 98.8159 218.622 99.5796 218.967 100.238C219.346 101.002 219.881 101.382 220.574 101.382C222.129 101.382 223.46 100.465 224.567 98.6243C225.5 97.0994 226.001 95.5044 226.07 93.8393Z" fill="#1B1B1B"/>
</g>
</g>
</g>
<defs>
<clipPath id="clip0_63_759">
<rect width="114.387" height="60.208" fill="white" transform="translate(123.434 61.3789)"/>
</clipPath>
<clipPath id="clip1_63_759">
<rect width="114.387" height="60.208" fill="white" transform="translate(123.434 61.3789)"/>
</clipPath>
<clipPath id="clip2_63_759">
<rect width="114.387" height="60.208" fill="white" transform="translate(123.434 61.3789)"/>
</clipPath>
<clipPath id="clip3_63_759">
<rect width="114.387" height="60.208" fill="white" transform="translate(123.434 61.3789)"/>
</clipPath>
</defs>
</svg>
