<svg width="24" height="25" viewBox="0 0 24 25" fill="none" xmlns="http://www.w3.org/2000/svg">
<path d="M6 22.9893C7.86748 22.9893 9.43606 21.7095 9.87657 19.9791C10.0128 19.4439 10.4477 18.9893 11 18.9893H18M6 22.9893C3.79086 22.9893 2 21.1984 2 18.9893V5.98926C2 4.3324 3.34315 2.98926 5 2.98926H15C16.6569 2.98926 18 4.3324 18 5.98926V18.9893M6 22.9893H18C19.8675 22.9893 21.4361 21.7095 21.8766 19.9791C22.0128 19.4439 21.5523 18.9893 21 18.9893H18M7 10.9893L8.58579 12.575C9.36683 13.3561 10.6332 13.3561 11.4142 12.575L13 10.9893M10 12.9893V7.98926" stroke="#0086FF" stroke-width="2" stroke-linecap="round"/>
</svg>
