<svg width="24" height="25" viewBox="0 0 24 25" fill="none" xmlns="http://www.w3.org/2000/svg">
<path fill-rule="evenodd" clip-rule="evenodd" d="M7 2.91016C4.23858 2.91016 2 5.14873 2 7.91016V17.9102C2 20.6716 4.23858 22.9102 7 22.9102H17C19.7614 22.9102 22 20.6716 22 17.9102V7.91016C22 5.14873 19.7614 2.91016 17 2.91016H7ZM18 7.91016C18.5523 7.91016 19 7.46244 19 6.91016C19 6.35787 18.5523 5.91016 18 5.91016C17.4477 5.91016 17 6.35787 17 6.91016C17 7.46244 17.4477 7.91016 18 7.91016ZM17 12.9102C17 15.6716 14.7614 17.9102 12 17.9102C9.23858 17.9102 7 15.6716 7 12.9102C7 10.1487 9.23858 7.91016 12 7.91016C14.7614 7.91016 17 10.1487 17 12.9102ZM12 15.9102C13.6569 15.9102 15 14.567 15 12.9102C15 11.2533 13.6569 9.91016 12 9.91016C10.3431 9.91016 9 11.2533 9 12.9102C9 14.567 10.3431 15.9102 12 15.9102Z" fill="#1B1B1B"/>
</svg>
