<svg width="24" height="25" viewBox="0 0 24 25" fill="none" xmlns="http://www.w3.org/2000/svg">
<path fill-rule="evenodd" clip-rule="evenodd" d="M6 4.91016C6 6.01473 5.10457 6.91016 4 6.91016C2.89543 6.91016 2 6.01473 2 4.91016C2 3.80559 2.89543 2.91016 4 2.91016C5.10457 2.91016 6 3.80559 6 4.91016ZM6 9.41016V22.9102H2V9.41016H6ZM9 9.41016H13V10.2516C13.6256 10.0305 14.2987 9.91016 15 9.91016C18.3137 9.91016 21 12.5964 21 15.9102V22.9102H17V15.9102C17 14.8056 16.1046 13.9102 15 13.9102C13.8954 13.9102 13 14.8056 13 15.9102V22.9102H9V15.9102V9.41016Z" fill="#1B1B1B"/>
</svg>
