<svg width="24" height="25" viewBox="0 0 24 25" fill="none" xmlns="http://www.w3.org/2000/svg">
<path fill-rule="evenodd" clip-rule="evenodd" d="M9.31862 7.04834C8.21405 7.04834 7.31862 6.15291 7.31862 5.04834C7.31862 3.94377 8.21405 3.04834 9.31862 3.04834C10.4232 3.04834 11.3186 3.94377 11.3186 5.04834V7.04834H9.31862ZM14.6297 3.14648C13.5251 3.14648 12.6297 4.04191 12.6297 5.14648V10.1465C12.6297 11.2511 13.5251 12.1465 14.6297 12.1465C15.7342 12.1465 16.6297 11.2511 16.6297 10.1465V5.14648C16.6297 4.04191 15.7342 3.14648 14.6297 3.14648ZM19.8416 12.1465C20.9461 12.1465 21.8416 11.2511 21.8416 10.1465C21.8416 9.04191 20.9461 8.14648 19.8416 8.14648C18.737 8.14648 17.8416 9.04191 17.8416 10.1465V12.1465H19.8416ZM16.6297 20.772C16.6297 19.6674 15.7342 18.772 14.6297 18.772H12.6297V20.772C12.6297 21.8765 13.5251 22.772 14.6297 22.772C15.7342 22.772 16.6297 21.8765 16.6297 20.772ZM2.14869 15.5469C2.14869 14.4423 3.04412 13.5469 4.14869 13.5469H6.14869V15.5469C6.14869 16.6514 5.25326 17.5469 4.14869 17.5469C3.04412 17.5469 2.14869 16.6514 2.14869 15.5469ZM9.28883 13.5469C8.18426 13.5469 7.28883 14.4423 7.28883 15.5469V20.7722C7.28883 21.8767 8.18426 22.7722 9.28883 22.7722C10.3934 22.7722 11.2888 21.8767 11.2888 20.7722V15.5469C11.2888 14.4423 10.3934 13.5469 9.28883 13.5469ZM9.41871 8.14648C10.5233 8.14648 11.4187 9.04191 11.4187 10.1465C11.4187 11.2511 10.5233 12.1465 9.41871 12.1465H4.14844C3.04387 12.1465 2.14844 11.2511 2.14844 10.1465C2.14844 9.04191 3.04387 8.14648 4.14844 8.14648L9.41871 8.14648ZM21.8416 15.5469C21.8416 14.4423 20.9461 13.5469 19.8416 13.5469H14.6301C13.5256 13.5469 12.6301 14.4423 12.6301 15.5469C12.6301 16.6514 13.5256 17.5469 14.6301 17.5469H19.8416C20.9461 17.5469 21.8416 16.6514 21.8416 15.5469Z" fill="#1B1B1B"/>
</svg>
