<svg width="24" height="25" viewBox="0 0 24 25" fill="none" xmlns="http://www.w3.org/2000/svg">
<path d="M15.2863 4.91016C13.1825 4.91016 11.477 6.70102 11.477 8.91016C11.477 9.24398 11.5159 9.56825 11.5893 9.87823C9.56635 9.87823 6.51939 9.46924 3.97468 6.91976C3.6363 6.58074 3.01233 6.80741 3.0358 7.28583C3.41293 14.9728 6.70501 17.2151 8.40034 17.3546C7.3056 18.4358 5.71534 19.2893 4.11513 19.6723C3.69281 19.7734 3.58848 20.2358 4.00144 20.3701C5.14647 20.7425 6.78541 20.886 7.66759 20.9102C13.9084 20.9102 18.9809 15.6573 19.0938 9.13245C19.9131 8.5996 20.438 7.44266 20.7329 6.62307C20.8047 6.42346 20.4775 6.19088 20.2817 6.27242C19.6696 6.52723 18.8926 6.58764 18.2306 6.37196C17.532 5.47942 16.4725 4.91016 15.2863 4.91016Z" fill="#1B1B1B"/>
</svg>
